<?xml version="1.0" encoding="UTF-8" standalone="no"?>
<svg width="61px" height="53px" viewBox="0 0 61 53" version="1.1" xmlns="http://www.w3.org/2000/svg" xmlns:xlink="http://www.w3.org/1999/xlink">
    <!-- Generator: Sketch 45.2 (43514) - http://www.bohemiancoding.com/sketch -->
    <title>Add to Calendar</title>
    <desc>Created with Sketch.</desc>
    <defs></defs>
    <g id="add-to-calendar" stroke="none" stroke-width="1" fill="none" fill-rule="evenodd">
        <g id="add-to-calendar" transform="translate(-277.000000, -247.000000)">
            <g id="add-to-calendar" transform="translate(277.000000, 247.000000)">
                <path d="M46.0005,12 L2.0005,12 L2.0005,8 C2.0005,6.9 2.8995,6 4.0005,6 L12.0005,6 L12.0005,7 C12.0005,8.66 13.3405,10 15.0005,10 C16.6495,10 18.0005,8.66 18.0005,7 L18.0005,6 L30.0005,6 L30.0005,7 C30.0005,8.66 31.3405,10 33.0005,10 C34.6495,10 36.0005,8.66 36.0005,7 L36.0005,6 L44.0005,6 C45.1005,6 46.0005,6.9 46.0005,8 L46.0005,12 Z M14.0005,3 C14.0005,2.45 14.4505,2 15.0005,2 C15.5505,2 16.0005,2.45 16.0005,3 L16.0005,7 C16.0005,7.55 15.5505,8 15.0005,8 C14.4505,8 14.0005,7.55 14.0005,7 L14.0005,3 Z M32.0005,3 C32.0005,2.45 32.4505,2 33.0005,2 C33.5505,2 34.0005,2.45 34.0005,3 L34.0005,7 C34.0005,7.55 33.5505,8 33.0005,8 C32.4505,8 32.0005,7.55 32.0005,7 L32.0005,3 Z M44.0005,4 L36.0005,4 L36.0005,3 C36.0005,1.35 34.6495,0 33.0005,0 C31.3405,0 30.0005,1.35 30.0005,3 L30.0005,4 L18.0005,4 L18.0005,3 C18.0005,1.35 16.6495,0 15.0005,0 C13.3405,0 12.0005,1.35 12.0005,3 L12.0005,4 L4.0005,4 C1.7905,4 0.0005,5.8 0.0005,8 L0.0005,44 C0.0005,46.21 1.7905,48 4.0005,48 L34.8195,48 C34.1605,47.39 33.5505,46.72 33.0005,46 L4.0005,46 C2.8995,46 2.0005,45.11 2.0005,44 L2.0005,14 L46.0005,14 L46.0005,22.04 C46.6805,22.08 47.3505,22.17 48.0005,22.31 L48.0005,8 C48.0005,5.8 46.2005,4 44.0005,4 L44.0005,4 Z M39.0005,20 L33.0005,20 C32.4505,20 32.0005,20.45 32.0005,21 L32.0005,27 C32.0005,27.56 32.4505,28 33.0005,28 C33.5505,27.28 34.1605,26.61 34.8195,26 L34.0005,26 L34.0005,22 L38.0005,22 L38.0005,23.74 C38.6405,23.4 39.3105,23.1 40.0005,22.86 L40.0005,21 C40.0005,20.45 39.5505,20 39.0005,20 L39.0005,20 Z M22.0005,38 L26.0005,38 L26.0005,34 L22.0005,34 L22.0005,38 Z M27.0005,32 L21.0005,32 C20.4505,32 20.0005,32.45 20.0005,33 L20.0005,39 C20.0005,39.56 20.4505,40 21.0005,40 L27.0005,40 C27.5505,40 28.0005,39.56 28.0005,39 L28.0005,33 C28.0005,32.45 27.5505,32 27.0005,32 L27.0005,32 Z M22.0005,26 L26.0005,26 L26.0005,22 L22.0005,22 L22.0005,26 Z M27.0005,20 L21.0005,20 C20.4505,20 20.0005,20.45 20.0005,21 L20.0005,27 C20.0005,27.56 20.4505,28 21.0005,28 L27.0005,28 C27.5505,28 28.0005,27.56 28.0005,27 L28.0005,21 C28.0005,20.45 27.5505,20 27.0005,20 L27.0005,20 Z M10.0005,38 L14.0005,38 L14.0005,34 L10.0005,34 L10.0005,38 Z M15.0005,32 L9.0005,32 C8.4505,32 8.0005,32.45 8.0005,33 L8.0005,39 C8.0005,39.56 8.4505,40 9.0005,40 L15.0005,40 C15.5505,40 16.0005,39.56 16.0005,39 L16.0005,33 C16.0005,32.45 15.5505,32 15.0005,32 L15.0005,32 Z M10.0005,26 L14.0005,26 L14.0005,22 L10.0005,22 L10.0005,26 Z M15.0005,20 L9.0005,20 C8.4505,20 8.0005,20.45 8.0005,21 L8.0005,27 C8.0005,27.56 8.4505,28 9.0005,28 L15.0005,28 C15.5505,28 16.0005,27.56 16.0005,27 L16.0005,21 C16.0005,20.45 15.5505,20 15.0005,20 L15.0005,20 Z" id="Fill-1" fill="currentColor"></path>
                <path d="M44.9966,22 C36.7306,22 30.0006,28.725 30.0006,36.997 C30.0006,45.27 36.7306,52 44.9966,52 C53.2686,52 60.0006,45.27 60.0006,36.997 C60.0006,28.725 53.2686,22 44.9966,22 Z" id="Stroke-3" stroke="currentColor" stroke-width="2"></path>
                <path d="M51.8198,34.9502 C52.1118,34.9502 52.3508,35.1892 52.3548,35.4852 L52.3548,38.5162 C52.3498,38.6632 52.2938,38.8002 52.1958,38.8972 C52.1028,38.9902 51.9658,39.0472 51.8208,39.0522 L47.0478,39.0522 L47.0508,43.8202 C47.0508,44.1122 46.8088,44.3552 46.5168,44.3552 L43.4848,44.3552 C43.1888,44.3502 42.9508,44.1122 42.9508,43.8202 L42.9458,39.0522 L38.1818,39.0522 C37.8858,39.0472 37.6468,38.8082 37.6468,38.5162 L37.6468,35.4852 C37.6428,35.1892 37.8858,34.9462 38.1818,34.9502 L42.9458,34.9502 L42.9508,30.1812 C42.9458,29.8862 43.1888,29.6422 43.4848,29.6472 L46.5168,29.6472 C46.8088,29.6472 47.0478,29.8862 47.0508,30.1812 L47.0508,34.9462 L51.8198,34.9502 Z" id="Stroke-5" stroke="currentColor" stroke-width="2"></path>
            </g>
        </g>
    </g>
</svg>