<?xml version="1.0" encoding="UTF-8" standalone="no"?>
<svg width="60px" height="45px" viewBox="0 0 60 45" version="1.1" xmlns="http://www.w3.org/2000/svg" xmlns:xlink="http://www.w3.org/1999/xlink">
    <!-- Generator: Sketch 45.2 (43514) - http://www.bohemiancoding.com/sketch -->
    <title>Advocate</title>
    <desc>Created with Sketch.</desc>
    <defs></defs>
    <g id="advocate" stroke="none" stroke-width="1" fill="none" fill-rule="evenodd">
        <g id="advocate" transform="translate(-864.000000, -555.000000)" fill="currentColor">
            <g id="advocate" transform="translate(864.000000, 555.000000)">
                <path d="M58.0005,25.3623 C58.0005,26.6643 57.1615,27.7633 56.0005,28.1773 L56.0005,19.3623 C56.0005,18.8093 55.5525,18.3623 55.0005,18.3623 C54.4475,18.3623 54.0005,18.8093 54.0005,19.3623 L54.0005,42.3623 L51.0005,42.3623 L51.0005,29.3623 C51.0005,28.8093 50.5525,28.3623 50.0005,28.3623 C49.4475,28.3623 49.0005,28.8093 49.0005,29.3623 L49.0005,42.3623 L46.0005,42.3623 L46.0005,17.3623 C46.0005,17.2023 45.9615,17.0443 45.8885,16.9023 L41.1265,7.7093 L42.2945,5.4543 L49.1235,17.8443 C49.2755,18.1203 49.5485,18.3073 49.8595,18.3523 C50.1725,18.3933 50.4845,18.2913 50.7065,18.0693 L54.3055,14.4713 L56.2775,14.9723 C57.3085,15.3133 58.0005,16.2733 58.0005,17.3623 L58.0005,25.3623 Z M34.1115,16.9023 C34.0385,17.0443 34.0005,17.2023 34.0005,17.3623 L34.0005,42.3623 L31.0005,42.3623 L31.0005,29.3623 C31.0005,28.8093 30.5525,28.3623 30.0005,28.3623 C29.4475,28.3623 29.0005,28.8093 29.0005,29.3623 L29.0005,42.3623 L26.0005,42.3623 L26.0005,17.3623 C26.0005,17.2023 25.9615,17.0443 25.8885,16.9023 L19.1175,3.8313 C18.9915,3.5953 18.9655,3.3253 19.0435,3.0703 C19.1225,2.8143 19.2945,2.6043 19.5305,2.4793 C20.0115,2.2263 20.6295,2.4153 20.8895,2.9053 L29.1235,17.8443 C29.4775,18.4823 30.5225,18.4823 30.8765,17.8443 L39.1175,2.8913 C39.3675,2.4213 39.9895,2.2263 40.4695,2.4793 C40.7055,2.6043 40.8775,2.8143 40.9565,3.0703 C41.0345,3.3253 41.0085,3.5953 40.8775,3.8413 L34.1115,16.9023 Z M14.1115,16.9023 C14.0385,17.0443 14.0005,17.2023 14.0005,17.3623 L14.0005,42.3623 L11.0005,42.3623 L11.0005,29.3623 C11.0005,28.8093 10.5525,28.3623 10.0005,28.3623 C9.4475,28.3623 9.0005,28.8093 9.0005,29.3623 L9.0005,42.3623 L6.0005,42.3623 L6.0005,19.3623 C6.0005,18.8093 5.5525,18.3623 5.0005,18.3623 C4.4475,18.3623 4.0005,18.8093 4.0005,19.3623 L4.0005,28.1773 C2.8385,27.7633 2.0005,26.6643 2.0005,25.3623 L2.0005,17.3623 C2.0005,16.2733 2.6915,15.3133 3.6555,14.9923 L5.6955,14.4713 L9.2935,18.0693 C9.5155,18.2913 9.8305,18.3933 10.1405,18.3523 C10.4515,18.3073 10.7245,18.1203 10.8765,17.8443 L17.7065,5.4553 L18.8735,7.7093 L14.1115,16.9023 Z M30.0005,12.3623 C30.6395,12.3623 31.2445,12.2303 31.8075,12.0103 L30.0005,15.2903 L28.1925,12.0103 C28.7555,12.2303 29.3605,12.3623 30.0005,12.3623 L30.0005,12.3623 Z M30.0005,4.3623 C31.6545,4.3623 33.0005,5.7083 33.0005,7.3623 C33.0005,9.0163 31.6545,10.3623 30.0005,10.3623 C28.3465,10.3623 27.0005,9.0163 27.0005,7.3623 C27.0005,5.7083 28.3465,4.3623 30.0005,4.3623 L30.0005,4.3623 Z M7.0005,7.3623 C7.0005,5.7083 8.3465,4.3623 10.0005,4.3623 C11.6545,4.3623 13.0005,5.7083 13.0005,7.3623 C13.0005,9.0163 11.6545,10.3623 10.0005,10.3623 C8.3465,10.3623 7.0005,9.0163 7.0005,7.3623 L7.0005,7.3623 Z M50.0005,4.3623 C51.6545,4.3623 53.0005,5.7083 53.0005,7.3623 C53.0005,9.0163 51.6545,10.3623 50.0005,10.3623 C48.3465,10.3623 47.0005,9.0163 47.0005,7.3623 C47.0005,5.7083 48.3465,4.3623 50.0005,4.3623 L50.0005,4.3623 Z M56.8395,13.0543 L54.2475,12.3933 C53.9055,12.3053 53.5435,12.4053 53.2935,12.6553 L50.2335,15.7143 L48.1925,12.0103 C48.7545,12.2303 49.3605,12.3623 50.0005,12.3623 C52.7565,12.3623 55.0005,10.1193 55.0005,7.3623 C55.0005,4.6053 52.7565,2.3623 50.0005,2.3623 C47.5735,2.3623 45.5485,4.1003 45.0985,6.3963 L42.6555,1.9663 C42.6525,1.9623 42.6485,1.9553 42.6465,1.9503 C42.6405,1.9383 42.6325,1.9273 42.6265,1.9163 C42.5735,1.8273 42.4965,1.7173 42.4965,1.7173 L42.4935,1.7193 C42.2225,1.3033 41.8585,0.9533 41.4075,0.7143 C40.9755,0.4833 40.4885,0.3623 40.0015,0.3623 C38.8885,0.3623 37.8725,0.9713 37.3585,1.9393 L34.9015,6.3953 C34.4505,4.1003 32.4265,2.3623 30.0005,2.3623 C27.5735,2.3623 25.5495,4.1003 25.0985,6.3963 L22.6485,1.9533 C22.1275,0.9713 21.1125,0.3623 19.9985,0.3623 C19.5115,0.3623 19.0245,0.4833 18.5925,0.7143 C18.1405,0.9533 17.7775,1.3043 17.5055,1.7203 L17.5025,1.7183 C17.5025,1.7183 17.4015,1.8613 17.3635,1.9313 C17.3605,1.9343 17.3595,1.9373 17.3575,1.9413 L14.9015,6.3953 C14.4505,4.1003 12.4265,2.3623 10.0005,2.3623 C7.2435,2.3623 5.0005,4.6053 5.0005,7.3623 C5.0005,10.1193 7.2435,12.3623 10.0005,12.3623 C10.6395,12.3623 11.2445,12.2303 11.8075,12.0103 L9.7675,15.7143 L6.7065,12.6553 C6.4565,12.4053 6.0935,12.3053 5.7525,12.3933 L3.0945,13.0743 C1.2435,13.6853 0.0005,15.4093 0.0005,17.3623 L0.0005,25.3623 C0.0005,27.7763 1.7215,29.7963 4.0005,30.2603 L4.0005,43.3623 C4.0005,43.9143 4.4475,44.3623 5.0005,44.3623 L15.0005,44.3623 C15.5525,44.3623 16.0005,43.9143 16.0005,43.3623 L16.0005,17.6053 L20.0005,9.8833 L24.0005,17.6053 L24.0005,43.3623 C24.0005,43.9143 24.4475,44.3623 25.0005,44.3623 L35.0005,44.3623 C35.5525,44.3623 36.0005,43.9143 36.0005,43.3623 L36.0005,17.6053 L40.0005,9.8833 L44.0005,17.6053 L44.0005,43.3623 C44.0005,43.9143 44.4475,44.3623 45.0005,44.3623 L55.0005,44.3623 C55.5525,44.3623 56.0005,43.9143 56.0005,43.3623 L56.0005,30.2603 C58.2795,29.7963 60.0005,27.7763 60.0005,25.3623 L60.0005,17.3623 C60.0005,15.4093 58.7565,13.6853 56.8395,13.0543 L56.8395,13.0543 Z" id="Fill-1"></path>
            </g>
        </g>
    </g>
</svg>