<?xml version="1.0" encoding="UTF-8" standalone="no"?>
<svg width="40px" height="52px" viewBox="0 0 40 52" version="1.1" xmlns="http://www.w3.org/2000/svg" xmlns:xlink="http://www.w3.org/1999/xlink">
    <!-- Generator: Sketch 45.2 (43514) - http://www.bohemiancoding.com/sketch -->
    <title>Alert</title>
    <desc>Created with Sketch.</desc>
    <defs></defs>
    <g id="alert" stroke="none" stroke-width="1" fill="none" fill-rule="evenodd">
        <g id="alert" transform="translate(-1067.000000, -247.000000)" fill="currentColor">
            <g id="alert" transform="translate(1067.000000, 247.000000)">
                <path d="M38,44 L2,44 L2,39.405 C4.547,36.704 6,33.062 6,29.343 L6,20 C6,13.022 11.216,7.063 18.133,6.14 C18.629,6.074 19,5.65 19,5.149 L19,3 C19,2.449 19.448,2 20,2 C20.552,2 21,2.449 21,3 L21,5.148 C21,5.65 21.37,6.074 21.866,6.14 C28.784,7.063 34,13.022 34,20 L34,29.343 C34,33.062 35.453,36.704 38,39.405 L38,44 Z M20,50 C17.586,50 15.565,48.279 15.102,45.999 L24.898,45.999 C24.435,48.279 22.414,50 20,50 L20,50 Z M36,29.343 L36,20 C36,12.319 30.471,5.718 23,4.298 L23,3 C23,1.346 21.654,0 20,0 C18.346,0 17,1.346 17,3.001 L17.001,4.298 C9.529,5.718 4,12.319 4,20 L4,29.343 C4,32.675 2.648,35.937 0.293,38.293 C0.105,38.48 0,38.735 0,39 L0,45 C0,45.553 0.447,46 1,45.999 L13.08,45.999 C13.567,49.387 16.48,52 20,52 C23.52,52 26.433,49.387 26.92,45.999 L39,45.999 C39.553,46 40,45.553 40,45 L40,39 C40,38.735 39.895,38.48 39.707,38.293 C37.352,35.937 36,32.675 36,29.343 L36,29.343 Z" id="Fill-1"></path>
            </g>
        </g>
    </g>
</svg>