<?xml version="1.0" encoding="UTF-8" standalone="no"?>
<svg width="57px" height="41px" viewBox="0 0 57 41" version="1.1" xmlns="http://www.w3.org/2000/svg" xmlns:xlink="http://www.w3.org/1999/xlink">
    <!-- Generator: Sketch 43.2 (39069) - http://www.bohemiancoding.com/sketch -->
    <title>Ambulance</title>
    <desc>Created with Sketch.</desc>
    <defs></defs>
    <g id="eHealth-line-icon-06302017" stroke="none" stroke-width="1" fill="none" fill-rule="evenodd">
        <g id="eHealth-Healthcare-Icons-2017" transform="translate(-867.000000, -259.000000)" fill="currentColor">
            <g id="Ambulance" transform="translate(867.000000, 259.000000)">
                <path d="M21.4777,11.786 C21.2017,11.307 20.5887,11.142 20.1117,11.42 L17.2807,13.054 L17.2807,9.786 C17.2807,9.233 16.8327,8.786 16.2807,8.786 C15.7287,8.786 15.2807,9.233 15.2807,9.786 L15.2807,13.054 L12.4507,11.42 C11.9707,11.142 11.3607,11.307 11.0837,11.786 C10.8087,12.265 10.9717,12.876 11.4507,13.152 L14.2807,14.786 L11.4517,16.42 C10.9727,16.696 10.8087,17.307 11.0847,17.786 C11.2707,18.107 11.6067,18.286 11.9527,18.286 C12.1217,18.286 12.2937,18.243 12.4517,18.152 L15.2807,16.518 L15.2807,19.786 C15.2807,20.339 15.7287,20.786 16.2807,20.786 C16.8327,20.786 17.2807,20.339 17.2807,19.786 L17.2807,16.518 L20.1107,18.152 C20.2687,18.243 20.4407,18.286 20.6097,18.286 C20.9557,18.286 21.2907,18.107 21.4767,17.786 C21.7527,17.307 21.5887,16.696 21.1107,16.42 L18.2817,14.786 L21.1117,13.152 C21.5897,12.876 21.7537,12.265 21.4777,11.786 L21.4777,11.786 Z M52.2807,26.785 L54.2807,26.785 L54.2807,28.786 L2.2807,28.786 L2.2807,4.786 C2.2807,3.683 3.1777,2.786 4.2807,2.785 L30.2807,2.785 C31.3837,2.786 32.2807,3.683 32.2807,4.786 L32.2807,7.786 C32.2807,8.339 32.7287,8.786 33.2807,8.785 L41.6627,8.785 L42.6627,10.786 L35.2807,10.786 C34.7287,10.786 34.2807,11.233 34.2807,11.786 L34.2807,17.786 C34.2807,18.339 34.7287,18.786 35.2807,18.785 L47.0437,18.785 L52.1497,21.339 C53.4447,21.986 54.2807,23.339 54.2807,24.786 L52.2807,24.786 C51.7287,24.786 51.2807,25.233 51.2807,25.786 C51.2807,26.339 51.7287,26.786 52.2807,26.785 L52.2807,26.785 Z M54.2807,32.786 C54.2807,33.889 53.3837,34.786 52.2807,34.786 L50.2807,34.786 C50.2807,33.249 49.6957,31.848 48.7407,30.785 L54.2807,30.785 L54.2807,32.786 Z M44.2807,38.786 C42.0757,38.786 40.2807,36.992 40.2807,34.786 C40.2807,32.58 42.0757,30.786 44.2807,30.786 C46.4867,30.786 48.2807,32.58 48.2807,34.786 C48.2807,36.992 46.4867,38.786 44.2807,38.786 L44.2807,38.786 Z M38.2807,34.786 L20.2807,34.786 C20.2807,33.249 19.6957,31.848 18.7407,30.785 L39.8217,30.785 C38.8667,31.848 38.2807,33.249 38.2807,34.786 L38.2807,34.786 Z M14.2807,38.786 C12.0757,38.786 10.2807,36.992 10.2807,34.786 C10.2807,32.58 12.0757,30.786 14.2807,30.786 C16.4867,30.786 18.2807,32.58 18.2807,34.786 C18.2807,36.992 16.4867,38.786 14.2807,38.786 L14.2807,38.786 Z M8.2807,34.786 L3.2807,34.786 C2.7297,34.786 2.2807,34.338 2.2807,33.786 L2.2807,30.785 L9.8217,30.785 C8.8667,31.848 8.2807,33.249 8.2807,34.786 L8.2807,34.786 Z M38.2807,5.786 C38.2807,5.234 38.7297,4.786 39.2807,4.786 C39.8317,4.786 40.2807,5.234 40.2807,5.786 L40.2807,6.786 L38.2807,6.786 L38.2807,5.786 Z M43.6627,12.785 L45.6627,16.786 L36.2807,16.786 L36.2807,12.785 L43.6627,12.785 Z M53.0437,19.55 L48.0257,17.041 L43.1747,7.339 C43.0057,7 42.6597,6.786 42.2807,6.786 L42.2807,5.786 C42.2807,4.132 40.9347,2.786 39.2807,2.786 C37.6257,2.786 36.2807,4.132 36.2807,5.786 L36.2807,6.786 L34.2807,6.786 L34.2807,4.786 C34.2807,2.58 32.4867,0.786 30.2807,0.786 L4.2807,0.786 C2.0757,0.786 0.2807,2.58 0.2807,4.786 L0.2807,33.786 C0.2807,35.44 1.6257,36.786 3.2807,36.785 L8.6307,36.785 C9.4567,39.112 11.6747,40.786 14.2807,40.786 C16.8867,40.786 19.1047,39.112 19.9307,36.785 L38.6307,36.785 C39.4567,39.112 41.6747,40.786 44.2807,40.786 C46.8867,40.786 49.1047,39.112 49.9307,36.785 L52.2807,36.785 C54.4867,36.786 56.2807,34.992 56.2807,32.786 L56.2807,24.786 C56.2807,22.588 55.0097,20.533 53.0437,19.55 L53.0437,19.55 Z" id="Fill-4"></path>
            </g>
        </g>
    </g>
</svg>