<?xml version="1.0" encoding="UTF-8" standalone="no"?>
<svg width="47px" height="50px" viewBox="0 0 47 50" version="1.1" xmlns="http://www.w3.org/2000/svg" xmlns:xlink="http://www.w3.org/1999/xlink">
    <!-- Generator: Sketch 45.2 (43514) - http://www.bohemiancoding.com/sketch -->
    <title>Attachment</title>
    <desc>Created with Sketch.</desc>
    <defs></defs>
    <g id="attachment" stroke="none" stroke-width="1" fill="none" fill-rule="evenodd" stroke-linejoin="round">
        <g id="attachment" transform="translate(-478.000000, -700.000000)" stroke="currentColor" stroke-width="2">
            <g id="attachment" transform="translate(479.000000, 701.000000)">
                <path d="M44.1602,11.5205 L35.5192,11.5205 C33.9302,11.5205 32.6392,10.2315 32.6392,8.6395 L32.6392,-0.0005" id="Stroke-3"></path>
                <path d="M1.3096,26.5302 L15.6556,12.1842 C19.1016,8.7382 24.6886,8.7382 28.1346,12.1842 C31.5806,15.6312 31.5806,21.2182 28.1346,24.6642 L10.4296,42.3702 C8.0436,44.7572 4.1756,44.7572 1.7886,42.3702 C-0.5964,39.9842 -0.5964,36.1162 1.7886,33.7302 L19.4956,16.0232 C20.8206,14.6982 22.9696,14.6982 24.2946,16.0232 C25.6216,17.3492 25.6216,19.4982 24.2946,20.8242 L9.9496,35.1702" id="Stroke-5" stroke-linecap="round"></path>
                <path d="M7.6797,43.9492 L7.6797,45.1202 C7.6797,46.7112 8.9697,48.0002 10.5597,48.0002 L41.2797,48.0002 C42.8697,48.0002 44.1597,46.7112 44.1597,45.1202 L44.1597,11.5202 L32.6397,0.0002 L10.5597,0.0002 C8.9697,0.0002 7.6797,1.2892 7.6797,2.8802 L7.6797,15.3602" id="Stroke-7" stroke-linecap="round"></path>
            </g>
        </g>
    </g>
</svg>