<?xml version="1.0" encoding="UTF-8" standalone="no"?>
<svg width="51px" height="51px" viewBox="0 0 51 51" version="1.1" xmlns="http://www.w3.org/2000/svg" xmlns:xlink="http://www.w3.org/1999/xlink">
    <!-- Generator: Sketch 45.2 (43514) - http://www.bohemiancoding.com/sketch -->
    <title>Ban-bold</title>
    <desc>Created with Sketch.</desc>
    <defs></defs>
    <g id="eHealth-line-icon-06302017" stroke="none" stroke-width="1" fill="none" fill-rule="evenodd" stroke-linejoin="round">
        <g id="eHealth-General-Line-Icons-2017-4" transform="translate(-576.000000, -399.000000)" stroke="currentColor" stroke-width="2">
            <g id="Ban-bold" transform="translate(577.000000, 400.000000)">
                <path d="M38.8068,35.127 L13.3628,9.682 C16.3678,7.502 20.0528,6.2 24.0478,6.2 C34.1208,6.2 42.2878,14.37 42.2878,24.44 C42.2878,28.436 40.9878,32.121 38.8068,35.127 Z M24.0478,42.681 C13.9758,42.681 5.8088,34.511 5.8088,24.44 C5.8088,20.444 7.1098,16.76 9.2898,13.754 L34.7348,39.199 C31.7298,41.379 28.0438,42.681 24.0478,42.681 Z M24.0478,0.44 C10.7938,0.44 0.0478,11.186 0.0478,24.44 C0.0478,37.694 10.7938,48.44 24.0478,48.44 C37.3028,48.44 48.0478,37.694 48.0478,24.44 C48.0478,11.186 37.3028,0.44 24.0478,0.44 Z" id="Stroke-1"></path>
            </g>
        </g>
    </g>
</svg>