<?xml version="1.0" encoding="UTF-8" standalone="no"?>
<svg width="49px" height="48px" viewBox="0 0 49 48" version="1.1" xmlns="http://www.w3.org/2000/svg" xmlns:xlink="http://www.w3.org/1999/xlink">
    <!-- Generator: Sketch 45.2 (43514) - http://www.bohemiancoding.com/sketch -->
    <title>Ban-filled</title>
    <desc>Created with Sketch.</desc>
    <defs>
        <polygon id="path-1" points="48.0478 48 0.0478 48 0.0478 0.0002 48.0478 0.0002"></polygon>
    </defs>
    <g id="eHealth-line-icon-06302017" stroke="none" stroke-width="1" fill="none" fill-rule="evenodd">
        <g id="eHealth-General-Line-Icons-2017-4" transform="translate(-577.000000, -544.000000)">
            <g id="Ban-filled" transform="translate(577.000000, 544.000000)">
                <mask id="mask-2" fill="white">
                    <use xlink:href="#path-1"></use>
                </mask>
                <g id="Clip-68"></g>
                <path d="M38.8078,34.6902 L13.3688,9.2402 C16.3688,7.0602 20.0578,5.7602 24.0478,5.7602 C34.1188,5.7602 42.2878,13.9302 42.2878,24.0002 C42.2878,28.0002 40.9888,31.6802 38.8078,34.6902 M24.0478,42.2402 C13.9788,42.2402 5.8078,34.0702 5.8078,24.0002 C5.8078,20.0102 7.1088,16.3202 9.2878,13.3102 L34.7388,38.7602 C31.7288,40.9402 28.0478,42.2402 24.0478,42.2402 M24.0478,0.0002 C10.7978,0.0002 0.0478,10.7502 0.0478,24.0002 C0.0478,37.2602 10.7978,48.0002 24.0478,48.0002 C37.3078,48.0002 48.0478,37.2602 48.0478,24.0002 C48.0478,10.7502 37.3078,0.0002 24.0478,0.0002" id="Fill-67" fill="currentColor" mask="url(#mask-2)"></path>
            </g>
        </g>
    </g>
</svg>