<?xml version="1.0" encoding="UTF-8" standalone="no"?>
<svg width="50px" height="52px" viewBox="0 0 50 52" version="1.1" xmlns="http://www.w3.org/2000/svg" xmlns:xlink="http://www.w3.org/1999/xlink">
    <!-- Generator: Sketch 45.2 (43514) - http://www.bohemiancoding.com/sketch -->
    <title>Birthday</title>
    <desc>Created with Sketch.</desc>
    <defs></defs>
    <g id="birthday" stroke="none" stroke-width="1" fill="none" fill-rule="evenodd">
        <g id="birthday" transform="translate(-282.000000, -699.000000)" stroke="currentColor" stroke-width="2">
            <g id="birthday" transform="translate(283.000000, 699.000000)">
                <polyline id="Stroke-1" stroke-linecap="round" stroke-linejoin="round" points="2.4199 35.5318 2.4199 50.9998 45.2469 50.9998 45.2469 35.5278"></polyline>
                <path d="M43.9297,24.7174 L4.0777,24.7174 C1.8277,24.7174 0.0077,26.5374 0.0077,28.7844 L0.0077,31.1654 L-0.0003,31.1654 C-0.0003,33.0224 1.0547,34.6154 2.5857,35.4314 C3.2627,35.7904 4.0257,36.0144 4.8437,36.0144 C6.4037,36.0144 7.7887,35.2754 8.6767,34.1314 C9.5607,35.2754 10.9507,36.0144 12.5097,36.0144 C14.0677,36.0144 15.4527,35.2754 16.3377,34.1314 C17.2267,35.2754 18.6117,36.0144 20.1667,36.0144 C21.7267,36.0144 23.1147,35.2754 23.9997,34.1314 C24.8877,35.2754 26.2717,36.0144 27.8307,36.0144 C29.3877,36.0144 30.7737,35.2754 31.6587,34.1314 C32.5447,35.2754 33.9297,36.0144 35.4907,36.0144 C37.0447,36.0144 38.4327,35.2754 39.3227,34.1314 C40.2077,35.2754 41.5907,36.0144 43.1517,36.0144 C43.9737,36.0144 44.7347,35.7904 45.4117,35.4284 C46.9297,34.6204 47.9787,33.0484 47.9967,31.2144 L47.9997,28.7844 C47.9997,26.5374 46.1777,24.7174 43.9297,24.7174 Z" id="Stroke-3"></path>
                <path d="M40.2637,12.2203 C40.2637,13.7013 39.0647,14.9023 37.5827,14.9023 C36.1017,14.9023 34.9047,13.7013 34.9047,12.2203 C34.9047,10.7413 37.0577,7.8093 37.5827,4.8393 C38.2687,7.8323 40.2637,10.7413 40.2637,12.2203 Z" id="Stroke-5" stroke-linecap="round" stroke-linejoin="round"></path>
                <path d="M37.4473,17.0797 L37.4473,24.4017" id="Stroke-7"></path>
                <path d="M13.3828,12.2203 C13.3828,13.7013 12.1828,14.9023 10.7008,14.9023 C9.2208,14.9023 8.0238,13.7013 8.0238,12.2203 C8.0238,10.7413 10.1768,7.8093 10.7008,4.8393 C11.3878,7.8323 13.3828,10.7413 13.3828,12.2203 Z" id="Stroke-9" stroke-linecap="round" stroke-linejoin="round"></path>
                <path d="M10.5654,17.0797 L10.5654,24.4017" id="Stroke-11"></path>
                <path d="M26.8232,8.3795 C26.8232,9.8605 25.6232,11.0615 24.1422,11.0615 C22.6612,11.0615 21.4642,9.8605 21.4642,8.3795 C21.4642,6.9015 23.6172,3.9705 24.1422,0.9995 C24.8282,3.9915 26.8232,6.9015 26.8232,8.3795 Z" id="Stroke-13" stroke-linecap="round" stroke-linejoin="round"></path>
                <path d="M24.0059,13.2408 L24.0059,24.4018" id="Stroke-15"></path>
            </g>
        </g>
    </g>
</svg>