<?xml version="1.0" encoding="UTF-8" standalone="no"?>
<svg width="41px" height="53px" viewBox="0 0 41 53" version="1.1" xmlns="http://www.w3.org/2000/svg" xmlns:xlink="http://www.w3.org/1999/xlink">
    <!-- Generator: Sketch 43.2 (39069) - http://www.bohemiancoding.com/sketch -->
    <title>Blood</title>
    <desc>Created with Sketch.</desc>
    <defs></defs>
    <g id="eHealth-line-icon-06302017" stroke="none" stroke-width="1" fill="none" fill-rule="evenodd">
        <g id="eHealth-Healthcare-Icons-2017" transform="translate(-483.000000, -548.000000)" fill="currentColor">
            <g id="Blood" transform="translate(483.000000, 548.000000)">
                <path d="M20.3117,44.5858 C13.6947,44.5858 8.3117,39.2028 8.3117,32.5858 C8.3117,32.0328 7.8647,31.5858 7.3117,31.5858 C6.7587,31.5858 6.3117,32.0328 6.3117,32.5858 C6.3117,40.3058 12.5917,46.5858 20.3117,46.5858 C20.8647,46.5858 21.3117,46.1388 21.3117,45.5858 C21.3117,45.0328 20.8647,44.5858 20.3117,44.5858 M20.3117,50.5858 C10.3867,50.5858 2.3117,42.5118 2.3117,32.5858 C2.3117,21.5448 16.9367,6.3458 20.3117,2.9848 C23.6867,6.3458 38.3117,21.5448 38.3117,32.5858 C38.3117,42.5118 30.2367,50.5858 20.3117,50.5858 M20.9987,0.8588 C20.6147,0.4938 20.0087,0.4938 19.6247,0.8588 C18.8347,1.6068 0.3117,19.3088 0.3117,32.5858 C0.3117,43.6128 9.2837,52.5858 20.3117,52.5858 C31.3397,52.5858 40.3117,43.6128 40.3117,32.5858 C40.3117,19.3088 21.7887,1.6068 20.9987,0.8588" id="Fill-1"></path>
            </g>
        </g>
    </g>
</svg>