<?xml version="1.0" encoding="UTF-8" standalone="no"?>
<svg width="49px" height="53px" viewBox="0 0 49 53" version="1.1" xmlns="http://www.w3.org/2000/svg" xmlns:xlink="http://www.w3.org/1999/xlink">
    <!-- Generator: Sketch 43.2 (39069) - http://www.bohemiancoding.com/sketch -->
    <title>Brain-Mental</title>
    <desc>Created with Sketch.</desc>
    <defs></defs>
    <g id="eHealth-line-icon-06302017" stroke="none" stroke-width="1" fill="none" fill-rule="evenodd" stroke-linecap="round" stroke-linejoin="round">
        <g id="eHealth-Healthcare-Icons-2017" transform="translate(-673.000000, -399.000000)" stroke="currentColor" stroke-width="2">
            <g id="Brain-Mental" transform="translate(674.000000, 400.000000)">
                <path d="M40.9015,50.4219 L40.9015,33.2529 C44.5875,29.7869 46.9015,24.8809 46.9015,19.4219 C46.9015,8.9279 38.3955,0.4219 27.9015,0.4219 C17.4075,0.4219 8.9015,8.9279 8.9015,19.4219 C8.9015,19.4289 8.9025,19.4349 8.9025,19.4419 L1.5075,26.8869 C0.2125,28.1909 1.1305,30.4219 2.9625,30.4219 L6.9015,30.4219 L6.9015,40.4219 C6.9015,42.6309 8.6925,44.4219 10.9015,44.4219 L18.9015,44.4219 L18.9015,50.4219" id="Stroke-27"></path>
                <path d="M34.9015,50.4219 L34.9015,29.7389 C36.2575,29.0939 37.3765,28.0309 38.0805,26.7089 C40.0355,26.5899 41.6945,25.6859 42.2965,23.6429 C42.6905,22.3049 42.9015,20.8889 42.9015,19.4219 C42.9015,11.1399 36.1845,4.4219 27.9015,4.4219 C21.0425,4.4219 15.2565,9.0289 13.4695,15.3169 C12.3395,19.3019 16.4285,21.6669 20.6395,22.2759 C23.0475,22.6239 24.6145,24.7909 25.8275,26.9009 C26.8785,28.7259 28.7295,30.0309 30.9015,30.3429 L30.9015,50.4219" id="Stroke-29"></path>
            </g>
        </g>
    </g>
</svg>