<?xml version="1.0" encoding="UTF-8" standalone="no"?>
<svg width="38px" height="48px" viewBox="0 0 38 48" version="1.1" xmlns="http://www.w3.org/2000/svg" xmlns:xlink="http://www.w3.org/1999/xlink">
    <!-- Generator: Sketch 45.2 (43514) - http://www.bohemiancoding.com/sketch -->
    <title>Calculator</title>
    <desc>Created with Sketch.</desc>
    <defs></defs>
    <g id="calculator" stroke="none" stroke-width="1" fill="none" fill-rule="evenodd">
        <g id="calculator" transform="translate(-874.000000, -551.000000)" fill="currentColor">
            <g id="calculator" transform="translate(874.000000, 551.000000)">
                <path d="M30,5 C29.447,5 29,5.447 29,6 L29,10 C29,10.553 29.447,11 30,11 C30.553,11 31,10.553 31,10 L31,6 C31,5.447 30.553,5 30,5 L30,5 Z M24,42 L32,42 C32.553,42 33,41.553 33,41 C33,40.447 32.553,40 32,40 L24,40 C23.447,40 23,40.447 23,41 C23,41.553 23.447,42 24,42 L24,42 Z M24,38 L32,38 C32.553,38 33,37.553 33,37 C33,36.447 32.553,36 32,36 L24,36 C23.447,36 23,36.447 23,37 C23,37.553 23.447,38 24,38 L24,38 Z M24,24 L32,24 C32.553,24 33,23.553 33,23 C33,22.447 32.553,22 32,22 L24,22 C23.447,22 23,22.447 23,23 C23,23.553 23.447,24 24,24 L24,24 Z M6,31.999 L9,31.999 L9,35 C9,35.553 9.447,36 10,36 C10.553,36 11,35.553 11,35 L11,31.999 L14,31.999 C14.553,32 15,31.553 15,31 C15,30.447 14.553,30 14,30 L11,30 L11,27 C11,26.447 10.553,26 10,26 C9.447,26 9,26.447 9,27 L9,30 L6,30 C5.447,30 5,30.447 5,31 C5,31.553 5.447,32 6,31.999 L6,31.999 Z M36,14 L2,14 L2,4 C2,2.897 2.896,2 4,1.999 L34,1.999 C35.104,2 36,2.897 36,4 L36,14 Z M20,30 L36,30 L36,15.999 L20,15.999 L20,30 Z M36,44 C36,45.103 35.104,46 34,46 L20,46 L20,31.999 L36,31.999 L36,44 Z M18,46 L4,46 C2.896,46 2,45.103 2,44 L2,15.999 L18,15.999 L18,46 Z M34,0 L4,0 C1.795,0 0,1.794 0,4 L0,44 C0,46.206 1.795,48 4,48 L34,48 C36.205,48 38,46.206 38,44 L38,4 C38,1.794 36.205,0 34,0 L34,0 Z" id="Fill-4"></path>
            </g>
        </g>
    </g>
</svg>