<?xml version="1.0" encoding="UTF-8" standalone="no"?>
<svg width="49px" height="49px" viewBox="0 0 49 49" version="1.1" xmlns="http://www.w3.org/2000/svg" xmlns:xlink="http://www.w3.org/1999/xlink">
    <!-- Generator: Sketch 45.2 (43514) - http://www.bohemiancoding.com/sketch -->
    <title>Calendar</title>
    <desc>Created with Sketch.</desc>
    <defs></defs>
    <g id="calendar" stroke="none" stroke-width="1" fill="none" fill-rule="evenodd">
        <g id="calendar" transform="translate(-88.000000, -250.000000)" fill="currentColor">
            <g id="calendar" transform="translate(88.000000, 250.000000)">
                <path d="M34.09,38.3976 L38.09,38.3976 L38.09,34.3966 L34.09,34.3966 L34.09,38.3976 Z M33.09,40.3976 L39.09,40.3976 C39.641,40.3976 40.09,39.9506 40.09,39.3976 L40.09,33.3976 C40.09,32.8446 39.641,32.3976 39.09,32.3976 L33.09,32.3976 C32.537,32.3976 32.09,32.8446 32.09,33.3976 L32.09,39.3976 C32.09,39.9506 32.537,40.3976 33.09,40.3976 L33.09,40.3976 Z M22.09,38.3976 L26.09,38.3976 L26.09,34.3966 L22.09,34.3966 L22.09,38.3976 Z M21.09,40.3976 L27.09,40.3976 C27.641,40.3976 28.09,39.9506 28.09,39.3976 L28.09,33.3976 C28.09,32.8446 27.641,32.3976 27.09,32.3976 L21.09,32.3976 C20.537,32.3976 20.09,32.8446 20.09,33.3976 L20.09,39.3976 C20.09,39.9506 20.537,40.3976 21.09,40.3976 L21.09,40.3976 Z M10.09,38.3976 L14.09,38.3976 L14.09,34.3966 L10.09,34.3966 L10.09,38.3976 Z M9.09,40.3976 L15.09,40.3976 C15.641,40.3976 16.09,39.9506 16.09,39.3976 L16.09,33.3976 C16.09,32.8446 15.641,32.3976 15.09,32.3976 L9.09,32.3976 C8.537,32.3976 8.09,32.8446 8.09,33.3976 L8.09,39.3976 C8.09,39.9506 8.537,40.3976 9.09,40.3976 L9.09,40.3976 Z M34.09,26.3976 L38.09,26.3976 L38.09,22.3966 L34.09,22.3966 L34.09,26.3976 Z M33.09,28.3976 L39.09,28.3976 C39.641,28.3976 40.09,27.9506 40.09,27.3976 L40.09,21.3976 C40.09,20.8446 39.641,20.3976 39.09,20.3976 L33.09,20.3976 C32.537,20.3976 32.09,20.8446 32.09,21.3976 L32.09,27.3976 C32.09,27.9506 32.537,28.3976 33.09,28.3976 L33.09,28.3976 Z M22.09,26.3976 L26.09,26.3976 L26.09,22.3966 L22.09,22.3966 L22.09,26.3976 Z M21.09,28.3976 L27.09,28.3976 C27.641,28.3976 28.09,27.9506 28.09,27.3976 L28.09,21.3976 C28.09,20.8446 27.641,20.3976 27.09,20.3976 L21.09,20.3976 C20.537,20.3976 20.09,20.8446 20.09,21.3976 L20.09,27.3976 C20.09,27.9506 20.537,28.3976 21.09,28.3976 L21.09,28.3976 Z M10.09,26.3976 L14.09,26.3976 L14.09,22.3966 L10.09,22.3966 L10.09,26.3976 Z M9.09,28.3976 L15.09,28.3976 C15.641,28.3976 16.09,27.9506 16.09,27.3976 L16.09,21.3976 C16.09,20.8446 15.641,20.3976 15.09,20.3976 L9.09,20.3976 C8.537,20.3976 8.09,20.8446 8.09,21.3976 L8.09,27.3976 C8.09,27.9506 8.537,28.3976 9.09,28.3976 L9.09,28.3976 Z M46.09,12.3976 L2.09,12.3976 L2.09,8.3976 C2.09,7.2946 2.986,6.3976 4.09,6.3966 L12.09,6.3966 L12.09,7.3976 C12.09,9.0516 13.435,10.3976 15.09,10.3976 C16.744,10.3976 18.09,9.0516 18.09,7.3976 L18.09,6.3966 L30.09,6.3966 L30.09,7.3976 C30.09,9.0516 31.435,10.3976 33.09,10.3976 C34.744,10.3976 36.09,9.0516 36.09,7.3976 L36.09,6.3966 L44.09,6.3966 C45.192,6.3976 46.09,7.2946 46.09,8.3976 L46.09,12.3976 Z M46.09,44.3976 C46.09,45.5006 45.192,46.3976 44.09,46.3976 L4.09,46.3976 C2.986,46.3976 2.09,45.5006 2.09,44.3976 L2.09,14.3966 L46.09,14.3966 L46.09,44.3976 Z M14.09,3.3976 C14.09,2.8466 14.538,2.3976 15.09,2.3976 C15.64,2.3976 16.09,2.8466 16.09,3.3976 L16.09,7.3976 C16.09,7.9486 15.64,8.3976 15.09,8.3976 C14.538,8.3976 14.09,7.9486 14.09,7.3976 L14.09,3.3976 Z M32.09,3.3976 C32.09,2.8466 32.538,2.3976 33.09,2.3976 C33.64,2.3976 34.09,2.8466 34.09,3.3976 L34.09,7.3976 C34.09,7.9486 33.64,8.3976 33.09,8.3976 C32.538,8.3976 32.09,7.9486 32.09,7.3976 L32.09,3.3976 Z M44.09,4.3976 L36.09,4.3976 L36.09,3.3976 C36.09,1.7436 34.744,0.3976 33.09,0.3976 C31.435,0.3976 30.09,1.7436 30.09,3.3976 L30.09,4.3976 L18.09,4.3976 L18.09,3.3976 C18.09,1.7436 16.744,0.3976 15.09,0.3976 C13.435,0.3976 12.09,1.7436 12.09,3.3976 L12.09,4.3976 L4.09,4.3976 C1.884,4.3976 0.09,6.1926 0.09,8.3976 L0.09,44.3976 C0.09,46.6036 1.884,48.3976 4.09,48.3976 L44.09,48.3976 C46.295,48.3976 48.09,46.6036 48.09,44.3976 L48.09,8.3976 C48.09,6.1926 46.295,4.3976 44.09,4.3976 L44.09,4.3976 Z" id="Fill-19"></path>
            </g>
        </g>
    </g>
</svg>