<?xml version="1.0" encoding="UTF-8" standalone="no"?>
<svg width="49px" height="48px" viewBox="0 0 49 48" version="1.1" xmlns="http://www.w3.org/2000/svg" xmlns:xlink="http://www.w3.org/1999/xlink">
    <!-- Generator: Sketch 45.2 (43514) - http://www.bohemiancoding.com/sketch -->
    <title>Call-Outbound</title>
    <desc>Created with Sketch.</desc>
    <defs></defs>
    <g id="call-outbound" stroke="none" stroke-width="1" fill="none" fill-rule="evenodd">
        <g id="call-outbound" transform="translate(-866.000000, -848.000000)" fill="currentColor">
            <g id="call-outbound" transform="translate(866.000000, 848.000000)">
                <path d="M26.1959,20.7073 L34.1959,12.7073 C34.5869,12.3163 34.5869,11.6843 34.1959,11.2933 L30.4659,7.5623 L44.1449,4.3433 L40.9259,18.0233 L37.1959,14.2933 C36.8049,13.9023 36.1729,13.9023 35.7819,14.2933 L27.7819,22.2933 C27.3909,22.6843 27.3909,23.3163 27.7819,23.7073 C27.9769,23.9023 28.2329,24.0003 28.4889,24.0003 C28.7449,24.0003 29.0009,23.9023 29.1959,23.7073 L36.4889,16.4143 L40.7819,20.7073 C41.0379,20.9633 41.4129,21.0583 41.7619,20.9623 C42.1109,20.8623 42.3789,20.5823 42.4629,20.2283 L46.4629,3.2283 C46.5419,2.8923 46.4409,2.5373 46.1959,2.2933 C45.9509,2.0483 45.5949,1.9483 45.2589,2.0263 L28.2589,6.0263 C27.9069,6.1093 27.6259,6.3773 27.5269,6.7273 C27.4269,7.0753 27.5249,7.4503 27.7819,7.7073 L32.0749,12.0003 L24.7819,19.2933 C24.3909,19.6843 24.3909,20.3163 24.7819,20.7073 C25.1729,21.0983 25.8049,21.0983 26.1959,20.7073 M46.3549,38.0843 L45.2669,39.9493 C43.1229,43.6253 39.2589,46.0003 35.4249,46.0003 C33.9349,46.0003 32.5019,45.6523 31.1649,44.9663 C19.7239,39.0913 9.3829,28.7493 3.5019,17.3033 C0.7389,11.9283 3.8839,5.9213 8.5189,3.2193 L10.3829,2.1323 C10.5319,2.0443 10.6949,2.0003 10.8659,2.0003 C11.2229,2.0003 11.5499,2.1943 11.7169,2.5073 L17.3259,12.9193 C17.6849,13.5873 17.5619,14.4293 17.0259,14.9653 L14.1599,17.8303 C13.1849,18.8033 13.0599,20.3403 13.8689,21.4053 C17.5839,26.2983 22.1349,30.8513 27.0319,34.5713 C28.0969,35.3823 29.6969,35.2633 30.6469,34.3113 L33.5159,31.4443 C34.0429,30.9183 34.9009,30.7883 35.5619,31.1453 L45.9779,36.7493 C46.2109,36.8753 46.3789,37.0843 46.4499,37.3383 C46.5209,37.5923 46.4879,37.8563 46.3549,38.0843 M48.3769,36.7963 C48.1569,36.0163 47.6409,35.3733 46.9259,34.9883 L36.5109,29.4453 C35.0909,28.6793 33.2389,28.9533 32.1009,30.0913 L29.2319,32.8973 C29.0849,33.0453 28.8889,33.1273 28.6819,33.1273 C28.5699,33.1273 28.4029,33.1013 28.2429,32.9793 C23.4889,29.3663 19.0699,24.9463 15.4629,20.1963 C15.2559,19.9243 15.3039,19.5153 15.5749,19.2443 L18.3809,16.3793 C19.5369,15.2233 19.8019,13.4103 19.0269,11.9713 L13.4789,1.5593 C12.9609,0.5973 11.9599,0.0003 10.8659,0.0003 C10.3429,0.0003 9.8279,0.1403 9.3739,0.4033 L7.5099,1.4913 C1.3039,5.1093 -1.2391,12.4563 1.7209,18.2173 C7.7869,30.0203 18.4519,40.6863 30.2509,46.7453 C31.8729,47.5783 33.6149,48.0003 35.4249,48.0003 C39.9579,48.0003 44.4989,45.2353 46.9959,40.9563 L48.0839,39.0923 C48.4919,38.3923 48.5949,37.5763 48.3769,36.7963" id="Fill-3"></path>
            </g>
        </g>
    </g>
</svg>