<?xml version="1.0" encoding="UTF-8" standalone="no"?>
<svg width="49px" height="48px" viewBox="0 0 49 48" version="1.1" xmlns="http://www.w3.org/2000/svg" xmlns:xlink="http://www.w3.org/1999/xlink">
    <!-- Generator: Sketch 45.2 (43514) - http://www.bohemiancoding.com/sketch -->
    <title>Call-Inbound</title>
    <desc>Created with Sketch.</desc>
    <defs></defs>
    <g id="call-inbound" stroke="none" stroke-width="1" fill="none" fill-rule="evenodd">
        <g id="call-inbound" transform="translate(-1061.000000, -848.000000)" fill="currentColor">
            <g id="call-inbound" transform="translate(1061.000000, 848.000000)">
                <path d="M25.4146,24.0003 C25.4906,24.0003 25.5676,23.9913 25.6436,23.9743 L42.6436,19.9743 C42.9966,19.8913 43.2776,19.6223 43.3766,19.2733 C43.4756,18.9253 43.3786,18.5503 43.1216,18.2933 L38.8286,14.0003 L46.1216,6.7073 C46.5126,6.3163 46.5126,5.6843 46.1216,5.2933 C45.7306,4.9023 45.0986,4.9023 44.7076,5.2933 L36.7076,13.2933 C36.3166,13.6843 36.3166,14.3163 36.7076,14.7073 L40.4376,18.4383 L26.7586,21.6563 L29.9766,7.9773 L33.7076,11.7073 C34.0986,12.0983 34.7306,12.0983 35.1216,11.7073 L43.1216,3.7073 C43.5126,3.3163 43.5126,2.6843 43.1216,2.2933 C42.7306,1.9023 42.0986,1.9023 41.7076,2.2933 L34.4146,9.5863 L30.1216,5.2933 C29.8656,5.0363 29.4876,4.9393 29.1416,5.0383 C28.7926,5.1383 28.5246,5.4183 28.4406,5.7713 L24.4406,22.7713 C24.3616,23.1083 24.4626,23.4623 24.7076,23.7073 C24.8966,23.8963 25.1526,24.0003 25.4146,24.0003 M46.2806,38.0843 L45.1936,39.9493 C43.0476,43.6253 39.1846,46.0003 35.3516,46.0003 C33.8616,46.0003 32.4276,45.6523 31.0906,44.9663 C19.6506,39.0913 9.3106,28.7493 3.4276,17.3033 C0.6656,11.9283 3.8096,5.9213 8.4446,3.2193 L10.3076,2.1323 C10.4576,2.0453 10.6206,2.0003 10.7926,2.0003 C11.1486,2.0003 11.4766,2.1943 11.6436,2.5073 L17.2526,12.9203 C17.6116,13.5873 17.4886,14.4293 16.9516,14.9653 L14.0846,17.8303 C13.1116,18.8053 12.9866,20.3413 13.7946,21.4053 C17.5096,26.2993 22.0616,30.8523 26.9576,34.5713 C28.0226,35.3823 29.6226,35.2653 30.5736,34.3113 L33.4406,31.4453 C33.9686,30.9193 34.8266,30.7893 35.4886,31.1463 L45.9036,36.7503 C46.1376,36.8753 46.3046,37.0843 46.3766,37.3383 C46.4476,37.5923 46.4136,37.8563 46.2806,38.0843 M48.3026,36.7963 C48.0826,36.0163 47.5676,35.3733 46.8526,34.9883 L36.4376,29.4453 C35.0176,28.6803 33.1656,28.9533 32.0266,30.0913 L29.1586,32.8963 C29.0106,33.0453 28.8146,33.1273 28.6086,33.1273 C28.4966,33.1273 28.3296,33.1023 28.1686,32.9793 C23.4146,29.3673 18.9956,24.9473 15.3886,20.1963 C15.1826,19.9243 15.2296,19.5153 15.4996,19.2443 L18.3066,16.3793 C19.4636,15.2233 19.7286,13.4103 18.9536,11.9723 L13.4056,1.5593 C12.8876,0.5983 11.8866,0.0003 10.7926,0.0003 C10.2696,0.0003 9.7546,0.1403 9.2996,0.4043 L7.4356,1.4913 C1.2296,5.1093 -1.3124,12.4563 1.6466,18.2173 C7.7136,30.0213 18.3786,40.6863 30.1766,46.7453 C31.7996,47.5783 33.5406,48.0003 35.3516,48.0003 C39.8836,48.0003 44.4246,45.2353 46.9226,40.9573 L48.0096,39.0923 C48.4176,38.3923 48.5216,37.5763 48.3026,36.7963" id="Fill-5"></path>
            </g>
        </g>
    </g>
</svg>