<?xml version="1.0" encoding="UTF-8" standalone="no"?>
<svg width="49px" height="49px" viewBox="0 0 49 49" version="1.1" xmlns="http://www.w3.org/2000/svg" xmlns:xlink="http://www.w3.org/1999/xlink">
    <!-- Generator: Sketch 45.2 (43514) - http://www.bohemiancoding.com/sketch -->
    <title>Call</title>
    <desc>Created with Sketch.</desc>
    <defs></defs>
    <g id="call" stroke="none" stroke-width="1" fill="none" fill-rule="evenodd">
        <g id="call" transform="translate(-673.000000, -848.000000)" fill="currentColor">
            <g id="call" transform="translate(673.000000, 848.000000)">
                <path d="M44.3844,44.1292 C42.7484,45.7652 40.4354,46.5952 37.5064,46.5952 C30.6594,46.5952 21.8724,42.0592 14.5724,34.7582 C9.2664,29.4462 5.3954,23.3602 3.6724,17.6212 C2.0134,12.0942 2.5584,7.5942 5.2054,4.9482 C6.3704,3.7832 7.8814,3.0252 9.7054,2.6912 L16.3484,15.2232 L12.3774,19.9272 C10.2774,22.0292 16.6264,28.7072 18.6224,30.7032 C21.7104,33.7922 26.0804,37.4002 28.2354,37.4002 C28.8324,37.4002 29.2034,37.1512 29.3434,37.0042 L34.1024,32.9832 L46.6404,39.6182 C46.2984,41.4602 45.5414,42.9752 44.3844,44.1292 M48.2054,38.1842 L34.4404,30.8992 C34.0794,30.7072 33.6384,30.7542 33.3264,31.0192 L28.1554,35.3942 C27.1724,35.2792 23.9114,33.1652 20.0364,29.2892 C15.8634,25.1152 14.0364,22.0102 13.9334,21.1792 L18.3124,15.9972 C18.5754,15.6862 18.6234,15.2442 18.4324,14.8832 L11.1414,1.1292 C10.9464,0.7642 10.5504,0.5432 10.1354,0.6062 C7.5544,0.9222 5.4254,1.9052 3.7974,3.5342 C0.6054,6.7242 -0.1176,11.9312 1.7624,18.1952 C3.5784,24.2462 7.6214,30.6302 13.1584,36.1722 C20.8194,43.8342 30.1494,48.5952 37.5064,48.5952 C40.9364,48.5952 43.8034,47.5392 45.7974,45.5442 C47.4144,43.9322 48.4014,41.7952 48.7304,39.1922 C48.7814,38.7802 48.5734,38.3782 48.2054,38.1842" id="Fill-1"></path>
            </g>
        </g>
    </g>
</svg>