<?xml version="1.0" encoding="UTF-8" standalone="no"?>
<svg width="53px" height="45px" viewBox="0 0 53 45" version="1.1" xmlns="http://www.w3.org/2000/svg" xmlns:xlink="http://www.w3.org/1999/xlink">
    <!-- Generator: Sketch 45.2 (43514) - http://www.bohemiancoding.com/sketch -->
    <title>Chat</title>
    <desc>Created with Sketch.</desc>
    <defs></defs>
    <g id="chat" stroke="none" stroke-width="1" fill="none" fill-rule="evenodd" stroke-linecap="round" stroke-linejoin="round">
        <g id="chat" transform="translate(-476.000000, -850.000000)" stroke="currentColor" stroke-width="2">
            <g id="chat" transform="translate(477.000000, 851.000000)">
                <path d="M3.3892,0.4407 C1.7332,0.4407 0.3892,1.7837 0.3892,3.4407 L0.3892,25.4407 C0.3892,27.0977 1.7332,28.4407 3.3892,28.4407 L6.3892,28.4407 L6.3892,38.4407 L16.3892,28.4407 L37.3892,28.4407 C39.0452,28.4407 40.3892,27.0977 40.3892,25.4407 L40.3892,3.4407 C40.3892,1.7837 39.0452,0.4407 37.3892,0.4407 L3.3892,0.4407 Z" id="Stroke-7"></path>
                <path d="M20.3892,28.4407 L20.3892,31.4407 C20.3892,33.0977 21.7332,34.4407 23.3892,34.4407 L36.3892,34.4407 L44.3892,42.4407 L44.3892,34.4407 L47.3892,34.4407 C49.0452,34.4407 50.3892,33.0977 50.3892,31.4407 L50.3892,15.4407 C50.3892,13.7837 49.0452,12.4407 47.3892,12.4407 L40.3892,12.4407" id="Stroke-9"></path>
            </g>
        </g>
    </g>
</svg>