<?xml version="1.0" encoding="UTF-8" standalone="no"?>
<svg width="49px" height="48px" viewBox="0 0 49 48" version="1.1" xmlns="http://www.w3.org/2000/svg" xmlns:xlink="http://www.w3.org/1999/xlink">
    <!-- Generator: Sketch 45.2 (43514) - http://www.bohemiancoding.com/sketch -->
    <title>Check-filled</title>
    <desc>Created with Sketch.</desc>
    <defs></defs>
    <g id="eHealth-line-icon-06302017" stroke="none" stroke-width="1" fill="none" fill-rule="evenodd">
        <g id="eHealth-General-Line-Icons-2017-4" transform="translate(-381.000000, -544.000000)" fill="currentColor">
            <g id="Check-filled" transform="translate(381.000000, 544.000000)">
                <path d="M36.8586,18.6101 L21.4286,34.0401 C21.2586,34.2001 21.0486,34.2901 20.8286,34.2901 C20.6086,34.2901 20.3886,34.2001 20.2186,34.0401 L11.6486,25.4701 C11.3086,25.1301 11.3086,24.5891 11.6486,24.2501 L15.0786,20.8201 C15.4086,20.4901 15.9486,20.4901 16.2896,20.8201 L20.8286,25.3601 L32.2186,13.9701 C32.5586,13.6301 33.0986,13.6301 33.4286,13.9701 L36.8586,17.4001 C37.1986,17.7301 37.1986,18.2701 36.8586,18.6101 M24.2496,0.0001 C11.0286,0.0001 0.2586,10.7601 0.2586,24.0001 C0.2586,37.2301 11.0286,48.0001 24.2496,48.0001 C37.4886,48.0001 48.2586,37.2301 48.2586,24.0001 C48.2586,10.7601 37.4886,0.0001 24.2496,0.0001" id="Fill-61"></path>
            </g>
        </g>
    </g>
</svg>