<?xml version="1.0" encoding="UTF-8" standalone="no"?>
<svg width="48px" height="52px" viewBox="0 0 48 52" version="1.1" xmlns="http://www.w3.org/2000/svg" xmlns:xlink="http://www.w3.org/1999/xlink">
    <!-- Generator: Sketch 45.2 (43514) - http://www.bohemiancoding.com/sketch -->
    <title>Checklist Completed</title>
    <desc>Created with Sketch.</desc>
    <defs></defs>
    <g id="checklist-completed" stroke="none" stroke-width="1" fill="none" fill-rule="evenodd">
        <g id="checklist-completed" transform="translate(-1064.000000, -698.000000)" fill="currentColor">
            <g id="checklist-completed" transform="translate(1064.000000, 698.000000)">
                <path d="M39.292,33.294 L35.294,37.292 L31.998,40.585 L28.707,37.292 C28.315,36.902 27.683,36.902 27.293,37.292 C26.901,37.684 26.901,38.316 27.293,38.706 L31.291,42.706 C31.48,42.895 31.73,43 31.998,43 C32.265,43 32.517,42.895 32.705,42.706 L36.708,38.706 L40.706,34.705 C41.096,34.316 41.096,33.683 40.706,33.294 C40.315,32.902 39.682,32.902 39.292,33.294 L39.292,33.294 Z M34,49.998 C27.371,49.988 22.012,44.627 22,38 C22.012,31.371 27.371,26.012 34,26 C40.627,26.012 45.987,31.371 46,38 C45.987,44.627 40.627,49.988 34,49.998 L34,49.998 Z M3.999,46 C2.896,45.997 2.002,45.103 1.999,43.999 L1.999,10 C2.002,8.895 2.896,8.002 3.999,7.998 L8,7.998 L8,8.999 C7.999,10.656 9.342,11.998 10.999,11.998 L24.998,11.998 C26.656,11.998 28,10.656 28,8.999 L28,7.998 L31.999,7.998 C33.103,8 33.998,8.895 34,9.999 L34,24 C29.244,24 25.049,26.375 22.519,30 L9.999,30 C9.446,29.999 9,30.447 9,31 C9,31.553 9.446,31.999 9.999,31.999 L21.364,31.999 C20.772,33.243 20.361,34.586 20.158,36 L10,36 C9.446,36 9,36.446 9,36.999 C9,37.553 9.446,37.999 10,37.999 L19.999,37.999 C19.999,40.976 20.935,43.731 22.519,46 L3.999,46 Z M9.998,5.999 L13.998,5.999 C14.267,5.999 14.517,5.895 14.706,5.706 C14.895,5.519 14.999,5.267 14.999,5.001 C15.003,3.341 16.344,2.003 17.999,1.999 C19.656,2.003 20.996,3.341 20.998,5.001 C20.998,5.263 21.106,5.521 21.293,5.706 C21.48,5.893 21.735,5.999 21.999,5.999 L26,5.999 L26,8.999 C25.997,9.551 25.551,9.997 24.998,10 L10.999,10 C10.448,9.997 10,9.551 9.998,8.999 L9.998,5.999 Z M35.999,24.158 L35.999,9.999 C35.999,7.789 34.209,6.001 31.999,6 L28,6 L28,5.001 C28,4.736 27.892,4.479 27.705,4.293 C27.52,4.107 27.264,4 27,4 L22.899,4 C22.437,1.716 20.419,0 17.999,0 C15.581,0 13.563,1.716 13.1,4 L9,4 C8.736,4 8.479,4.107 8.292,4.293 C8.105,4.479 7.999,4.736 8,5.001 L8,6 L3.999,6 C1.79,6.001 0.002,7.789 0,10 L0,43.999 C0,46.21 1.79,47.998 3.999,47.998 L24.211,47.998 C26.735,50.47 30.188,51.999 34,52 C41.732,51.997 47.998,45.732 48,38 C47.998,30.946 42.781,25.131 35.999,24.158 L35.999,24.158 Z M10,25.999 L26.001,25.999 C26.551,26 26.999,25.552 26.999,24.999 C26.999,24.447 26.551,23.999 26.001,24 L10,24 C9.447,23.999 8.999,24.447 8.999,24.999 C8.999,25.552 9.447,26 10,25.999 L10,25.999 Z M10,19.999 L26.001,19.999 C26.551,19.999 26.999,19.551 26.999,18.999 C26.999,18.446 26.551,18 26.001,18 L10,18 C9.447,18 8.999,18.446 8.999,18.999 C8.999,19.551 9.447,19.999 10,19.999 L10,19.999 Z" id="Fill-37"></path>
            </g>
        </g>
    </g>
</svg>