<?xml version="1.0" encoding="UTF-8" standalone="no"?>
<svg width="45px" height="57px" viewBox="0 0 45 57" version="1.1" xmlns="http://www.w3.org/2000/svg" xmlns:xlink="http://www.w3.org/1999/xlink">
    <!-- Generator: Sketch 45.2 (43514) - http://www.bohemiancoding.com/sketch -->
    <title>Checklist</title>
    <desc>Created with Sketch.</desc>
    <defs></defs>
    <g id="checklist" stroke="none" stroke-width="1" fill="none" fill-rule="evenodd" stroke-linejoin="round">
        <g id="checklist" transform="translate(-870.000000, -694.000000)" stroke="currentColor" stroke-width="2">
            <g id="checklist" transform="translate(871.000000, 695.000000)">
                <path d="M10.0635,24.0205 L32.0635,24.0205" id="Stroke-23" stroke-linecap="round"></path>
                <path d="M10.0635,30.0205 L32.0635,30.0205" id="Stroke-25" stroke-linecap="round"></path>
                <path d="M10.0635,42.0205 L32.0635,42.0205" id="Stroke-27" stroke-linecap="round"></path>
                <path d="M32.0635,36.0205 L10.0635,36.0205" id="Stroke-29" stroke-linecap="round"></path>
                <path d="M29.0635,6.0205 C27.4335,6.0205 26.3055,4.5755 25.6705,3.0745 C24.9125,1.2795 23.1345,0.0205 21.0635,0.0205 C18.9925,0.0205 17.2155,1.2795 16.4575,3.0745 C15.8215,4.5755 14.6935,6.0205 13.0635,6.0205 L10.0635,6.0205 L10.0635,12.0205 C10.0635,13.1245 10.9595,14.0205 12.0635,14.0205 L30.0635,14.0205 C31.1675,14.0205 32.0635,13.1245 32.0635,12.0205 L32.0635,6.0205 L29.0635,6.0205 Z" id="Stroke-31"></path>
                <path d="M22.0635,5.0205 C22.0635,5.5725 21.6165,6.0205 21.0635,6.0205 C20.5115,6.0205 20.0635,5.5725 20.0635,5.0205 C20.0635,4.4675 20.5115,4.0205 21.0635,4.0205 C21.6165,4.0205 22.0635,4.4675 22.0635,5.0205 Z" id="Stroke-33"></path>
                <path d="M32.0635,6.0205 L39.0635,6.0205 C40.7205,6.0205 42.0635,7.3635 42.0635,9.0205 L42.0635,51.0205 C42.0635,52.6765 40.7205,54.0205 39.0635,54.0205 L3.0635,54.0205 C1.4075,54.0205 0.0635,52.6765 0.0635,51.0205 L0.0635,9.0205 C0.0635,7.3635 1.4075,6.0205 3.0635,6.0205 L10.0645,6.0205" id="Stroke-35"></path>
            </g>
        </g>
    </g>
</svg>