<?xml version="1.0" encoding="UTF-8" standalone="no"?>
<svg width="51px" height="50px" viewBox="0 0 51 50" version="1.1" xmlns="http://www.w3.org/2000/svg" xmlns:xlink="http://www.w3.org/1999/xlink">
    <!-- Generator: Sketch 45.2 (43514) - http://www.bohemiancoding.com/sketch -->
    <title>Check Circle </title>
    <desc>Created with Sketch.</desc>
    <defs></defs>
    <g id="check-circle" stroke="none" stroke-width="1" fill="none" fill-rule="evenodd">
        <g id="check-circle" transform="translate(-380.000000, -250.000000)" stroke="currentColor" stroke-width="2">
            <g id="check-circle" transform="translate(381.000000, 251.000000)">
                <path d="M48.259,23.9951 C48.259,37.2301 37.489,48.0001 24.253,48.0001 C11.029,48.0001 0.259,37.2301 0.259,23.9951 C0.259,10.7591 11.029,0.0001 24.253,0.0001 C37.489,0.0001 48.259,10.7591 48.259,23.9951 Z" id="Stroke-53"></path>
                <path d="M36.8635,18.6074 L21.4335,34.0384 C21.2635,34.1984 21.0535,34.2884 20.8345,34.2884 C20.6135,34.2884 20.3935,34.1984 20.2235,34.0384 L11.6535,25.4674 C11.3135,25.1284 11.3135,24.5874 11.6535,24.2484 L15.0845,20.8184 C15.4135,20.4884 15.9535,20.4884 16.2945,20.8184 L20.8345,25.3574 L32.2235,13.9674 C32.5635,13.6284 33.1035,13.6284 33.4335,13.9674 L36.8635,17.3974 C37.2035,17.7274 37.2035,18.2674 36.8635,18.6074 Z" id="Stroke-55"></path>
            </g>
        </g>
    </g>
</svg>