<?xml version="1.0" encoding="UTF-8" standalone="no"?>
<svg width="51px" height="51px" viewBox="0 0 51 51" version="1.1" xmlns="http://www.w3.org/2000/svg" xmlns:xlink="http://www.w3.org/1999/xlink">
    <!-- Generator: Sketch 45.2 (43514) - http://www.bohemiancoding.com/sketch -->
    <title>Close-bold</title>
    <desc>Created with Sketch.</desc>
    <defs></defs>
    <g id="close-bold" stroke="none" stroke-width="1" fill="none" fill-rule="evenodd">
        <g id="close-bold" transform="translate(-478.000000, -399.000000)">
            <g id="close-bold" transform="translate(479.000000, 400.000000)">
                <path d="M24.4944,0.6875 C11.2684,0.6875 0.4994,11.4465 0.4994,24.6815 C0.4994,37.9175 11.2684,48.6875 24.4944,48.6875 C37.7294,48.6875 48.4994,37.9175 48.4994,24.6815 C48.4994,11.4465 37.7294,0.6875 24.4944,0.6875 Z" id="Stroke-49" stroke="currentColor" stroke-width="2"></path>
                <path d="M34.5344,30.085 C34.8644,30.415 34.8644,30.955 34.5344,31.295 L31.1044,34.725 C30.9334,34.885 30.7144,34.975 30.4944,34.975 C30.2844,34.975 30.0644,34.885 29.8944,34.725 L24.4944,29.325 L19.1044,34.725 C18.7744,35.055 18.2234,35.055 17.8944,34.725 L14.4644,31.295 C14.1344,30.955 14.1344,30.415 14.4644,30.085 L19.8544,24.685 L14.4644,19.295 C14.1344,18.955 14.1344,18.415 14.4644,18.085 L17.8944,14.654 C18.2234,14.314 18.7744,14.314 19.1044,14.654 L24.4944,20.045 L29.8944,14.654 C30.2234,14.314 30.7744,14.314 31.1044,14.654 L34.5344,18.085 C34.8644,18.415 34.8644,18.955 34.5344,19.295 L29.1444,24.685 L34.5344,30.085 Z" id="Fill-51" fill="currentColor"></path>
            </g>
        </g>
    </g>
</svg>