<?xml version="1.0" encoding="UTF-8" standalone="no"?>
<svg width="51px" height="50px" viewBox="0 0 51 50" version="1.1" xmlns="http://www.w3.org/2000/svg" xmlns:xlink="http://www.w3.org/1999/xlink">
    <!-- Generator: Sketch 45.2 (43514) - http://www.bohemiancoding.com/sketch -->
    <title>Close</title>
    <desc>Created with Sketch.</desc>
    <defs></defs>
    <g id="close" stroke="none" stroke-width="1" fill="none" fill-rule="evenodd">
        <g id="close" transform="translate(-478.000000, -250.000000)" stroke="currentColor" stroke-width="2">
            <g id="close" transform="translate(479.000000, 251.000000)">
                <path d="M24.4944,0 C11.2684,0 0.4994,10.759 0.4994,23.995 C0.4994,37.23 11.2684,48 24.4944,48 C37.7294,48 48.4994,37.23 48.4994,23.995 C48.4994,10.759 37.7294,0 24.4944,0 Z" id="Stroke-57"></path>
                <path d="M34.5344,29.3975 C34.8644,29.7275 34.8644,30.2675 34.5344,30.6075 L31.1044,34.0385 C30.9334,34.1975 30.7144,34.2885 30.4944,34.2885 C30.2844,34.2885 30.0644,34.1975 29.8944,34.0385 L24.4944,28.6375 L19.1044,34.0385 C18.7744,34.3675 18.2234,34.3675 17.8944,34.0385 L14.4644,30.6075 C14.1344,30.2675 14.1344,29.7275 14.4644,29.3975 L19.8544,23.9985 L14.4644,18.6075 C14.1344,18.2675 14.1344,17.7275 14.4644,17.3975 L17.8944,13.9675 C18.2234,13.6275 18.7744,13.6275 19.1044,13.9675 L24.4944,19.3575 L29.8944,13.9675 C30.2234,13.6275 30.7744,13.6275 31.1044,13.9675 L34.5344,17.3975 C34.8644,17.7275 34.8644,18.2675 34.5344,18.6075 L29.1444,23.9985 L34.5344,29.3975 Z" id="Stroke-59"></path>
            </g>
        </g>
    </g>
</svg>