<?xml version="1.0" encoding="UTF-8" standalone="no"?>
<svg width="49px" height="48px" viewBox="0 0 49 48" version="1.1" xmlns="http://www.w3.org/2000/svg" xmlns:xlink="http://www.w3.org/1999/xlink">
    <!-- Generator: Sketch 45.2 (43514) - http://www.bohemiancoding.com/sketch -->
    <title>Close-filled</title>
    <desc>Created with Sketch.</desc>
    <defs></defs>
    <g id="close-filled" stroke="none" stroke-width="1" fill="none" fill-rule="evenodd">
        <g id="close-filled" transform="translate(-479.000000, -544.000000)" fill="currentColor">
            <g id="close-filled" transform="translate(479.000000, 544.000000)">
                <path d="M34.5295,29.4001 C34.8595,29.7301 34.8595,30.2701 34.5295,30.6101 L31.0985,34.0401 C30.9285,34.2001 30.7095,34.2901 30.4895,34.2901 C30.2795,34.2901 30.0585,34.2001 29.8885,34.0401 L24.4895,28.6401 L19.0985,34.0401 C18.7685,34.3701 18.2185,34.3701 17.8885,34.0401 L14.4595,30.6101 C14.1295,30.2701 14.1295,29.7301 14.4595,29.4001 L19.8485,24.0001 L14.4595,18.6101 C14.1295,18.2701 14.1295,17.7301 14.4595,17.4001 L17.8885,13.9701 C18.2185,13.6291 18.7685,13.6291 19.0985,13.9701 L24.4895,19.3601 L29.8885,13.9701 C30.2185,13.6291 30.7685,13.6291 31.0985,13.9701 L34.5295,17.4001 C34.8595,17.7301 34.8595,18.2701 34.5295,18.6101 L29.1385,24.0001 L34.5295,29.4001 Z M24.4895,0.0001 C11.2685,0.0001 0.4995,10.7601 0.4995,24.0001 C0.4995,37.2401 11.2685,48.0001 24.4895,48.0001 C37.7295,48.0001 48.4995,37.2401 48.4995,24.0001 C48.4995,10.7601 37.7295,0.0001 24.4895,0.0001 L24.4895,0.0001 Z" id="Fill-64"></path>
            </g>
        </g>
    </g>
</svg>