<?xml version="1.0" encoding="UTF-8" standalone="no"?>
<svg width="40px" height="52px" viewBox="0 0 40 52" version="1.1" xmlns="http://www.w3.org/2000/svg" xmlns:xlink="http://www.w3.org/1999/xlink">
    <!-- Generator: Sketch 43.2 (39069) - http://www.bohemiancoding.com/sketch -->
    <title>Coinsurance</title>
    <desc>Created with Sketch.</desc>
    <defs>
        <polygon id="path-1" points="39.9996 52 0 52 0 0.0005 39.9996 0.0005 39.9996 52"></polygon>
    </defs>
    <g id="eHealth-line-icon-06302017" stroke="none" stroke-width="1" fill="none" fill-rule="evenodd">
        <g id="eHealth-Healthcare-Icons-2017" transform="translate(-1062.000000, -698.000000)">
            <g id="Coinsurance" transform="translate(1062.000000, 698.000000)">
                <path d="M20.9996,12.0005 L18.9996,12.0005 C17.8996,11.9895 16.9996,11.1005 16.9996,10.0005 C16.9996,8.8905 17.8996,8.0005 18.9996,8.0005 L23.9996,8.0005 C24.5506,8.0005 24.9996,7.5505 24.9996,7.0005 C24.9996,6.4495 24.5506,6.0005 23.9996,6.0005 L20.9996,6.0005 L20.9996,4.0005 C20.9996,3.4495 20.5506,3.0005 19.9996,3.0005 C19.4496,3.0005 18.9996,3.4495 18.9996,4.0005 L18.9996,6.0005 C17.8996,6.0005 16.8996,6.4495 16.1696,7.1705 C15.4496,7.8995 14.9996,8.8995 14.9996,10.0005 C14.9996,12.2105 16.7896,14.0005 18.9996,14.0005 L20.9996,14.0005 C22.1006,14.0005 22.9996,14.8905 22.9996,16.0005 C22.9996,17.1005 22.1006,18.0005 20.9996,18.0005 L15.9996,18.0005 C15.4496,18.0005 14.9996,18.4395 14.9996,19.0005 C14.9996,19.5505 15.4496,20.0005 15.9996,20.0005 L18.5396,20.0005 C19.2296,18.8005 20.5206,18.0005 21.9996,18.0005 C22.7496,18.0005 23.4596,18.2105 24.0606,18.5795 C24.6406,17.8805 24.9996,16.9795 24.9996,16.0005 C24.9996,13.7895 23.2096,12.0005 20.9996,12.0005 M20.9996,12.0005 L18.9996,12.0005 C17.8996,11.9895 16.9996,11.1005 16.9996,10.0005 C16.9996,8.8905 17.8996,8.0005 18.9996,8.0005 L23.9996,8.0005 C24.5506,8.0005 24.9996,7.5505 24.9996,7.0005 C24.9996,6.4495 24.5506,6.0005 23.9996,6.0005 L20.9996,6.0005 L20.9996,4.0005 C20.9996,3.4495 20.5506,3.0005 19.9996,3.0005 C19.4496,3.0005 18.9996,3.4495 18.9996,4.0005 L18.9996,6.0005 C17.8996,6.0005 16.8996,6.4495 16.1696,7.1705 C15.4496,7.8995 14.9996,8.8995 14.9996,10.0005 C14.9996,12.2105 16.7896,14.0005 18.9996,14.0005 L20.9996,14.0005 C22.1006,14.0005 22.9996,14.8905 22.9996,16.0005 C22.9996,17.1005 22.1006,18.0005 20.9996,18.0005 L15.9996,18.0005 C15.4496,18.0005 14.9996,18.4395 14.9996,19.0005 C14.9996,19.5505 15.4496,20.0005 15.9996,20.0005 L18.5396,20.0005 C19.2296,18.8005 20.5206,18.0005 21.9996,18.0005 C22.7496,18.0005 23.4596,18.2105 24.0606,18.5795 C24.6406,17.8805 24.9996,16.9795 24.9996,16.0005 C24.9996,13.7895 23.2096,12.0005 20.9996,12.0005 M20.9996,12.0005 L18.9996,12.0005 C17.8996,11.9895 16.9996,11.1005 16.9996,10.0005 C16.9996,8.8905 17.8996,8.0005 18.9996,8.0005 L23.9996,8.0005 C24.5506,8.0005 24.9996,7.5505 24.9996,7.0005 C24.9996,6.4495 24.5506,6.0005 23.9996,6.0005 L20.9996,6.0005 L20.9996,4.0005 C20.9996,3.4495 20.5506,3.0005 19.9996,3.0005 C19.4496,3.0005 18.9996,3.4495 18.9996,4.0005 L18.9996,6.0005 C17.8996,6.0005 16.8996,6.4495 16.1696,7.1705 C15.4496,7.8995 14.9996,8.8995 14.9996,10.0005 C14.9996,12.2105 16.7896,14.0005 18.9996,14.0005 L20.9996,14.0005 C22.1006,14.0005 22.9996,14.8905 22.9996,16.0005 C22.9996,17.1005 22.1006,18.0005 20.9996,18.0005 L15.9996,18.0005 C15.4496,18.0005 14.9996,18.4395 14.9996,19.0005 C14.9996,19.5505 15.4496,20.0005 15.9996,20.0005 L18.5396,20.0005 C19.2296,18.8005 20.5206,18.0005 21.9996,18.0005 C22.7496,18.0005 23.4596,18.2105 24.0606,18.5795 C24.6406,17.8805 24.9996,16.9795 24.9996,16.0005 C24.9996,13.7895 23.2096,12.0005 20.9996,12.0005" id="Fill-1" fill="currentColor"></path>
                <g id="Group-5">
                    <mask id="mask-2" fill="white">
                        <use xlink:href="#path-1"></use>
                    </mask>
                    <g id="Clip-4"></g>
                    <path d="M37.9996,24.0005 L25.9996,24.0005 L25.9996,22.0005 C25.9996,20.5505 25.2206,19.2795 24.0606,18.5795 C23.4596,18.2105 22.7496,18.0005 21.9996,18.0005 C20.5206,18.0005 19.2296,18.8005 18.5396,20.0005 C18.1996,20.5905 17.9996,21.2705 17.9996,22.0005 L17.9996,24.0005 L1.9996,24.0005 L1.9996,2.0005 L37.9996,2.0005 L37.9996,24.0005 Z M17.9996,28.5905 L15.2896,31.2895 C14.3506,32.2395 11.6496,32.2395 10.6996,31.2895 L10.4096,31.0005 L15.4096,26.0005 L17.9996,26.0005 L17.9996,28.5905 Z M7.2706,26.0005 L12.5796,26.0005 L10.5796,28.0005 L9.9996,28.0005 C8.7096,28.0005 7.6596,27.1705 7.2706,26.0005 L7.2706,26.0005 Z M38.9996,0.0005 L0.9996,0.0005 C0.4396,0.0005 -0.0004,0.4495 -0.0004,1.0005 L-0.0004,25.0005 C-0.0004,25.5505 0.4396,26.0005 0.9996,26.0005 L5.1896,26.0005 C5.5606,27.8905 6.9396,29.3595 8.7606,29.8295 L8.2896,30.2895 C7.8996,30.6805 7.8996,31.3195 8.2896,31.7105 L9.2896,32.7105 C10.1596,33.5695 11.5796,34.0105 12.9996,34.0105 C14.4196,34.0105 15.8406,33.5695 16.6996,32.7105 L17.9996,31.4095 L17.9996,32.0005 C17.9996,33.5105 17.2796,34.5395 16.2796,35.9605 L16.1696,36.1195 C14.7496,38.1405 13.9996,40.5205 13.9996,43.0005 C13.9996,46.3295 15.3406,49.4305 17.7796,51.7295 C17.9706,51.9095 18.2206,52.0005 18.4596,52.0005 C18.7296,52.0005 18.9896,51.8995 19.1896,51.6895 C19.5696,51.2795 19.5506,50.6495 19.1496,50.2705 C17.1196,48.3595 15.9996,45.7795 15.9996,43.0005 C15.9996,40.9305 16.6196,38.9495 17.8006,37.2605 L17.9096,37.1095 C18.9796,35.5795 19.9996,34.1495 19.9996,32.0005 L19.9996,22.0005 C19.9996,21.2605 20.3996,20.6095 20.9996,20.2705 C21.2896,20.0905 21.6306,20.0005 21.9996,20.0005 C23.1006,20.0005 23.9996,20.8995 23.9996,22.0005 L23.9996,31.0005 C23.9996,33.2105 25.7896,35.0005 27.9996,35.0005 C29.0606,35.0005 30.0696,34.5795 30.8196,33.8295 C31.2206,33.4395 31.2206,32.8105 30.8196,32.4095 C30.4306,32.0205 29.8006,32.0205 29.4096,32.4095 C29.0296,32.7895 28.5296,33.0005 27.9996,33.0005 C26.8906,33.0005 25.9996,32.1005 25.9996,31.0005 L25.9996,26.0005 L33.3406,26.0005 L35.7396,31.4205 C36.0796,32.4395 36.0796,33.5605 35.7296,34.6195 L31.0396,50.7205 C30.8806,51.2505 31.1896,51.8105 31.7206,51.9605 C31.8106,51.9895 31.8996,52.0005 31.9996,52.0005 C32.4306,52.0005 32.8296,51.7205 32.9596,51.2795 L37.6406,35.2105 C38.1096,33.7895 38.1096,32.2105 37.6006,30.6995 L35.5296,26.0005 L38.9996,26.0005 C39.5506,26.0005 39.9996,25.5505 39.9996,25.0005 L39.9996,1.0005 C39.9996,0.4495 39.5506,0.0005 38.9996,0.0005 L38.9996,0.0005 Z" id="Fill-3" fill="currentColor" mask="url(#mask-2)"></path>
                </g>
            </g>
        </g>
    </g>
</svg>