<?xml version="1.0" encoding="UTF-8" standalone="no"?>
<svg width="40px" height="52px" viewBox="0 0 40 52" version="1.1" xmlns="http://www.w3.org/2000/svg" xmlns:xlink="http://www.w3.org/1999/xlink">
    <!-- Generator: Sketch 45.2 (43514) - http://www.bohemiancoding.com/sketch -->
    <title>Compare Plan</title>
    <desc>Created with Sketch.</desc>
    <defs></defs>
    <g id="compare-plan" stroke="none" stroke-width="1" fill="none" fill-rule="evenodd">
        <g id="compare-plan" transform="translate(-678.000000, -699.000000)">
            <g id="compare-plan" transform="translate(679.000000, 700.000000)">
                <path d="M0.0002,47.0001 C0.0002,48.6571 1.3442,50.0001 3.0002,50.0001 L35.0002,50.0001 C36.6562,50.0001 38.0002,48.6571 38.0002,47.0001 L38.0002,3.0001 C38.0002,1.3431 36.6562,0.0001 35.0002,0.0001 L12.0002,0.0001 L0.0002,12.0001 L0.0002,47.0001 Z" id="Stroke-1" stroke="currentColor" stroke-width="2" stroke-linejoin="round"></path>
                <path d="M0.0002,12.0001 L9.0002,12.0001 C10.6562,12.0001 12.0002,10.6571 12.0002,9.0001 L12.0002,0.0001" id="Stroke-3" stroke="currentColor" stroke-width="2" stroke-linejoin="round"></path>
                <path d="M17.0002,20.0001 L32.0002,20.0001" id="Stroke-5" stroke="currentColor" stroke-width="2" stroke-linecap="round" stroke-linejoin="round"></path>
                <path d="M17.0002,30.0001 L32.0002,30.0001" id="Stroke-7" stroke="currentColor" stroke-width="2" stroke-linecap="round" stroke-linejoin="round"></path>
                <path d="M17.0002,40.0001 L32.0002,40.0001" id="Stroke-9" stroke="currentColor" stroke-width="2" stroke-linecap="round" stroke-linejoin="round"></path>
                <path d="M11.4689,36.293 L8.1749,39.586 L6.8829,38.293 C6.4909,37.902 5.8559,37.902 5.4669,38.293 C5.0749,38.684 5.0769,39.317 5.4689,39.709 L7.4669,41.707 C7.6559,41.895 7.9069,41.998 8.1749,41.998 C8.4419,41.998 8.6929,41.895 8.8829,41.707 L12.8819,37.707 C13.2719,37.317 13.2719,36.683 12.8819,36.293 C12.4909,35.903 11.8579,35.903 11.4689,36.293 M11.4669,17.294 L11.4669,17.292 L8.1749,20.584 L6.8819,19.293 C6.4909,18.903 5.8579,18.903 5.4679,19.293 C5.0769,19.684 5.0769,20.317 5.4679,20.708 L7.4669,22.707 C7.6559,22.897 7.9059,23 8.1749,23 C8.4419,23 8.6939,22.897 8.8809,22.707 L12.8819,18.707 C13.2719,18.316 13.2719,17.683 12.8819,17.294 C12.4909,16.903 11.8579,16.903 11.4669,17.294 M11.4689,26.293 L11.4669,26.293 L8.1749,29.586 L6.8829,28.293 C6.4899,27.902 5.8579,27.902 5.4659,28.293 C5.0749,28.684 5.0769,29.319 5.4679,29.709 L7.4679,31.707 C7.6559,31.897 7.9079,32 8.1749,32 C8.4419,32 8.6949,31.897 8.8819,31.707 L12.8809,27.708 C13.2719,27.316 13.2719,26.686 12.8809,26.293 C12.4899,25.902 11.8579,25.902 11.4689,26.293" id="Fill-11" fill="currentColor"></path>
            </g>
        </g>
    </g>
</svg>