<?xml version="1.0" encoding="UTF-8" standalone="no"?>
<svg width="55px" height="47px" viewBox="0 0 55 47" version="1.1" xmlns="http://www.w3.org/2000/svg" xmlns:xlink="http://www.w3.org/1999/xlink">
    <!-- Generator: Sketch 45.2 (43514) - http://www.bohemiancoding.com/sketch -->
    <title>Credit Card</title>
    <desc>Created with Sketch.</desc>
    <defs></defs>
    <g id="credit-card" stroke="none" stroke-width="1" fill="none" fill-rule="evenodd" stroke-linejoin="round">
        <g id="credit-card" transform="translate(-1059.000000, -548.000000)" stroke="currentColor" stroke-width="2">
            <g id="credit-card" transform="translate(1060.000000, 549.000000)">
                <path d="M40.9236,41.5004 C40.9236,43.1574 39.5806,44.5004 37.9236,44.5004 L3.9236,44.5004 C2.2676,44.5004 0.9236,43.1574 0.9236,41.5004 L0.9236,19.5004 C0.9236,17.8434 2.2676,16.5004 3.9236,16.5004 L37.9236,16.5004 C39.5806,16.5004 40.9236,17.8434 40.9236,19.5004 L40.9236,41.5004 Z" id="Stroke-6"></path>
                <polygon id="Stroke-8" points="6.924 28.5007 12.924 28.5007 12.924 22.5007 6.924 22.5007"></polygon>
                <path d="M6.9236,34.5004 L10.9236,34.5004" id="Stroke-10" stroke-linecap="round"></path>
                <path d="M6.9236,38.5004 L16.9236,38.5004" id="Stroke-11" stroke-linecap="round"></path>
                <path d="M14.9236,34.5004 L18.9236,34.5004" id="Stroke-12" stroke-linecap="round"></path>
                <path d="M22.9236,34.5004 L26.9236,34.5004" id="Stroke-13" stroke-linecap="round"></path>
                <path d="M30.9236,34.5004 L34.9236,34.5004" id="Stroke-14" stroke-linecap="round"></path>
                <path d="M33.9236,20.5004 C33.1526,20.5004 32.4546,20.8004 31.9236,21.2784 C31.3926,20.8004 30.6946,20.5004 29.9236,20.5004 C28.2676,20.5004 26.9236,21.8434 26.9236,23.5004 C26.9236,25.1574 28.2676,26.5004 29.9236,26.5004 C30.6946,26.5004 31.3926,26.2004 31.9236,25.7224 C32.4546,26.2004 33.1526,26.5004 33.9236,26.5004 C35.5796,26.5004 36.9236,25.1574 36.9236,23.5004 C36.9236,21.8434 35.5796,20.5004 33.9236,20.5004 Z" id="Stroke-15"></path>
                <path d="M40.9236,38.4584 L41.3726,38.6214 C42.9296,39.1874 44.6516,38.3864 45.2176,36.8284 L52.7416,16.1554 C53.3096,14.5984 52.5056,12.8774 50.9486,12.3104 L18.9996,0.6824 C17.4436,0.1144 15.7216,0.9174 15.1536,2.4754 L10.0496,16.5004" id="Stroke-16"></path>
                <path d="M12.076,10.932 L27.376,16.5" id="Stroke-17"></path>
                <path d="M51.7156,18.975 L14.1286,5.293" id="Stroke-18"></path>
                <path d="M40.9236,21.432 L49.6636,24.613" id="Stroke-19"></path>
            </g>
        </g>
    </g>
</svg>