<?xml version="1.0" encoding="UTF-8" standalone="no"?>
<svg width="52px" height="40px" viewBox="0 0 52 40" version="1.1" xmlns="http://www.w3.org/2000/svg" xmlns:xlink="http://www.w3.org/1999/xlink">
    <!-- Generator: Sketch 43.2 (39069) - http://www.bohemiancoding.com/sketch -->
    <title>Deductible</title>
    <desc>Created with Sketch.</desc>
    <defs>
        <polygon id="path-1" points="0.0005 39.999 51.999 39.999 51.999 0.0004 0.0005 0.0004 0.0005 39.999"></polygon>
    </defs>
    <g id="eHealth-line-icon-06302017" stroke="none" stroke-width="1" fill="none" fill-rule="evenodd">
        <g id="eHealth-Healthcare-Icons-2017" transform="translate(-670.000000, -698.000000)">
            <g id="Deductible" transform="translate(670.000000, 698.000000)">
                <mask id="mask-2" fill="white">
                    <use xlink:href="#path-1"></use>
                </mask>
                <g id="Clip-2"></g>
                <path d="M19.9995,21.9994 C15.5805,21.9904 12.0065,18.4194 11.9975,14.0004 C12.0065,9.5814 15.5805,6.0084 19.9995,5.9994 C24.4185,6.0084 27.9915,9.5814 28.0005,14.0004 C27.9915,18.4194 24.4185,21.9904 19.9995,21.9994 L19.9995,21.9994 Z M19.9995,4.0004 C14.4755,4.0004 9.9995,8.4764 9.9995,14.0004 C9.9995,19.5224 14.4755,23.9994 19.9995,23.9994 C25.5225,23.9994 29.9975,19.5224 29.9975,14.0004 C29.9975,8.4764 25.5225,4.0004 19.9995,4.0004 L19.9995,4.0004 Z M50.0005,38.0004 L13.9995,38.0004 L13.9995,33.9984 L45.0005,33.9984 C45.2655,33.9984 45.5185,33.8954 45.7065,33.7074 C45.8955,33.5174 45.9995,33.2654 45.9995,32.9994 L45.9995,13.9994 L50.0005,13.9994 L50.0005,38.0004 Z M7.9975,32.0004 L7.9975,27.9994 L39.0015,27.9994 C39.2675,27.9994 39.5185,27.8954 39.7065,27.7054 C39.8955,27.5184 39.9995,27.2664 39.9995,27.0004 L39.9995,7.9994 L44.0005,7.9994 L44.0005,32.0004 L7.9975,32.0004 Z M38.0005,22.1024 L38.0005,26.0004 L34.1025,26.0004 C34.5025,24.0424 36.0415,22.5014 38.0005,22.1024 L38.0005,22.1024 Z M1.9975,20.0794 L1.9975,7.9214 C5.0615,7.4804 7.4795,5.0634 7.9195,1.9994 L32.0775,1.9994 C32.5185,5.0634 34.9355,7.4794 38.0005,7.9204 L38.0005,20.0794 C34.9355,20.5194 32.5195,22.9374 32.0775,26.0004 L7.9195,26.0004 C7.4805,22.9364 5.0625,20.5184 1.9975,20.0794 L1.9975,20.0794 Z M1.9975,26.0004 L1.9975,22.1034 C3.9565,22.5014 5.4975,24.0424 5.8965,26.0004 L1.9975,26.0004 Z M1.9975,1.9994 L5.8965,1.9994 C5.4965,3.9584 3.9565,5.4974 1.9975,5.8974 L1.9975,1.9994 Z M38.0005,1.9994 L38.0005,5.8974 C36.0415,5.4974 34.5025,3.9574 34.1025,1.9994 L38.0005,1.9994 Z M51.7065,12.2934 C51.5195,12.1034 51.2655,12.0004 50.9995,12.0004 L45.9995,12.0004 L45.9995,7.0004 C45.9995,6.7314 45.8955,6.4824 45.7065,6.2924 C45.5185,6.1034 45.2655,6.0004 45.0005,6.0004 L39.9995,6.0004 L39.9995,1.0004 C39.9995,0.7324 39.8955,0.4804 39.7065,0.2934 C39.5185,0.1034 39.2675,0.0004 39.0015,0.0004 L0.9995,0.0004 C0.7355,0.0004 0.4775,0.1074 0.2925,0.2934 C0.1055,0.4784 0.0005,0.7364 0.0005,1.0004 L0.0005,27.0004 C0.0005,27.2664 0.1035,27.5184 0.2925,27.7074 C0.4805,27.8954 0.7305,27.9994 0.9995,27.9994 L6.0005,27.9994 L6.0005,32.9994 C6.0005,33.2684 6.1025,33.5174 6.2935,33.7074 C6.4805,33.8954 6.7315,33.9984 6.9995,33.9984 L12.0005,33.9984 L12.0005,39.0004 C12.0005,39.2674 12.1035,39.5194 12.2925,39.7074 C12.4805,39.8954 12.7305,39.9994 13.0005,39.9994 L50.9995,39.9994 C51.2655,39.9994 51.5175,39.8954 51.7065,39.7074 C51.8955,39.5174 51.9995,39.2674 51.9995,39.0004 L51.9995,13.0004 C51.9995,12.7334 51.8955,12.4814 51.7065,12.2934 L51.7065,12.2934 Z" id="Fill-1" fill="currentColor" mask="url(#mask-2)"></path>
            </g>
        </g>
    </g>
</svg>