<?xml version="1.0" encoding="UTF-8" standalone="no"?>
<svg width="45px" height="52px" viewBox="0 0 45 52" version="1.1" xmlns="http://www.w3.org/2000/svg" xmlns:xlink="http://www.w3.org/1999/xlink">
    <!-- Generator: Sketch 45.2 (43514) - http://www.bohemiancoding.com/sketch -->
    <title>Delete</title>
    <desc>Created with Sketch.</desc>
    <defs></defs>
    <g id="delete" stroke="none" stroke-width="1" fill="none" fill-rule="evenodd" stroke-linejoin="round">
        <g id="delete" transform="translate(-870.000000, -247.000000)" stroke="currentColor" stroke-width="2">
            <g id="delete" transform="translate(871.000000, 248.000000)">
                <path d="M42.9878,13.9998 L0.9878,13.9998 L0.9878,8.9998 C0.9878,7.3428 2.3318,5.9998 3.9878,5.9998 L39.9878,5.9998 C41.6438,5.9998 42.9878,7.3428 42.9878,8.9998 L42.9878,13.9998 Z" id="Stroke-11"></path>
                <path d="M38.9878,13.9998 L38.9878,47.9998 C38.9878,49.1048 38.0918,49.9998 36.9878,49.9998 L6.9878,49.9998 C5.8838,49.9998 4.9878,49.1048 4.9878,47.9998 L4.9878,13.9998" id="Stroke-13"></path>
                <path d="M14.9878,5.9998 L14.9878,2.9998 C14.9878,1.3428 16.3318,-0.0002 17.9878,-0.0002 L25.9878,-0.0002 C27.6438,-0.0002 28.9878,1.3428 28.9878,2.9998 L28.9878,5.9998" id="Stroke-15"></path>
                <path d="M21.9878,19.9998 L21.9878,43.9998" id="Stroke-17" stroke-linecap="round"></path>
                <path d="M12.9878,19.9998 L12.9878,43.9998" id="Stroke-19" stroke-linecap="round"></path>
                <path d="M30.9878,19.9998 L30.9878,43.9998" id="Stroke-21" stroke-linecap="round"></path>
            </g>
        </g>
    </g>
</svg>