<?xml version="1.0" encoding="UTF-8" standalone="no"?>
<svg width="57px" height="48px" viewBox="0 0 57 48" version="1.1" xmlns="http://www.w3.org/2000/svg" xmlns:xlink="http://www.w3.org/1999/xlink">
    <!-- Generator: Sketch 45.2 (43514) - http://www.bohemiancoding.com/sketch -->
    <title>Desktop</title>
    <desc>Created with Sketch.</desc>
    <defs></defs>
    <g id="desktop" stroke="none" stroke-width="1" fill="none" fill-rule="evenodd">
        <g id="desktop" transform="translate(-278.000000, -400.000000)" fill="currentColor">
            <g id="desktop" transform="translate(278.000000, 400.000000)">
                <path d="M26.2896,36.0002 L30.2896,36.0002 C30.8426,36.0002 31.2896,35.5532 31.2896,35.0002 C31.2896,34.4472 30.8426,34.0002 30.2896,34.0002 L26.2896,34.0002 C25.7376,34.0002 25.2896,34.4472 25.2896,35.0002 C25.2896,35.5532 25.7376,36.0002 26.2896,36.0002 L26.2896,36.0002 Z M54.2896,30.0002 L2.2896,30.0002 L2.2896,4.0002 C2.2896,2.8972 3.1866,2.0002 4.2896,1.9992 L52.2896,1.9992 C53.3936,2.0002 54.2896,2.8972 54.2896,4.0002 L54.2896,30.0002 Z M54.2896,36.0002 C54.2896,37.1032 53.3936,38.0002 52.2896,38.0002 L4.2896,38.0002 C3.1866,38.0002 2.2896,37.1032 2.2896,36.0002 L2.2896,31.9992 L54.2896,31.9992 L54.2896,36.0002 Z M35.9866,46.0002 L20.5926,46.0002 L23.8446,43.8322 C24.1226,43.6462 24.2896,43.3342 24.2896,43.0002 L24.2896,39.9992 L32.2896,39.9992 L32.2896,43.0002 C32.2896,43.3342 32.4566,43.6462 32.7346,43.8322 L35.9866,46.0002 Z M52.2896,0.0002 L4.2896,0.0002 C2.0846,0.0002 0.2896,1.7942 0.2896,4.0002 L0.2896,36.0002 C0.2896,38.2062 2.0846,40.0002 4.2896,39.9992 L22.2896,39.9992 L22.2896,42.4652 L16.7346,46.1682 C16.3686,46.4122 16.2046,46.8682 16.3326,47.2902 C16.4606,47.7122 16.8496,48.0002 17.2896,48.0002 L39.2896,48.0002 C39.7296,48.0002 40.1196,47.7122 40.2466,47.2902 C40.3746,46.8682 40.2116,46.4122 39.8446,46.1682 L34.2896,42.4652 L34.2896,39.9992 L52.2896,39.9992 C54.4956,40.0002 56.2896,38.2062 56.2896,36.0002 L56.2896,4.0002 C56.2896,1.7942 54.4956,0.0002 52.2896,0.0002 L52.2896,0.0002 Z" id="Fill-6"></path>
            </g>
        </g>
    </g>
</svg>