<?xml version="1.0" encoding="UTF-8" standalone="no"?>
<svg width="62px" height="40px" viewBox="0 0 62 40" version="1.1" xmlns="http://www.w3.org/2000/svg" xmlns:xlink="http://www.w3.org/1999/xlink">
    <!-- Generator: Sketch 45.2 (43514) - http://www.bohemiancoding.com/sketch -->
    <title>Dinning</title>
    <desc>Created with Sketch.</desc>
    <defs>
        <polygon id="path-1" points="62 39.9998 62 0 0.0001 0 0.0001 39.9998"></polygon>
    </defs>
    <g id="dinning" stroke="none" stroke-width="1" fill="none" fill-rule="evenodd">
        <g id="dinning" transform="translate(-471.000000, -555.000000)">
            <g id="dinning" transform="translate(471.000000, 555.000000)">
                <mask id="mask-2" fill="white">
                    <use xlink:href="#path-1"></use>
                </mask>
                <g id="Clip-2"></g>
                <path d="M10.0001,2.9998 C10.0001,2.4468 9.5521,1.9998 9.0001,1.9998 C8.4471,1.9998 8.0001,2.4468 8.0001,2.9998 L8.0001,10.9998 C8.0001,12.3018 7.1611,13.4008 6.0001,13.8148 L6.0001,2.9998 C6.0001,2.4468 5.5521,1.9998 5.0001,1.9998 C4.4471,1.9998 4.0001,2.4468 4.0001,2.9998 L4.0001,13.8148 C2.8381,13.4008 2.0001,12.3018 2.0001,10.9998 L2.0001,2.9998 C2.0001,2.4468 1.5521,1.9998 1.0001,1.9998 C0.4471,1.9998 0.0001,2.4468 0.0001,2.9998 L0.0001,10.9998 C0.0001,13.4138 1.7211,15.4348 4.0001,15.8978 L4.0001,36.9998 C4.0001,37.5528 4.4471,37.9998 5.0001,37.9998 C5.5521,37.9998 6.0001,37.5528 6.0001,36.9998 L6.0001,15.8978 C8.2791,15.4348 10.0001,13.4138 10.0001,10.9998 L10.0001,2.9998 Z M57.0001,13.9998 C55.3461,13.9998 54.0001,12.1418 54.0001,9.8568 C54.0001,7.2288 55.6541,3.9998 57.0001,3.9998 C58.3461,3.9998 60.0001,7.2288 60.0001,9.8568 C60.0001,12.1418 58.6541,13.9998 57.0001,13.9998 L57.0001,13.9998 Z M57.0001,1.9998 C53.9941,1.9998 52.0001,6.7288 52.0001,9.8568 C52.0001,12.8228 53.7211,15.3058 56.0001,15.8758 L56.0001,36.9998 C56.0001,37.5528 56.4471,37.9998 57.0001,37.9998 C57.5531,37.9998 58.0001,37.5528 58.0001,36.9998 L58.0001,15.8758 C60.2791,15.3058 62.0001,12.8228 62.0001,9.8568 C62.0001,6.7288 60.0061,1.9998 57.0001,1.9998 L57.0001,1.9998 Z M31.0001,31.9998 C24.3831,31.9998 19.0001,26.6168 19.0001,19.9998 C19.0001,13.3828 24.3831,7.9998 31.0001,7.9998 C37.6171,7.9998 43.0001,13.3828 43.0001,19.9998 C43.0001,26.6168 37.6171,31.9998 31.0001,31.9998 L31.0001,31.9998 Z M31.0001,5.9998 C23.2801,5.9998 17.0001,12.2798 17.0001,19.9998 C17.0001,27.7198 23.2801,33.9998 31.0001,33.9998 C38.7201,33.9998 45.0001,27.7198 45.0001,19.9998 C45.0001,12.2798 38.7201,5.9998 31.0001,5.9998 L31.0001,5.9998 Z M31.0001,37.9998 C21.0741,37.9998 13.0001,29.9248 13.0001,19.9998 C13.0001,10.0748 21.0741,1.9998 31.0001,1.9998 C40.9251,1.9998 49.0001,10.0748 49.0001,19.9998 C49.0001,29.9248 40.9251,37.9998 31.0001,37.9998 L31.0001,37.9998 Z M31.0001,-0.0002 C19.9721,-0.0002 11.0001,8.9718 11.0001,19.9998 C11.0001,31.0278 19.9721,39.9998 31.0001,39.9998 C42.0281,39.9998 51.0001,31.0278 51.0001,19.9998 C51.0001,8.9718 42.0281,-0.0002 31.0001,-0.0002 L31.0001,-0.0002 Z" id="Fill-1" fill="currentColor" mask="url(#mask-2)"></path>
            </g>
        </g>
    </g>
</svg>