<?xml version="1.0" encoding="UTF-8" standalone="no"?>
<svg width="53px" height="49px" viewBox="0 0 53 49" version="1.1" xmlns="http://www.w3.org/2000/svg" xmlns:xlink="http://www.w3.org/1999/xlink">
    <!-- Generator: Sketch 43.2 (39069) - http://www.bohemiancoding.com/sketch -->
    <title>Disabled</title>
    <desc>Created with Sketch.</desc>
    <defs></defs>
    <g id="eHealth-line-icon-06302017" stroke="none" stroke-width="1" fill="none" fill-rule="evenodd">
        <g id="eHealth-Healthcare-Icons-2017" transform="translate(-1061.000000, -401.000000)" fill="currentColor">
            <g id="Disabled" transform="translate(1061.000000, 401.000000)">
                <path d="M41.7218,40.5671 C43.3758,40.5671 44.7218,41.9131 44.7218,43.5671 C44.7218,45.2211 43.3758,46.5671 41.7218,46.5671 C40.0678,46.5671 38.7218,45.2211 38.7218,43.5671 C38.7218,41.9131 40.0678,40.5671 41.7218,40.5671 L41.7218,40.5671 Z M36.7218,27.5671 L27.0888,27.5671 C27.0058,27.5671 26.9328,27.5951 26.8568,27.6141 C24.5948,23.6841 20.4878,20.9571 15.7218,20.6181 L15.7218,14.5661 L33.7218,14.5661 C35.3758,14.5671 36.7218,15.9131 36.7218,17.5671 L36.7218,27.5671 Z M14.7218,46.5671 C8.1048,46.5671 2.7218,41.1841 2.7218,34.5671 C2.7218,27.9501 8.1048,22.5671 14.7218,22.5671 C21.3388,22.5671 26.7218,27.9501 26.7218,34.5671 C26.7218,41.1841 21.3388,46.5671 14.7218,46.5671 L14.7218,46.5671 Z M51.7218,36.5671 L47.3108,36.5671 L42.5958,28.0821 C42.4198,27.7641 42.0848,27.5671 41.7218,27.5671 L38.7218,27.5671 L38.7218,17.5671 C38.7218,14.8101 36.4788,12.5671 33.7218,12.5671 L15.7218,12.5671 L15.7218,3.5671 C15.7218,1.9131 14.3758,0.5671 12.7218,0.5671 L5.7218,0.5671 C5.1688,0.5671 4.7218,1.0141 4.7218,1.5671 C4.7218,2.1201 5.1688,2.5671 5.7218,2.5661 L12.7218,2.5661 C13.2738,2.5671 13.7218,3.0161 13.7218,3.5671 L13.7218,20.6181 C6.4688,21.1331 0.7218,27.1841 0.7218,34.5671 C0.7218,42.2871 7.0018,48.5671 14.7218,48.5671 C22.4418,48.5671 28.7218,42.2871 28.7218,34.5671 C28.7218,32.8031 28.3798,31.1231 27.7828,29.5661 L36.7218,29.5661 L36.7218,43.5671 C36.7218,46.3241 38.9648,48.5671 41.7218,48.5671 C44.4788,48.5671 46.7218,46.3241 46.7218,43.5671 C46.7218,40.8101 44.4788,38.5671 41.7218,38.5671 C40.5918,38.5671 39.5598,38.9581 38.7218,39.5921 L38.7218,29.5661 L41.1328,29.5661 L45.8478,38.0521 C46.0238,38.3701 46.3588,38.5671 46.7218,38.5671 L51.7218,38.5671 C52.2748,38.5671 52.7218,38.1201 52.7218,37.5671 C52.7218,37.0141 52.2748,36.5671 51.7218,36.5671 L51.7218,36.5671 Z M14.7218,38.5671 C12.5158,38.5671 10.7218,36.7731 10.7218,34.5671 C10.7218,32.3611 12.5158,30.5671 14.7218,30.5671 C16.9278,30.5671 18.7218,32.3611 18.7218,34.5671 C18.7218,36.7731 16.9278,38.5671 14.7218,38.5671 L14.7218,38.5671 Z M14.7218,28.5671 C11.4128,28.5671 8.7218,31.2581 8.7218,34.5671 C8.7218,37.8761 11.4128,40.5671 14.7218,40.5671 C18.0308,40.5671 20.7218,37.8761 20.7218,34.5671 C20.7218,31.2581 18.0308,28.5671 14.7218,28.5671 L14.7218,28.5671 Z" id="Fill-1"></path>
            </g>
        </g>
    </g>
</svg>