<?xml version="1.0" encoding="UTF-8" standalone="no"?>
<svg width="53px" height="48px" viewBox="0 0 53 48" version="1.1" xmlns="http://www.w3.org/2000/svg" xmlns:xlink="http://www.w3.org/1999/xlink">
    <!-- Generator: Sketch 43.2 (39069) - http://www.bohemiancoding.com/sketch -->
    <title>Doctor Briefcase</title>
    <desc>Created with Sketch.</desc>
    <defs></defs>
    <g id="eHealth-line-icon-06302017" stroke="none" stroke-width="1" fill="none" fill-rule="evenodd">
        <g id="eHealth-Healthcare-Icons-2017" transform="translate(-671.000000, -251.000000)" fill="currentColor">
            <g id="Doctor-Briefcase" transform="translate(671.000000, 251.000000)">
                <path d="M34.3088,29.0019 L28.3088,29.0019 C27.7558,29.0019 27.3088,29.4489 27.3088,30.0019 L27.3088,36.0019 L25.3088,36.0019 L25.3088,30.0019 C25.3088,29.4489 24.8618,29.0019 24.3088,29.0019 L18.3088,29.0019 L18.3088,27.0009 L24.3088,27.0009 C24.8618,27.0019 25.3088,26.5549 25.3088,26.0019 L25.3088,20.0009 L27.3088,20.0009 L27.3088,26.0019 C27.3088,26.5549 27.7558,27.0019 28.3088,27.0009 L34.3088,27.0009 L34.3088,29.0019 Z M35.3088,25.0019 L29.3088,25.0019 L29.3088,19.0019 C29.3088,18.4489 28.8618,18.0019 28.3088,18.0019 L24.3088,18.0019 C23.7558,18.0019 23.3088,18.4489 23.3088,19.0019 L23.3088,25.0019 L17.3088,25.0019 C16.7558,25.0019 16.3088,25.4489 16.3088,26.0019 L16.3088,30.0019 C16.3088,30.5549 16.7558,31.0019 17.3088,31.0009 L23.3088,31.0009 L23.3088,37.0019 C23.3088,37.5549 23.7558,38.0019 24.3088,38.0019 L28.3088,38.0019 C28.8618,38.0019 29.3088,37.5549 29.3088,37.0019 L29.3088,31.0009 L35.3088,31.0009 C35.8618,31.0019 36.3088,30.5549 36.3088,30.0019 L36.3088,26.0019 C36.3088,25.4489 35.8618,25.0019 35.3088,25.0019 L35.3088,25.0019 Z M50.3088,44.0019 C50.3088,45.1049 49.4118,46.0019 48.3088,46.0019 L4.3088,46.0019 C3.2058,46.0019 2.3088,45.1049 2.3088,44.0019 L2.3088,12.0019 C2.3088,10.8979 3.2058,10.0019 4.3088,10.0009 L48.3088,10.0009 C49.4118,10.0019 50.3088,10.8979 50.3088,12.0019 L50.3088,44.0019 Z M20.3088,3.0019 C20.3088,2.4509 20.7568,2.0019 21.3088,2.0009 L31.3088,2.0009 C31.8608,2.0019 32.3088,2.4509 32.3088,3.0019 L32.3088,8.0019 L20.3088,8.0019 L20.3088,3.0019 Z M34.3088,8.0019 L34.3088,3.0019 C34.3088,1.3479 32.9628,0.0019 31.3088,0.0019 L21.3088,0.0019 C19.6548,0.0019 18.3088,1.3479 18.3088,3.0019 L18.3088,8.0019 L4.3088,8.0019 C2.1028,8.0019 0.3088,9.7969 0.3088,12.0019 L0.3088,44.0019 C0.3088,46.2079 2.1028,48.0019 4.3088,48.0019 L48.3088,48.0019 C50.5148,48.0019 52.3088,46.2079 52.3088,44.0019 L52.3088,12.0019 C52.3088,9.7969 50.5148,8.0019 48.3088,8.0019 L34.3088,8.0019 Z" id="Fill-49"></path>
            </g>
        </g>
    </g>
</svg>