<?xml version="1.0" encoding="UTF-8" standalone="no"?>
<svg width="43px" height="54px" viewBox="0 0 43 54" version="1.1" xmlns="http://www.w3.org/2000/svg" xmlns:xlink="http://www.w3.org/1999/xlink">
    <!-- Generator: Sketch 43.2 (39069) - http://www.bohemiancoding.com/sketch -->
    <title>Doctor</title>
    <desc>Created with Sketch.</desc>
    <defs></defs>
    <g id="eHealth-line-icon-06302017" stroke="none" stroke-width="1" fill="none" fill-rule="evenodd" stroke-linejoin="round">
        <g id="eHealth-Healthcare-Icons-2017" transform="translate(-286.000000, -248.000000)" stroke="currentColor" stroke-width="2">
            <g id="Doctor" transform="translate(287.000000, 249.000000)">
                <path d="M40.5051,51.9999 L40.5051,33.9499 C40.5051,30.7289 38.5581,27.8619 35.6871,26.8579 L29.9801,24.9599 L20.5051,34.3189 L11.0311,24.9599 L5.3241,26.8579 C2.4531,27.8619 0.5051,30.7289 0.5051,33.9499 L0.5051,51.9999 L40.5051,51.9999 Z" id="Stroke-25"></path>
                <path d="M6.8215,35.3593 L6.8215,52.0003" id="Stroke-27" stroke-linecap="round"></path>
                <path d="M34.1897,35.3593 L34.1897,52.0003" id="Stroke-29" stroke-linecap="round"></path>
                <path d="M20.5051,3.12 L20.5051,7.28" id="Stroke-31" stroke-linecap="round"></path>
                <path d="M18.4006,5.2001 L22.6106,5.2001" id="Stroke-33" stroke-linecap="round"></path>
                <path d="M25.7688,37.4394 L29.9798,37.4394" id="Stroke-35" stroke-linecap="round"></path>
                <path d="M29.9797,10.4003 L11.0317,10.4003 L11.0317,2.0803 C11.0317,0.9313 11.9747,0.0003 13.1367,0.0003 L27.8747,0.0003 C29.0367,0.0003 29.9797,0.9313 29.9797,2.0803 L29.9797,10.4003 Z" id="Stroke-37"></path>
                <path d="M29.9797,10.4003 L29.9797,14.5593 C29.9797,19.7323 25.7337,23.9203 20.5047,23.9203 C15.2777,23.9203 11.0317,19.7323 11.0317,14.5593 L11.0317,10.4003" id="Stroke-39"></path>
                <path d="M20.5051,34.3193 L20.5051,52.0003" id="Stroke-41"></path>
            </g>
        </g>
    </g>
</svg>