<?xml version="1.0" encoding="UTF-8" standalone="no"?>
<svg width="45px" height="53px" viewBox="0 0 45 53" version="1.1" xmlns="http://www.w3.org/2000/svg" xmlns:xlink="http://www.w3.org/1999/xlink">
    <!-- Generator: Sketch 45.2 (43514) - http://www.bohemiancoding.com/sketch -->
    <title>Document</title>
    <desc>Created with Sketch.</desc>
    <defs></defs>
    <g id="document" stroke="none" stroke-width="1" fill="none" fill-rule="evenodd">
        <g id="document" transform="translate(-283.000000, -697.000000)" fill="currentColor">
            <g id="document" transform="translate(283.000000, 697.000000)">
                <path d="M42.0742,49.0214 C42.0742,49.5734 41.6262,50.0214 41.0742,50.0214 L7.0742,50.0214 C6.5222,50.0214 6.0742,49.5734 6.0742,49.0214 L6.0742,48.0204 L37.0742,48.0204 C38.7282,48.0214 40.0742,46.6754 40.0742,45.0214 L40.0742,6.0204 L41.0742,6.0204 C41.6262,6.0204 42.0742,6.4694 42.0742,7.0214 L42.0742,49.0214 Z M3.0742,46.0214 C2.5222,46.0214 2.0742,45.5734 2.0742,45.0214 L2.0742,12.0204 L9.0742,12.0204 C10.7282,12.0214 12.0742,10.6754 12.0742,9.0214 L12.0742,2.0204 L37.0742,2.0204 C37.6262,2.0214 38.0742,2.4694 38.0742,3.0214 L38.0742,45.0214 C38.0742,45.5734 37.6262,46.0214 37.0742,46.0214 L3.0742,46.0214 Z M10.0742,3.4354 L10.0742,9.0214 C10.0742,9.5734 9.6262,10.0214 9.0742,10.0214 L3.4882,10.0214 L10.0742,3.4354 Z M41.0742,4.0214 L40.0742,4.0214 L40.0742,3.0214 C40.0742,1.3674 38.7282,0.0214 37.0742,0.0214 L11.0742,0.0214 C10.9402,0.0214 10.8102,0.0484 10.6892,0.0984 C10.5672,0.1504 10.4582,0.2234 10.3662,0.3154 L0.3682,10.3134 C0.2762,10.4054 0.2032,10.5144 0.1522,10.6364 C0.1012,10.7564 0.0742,10.8874 0.0742,11.0214 L0.0742,45.0214 C0.0742,46.6754 1.4202,48.0204 3.0742,48.0204 L4.0742,48.0204 L4.0742,49.0214 C4.0742,50.6754 5.4202,52.0214 7.0742,52.0214 L41.0742,52.0214 C42.7282,52.0214 44.0742,50.6754 44.0742,49.0214 L44.0742,7.0214 C44.0742,5.3674 42.7282,4.0214 41.0742,4.0214 L41.0742,4.0214 Z M31.0742,28.0214 L9.0742,28.0214 C8.5212,28.0214 8.0742,28.4684 8.0742,29.0214 C8.0742,29.5744 8.5212,30.0214 9.0742,30.0214 L31.0742,30.0214 C31.6272,30.0214 32.0742,29.5744 32.0742,29.0214 C32.0742,28.4684 31.6272,28.0214 31.0742,28.0214 L31.0742,28.0214 Z M31.0742,16.0214 L9.0742,16.0214 C8.5212,16.0214 8.0742,16.4684 8.0742,17.0214 C8.0742,17.5744 8.5212,18.0214 9.0742,18.0214 L31.0742,18.0214 C31.6272,18.0214 32.0742,17.5744 32.0742,17.0214 C32.0742,16.4684 31.6272,16.0214 31.0742,16.0214 L31.0742,16.0214 Z M31.0742,22.0214 L9.0742,22.0214 C8.5212,22.0214 8.0742,22.4684 8.0742,23.0214 C8.0742,23.5744 8.5212,24.0214 9.0742,24.0214 L31.0742,24.0214 C31.6272,24.0214 32.0742,23.5744 32.0742,23.0214 C32.0742,22.4684 31.6272,22.0214 31.0742,22.0214 L31.0742,22.0214 Z" id="Fill-1"></path>
            </g>
        </g>
    </g>
</svg>