<?xml version="1.0" encoding="UTF-8" standalone="no"?>
<svg width="49px" height="49px" viewBox="0 0 49 49" version="1.1" xmlns="http://www.w3.org/2000/svg" xmlns:xlink="http://www.w3.org/1999/xlink">
    <!-- Generator: Sketch 45.2 (43514) - http://www.bohemiancoding.com/sketch -->
    <title>Download</title>
    <desc>Created with Sketch.</desc>
    <defs></defs>
    <g id="download" stroke="none" stroke-width="1" fill="none" fill-rule="evenodd">
        <g id="download" transform="translate(-868.000000, -401.000000)" fill="currentColor">
            <g id="download" transform="translate(868.000000, 401.000000)">
                <path d="M23.6725,33.8464 C23.7215,33.8944 23.7825,33.9204 23.8395,33.9574 C23.8915,33.9924 23.9355,34.0364 23.9935,34.0614 C24.0665,34.0914 24.1475,34.0954 24.2255,34.1084 C24.2775,34.1174 24.3255,34.1394 24.3805,34.1394 C24.4605,34.1394 24.5305,34.1114 24.6065,34.0934 C24.6585,34.0804 24.7145,34.0814 24.7645,34.0614 C24.8375,34.0314 24.8955,33.9794 24.9575,33.9334 C25.0005,33.9024 25.0505,33.8834 25.0885,33.8464 L39.0885,19.8464 C39.4775,19.4544 39.4775,18.8224 39.0885,18.4324 C38.6965,18.0414 38.0635,18.0414 37.6725,18.4324 L25.3795,30.7244 L25.3795,1.1384 C25.3795,0.5864 24.9325,0.1394 24.3805,0.1394 C23.8285,0.1394 23.3805,0.5864 23.3805,1.1384 L23.3805,30.7254 L11.0875,18.4304 C10.6945,18.0394 10.0625,18.0394 9.6725,18.4324 C9.2815,18.8224 9.2815,19.4564 9.6725,19.8464 L23.6725,33.8464 Z M47.4565,33.3704 C46.9465,33.3704 46.5345,33.7834 46.5345,34.2914 L46.5345,41.6784 C46.5305,44.2254 44.4675,46.2904 41.9195,46.2934 L6.8415,46.2934 C4.2935,46.2884 2.2315,44.2254 2.2255,41.6784 L2.2255,34.2914 C2.2255,33.7834 1.8125,33.3704 1.3025,33.3704 C0.7925,33.3704 0.3795,33.7834 0.3795,34.2914 L0.3795,41.6784 C0.3815,45.2474 3.2725,48.1374 6.8415,48.1394 L41.9195,48.1394 C45.4885,48.1394 48.3795,45.2474 48.3795,41.6784 L48.3795,34.2914 C48.3795,33.7834 47.9665,33.3704 47.4565,33.3704 L47.4565,33.3704 Z" id="Fill-1"></path>
            </g>
        </g>
    </g>
</svg>