<?xml version="1.0" encoding="UTF-8" standalone="no"?>
<svg width="47px" height="51px" viewBox="0 0 47 51" version="1.1" xmlns="http://www.w3.org/2000/svg" xmlns:xlink="http://www.w3.org/1999/xlink">
    <!-- Generator: Sketch 45.2 (43514) - http://www.bohemiancoding.com/sketch -->
    <title>Edit Document</title>
    <desc>Created with Sketch.</desc>
    <defs></defs>
    <g id="edit-document" stroke="none" stroke-width="1" fill="none" fill-rule="evenodd" stroke-linejoin="round">
        <g id="edit-document" transform="translate(-88.000000, -700.000000)" stroke="currentColor" stroke-width="2">
            <g id="edit-document" transform="translate(89.000000, 701.000000)">
                <path d="M8.1406,17.5664 L29.2596,17.5664" id="Stroke-9" stroke-linecap="round"></path>
                <path d="M23.5,23.3261 L8.141,23.3261" id="Stroke-11" stroke-linecap="round"></path>
                <path d="M8.1406,29.0859 L17.7406,29.0859" id="Stroke-13" stroke-linecap="round"></path>
                <polygon id="Stroke-15" points="39.8203 13.7265 17.7403 35.8065 15.8203 42.5265 22.5403 40.6065 44.6203 18.5265"></polygon>
                <path d="M36.9404,16.6064 L41.7404,21.4064" id="Stroke-17"></path>
                <path d="M0.46,11.8066 L9.101,11.8066 C10.69,11.8066 11.981,10.5176 11.981,8.9266 L11.981,0.2856" id="Stroke-19"></path>
                <path d="M36.9404,11.8066 L36.9404,3.1656 C36.9404,1.5756 35.6504,0.2856 34.0604,0.2856 L11.9804,0.2856 L0.4604,11.8066 L0.4604,45.4066 C0.4604,46.9966 1.7504,48.2856 3.3394,48.2856 L34.0604,48.2856 C35.6504,48.2856 36.9404,46.9966 36.9404,45.4066 L36.9404,26.2056" id="Stroke-21" stroke-linecap="round"></path>
            </g>
        </g>
    </g>
</svg>