<?xml version="1.0" encoding="UTF-8" standalone="no"?>
<svg width="53px" height="38px" viewBox="0 0 53 38" version="1.1" xmlns="http://www.w3.org/2000/svg" xmlns:xlink="http://www.w3.org/1999/xlink">
    <!-- Generator: Sketch 45.2 (43514) - http://www.bohemiancoding.com/sketch -->
    <title>Email</title>
    <desc>Created with Sketch.</desc>
    <defs></defs>
    <g id="email" stroke="none" stroke-width="1" fill="none" fill-rule="evenodd">
        <g id="email" transform="translate(-475.000000, -254.000000)" fill="currentColor">
            <g id="email" transform="translate(475.000000, 254.000000)">
                <path d="M5.4566,36.0003 C5.1066,36.0003 4.7746,35.9273 4.4706,35.7983 L21.4976,20.3493 L23.8366,22.4703 C24.6996,23.2543 25.7956,23.6503 26.8846,23.6483 L26.8936,23.6483 C27.9796,23.6483 29.0716,23.2523 29.9336,22.4703 L32.2716,20.3493 L49.3006,35.7993 C48.9966,35.9273 48.6636,36.0003 48.3146,36.0003 L5.4566,36.0003 Z M3.0736,34.3653 C2.9546,34.0673 2.8856,33.7433 2.8856,33.4003 L2.8856,4.5993 C2.8856,4.2563 2.9546,3.9323 3.0736,3.6343 L20.0106,18.9993 L3.0736,34.3653 Z M48.3146,1.9993 C48.6646,1.9993 48.9976,2.0723 49.3016,2.2003 L28.5896,20.9893 C28.1016,21.4303 27.4956,21.6473 26.8846,21.6493 C26.2726,21.6473 25.6686,21.4303 25.1806,20.9893 L4.4696,2.2003 C4.7736,2.0723 5.1066,1.9993 5.4566,1.9993 L48.3146,1.9993 Z M33.7606,18.9993 L50.6966,3.6353 C50.8146,3.9333 50.8856,4.2573 50.8856,4.5993 L50.8856,33.4003 C50.8856,33.7423 50.8146,34.0663 50.6966,34.3653 L33.7606,18.9993 Z M52.8856,4.5993 C52.8826,3.3843 52.4056,2.2883 51.6426,1.4653 C51.6356,1.4583 51.6346,1.4483 51.6276,1.4413 C51.6236,1.4373 51.6176,1.4353 51.6136,1.4313 C50.7826,0.5543 49.6176,0.0013 48.3146,0.0003 L5.4566,0.0003 C4.1526,0.0013 2.9866,0.5543 2.1556,1.4313 C2.1516,1.4353 2.1456,1.4373 2.1426,1.4413 C2.1356,1.4483 2.1346,1.4583 2.1276,1.4663 C1.3636,2.2883 0.8876,3.3843 0.8856,4.5993 L0.8856,33.4003 C0.8876,34.6113 1.3616,35.7063 2.1236,36.5283 C2.1316,36.5383 2.1336,36.5503 2.1426,36.5603 C2.1466,36.5653 2.1546,36.5673 2.1596,36.5733 C2.9906,37.4473 4.1546,37.9993 5.4566,38.0003 L48.3146,38.0003 C49.6176,37.9993 50.7836,37.4453 51.6146,36.5663 C51.6176,36.5633 51.6226,36.5623 51.6256,36.5593 C51.6316,36.5523 51.6326,36.5443 51.6386,36.5383 C52.4046,35.7153 52.8826,34.6163 52.8856,33.4003 L52.8856,4.5993 Z" id="Fill-29"></path>
            </g>
        </g>
    </g>
</svg>