<?xml version="1.0" encoding="UTF-8" standalone="no"?>
<svg width="60px" height="48px" viewBox="0 0 60 48" version="1.1" xmlns="http://www.w3.org/2000/svg" xmlns:xlink="http://www.w3.org/1999/xlink">
    <!-- Generator: Sketch 45.2 (43514) - http://www.bohemiancoding.com/sketch -->
    <title>Employees</title>
    <desc>Created with Sketch.</desc>
    <defs></defs>
    <g id="employees" stroke="none" stroke-width="1" fill="none" fill-rule="evenodd">
        <g id="employees" transform="translate(-473.000000, -548.000000)" fill="currentColor">
            <g id="employees" transform="translate(473.000000, 548.000000)">
                <path d="M58.0002,32 L37.0002,32 L37.0002,32.005 C36.7652,32.005 36.5322,32.083 36.3492,32.241 L30.0002,37.683 L23.6502,32.241 C23.4672,32.083 23.2342,32.005 23.0002,32.005 L23.0002,32 L2.0002,32 L2.0002,24 C2.0002,22.637 2.8682,21.432 4.1622,21 L6.7792,20.128 L13.3492,25.76 C13.7242,26.08 14.2752,26.08 14.6502,25.76 L21.2212,20.128 L21.4502,20.205 C21.1612,21.086 21.0002,22.023 21.0002,23 C21.0002,27.963 25.0372,32 30.0002,32 C34.9622,32 39.0002,27.963 39.0002,23 C39.0002,22.023 38.8392,21.086 38.5502,20.205 L38.7792,20.128 L45.3492,25.76 C45.7242,26.08 46.2752,26.08 46.6502,25.76 L53.2212,20.128 L55.8382,21 C57.1312,21.432 58.0002,22.637 58.0002,24 L58.0002,32 Z M42.0002,46 L18.0002,46 L18.0002,38 C18.0002,36.637 18.8682,35.431 20.1622,35 L22.7792,34.128 L29.3492,39.759 C29.7242,40.081 30.2752,40.081 30.6502,39.759 L37.2212,34.128 L39.8382,35.001 C41.1312,35.431 42.0002,36.637 42.0002,38 L42.0002,46 Z M30.0002,16 C33.8592,16 37.0002,19.141 37.0002,23 C37.0002,26.859 33.8592,30 30.0002,30 C26.1402,30 23.0002,26.859 23.0002,23 C23.0002,19.141 26.1402,16 30.0002,16 L30.0002,16 Z M56.4712,19.104 L53.3162,18.051 C52.9812,17.939 52.6152,18.012 52.3492,18.24 L46.0002,23.684 L39.6502,18.24 C39.3842,18.012 39.0172,17.941 38.6842,18.051 L37.7072,18.377 C36.1312,15.76 33.2712,14 30.0002,14 C26.7292,14 23.8682,15.76 22.2932,18.377 L21.3162,18.051 C20.9812,17.941 20.6162,18.012 20.3492,18.24 L14.0002,23.684 L7.6502,18.24 C7.3842,18.012 7.0172,17.941 6.6842,18.051 L3.5292,19.104 C1.4182,19.807 0.0002,21.773 0.0002,24 L0.0002,33 C0.0002,33.553 0.4472,34 1.0002,33.999 L17.9162,33.999 C16.7322,34.96 16.0002,36.409 16.0002,38 L16.0002,47 C16.0002,47.553 16.4472,48 17.0002,48 L43.0002,48 C43.5522,48 44.0002,47.553 44.0002,47 L44.0002,38 C44.0002,36.409 43.2672,34.959 42.0832,33.999 L59.0002,33.999 C59.5522,34 60.0002,33.553 60.0002,33 L60.0002,24 C60.0002,21.773 58.5812,19.807 56.4712,19.104 L56.4712,19.104 Z M14.0002,2 C17.8592,2 21.0002,5.141 21.0002,9 C21.0002,12.859 17.8592,16 14.0002,16 C10.1402,16 7.0002,12.859 7.0002,9 C7.0002,5.141 10.1402,2 14.0002,2 L14.0002,2 Z M14.0002,18 C18.9622,18 23.0002,13.963 23.0002,9 C23.0002,4.037 18.9622,0 14.0002,0 C9.0372,0 5.0002,4.037 5.0002,9 C5.0002,13.963 9.0372,18 14.0002,18 L14.0002,18 Z M46.0002,2 C49.8592,2 53.0002,5.141 53.0002,9 C53.0002,12.859 49.8592,16 46.0002,16 C42.1402,16 39.0002,12.859 39.0002,9 C39.0002,5.141 42.1402,2 46.0002,2 L46.0002,2 Z M46.0002,18 C50.9622,18 55.0002,13.963 55.0002,9 C55.0002,4.037 50.9622,0 46.0002,0 C41.0372,0 37.0002,4.037 37.0002,9 C37.0002,13.963 41.0372,18 46.0002,18 L46.0002,18 Z" id="Fill-1"></path>
            </g>
        </g>
    </g>
</svg>