<?xml version="1.0" encoding="UTF-8" standalone="no"?>
<svg width="41px" height="52px" viewBox="0 0 41 52" version="1.1" xmlns="http://www.w3.org/2000/svg" xmlns:xlink="http://www.w3.org/1999/xlink">
    <!-- Generator: Sketch 43.2 (39069) - http://www.bohemiancoding.com/sketch -->
    <title>Eye Exam</title>
    <desc>Created with Sketch.</desc>
    <defs></defs>
    <g id="eHealth-line-icon-06302017" stroke="none" stroke-width="1" fill="none" fill-rule="evenodd">
        <g id="eHealth-Healthcare-Icons-2017" transform="translate(-871.000000, -399.000000)" fill="currentColor">
            <g id="Eye-Exam" transform="translate(871.000000, 399.000000)">
                <path d="M20.8195,10.9998 C21.9225,10.9998 22.8195,11.8968 22.8195,12.9998 C22.8195,14.1028 21.9225,14.9998 20.8195,14.9998 C19.7165,14.9998 18.8195,14.1028 18.8195,12.9998 C18.8195,11.8968 19.7165,10.9998 20.8195,10.9998 L20.8195,10.9998 Z M20.8195,16.9998 C23.0255,16.9998 24.8195,15.2058 24.8195,12.9998 C24.8195,10.7938 23.0255,8.9998 20.8195,8.9998 C18.6135,8.9998 16.8195,10.7938 16.8195,12.9998 C16.8195,15.2058 18.6135,16.9998 20.8195,16.9998 L20.8195,16.9998 Z M20.8195,7.9998 C23.9635,7.9998 26.8685,9.8578 28.6785,12.9998 C26.8685,16.1418 23.9635,17.9998 20.8195,17.9998 C17.6755,17.9998 14.7705,16.1418 12.9605,12.9998 C14.7705,9.8578 17.6755,7.9998 20.8195,7.9998 L20.8195,7.9998 Z M20.8195,19.9998 C24.8735,19.9998 28.5695,17.5558 30.7065,13.4628 C30.8575,13.1728 30.8575,12.8268 30.7065,12.5368 C28.5695,8.4438 24.8735,5.9998 20.8195,5.9998 C16.7655,5.9998 13.0695,8.4438 10.9325,12.5368 C10.7815,12.8268 10.7815,13.1728 10.9325,13.4628 C13.0695,17.5558 16.7655,19.9998 20.8195,19.9998 L20.8195,19.9998 Z M16.8195,32.9998 C16.8195,33.5528 17.2665,33.9998 17.8195,33.9998 C18.3725,33.9998 18.8195,33.5528 18.8195,32.9998 L18.8195,26.9998 C18.8195,25.3458 17.4735,23.9998 15.8195,23.9998 L9.8195,23.9998 C8.1655,23.9998 6.8195,25.3458 6.8195,26.9998 L6.8195,32.9998 C6.8195,33.5528 7.2665,33.9998 7.8195,33.9998 C8.3725,33.9998 8.8195,33.5528 8.8195,32.9998 L8.8195,26.9998 C8.8195,26.4478 9.2675,25.9998 9.8195,25.9988 L15.8195,25.9988 C16.3715,25.9998 16.8195,26.4478 16.8195,26.9998 L16.8195,32.9998 Z M33.8195,23.9998 C33.2665,23.9998 32.8195,24.4468 32.8195,24.9998 L32.8195,30.9998 C32.8195,31.5518 32.3715,31.9998 31.8195,31.9998 L25.8195,31.9998 C25.2675,31.9998 24.8195,31.5518 24.8195,30.9998 L24.8195,24.9998 C24.8195,24.4468 24.3725,23.9998 23.8195,23.9998 C23.2665,23.9998 22.8195,24.4468 22.8195,24.9998 L22.8195,30.9998 C22.8195,32.6538 24.1655,33.9998 25.8195,33.9988 L31.8195,33.9988 C33.4735,33.9998 34.8195,32.6538 34.8195,30.9998 L34.8195,24.9998 C34.8195,24.4468 34.3725,23.9998 33.8195,23.9998 L33.8195,23.9998 Z M19.8195,39.9988 L23.8195,39.9988 C24.3725,39.9998 24.8195,39.5528 24.8195,38.9998 C24.8195,38.4468 24.3725,37.9998 23.8195,37.9998 L19.8195,37.9998 C18.1655,37.9998 16.8195,39.3458 16.8195,40.9998 L16.8195,42.9998 C16.8195,44.6538 18.1655,45.9998 19.8195,45.9988 L23.8195,45.9988 C24.3725,45.9998 24.8195,45.5528 24.8195,44.9998 C24.8195,44.4468 24.3725,43.9998 23.8195,43.9998 L19.8195,43.9998 C19.2675,43.9998 18.8195,43.5518 18.8195,42.9998 L18.8195,40.9998 C18.8195,40.4478 19.2675,39.9998 19.8195,39.9988 L19.8195,39.9988 Z M33.8195,37.9998 C33.2665,37.9998 32.8195,38.4468 32.8195,38.9998 L32.8195,42.9998 C32.8195,43.5518 32.3715,43.9998 31.8195,43.9998 L29.8195,43.9998 C29.2675,43.9998 28.8195,43.5518 28.8195,42.9998 L28.8195,38.9998 C28.8195,38.4468 28.3725,37.9998 27.8195,37.9998 C27.2665,37.9998 26.8195,38.4468 26.8195,38.9998 L26.8195,42.9998 C26.8195,44.6538 28.1655,45.9998 29.8195,45.9988 L31.8195,45.9988 C33.4735,45.9998 34.8195,44.6538 34.8195,42.9998 L34.8195,38.9998 C34.8195,38.4468 34.3725,37.9998 33.8195,37.9998 L33.8195,37.9998 Z M11.8195,37.9998 L9.8195,37.9998 C8.1655,37.9998 6.8195,39.3458 6.8195,40.9998 L6.8195,44.9998 C6.8195,45.5528 7.2665,45.9998 7.8195,45.9998 C8.3725,45.9998 8.8195,45.5528 8.8195,44.9998 L8.8195,40.9998 C8.8195,40.4478 9.2675,39.9998 9.8195,39.9998 L11.8195,39.9998 C12.3715,39.9998 12.8195,40.4478 12.8195,40.9998 L12.8195,44.9998 C12.8195,45.5528 13.2665,45.9998 13.8195,45.9998 C14.3725,45.9998 14.8195,45.5528 14.8195,44.9998 L14.8195,40.9998 C14.8195,39.3458 13.4735,37.9998 11.8195,37.9998 L11.8195,37.9998 Z M38.8195,47.9998 C38.8195,49.1028 37.9225,49.9998 36.8195,49.9998 L4.8195,49.9998 C3.7165,49.9998 2.8195,49.1028 2.8195,47.9998 L2.8195,3.9998 C2.8195,2.8968 3.7165,1.9998 4.8195,1.9988 L36.8195,1.9988 C37.9225,1.9998 38.8195,2.8968 38.8195,3.9998 L38.8195,47.9998 Z M36.8195,-0.0002 L4.8195,-0.0002 C2.6135,-0.0002 0.8195,1.7938 0.8195,3.9998 L0.8195,47.9998 C0.8195,50.2058 2.6135,51.9998 4.8195,51.9998 L36.8195,51.9998 C39.0255,51.9998 40.8195,50.2058 40.8195,47.9998 L40.8195,3.9998 C40.8195,1.7938 39.0255,-0.0002 36.8195,-0.0002 L36.8195,-0.0002 Z" id="Fill-31"></path>
            </g>
        </g>
    </g>
</svg>