<?xml version="1.0" encoding="UTF-8" standalone="no"?>
<svg width="14px" height="25px" viewBox="0 0 14 25" version="1.1" xmlns="http://www.w3.org/2000/svg" xmlns:xlink="http://www.w3.org/1999/xlink">
    <!-- Generator: Sketch 45.2 (43514) - http://www.bohemiancoding.com/sketch -->
    <title>Facebook</title>
    <desc>Created with Sketch.</desc>
    <defs></defs>
    <g id="facebook" stroke="none" stroke-width="1" fill="none" fill-rule="evenodd">
        <g id="facebook" transform="translate(-105.000000, -876.000000)" stroke="currentColor">
            <g id="facebook" transform="translate(106.000000, 877.000000)">
                <path d="M9.42759385,4.15368205 C10.1291528,4.12820513 10.83024,4.14707692 11.5336862,4.14707692 L11.8233682,4.14707692 L11.8233682,0.49585641 C11.4482913,0.46 11.0562297,0.405271795 10.66464,0.3864 C9.94515282,0.354789744 9.22425026,0.318933333 8.50381949,0.335917949 C7.40406564,0.359035897 6.36328615,0.62654359 5.45366564,1.27762051 C4.41194256,2.02777436 3.84012718,3.08129231 3.62168615,4.32447179 C3.53110154,4.83636923 3.50798359,5.36949744 3.49430154,5.88988718 C3.47448615,6.70939487 3.49147077,7.52701538 3.49241436,8.34652308 L3.49241436,8.65413333 L0.000188717949,8.65413333 L0.000188717949,12.7313846 L3.47118359,12.7313846 L3.47118359,22.9773538 L7.71356308,22.9773538 L7.71356308,12.7478974 L11.1741785,12.7478974 C11.3515733,11.3910154 11.5251938,10.0492308 11.7063631,8.65224615 C11.4280041,8.65224615 11.1788964,8.64988718 10.9293169,8.65224615 C9.94515282,8.65649231 7.68667077,8.65224615 7.68667077,8.65224615 C7.68667077,8.65224615 7.69563487,6.63154872 7.72016821,5.75495385 C7.75366564,4.5542359 8.4660759,4.18717949 9.42759385,4.15368205 Z" id="Stroke-3"></path>
            </g>
        </g>
    </g>
</svg>