<?xml version="1.0" encoding="UTF-8" standalone="no"?>
<svg width="48px" height="48px" viewBox="0 0 48 48" version="1.1" xmlns="http://www.w3.org/2000/svg" xmlns:xlink="http://www.w3.org/1999/xlink">
    <!-- Generator: Sketch 45.2 (43514) - http://www.bohemiancoding.com/sketch -->
    <title>Facebook Circle</title>
    <desc>Created with Sketch.</desc>
    <defs></defs>
    <g id="facebook-circle" stroke="none" stroke-width="1" fill="none" fill-rule="evenodd">
        <g id="facebook-circle" transform="translate(-88.000000, -702.000000)" fill="currentColor">
            <g id="facebook-circle" transform="translate(88.000000, 702.000000)">
                <path d="M23.9782,2.16 C14.5262,2.16 6.1502,8.246 3.2302,17.234 C0.3082,26.222 3.5082,36.07 11.1542,41.624 C18.8002,47.182 29.1542,47.182 36.8002,41.624 C44.4462,36.07 47.6462,26.222 44.7262,17.234 C41.8062,8.246 33.4302,2.16 23.9782,2.16 M46.7802,16.566 C49.9902,26.446 46.4742,37.268 38.0702,43.372 C29.6682,49.478 18.2882,49.478 9.8842,43.372 C1.4822,37.268 -2.0358,26.446 1.1762,16.566 C4.3842,6.688 13.5922,0 23.9782,0 C34.3642,0 43.5702,6.688 46.7802,16.566" id="Fill-1"></path>
                <path d="M27.238,17.0232 C27.888,16.9992 28.536,17.0172 29.19,17.0172 L29.458,17.0172 L29.458,13.6332 C29.112,13.5992 28.748,13.5492 28.384,13.5312 C27.716,13.5012 27.048,13.4692 26.38,13.4832 C25.362,13.5052 24.396,13.7532 23.554,14.3572 C22.588,15.0532 22.058,16.0292 21.856,17.1812 C21.772,17.6552 21.75,18.1492 21.738,18.6332 C21.718,19.3932 21.734,20.1492 21.736,20.9092 L21.736,21.1952 L18.498,21.1952 L18.498,24.9752 L21.716,24.9752 L21.716,34.4732 L25.648,34.4732 L25.648,24.9892 L28.858,24.9892 C29.022,23.7312 29.182,22.4872 29.35,21.1932 C29.092,21.1932 28.862,21.1912 28.628,21.1932 C27.716,21.1972 25.622,21.1932 25.622,21.1932 C25.622,21.1932 25.632,19.3192 25.654,18.5072 C25.686,17.3952 26.346,17.0552 27.238,17.0232" id="Fill-3"></path>
            </g>
        </g>
    </g>
</svg>