<?xml version="1.0" encoding="UTF-8" standalone="no"?>
<svg width="40px" height="50px" viewBox="0 0 40 50" version="1.1" xmlns="http://www.w3.org/2000/svg" xmlns:xlink="http://www.w3.org/1999/xlink">
    <!-- Generator: Sketch 45.2 (43514) - http://www.bohemiancoding.com/sketch -->
    <title>Filter</title>
    <desc>Created with Sketch.</desc>
    <defs></defs>
    <g id="filter" stroke="none" stroke-width="1" fill="none" fill-rule="evenodd">
        <g id="filter" transform="translate(-678.000000, -248.000000)" stroke="currentColor" stroke-width="2">
            <g id="filter" transform="translate(679.000000, 249.000000)">
                <path d="M1.9048,-0.0002 C1.3748,-0.0002 0.9448,0.4298 0.9448,0.9598 C0.9448,1.1188 0.9838,1.2748 1.0598,1.4158 L14.3838,26.1598 L14.3878,47.0398 C14.3878,47.5698 14.8178,47.9998 15.3478,47.9998 C15.4978,47.9998 15.6438,47.9648 15.7768,47.8988 L23.4578,44.0588 C23.7818,43.8958 23.9878,43.5638 23.9878,43.2008 L23.9908,26.1598 L37.3148,1.4158 C37.5668,0.9488 37.3918,0.3658 36.9258,0.1148 C36.7858,0.0398 36.6288,-0.0002 36.4688,-0.0002 L1.9058,-0.0002 L1.9048,-0.0002 Z" id="Stroke-27"></path>
            </g>
        </g>
    </g>
</svg>