<?xml version="1.0" encoding="UTF-8" standalone="no"?>
<svg width="52px" height="52px" viewBox="0 0 52 52" version="1.1" xmlns="http://www.w3.org/2000/svg" xmlns:xlink="http://www.w3.org/1999/xlink">
    <!-- Generator: Sketch 45.2 (43514) - http://www.bohemiancoding.com/sketch -->
    <title>Follow Up</title>
    <desc>Created with Sketch.</desc>
    <defs></defs>
    <g id="follow-up" stroke="none" stroke-width="1" fill="none" fill-rule="evenodd">
        <g id="follow-up" transform="translate(-671.000000, -247.000000)" fill="currentColor">
            <g id="follow-up" transform="translate(671.000000, 247.000000)">
                <path d="M12.9616,46.0001 C14.9796,42.9281 15.9996,39.5731 15.9996,36.0001 L15.9996,30.0001 C15.9996,25.5901 19.5886,22.0001 23.9996,22.0001 L27.9996,22.0001 C32.4106,22.0001 35.9996,25.5901 35.9996,30.0001 L35.9996,36.0001 C35.9996,39.5731 37.0206,42.9281 39.0376,46.0001 L12.9616,46.0001 Z M25.9996,50.0001 C24.6976,50.0001 23.5986,49.1621 23.1846,47.9991 L28.8156,47.9991 C28.4006,49.1621 27.3016,50.0001 25.9996,50.0001 L25.9996,50.0001 Z M24.9996,19.0001 C24.9996,18.4491 25.4476,18.0001 25.9996,18.0001 C26.5516,18.0001 26.9996,18.4491 26.9996,19.0001 L26.9996,20.0001 L24.9996,20.0001 L24.9996,19.0001 Z M37.9996,36.0001 L37.9996,30.0001 C37.9996,24.8241 34.0456,20.5551 28.9996,20.0511 L28.9996,19.0001 C28.9996,17.3461 27.6536,16.0001 25.9996,16.0001 C24.3456,16.0001 22.9996,17.3461 22.9996,19.0001 L22.9996,20.0511 C17.9536,20.5551 13.9996,24.8241 13.9996,30.0001 L13.9996,36.0001 C13.9996,39.8011 12.7636,43.1951 10.2186,46.3751 C9.9786,46.6761 9.9326,47.0871 10.0986,47.4341 C10.2656,47.7791 10.6146,48.0001 10.9996,47.9991 L21.1016,47.9991 C21.5656,50.2791 23.5856,52.0001 25.9996,52.0001 C28.4136,52.0001 30.4346,50.2791 30.8986,47.9991 L40.9996,47.9991 C41.3846,48.0001 41.7336,47.7791 41.9006,47.4341 C42.0666,47.0871 42.0216,46.6761 41.7806,46.3751 C39.2356,43.1951 37.9996,39.8011 37.9996,36.0001 L37.9996,36.0001 Z M49.9996,12.0001 L1.9996,12.0001 L1.9996,8.0001 C1.9996,6.8961 2.8976,6.0001 3.9996,5.9991 L13.9996,5.9991 L13.9996,7.0001 C13.9996,8.6541 15.3456,10.0001 16.9996,10.0001 C18.6536,10.0001 19.9996,8.6541 19.9996,7.0001 L19.9996,5.9991 L31.9996,5.9991 L31.9996,7.0001 C31.9996,8.6541 33.3456,10.0001 34.9996,10.0001 C36.6536,10.0001 37.9996,8.6541 37.9996,7.0001 L37.9996,5.9991 L47.9996,5.9991 C49.1026,6.0001 49.9996,6.8961 49.9996,8.0001 L49.9996,12.0001 Z M15.9996,3.0001 C15.9996,2.4491 16.4476,2.0001 16.9996,2.0001 C17.5516,2.0001 17.9996,2.4491 17.9996,3.0001 L17.9996,7.0001 C17.9996,7.5511 17.5516,8.0001 16.9996,8.0001 C16.4476,8.0001 15.9996,7.5511 15.9996,7.0001 L15.9996,3.0001 Z M33.9996,3.0001 C33.9996,2.4491 34.4476,2.0001 34.9996,2.0001 C35.5516,2.0001 35.9996,2.4491 35.9996,3.0001 L35.9996,7.0001 C35.9996,7.5511 35.5516,8.0001 34.9996,8.0001 C34.4476,8.0001 33.9996,7.5511 33.9996,7.0001 L33.9996,3.0001 Z M47.9996,4.0001 L37.9996,4.0001 L37.9996,3.0001 C37.9996,1.3461 36.6536,0.0001 34.9996,0.0001 C33.3456,0.0001 31.9996,1.3461 31.9996,3.0001 L31.9996,4.0001 L19.9996,4.0001 L19.9996,3.0001 C19.9996,1.3461 18.6536,0.0001 16.9996,0.0001 C15.3456,0.0001 13.9996,1.3461 13.9996,3.0001 L13.9996,4.0001 L3.9996,4.0001 C1.7936,4.0001 -0.0004,5.7951 -0.0004,8.0001 L-0.0004,44.0001 C-0.0004,46.2051 1.7936,48.0001 3.9996,48.0001 L6.9996,48.0001 C7.5526,48.0001 7.9996,47.5531 7.9996,47.0001 C7.9996,46.4471 7.5526,46.0001 6.9996,46.0001 L3.9996,46.0001 C2.8976,46.0001 1.9996,45.1041 1.9996,44.0001 L1.9996,13.9991 L49.9996,13.9991 L49.9996,44.0001 C49.9996,45.1041 49.1026,46.0001 47.9996,46.0001 L44.9996,46.0001 C44.4466,46.0001 43.9996,46.4471 43.9996,47.0001 C43.9996,47.5531 44.4466,48.0001 44.9996,48.0001 L47.9996,48.0001 C50.2056,48.0001 51.9996,46.2051 51.9996,44.0001 L51.9996,8.0001 C51.9996,5.7951 50.2056,4.0001 47.9996,4.0001 L47.9996,4.0001 Z" id="Fill-1"></path>
            </g>
        </g>
    </g>
</svg>