<?xml version="1.0" encoding="UTF-8" standalone="no"?>
<svg width="49px" height="53px" viewBox="0 0 49 53" version="1.1" xmlns="http://www.w3.org/2000/svg" xmlns:xlink="http://www.w3.org/1999/xlink">
    <!-- Generator: Sketch 45.2 (43514) - http://www.bohemiancoding.com/sketch -->
    <title>Gift</title>
    <desc>Created with Sketch.</desc>
    <defs></defs>
    <g id="gift" stroke="none" stroke-width="1" fill="none" fill-rule="evenodd" stroke-linejoin="round">
        <g id="gift" transform="translate(-681.000000, -548.000000)" stroke="currentColor" stroke-width="2">
            <g id="gift" transform="translate(682.000000, 549.000000)">
                <path d="M44.8975,26.1576 L44.8975,47.1576 C44.8975,48.8146 43.5535,50.1576 41.8975,50.1576 L5.8975,50.1576 C4.2415,50.1576 2.8975,48.8146 2.8975,47.1576 L2.8975,26.1576" id="Stroke-6"></path>
                <path d="M46.8975,26.1576 L0.8975,26.1576 L0.8975,17.1576 C0.8975,15.5006 2.2415,14.1576 3.8975,14.1576 L43.8975,14.1576 C45.5535,14.1576 46.8975,15.5006 46.8975,17.1576 L46.8975,26.1576 Z" id="Stroke-8"></path>
                <path d="M23.8975,50.1576 L23.8975,7.1576" id="Stroke-10"></path>
                <path d="M15.8975,22.1576 C15.8975,17.7396 19.4795,14.1576 23.8975,14.1576 C28.3155,14.1576 31.8975,17.7396 31.8975,22.1576" id="Stroke-12" stroke-linecap="round"></path>
                <path d="M16.8975,14.1576 C13.0315,14.1576 9.8975,11.0236 9.8975,7.1576 C9.8975,3.2916 13.0315,0.1576 16.8975,0.1576 C20.7635,0.1576 23.8975,3.2916 23.8975,7.1576" id="Stroke-14"></path>
                <path d="M30.8975,14.1576 C34.7635,14.1576 37.8975,11.0236 37.8975,7.1576 C37.8975,3.2916 34.7635,0.1576 30.8975,0.1576 C27.0315,0.1576 23.8975,3.2916 23.8975,7.1576" id="Stroke-16"></path>
            </g>
        </g>
    </g>
</svg>