<?xml version="1.0" encoding="UTF-8" standalone="no"?>
<svg width="53px" height="52px" viewBox="0 0 53 52" version="1.1" xmlns="http://www.w3.org/2000/svg" xmlns:xlink="http://www.w3.org/1999/xlink">
    <!-- Generator: Sketch 45.2 (43514) - http://www.bohemiancoding.com/sketch -->
    <title>Global</title>
    <desc>Created with Sketch.</desc>
    <defs></defs>
    <g id="global" stroke="none" stroke-width="1" fill="none" fill-rule="evenodd">
        <g id="global" transform="translate(-1060.000000, -697.000000)" fill="currentColor">
            <g id="global" transform="translate(1060.000000, 697.000000)">
                <path d="M43.1055,43.6966 C41.6695,42.5516 40.1315,41.5646 38.5065,40.7546 C39.9365,36.8416 40.7985,32.1326 40.8985,26.9996 L50.8865,26.9996 C50.6145,33.5976 47.6695,39.5156 43.1055,43.6966 L43.1055,43.6966 Z M37.7585,42.6186 C39.0855,43.2926 40.3495,44.0926 41.5395,45.0086 C39.1535,46.8476 36.4155,48.2486 33.4425,49.0906 C35.1135,47.4876 36.5795,45.2856 37.7585,42.6186 L37.7585,42.6186 Z M12.2855,45.0086 C13.4745,44.0926 14.7385,43.2926 16.0655,42.6186 C17.2445,45.2856 18.7105,47.4876 20.3815,49.0906 C17.4095,48.2486 14.6695,46.8476 12.2855,45.0086 L12.2855,45.0086 Z M2.9375,26.9996 L12.9245,26.9996 C13.0255,32.1326 13.8875,36.8406 15.3175,40.7546 C13.6925,41.5646 12.1535,42.5516 10.7185,43.6966 C6.1545,39.5156 3.2095,33.5976 2.9375,26.9996 L2.9375,26.9996 Z M10.7185,8.3036 C12.1535,9.4486 13.6925,10.4356 15.3175,11.2466 C13.8875,15.1606 13.0255,19.8686 12.9245,25.0006 L2.9375,25.0006 C3.2095,18.4026 6.1545,12.4846 10.7185,8.3036 L10.7185,8.3036 Z M16.0655,9.3826 C14.7385,8.7086 13.4745,7.9086 12.2855,6.9926 C14.6695,5.1526 17.4095,3.7526 20.3815,2.9106 C18.7105,4.5126 17.2445,6.7156 16.0655,9.3826 L16.0655,9.3826 Z M41.5395,6.9916 C40.3495,7.9086 39.0855,8.7086 37.7585,9.3826 C36.5795,6.7156 35.1135,4.5126 33.4425,2.9106 C36.4155,3.7526 39.1535,5.1526 41.5395,6.9916 L41.5395,6.9916 Z M27.9125,25.0006 L27.9125,13.9556 C30.9175,13.8396 33.8575,13.2056 36.6175,12.0926 C37.9595,15.7896 38.7955,20.2406 38.8985,25.0006 L27.9125,25.0006 Z M27.9125,38.0456 L27.9125,26.9996 L38.8985,26.9996 C38.7955,31.7596 37.9595,36.2116 36.6175,39.9076 C33.8575,38.7956 30.9175,38.1616 27.9125,38.0456 L27.9125,38.0456 Z M27.9125,49.9066 L27.9125,40.0456 C30.6605,40.1606 33.3485,40.7436 35.8735,41.7616 C33.8675,46.2986 31.0395,49.3616 27.9125,49.9066 L27.9125,49.9066 Z M25.9125,40.0456 L25.9125,49.9066 C22.7855,49.3616 19.9575,46.2986 17.9515,41.7616 C20.4755,40.7436 23.1645,40.1606 25.9125,40.0456 L25.9125,40.0456 Z M25.9125,26.9996 L25.9125,38.0456 C22.9065,38.1616 19.9655,38.7956 17.2075,39.9076 C15.8645,36.2116 15.0285,31.7596 14.9245,26.9996 L25.9125,26.9996 Z M25.9125,13.9556 L25.9125,25.0006 L14.9245,25.0006 C15.0285,20.2406 15.8645,15.7896 17.2075,12.0926 C19.9655,13.2056 22.9065,13.8396 25.9125,13.9556 L25.9125,13.9556 Z M25.9125,2.0936 L25.9125,11.9556 C23.1645,11.8406 20.4755,11.2576 17.9515,10.2386 C19.9575,5.7026 22.7855,2.6386 25.9125,2.0936 L25.9125,2.0936 Z M27.9125,2.0936 C31.0395,2.6386 33.8675,5.7026 35.8735,10.2386 C33.3485,11.2576 30.6605,11.8406 27.9125,11.9556 L27.9125,2.0936 Z M50.8865,25.0006 L40.8985,25.0006 C40.7985,19.8686 39.9365,15.1596 38.5065,11.2466 C40.1315,10.4356 41.6695,9.4486 43.1055,8.3036 C47.6695,12.4846 50.6145,18.4026 50.8865,25.0006 L50.8865,25.0006 Z M26.9125,0.0006 C12.5755,0.0006 0.9125,11.6636 0.9125,26.0006 C0.9125,40.3376 12.5755,52.0006 26.9125,52.0006 C41.2495,52.0006 52.9125,40.3376 52.9125,26.0006 C52.9125,11.6636 41.2495,0.0006 26.9125,0.0006 L26.9125,0.0006 Z" id="Fill-21"></path>
            </g>
        </g>
    </g>
</svg>