<?xml version="1.0" encoding="UTF-8" standalone="no"?>
<svg width="40px" height="52px" viewBox="0 0 40 52" version="1.1" xmlns="http://www.w3.org/2000/svg" xmlns:xlink="http://www.w3.org/1999/xlink">
    <!-- Generator: Sketch 43.2 (39069) - http://www.bohemiancoding.com/sketch -->
    <title>Glossary</title>
    <desc>Created with Sketch.</desc>
    <defs>
        <polygon id="path-1" points="19.99995 52 0 52 0 0 19.99995 0 39.9999 0 39.9999 52"></polygon>
    </defs>
    <g id="eHealth-line-icon-06302017" stroke="none" stroke-width="1" fill="none" fill-rule="evenodd">
        <g id="eHealth-Healthcare-Icons-2017" transform="translate(-874.000000, -848.000000)">
            <g id="Glossary" transform="translate(874.000000, 848.000000)">
                <mask id="mask-2" fill="white">
                    <use xlink:href="#path-1"></use>
                </mask>
                <g id="Clip-2"></g>
                <path d="M26.9999,29.999 L29.9999,29.999 L29.9999,31 C29.9999,31.552 29.5519,32 28.9999,32 L26.9999,32 C26.4479,32 25.9999,31.552 25.9999,31 C25.9999,30.448 26.4479,30 26.9999,29.999 L26.9999,29.999 Z M26.9999,33.999 L28.9999,33.999 C29.7709,33.999 30.4679,33.699 30.9999,33.22 C31.5319,33.699 32.2289,34 32.9999,34 C33.5529,34 33.9999,33.553 33.9999,33 C33.9999,32.447 33.5529,32 32.9999,32 C32.4479,32 31.9999,31.552 31.9999,31 L31.9999,27 C31.9999,25.346 30.6539,24 28.9999,24 L25.9999,24 C25.4469,24 24.9999,24.447 24.9999,25 C24.9999,25.553 25.4469,26 25.9999,25.999 L28.9999,25.999 C29.5519,26 29.9999,26.448 29.9999,27 L29.9999,28 L26.9999,28 C25.3459,28 23.9999,29.346 23.9999,31 C23.9999,32.654 25.3459,33.999 26.9999,33.999 L26.9999,33.999 Z M15.9999,23.6 L17.8339,28 L14.1659,28 L15.9999,23.6 Z M10.6149,33.923 C11.1239,34.136 11.7099,33.895 11.9229,33.385 L13.3329,29.999 L18.6669,29.999 L20.0769,33.385 C20.2369,33.769 20.6079,34 20.9999,34 C21.1289,34 21.2589,33.976 21.3849,33.923 C21.8949,33.711 22.1359,33.125 21.9229,32.615 L16.9229,20.615 C16.7679,20.243 16.4029,20 15.9999,20 C15.5969,20 15.2319,20.243 15.0769,20.615 L10.0769,32.615 C9.8639,33.125 10.1049,33.711 10.6149,33.923 L10.6149,33.923 Z M5.9999,50 L37.9999,50 L37.9999,7.999 L5.9999,7.999 L5.9999,50 Z M3.9999,6 C2.8969,6 1.9999,5.103 1.9999,4 C1.9999,2.897 2.8969,2 3.9999,1.999 L33.9999,1.999 L33.9999,6 L3.9999,6 Z M3.9999,49.815 C2.8389,49.401 1.9999,48.302 1.9999,47 L1.9999,7.463 C2.5889,7.805 3.2719,8 3.9999,8 L3.9999,49.815 Z M38.9999,6 L35.9999,6 L35.9999,1 C35.9999,0.447 35.5529,0 34.9999,0 L3.9999,0 C1.7939,0 -0.0001,1.794 -0.0001,4 L-0.0001,47 C-0.0001,49.757 2.2429,52 4.9999,52 L38.9999,52 C39.5529,52 39.9999,51.553 39.9999,51 L39.9999,7 C39.9999,6.447 39.5529,6 38.9999,6 L38.9999,6 Z" id="Fill-1" fill="currentColor" mask="url(#mask-2)"></path>
            </g>
        </g>
    </g>
</svg>