<?xml version="1.0" encoding="UTF-8" standalone="no"?>
<svg width="52px" height="52px" viewBox="0 0 52 52" version="1.1" xmlns="http://www.w3.org/2000/svg" xmlns:xlink="http://www.w3.org/1999/xlink">
    <!-- Generator: Sketch 45.2 (43514) - http://www.bohemiancoding.com/sketch -->
    <title>Goal</title>
    <desc>Created with Sketch.</desc>
    <defs>
        <polygon id="path-1" points="52 51.9996 52 0 0.0001 0 0.0001 51.9996 52 51.9996"></polygon>
    </defs>
    <g id="goal" stroke="none" stroke-width="1" fill="none" fill-rule="evenodd">
        <g id="goal" transform="translate(-86.000000, -698.000000)">
            <g id="goal" transform="translate(86.000000, 698.000000)">
                <mask id="mask-2" fill="white">
                    <use xlink:href="#path-1"></use>
                </mask>
                <g id="Clip-2"></g>
                <path d="M27.7781,18.2056 C28.3191,18.3306 28.8521,17.9896 28.9751,17.4516 C29.0971,16.9146 28.7601,16.3776 28.2211,16.2566 C27.4761,16.0856 26.7281,15.9996 26.0001,15.9996 C20.4861,15.9996 16.0001,20.4856 16.0001,25.9996 C16.0001,31.5146 20.4861,35.9996 26.0001,35.9996 C31.5141,35.9996 36.0001,31.5146 36.0001,25.9996 C36.0001,25.2716 35.9141,24.5226 35.7451,23.7776 C35.6221,23.2396 35.0901,22.9006 34.5481,23.0256 C34.0091,23.1476 33.6721,23.6846 33.7951,24.2226 C33.9301,24.8226 34.0001,25.4196 34.0001,25.9996 C34.0001,30.4106 30.4111,33.9996 26.0001,33.9996 C21.5891,33.9996 18.0001,30.4106 18.0001,25.9996 C18.0011,21.0106 22.6101,17.0306 27.7781,18.2056 L27.7781,18.2056 Z M33.9111,10.9346 C34.1381,10.4306 33.9161,9.8386 33.4131,9.6096 C31.0541,8.5406 28.5601,7.9996 26.0001,7.9996 C16.0751,7.9996 8.0001,16.0736 8.0001,25.9996 C8.0001,35.9266 16.0751,43.9996 26.0001,43.9996 C35.9251,43.9996 44.0001,35.9266 44.0001,25.9996 C44.0001,23.4396 43.4591,20.9446 42.3901,18.5886 C42.1631,18.0846 41.5691,17.8636 41.0671,18.0896 C40.5641,18.3156 40.3411,18.9106 40.5681,19.4116 C41.5181,21.5106 42.0001,23.7266 42.0001,25.9996 C42.0001,34.8226 34.8221,41.9996 26.0001,41.9996 C17.1771,41.9996 10.0001,34.8226 10.0001,25.9996 C10.0001,17.1776 17.1771,9.9996 26.0001,9.9996 C28.2741,9.9996 30.4901,10.4806 32.5881,11.4316 C33.0901,11.6596 33.6831,11.4356 33.9111,10.9346 L33.9111,10.9346 Z M49.8581,15.6616 C49.6371,15.1536 49.0481,14.9236 48.5431,15.1426 C48.0361,15.3616 47.8031,15.9516 48.0231,16.4566 C49.3351,19.4806 50.0001,22.6906 50.0001,25.9996 C50.0001,39.2326 39.2331,49.9996 26.0001,49.9996 C12.7661,49.9996 2.0001,39.2326 2.0001,25.9996 C2.0001,12.7666 12.7661,1.9996 26.0001,1.9996 C29.3091,1.9996 32.5201,2.6646 35.5441,3.9766 C36.0491,4.1976 36.6381,3.9646 36.8591,3.4566 C37.0791,2.9516 36.8461,2.3616 36.3401,2.1436 C33.0641,0.7206 29.5861,-0.0004 26.0001,-0.0004 C11.6641,-0.0004 0.0001,11.6646 0.0001,25.9996 C0.0001,40.3356 11.6641,51.9996 26.0001,51.9996 C40.3371,51.9996 52.0001,40.3356 52.0001,25.9996 C52.0001,22.4156 51.2791,18.9366 49.8581,15.6616 L49.8581,15.6616 Z M40.0001,7.4146 L44.0001,3.4146 L44.0001,6.9996 C44.0001,7.5526 44.4481,7.9996 45.0001,7.9996 L48.5861,7.9996 L44.5861,11.9996 L40.0001,11.9996 L40.0001,7.4146 Z M26.0001,23.9996 C24.8971,23.9996 24.0001,24.8966 24.0001,25.9996 C24.0001,27.1026 24.8971,27.9996 26.0001,27.9996 C27.1031,27.9996 28.0001,27.1026 28.0001,25.9996 C28.0001,25.8226 27.9691,25.6516 27.9251,25.4886 L39.4141,13.9986 L45.0001,13.9986 C45.2651,13.9996 45.5191,13.8936 45.7071,13.7066 L51.7071,7.7066 C51.9931,7.4206 52.0791,6.9906 51.9241,6.6176 C51.7691,6.2436 51.4041,5.9996 51.0001,5.9996 L46.0001,5.9996 L46.0001,0.9996 C46.0001,0.5956 45.7571,0.2306 45.3821,0.0766 C45.0071,-0.0774 44.5791,0.0076 44.2931,0.2936 L38.2931,6.2936 C38.1051,6.4806 38.0001,6.7346 38.0001,6.9996 L38.0001,12.5856 L26.5111,24.0736 C26.3471,24.0306 26.1771,23.9996 26.0001,23.9996 L26.0001,23.9996 Z" id="Fill-1" fill="currentColor" mask="url(#mask-2)"></path>
            </g>
        </g>
    </g>
</svg>