<?xml version="1.0" encoding="UTF-8" standalone="no"?>
<svg width="30px" height="20px" viewBox="0 0 30 20" version="1.1" xmlns="http://www.w3.org/2000/svg" xmlns:xlink="http://www.w3.org/1999/xlink">
    <!-- Generator: Sketch 45.2 (43514) - http://www.bohemiancoding.com/sketch -->
    <title>Google Plus</title>
    <desc>Created with Sketch.</desc>
    <defs></defs>
    <g id="google-plus" stroke="none" stroke-width="1" fill="none" fill-rule="evenodd">
        <g id="google-plus" transform="translate(-488.000000, -879.000000)" stroke="currentColor">
            <g id="google-plus" transform="translate(489.000000, 880.000000)">
                <path d="M9.01071375,7.31135939 C9.00753594,7.36220429 9.00208827,7.40714754 9.00208827,7.44800504 C9.00208827,8.50031274 9.00526608,10.7769836 9.00526608,10.7769836 L13.62171,10.7769836 C13.62171,11.1192787 13.2167667,12.4957226 11.9265776,13.3714351 C11.1711677,13.8826078 10.3208777,14.1191274 9.42065069,14.1758739 C8.78554351,14.2162774 8.16042371,14.1536293 7.54937705,13.9579672 C5.62408071,13.3410189 4.19089029,11.5977654 3.99386633,9.47589912 C3.94619924,8.9524691 3.98070113,8.42949306 4.09918789,7.91196469 C4.67073897,5.403314 7.04864565,3.54202774 9.77111728,3.94333922 C10.9773216,4.12265826 11.6718991,4.62338966 12.3051904,5.16497856 C13.1382295,4.33012358 13.964913,3.50525599 14.8129332,2.65405801 C14.6063758,2.50560908 14.1306129,2.02122068 13.2848625,1.53274653 C12.0191879,0.801397226 10.6545473,0.435041614 9.19457251,0.418244641 C8.91991929,0.416428752 8.64390416,0.432771753 8.37015889,0.445029004 C7.88713241,0.463641866 7.41409332,0.546718789 6.94877175,0.664751576 C5.08385372,1.14142245 3.53580832,2.12064061 2.32234048,3.61557125 C1.15517781,5.05103153 0.530058008,6.7025826 0.415203026,8.5434401 C0.365266078,9.32336444 0.425644388,10.1010189 0.597699874,10.8646003 C1.08208827,13.0009937 2.20203783,14.7256343 3.97025977,16.0185473 C5.33989407,17.0227339 6.88294578,17.5561513 8.57490038,17.6496696 C9.52551828,17.7005145 10.4725044,17.6133518 11.4013317,17.3709306 C13.1286961,16.9187743 14.5632484,16.0162774 15.6414325,14.5808172 C17.204913,12.5038941 17.581256,9.84043884 17.1209281,7.31135939 L9.01071375,7.31135939 Z" id="Stroke-7"></path>
                <polygon id="Stroke-9" points="27.5499874 7.42330895 24.6286759 7.42330895 24.6286759 4.50108953 24.6286759 4.41574275 24.5424212 4.41574275 22.3615385 4.41574275 22.2739218 4.41574275 22.2739218 4.50108953 22.2739218 7.42330895 19.3517024 7.42330895 19.2672636 7.42330895 19.2672636 7.50865574 19.2672636 9.68999243 19.2672636 9.77760908 19.3517024 9.77760908 22.2739218 9.77760908 22.2739218 12.7016444 22.2739218 12.7869912 22.3615385 12.7869912 24.5424212 12.7869912 24.6286759 12.7869912 24.6286759 12.7016444 24.6286759 9.77760908 27.5499874 9.77760908 27.6362421 9.77760908 27.6362421 9.68999243 27.6362421 7.50865574 27.6362421 7.42330895"></polygon>
            </g>
        </g>
    </g>
</svg>