<?xml version="1.0" encoding="UTF-8" standalone="no"?>
<svg width="48px" height="48px" viewBox="0 0 48 48" version="1.1" xmlns="http://www.w3.org/2000/svg" xmlns:xlink="http://www.w3.org/1999/xlink">
    <!-- Generator: Sketch 45.2 (43514) - http://www.bohemiancoding.com/sketch -->
    <title>Google Plus Circle</title>
    <desc>Created with Sketch.</desc>
    <defs></defs>
    <g id="google-plus-circle" stroke="none" stroke-width="1" fill="none" fill-rule="evenodd">
        <g id="google-plus-circle" transform="translate(-479.000000, -702.000000)" fill="currentColor">
            <g id="google-plus-circle" transform="translate(479.000000, 702.000000)">
                <path d="M23.978,2.1596 C14.526,2.1596 6.15,8.2456 3.23,17.2336 C0.308,26.2216 3.508,36.0696 11.154,41.6236 C18.8,47.1816 29.154,47.1816 36.8,41.6236 C44.446,36.0696 47.646,26.2216 44.726,17.2336 C41.806,8.2456 33.43,2.1596 23.978,2.1596 M46.78,16.5656 C49.99,26.4456 46.474,37.2676 38.07,43.3716 C29.668,49.4776 18.288,49.4776 9.884,43.3716 C1.482,37.2676 -2.036,26.4456 1.176,16.5656 C4.384,6.6876 13.592,-0.0004 23.978,-0.0004 C34.364,-0.0004 43.57,6.6876 46.78,16.5656" id="Fill-1"></path>
                <path d="M19.1754,22.3178 C19.1734,22.3658 19.1674,22.4098 19.1674,22.4478 C19.1674,23.4578 19.1714,25.6418 19.1714,25.6418 L23.5994,25.6418 C23.5994,25.9698 23.2114,27.2898 21.9714,28.1298 C21.2474,28.6198 20.4334,28.8478 19.5694,28.9018 C18.9614,28.9418 18.3614,28.8798 17.7754,28.6938 C15.9274,28.1018 14.5514,26.4298 14.3654,24.3938 C14.3174,23.8918 14.3514,23.3898 14.4654,22.8938 C15.0134,20.4878 17.2954,18.7018 19.9054,19.0878 C21.0614,19.2598 21.7274,19.7398 22.3354,20.2598 C23.1334,19.4578 23.9274,18.6678 24.7414,17.8518 C24.5434,17.7078 24.0874,17.2438 23.2754,16.7758 C22.0614,16.0738 20.7534,15.7218 19.3534,15.7058 C19.0894,15.7038 18.8234,15.7198 18.5614,15.7318 C18.0994,15.7498 17.6434,15.8298 17.1994,15.9418 C15.4094,16.3998 13.9254,17.3398 12.7614,18.7738 C11.6414,20.1498 11.0434,21.7338 10.9314,23.4998 C10.8834,24.2478 10.9414,24.9938 11.1074,25.7258 C11.5714,27.7758 12.6454,29.4298 14.3414,30.6698 C15.6554,31.6318 17.1334,32.1438 18.7574,32.2338 C19.6694,32.2818 20.5774,32.1978 21.4674,31.9658 C23.1274,31.5318 24.5014,30.6678 25.5374,29.2898 C27.0354,27.2978 27.3954,24.7438 26.9554,22.3178 L19.1754,22.3178 Z" id="Fill-4"></path>
                <polygon id="Fill-6" points="36.9586 22.4252 34.1566 22.4252 34.1566 19.6232 34.1566 19.5412 34.0746 19.5412 31.9826 19.5412 31.8986 19.5412 31.8986 19.6232 31.8986 22.4252 29.0946 22.4252 29.0126 22.4252 29.0126 22.5072 29.0126 24.5992 29.0126 24.6832 29.0946 24.6832 31.8986 24.6832 31.8986 27.4872 31.8986 27.5692 31.9826 27.5692 34.0746 27.5692 34.1566 27.5692 34.1566 27.4872 34.1566 24.6832 36.9586 24.6832 37.0406 24.6832 37.0406 24.5992 37.0406 22.5072 37.0406 22.4252"></polygon>
            </g>
        </g>
    </g>
</svg>