<?xml version="1.0" encoding="UTF-8" standalone="no"?>
<svg width="57px" height="52px" viewBox="0 0 57 52" version="1.1" xmlns="http://www.w3.org/2000/svg" xmlns:xlink="http://www.w3.org/1999/xlink">
    <!-- Generator: Sketch 45.2 (43514) - http://www.bohemiancoding.com/sketch -->
    <title>Group</title>
    <desc>Created with Sketch.</desc>
    <defs></defs>
    <g id="group" stroke="none" stroke-width="1" fill="none" fill-rule="evenodd">
        <g id="group" transform="translate(-669.000000, -548.000000)" fill="currentColor">
            <g id="group" transform="translate(669.000000, 548.000000)">
                <path d="M46.0278,10 C47.6838,10.004 49.0238,11.343 49.0258,13.001 C49.0238,14.656 47.6838,15.998 46.0278,16 C44.3718,15.998 43.0288,14.656 43.0268,13.001 C43.0288,11.343 44.3718,10.004 46.0278,10 L46.0278,10 Z M46.0278,18.001 C48.7878,17.998 51.0258,15.763 51.0258,13.001 C51.0258,10.236 48.7878,8 46.0278,8 C43.2648,8 41.0268,10.236 41.0268,13.001 C41.0268,15.763 43.2648,17.998 46.0278,18.001 L46.0278,18.001 Z M52.0268,35.815 L52.0268,25.001 C52.0268,24.448 51.5778,24.002 51.0278,24.002 C50.4748,24.002 50.0268,24.448 50.0268,25.001 L50.0268,50.001 L47.0268,50.001 L47.0268,35.001 C47.0278,34.447 46.5788,34 46.0268,34 C45.4738,34 45.0268,34.447 45.0268,35.001 L45.0268,50.001 L42.0258,50.001 L42.0258,25.001 C42.0258,24.448 41.5798,24.002 41.0268,24.002 C40.4748,24.002 40.0278,24.448 40.0278,25.001 L40.0268,35.815 C38.8658,35.401 38.0288,34.305 38.0258,33.001 L38.0258,23 C38.0258,21.924 38.7188,20.957 39.7358,20.616 L41.7208,20.109 L45.3198,23.707 C45.5078,23.896 45.7588,24.001 46.0268,24.001 C46.2948,24.001 46.5458,23.896 46.7338,23.707 L50.3328,20.109 L52.3178,20.616 C53.3328,20.957 54.0288,21.924 54.0268,23 L54.0278,33.001 C54.0248,34.305 53.1868,35.401 52.0268,35.815 L52.0268,35.815 Z M36.0278,33.001 C36.0238,34.305 35.1878,35.401 34.0258,35.816 L34.0258,25.001 C34.0258,24.448 33.5788,24.002 33.0268,24.002 C32.4738,24.002 32.0278,24.448 32.0278,25.001 L32.0278,50.001 L29.0268,50.001 L29.0268,35.001 C29.0268,34.447 28.5798,34 28.0278,34 C27.4748,34 27.0258,34.447 27.0268,35.001 L27.0268,50.001 L24.0248,50.001 L24.0268,25.001 C24.0268,24.448 23.5788,24.002 23.0258,24.002 C22.4738,24.002 22.0268,24.448 22.0268,25.001 L22.0268,35.815 C20.8648,35.4 20.0288,34.305 20.0258,33.001 L20.0258,23 C20.0258,21.924 20.7188,20.957 21.7348,20.616 L23.7208,20.109 L27.3188,23.707 C27.5068,23.896 27.7588,24.001 28.0268,24.001 C28.2948,24.001 28.5458,23.896 28.7338,23.707 L32.3328,20.109 L34.3178,20.616 C35.3348,20.957 36.0278,21.924 36.0278,23 L36.0278,33.001 Z M18.0268,33.001 C18.0238,34.305 17.1878,35.401 16.0268,35.815 L16.0268,25.001 C16.0268,24.448 15.5778,24.002 15.0278,24.002 C14.4748,24.002 14.0268,24.448 14.0268,25.001 L14.0268,50.001 L11.0268,50.001 L11.0268,35.001 C11.0268,34.447 10.5788,34 10.0258,34 C9.4738,34 9.0268,34.447 9.0268,35.001 L9.0268,50.001 L6.0258,50.001 L6.0258,25.001 C6.0258,24.448 5.5798,24.002 5.0268,24.002 C4.4748,24.002 4.0278,24.448 4.0278,25.001 L4.0268,35.815 C2.8658,35.4 2.0288,34.305 2.0258,33.001 L2.0258,23 C2.0258,21.926 2.7178,20.961 3.7288,20.618 L5.7208,20.109 L9.3188,23.707 C9.5068,23.896 9.7578,24.001 10.0258,24.001 C10.2938,24.001 10.5458,23.896 10.7338,23.707 L14.3318,20.109 L16.3178,20.616 C17.3338,20.957 18.0268,21.924 18.0268,23 L18.0268,33.001 Z M52.9308,18.712 L52.8658,18.692 L50.2738,18.031 C49.9308,17.944 49.5698,18.043 49.3188,18.293 L46.0268,21.585 L42.7328,18.293 C42.4838,18.043 42.1228,17.944 41.7798,18.031 L39.1878,18.692 L39.1208,18.712 C38.2718,18.993 37.5588,19.519 37.0268,20.184 C36.4948,19.519 35.7808,18.993 34.9308,18.712 L34.8658,18.692 L32.2728,18.031 C31.9308,17.944 31.5698,18.043 31.3188,18.293 L28.0268,21.585 L24.7348,18.293 C24.4828,18.043 24.1228,17.944 23.7798,18.031 L21.1868,18.692 L21.1228,18.712 C20.2718,18.993 19.5588,19.519 19.0268,20.184 C18.4948,19.519 17.7818,18.993 16.9318,18.712 L16.8658,18.692 L14.2728,18.031 C13.9298,17.944 13.5698,18.043 13.3198,18.293 L10.0258,21.585 L6.7338,18.293 C6.4828,18.043 6.1228,17.944 5.7798,18.031 L3.1888,18.692 L3.1228,18.712 C1.2728,19.324 0.0298,21.056 0.0268,23 L0.0268,33.001 C0.0268,35.419 1.7448,37.436 4.0268,37.899 L4.0268,51 C4.0268,51.269 4.1318,51.518 4.3208,51.707 C4.5088,51.896 4.7588,51.999 5.0268,51.999 L15.0278,51.999 C15.2938,51.999 15.5458,51.896 15.7338,51.707 C15.9238,51.518 16.0268,51.267 16.0268,51 L16.0268,37.899 C17.2538,37.649 18.3048,36.941 19.0268,35.973 C19.7478,36.941 20.7988,37.649 22.0268,37.899 L22.0268,51 C22.0268,51.269 22.1308,51.518 22.3198,51.707 C22.5078,51.896 22.7598,51.999 23.0258,51.999 L33.0268,51.999 C33.2928,51.999 33.5448,51.896 33.7328,51.707 C33.9228,51.518 34.0258,51.267 34.0258,51 L34.0258,37.899 C35.2538,37.65 36.3048,36.941 37.0268,35.973 C37.7488,36.941 38.7988,37.65 40.0268,37.899 L40.0268,51 C40.0268,51.269 40.1318,51.518 40.3208,51.707 C40.5088,51.896 40.7588,51.999 41.0268,51.999 L51.0278,51.999 C51.2938,51.999 51.5458,51.896 51.7338,51.707 C51.9238,51.518 52.0268,51.267 52.0268,51 L52.0268,37.899 C54.3078,37.436 56.0258,35.419 56.0258,33.001 L56.0258,23 C56.0258,21.056 54.7818,19.324 52.9308,18.712 L52.9308,18.712 Z M37.0268,2 C38.6828,2.004 40.0238,3.344 40.0258,5 C40.0238,6.658 38.6828,7.997 37.0268,7.999 C35.3708,7.997 34.0288,6.658 34.0268,5 C34.0288,3.344 35.3708,2.004 37.0268,2 L37.0268,2 Z M37.0268,10.001 C39.7878,9.998 42.0258,7.763 42.0258,5 C42.0258,2.236 39.7878,0 37.0268,0 C34.2648,0 32.0268,2.236 32.0268,5 C32.0268,7.763 34.2648,9.998 37.0268,10.001 L37.0268,10.001 Z M19.0258,2 C20.6818,2.004 22.0238,3.344 22.0258,5 C22.0238,6.658 20.6818,7.997 19.0258,7.999 C17.3698,7.997 16.0308,6.658 16.0258,5 C16.0308,3.344 17.3698,2.004 19.0258,2 L19.0258,2 Z M19.0258,10.001 C21.7878,9.998 24.0258,7.763 24.0278,5 C24.0258,2.236 21.7878,0 19.0258,0 C16.2638,0 14.0268,2.236 14.0268,5 C14.0268,7.763 16.2638,9.998 19.0258,10.001 L19.0258,10.001 Z M10.0268,10 C11.6828,10.004 13.0238,11.343 13.0258,13.001 C13.0238,14.656 11.6828,15.998 10.0268,16 C8.3718,15.998 7.0308,14.656 7.0268,13.001 C7.0308,11.343 8.3718,10.004 10.0268,10 L10.0268,10 Z M10.0268,18.001 C12.7878,17.998 15.0258,15.763 15.0278,13.001 C15.0258,10.236 12.7878,8 10.0268,8 C7.2648,8 5.0268,10.236 5.0268,13.001 C5.0268,15.763 7.2648,17.998 10.0268,18.001 L10.0268,18.001 Z M28.0278,10 C29.6828,10.004 31.0238,11.343 31.0258,13.001 C31.0238,14.656 29.6828,15.998 28.0278,16 C26.3718,15.998 25.0308,14.656 25.0268,13.001 C25.0308,11.343 26.3718,10.004 28.0278,10 L28.0278,10 Z M28.0278,18.001 C30.7878,17.998 33.0258,15.763 33.0258,13.001 C33.0258,10.236 30.7878,8 28.0278,8 C25.2648,8 23.0268,10.236 23.0268,13.001 C23.0268,15.763 25.2648,17.998 28.0278,18.001 L28.0278,18.001 Z" id="Fill-3"></path>
            </g>
        </g>
    </g>
</svg>