<?xml version="1.0" encoding="UTF-8" standalone="no"?>
<svg width="37px" height="53px" viewBox="0 0 37 53" version="1.1" xmlns="http://www.w3.org/2000/svg" xmlns:xlink="http://www.w3.org/1999/xlink">
    <!-- Generator: Sketch 43.2 (39069) - http://www.bohemiancoding.com/sketch -->
    <title>Hearing</title>
    <desc>Created with Sketch.</desc>
    <defs>
        <path d="M0.88,17.723 C0.88,20.869 1.805,24.349 3.481,27.476 L3.481,27.476 C5.688,31.597 8.289,33.673 10.402,35.348 L10.402,35.348 C12.366,36.896 13.777,38.025 14.552,40.472 L14.552,40.472 C16.009,45.017 17.881,47.57 21.18,49.347 L21.18,49.347 C22.42,49.921 23.782,50.223 25.166,50.223 L25.166,50.223 C30.535,50.223 34.88,45.751 34.88,40.224 L34.88,40.224 L34.878,17.723 C34.878,7.903 27.42,0.222 17.879,0.222 L17.879,0.222 C8.336,0.222 0.88,7.903 0.88,17.723 L0.88,17.723 Z" id="path-1"></path>
    </defs>
    <g id="eHealth-line-icon-06302017" stroke="none" stroke-width="1" fill="none" fill-rule="evenodd">
        <g id="eHealth-Healthcare-Icons-2017" transform="translate(-94.000000, -399.000000)">
            <g id="Hearing" transform="translate(95.000000, 400.000000)">
                <path d="M34.8781,17.7224 C34.8781,7.9034 27.4201,0.2224 17.8791,0.2224 C8.3361,0.2224 0.8801,7.9034 0.8801,17.7224 C0.8801,20.8684 1.8051,24.3494 3.4811,27.4764 C5.6891,31.5974 8.2891,33.6724 10.4021,35.3474 C12.3661,36.8954 13.7761,38.0254 14.5531,40.4724 C16.0101,45.0174 17.8811,47.5694 21.1801,49.3474 C22.4201,49.9214 23.7821,50.2224 25.1661,50.2224 C30.5341,50.2224 34.8801,45.7504 34.8801,40.2234" id="Stroke-40" stroke="currentColor" stroke-width="2"></path>
                <path d="M25.3605,22.4441 C22.3555,22.4441 19.9205,24.9311 19.9205,28.0001 C19.9205,29.6071 20.5885,31.0541 21.6555,32.0691 C22.6275,32.9911 23.9285,33.5551 25.3605,33.5551" id="Stroke-42" stroke="currentColor" stroke-width="2"></path>
                <path d="M11.7599,16.1941 C11.7599,12.7431 14.4999,9.9441 17.8799,9.9441 C21.2599,9.9441 23.9999,12.7431 23.9999,16.1941 L23.9999,22.1761" id="Stroke-44" stroke="currentColor" stroke-width="2"></path>
                <mask id="mask-2" fill="white">
                    <use xlink:href="#path-1"></use>
                </mask>
                <g id="Clip-38"></g>
            </g>
        </g>
    </g>
</svg>