<?xml version="1.0" encoding="UTF-8" standalone="no"?>
<svg width="60px" height="45px" viewBox="0 0 60 45" version="1.1" xmlns="http://www.w3.org/2000/svg" xmlns:xlink="http://www.w3.org/1999/xlink">
    <!-- Generator: Sketch 46.2 (44496) - http://www.bohemiancoding.com/sketch -->
    <title>Hospital</title>
    <desc>Created with Sketch.</desc>
    <defs></defs>
    <g id="eHealth-line-icon-07202017" stroke="none" stroke-width="1" fill="none" fill-rule="evenodd">
        <g id="eHealth-Healthcare-Icons-2017" transform="translate(-1058.000000, -255.000000)" fill="currentColor">
            <g id="Hospital" transform="translate(1058.000000, 255.000000)">
                <path d="M45.0003,34.8095 L53.0003,34.8095 C53.5533,34.8095 54.0003,34.3625 54.0003,33.8095 C54.0003,33.2565 53.5533,32.8095 53.0003,32.8095 L45.0003,32.8095 C44.4473,32.8095 44.0003,33.2565 44.0003,33.8095 C44.0003,34.3625 44.4473,34.8095 45.0003,34.8095 L45.0003,34.8095 Z M45.0003,25.8095 L53.0003,25.8095 C53.5533,25.8095 54.0003,25.3625 54.0003,24.8095 C54.0003,24.2565 53.5533,23.8095 53.0003,23.8095 L45.0003,23.8095 C44.4473,23.8095 44.0003,24.2565 44.0003,24.8095 C44.0003,25.3625 44.4473,25.8095 45.0003,25.8095 L45.0003,25.8095 Z M45.0003,16.8095 L53.0003,16.8095 C53.5533,16.8095 54.0003,16.3625 54.0003,15.8095 C54.0003,15.2565 53.5533,14.8095 53.0003,14.8095 L45.0003,14.8095 C44.4473,14.8095 44.0003,15.2565 44.0003,15.8095 C44.0003,16.3625 44.4473,16.8095 45.0003,16.8095 L45.0003,16.8095 Z M7.0003,34.8095 L15.0003,34.8095 C15.5523,34.8095 16.0003,34.3625 16.0003,33.8095 C16.0003,33.2565 15.5523,32.8095 15.0003,32.8095 L7.0003,32.8095 C6.4473,32.8095 6.0003,33.2565 6.0003,33.8095 C6.0003,34.3625 6.4473,34.8095 7.0003,34.8095 L7.0003,34.8095 Z M7.0003,25.8095 L15.0003,25.8095 C15.5523,25.8095 16.0003,25.3625 16.0003,24.8095 C16.0003,24.2565 15.5523,23.8095 15.0003,23.8095 L7.0003,23.8095 C6.4473,23.8095 6.0003,24.2565 6.0003,24.8095 C6.0003,25.3625 6.4473,25.8095 7.0003,25.8095 L7.0003,25.8095 Z M7.0003,16.8095 L15.0003,16.8095 C15.5523,16.8095 16.0003,16.3625 16.0003,15.8095 C16.0003,15.2565 15.5523,14.8095 15.0003,14.8095 L7.0003,14.8095 C6.4473,14.8095 6.0003,15.2565 6.0003,15.8095 C6.0003,16.3625 6.4473,16.8095 7.0003,16.8095 L7.0003,16.8095 Z M42.0003,42.8095 L56.0003,42.8095 L56.0003,8.8085 L42.0003,8.8085 L42.0003,42.8095 Z M4.0003,42.8095 L18.0003,42.8095 L18.0003,8.8085 L4.0003,8.8085 L4.0003,42.8095 Z M59.0003,42.8095 L58.0003,42.8095 L58.0003,7.8095 C58.0003,7.2565 57.5533,6.8095 57.0003,6.8095 L42.0003,6.8095 L42.0003,1.8095 C42.0003,1.2565 41.5533,0.8095 41.0003,0.8095 L19.0003,0.8095 C18.4473,0.8095 18.0003,1.2565 18.0003,1.8095 L18.0003,6.8095 L3.0003,6.8095 C2.4473,6.8095 2.0003,7.2565 2.0003,7.8095 L2.0003,42.8095 L1.0003,42.8095 C0.4473,42.8095 0.0003,43.2565 0.0003,43.8095 C0.0003,44.3625 0.4473,44.8095 1.0003,44.8095 L19.0003,44.8095 C19.5523,44.8095 20.0003,44.3625 20.0003,43.8095 L20.0003,2.8085 L40.0003,2.8085 L40.0003,43.8095 C40.0003,44.3625 40.4473,44.8095 41.0003,44.8095 L59.0003,44.8095 C59.5533,44.8095 60.0003,44.3625 60.0003,43.8095 C60.0003,43.2565 59.5533,42.8095 59.0003,42.8095 L59.0003,42.8095 Z M35.0003,32.8095 L25.0003,32.8095 C24.4473,32.8095 24.0003,33.2565 24.0003,33.8095 L24.0003,43.8095 C24.0003,44.3625 24.4473,44.8095 25.0003,44.8095 C25.5523,44.8095 26.0003,44.3625 26.0003,43.8095 L26.0003,34.8085 L34.0003,34.8085 L34.0003,43.8095 C34.0003,44.3625 34.4473,44.8095 35.0003,44.8095 C35.5533,44.8095 36.0003,44.3625 36.0003,43.8095 L36.0003,33.8095 C36.0003,33.2565 35.5533,32.8095 35.0003,32.8095 L35.0003,32.8095 Z M35.0003,13.8095 L31.0003,13.8095 L31.0003,9.8095 C31.0003,9.2565 30.5523,8.8095 30.0003,8.8095 C29.4473,8.8095 29.0003,9.2565 29.0003,9.8095 L29.0003,13.8095 L25.0003,13.8095 C24.4473,13.8095 24.0003,14.2565 24.0003,14.8095 C24.0003,15.3625 24.4473,15.8095 25.0003,15.8085 L29.0003,15.8085 L29.0003,19.8095 C29.0003,20.3625 29.4473,20.8095 30.0003,20.8095 C30.5523,20.8095 31.0003,20.3625 31.0003,19.8095 L31.0003,15.8085 L35.0003,15.8085 C35.5533,15.8095 36.0003,15.3625 36.0003,14.8095 C36.0003,14.2565 35.5533,13.8095 35.0003,13.8095 L35.0003,13.8095 Z" id="Fill-13"></path>
            </g>
        </g>
    </g>
</svg>