<?xml version="1.0" encoding="UTF-8" standalone="no"?>
<svg width="52px" height="56px" viewBox="0 0 52 56" version="1.1" xmlns="http://www.w3.org/2000/svg" xmlns:xlink="http://www.w3.org/1999/xlink">
    <!-- Generator: Sketch 45.2 (43514) - http://www.bohemiancoding.com/sketch -->
    <title>Household</title>
    <desc>Created with Sketch.</desc>
    <defs>
        <polygon id="path-1" points="51.9997583 0.0005 0.000303066581 0.0005 0.000303066581 56.0005 51.9997583 56.0005 51.9997583 0.0005"></polygon>
    </defs>
    <g id="household" stroke="none" stroke-width="1" fill="none" fill-rule="evenodd">
        <g id="household" transform="translate(-86.000000, -543.000000)">
            <g id="household" transform="translate(86.000000, 543.000000)">
                <mask id="mask-2" fill="white">
                    <use xlink:href="#path-1"></use>
                </mask>
                <g id="Clip-2"></g>
                <path d="M41.5235,39.0225 C41.3255,39.2855 41.0745,39.5025 40.7915,39.6625 L38.9865,28.8355 C38.8965,28.2915 38.3815,27.9195 37.8355,28.0145 C37.2915,28.1045 36.9225,28.6205 37.0135,29.1655 L39.8195,46.0005 L37.0005,46.0005 C36.4475,46.0005 36.0005,46.4485 36.0005,47.0005 L36.0005,54.0005 L32.0005,54.0005 L32.0005,45.8295 C33.1645,45.4165 34.0005,44.3035 34.0005,43.0005 L34.0005,38.0005 C34.0005,35.7935 32.2065,34.0005 30.0005,34.0005 L27.9965,34.0005 L26.0005,34.0005 C23.7945,34.0005 22.0005,35.7935 22.0005,38.0005 L22.0005,43.0005 C22.0005,44.3035 22.8365,45.4165 24.0005,45.8295 L24.0005,54.0005 L18.0005,54.0005 L18.0005,29.0005 C18.0005,28.4485 17.5525,28.0005 17.0005,28.0005 C16.4475,28.0005 16.0005,28.4485 16.0005,29.0005 L16.0005,39.8155 C14.8385,39.4025 14.0005,38.3025 14.0005,37.0005 L14.0005,25.0005 C14.0005,23.3455 15.3455,22.0005 17.0005,22.0005 L17.5865,22.0005 L21.2935,25.7075 C21.6835,26.0985 22.3165,26.0985 22.7075,25.7075 L26.3885,22.0255 C27.2985,22.1445 28.1005,22.6775 28.5815,23.5025 C28.7605,23.8105 29.0895,24.0005 29.4455,23.9995 L36.5835,23.9995 C38.4175,24.0005 39.9865,25.3105 40.3105,27.0975 L41.9665,37.2145 C42.0735,37.8615 41.9165,38.5025 41.5235,39.0225 L41.5235,39.0225 Z M31.0005,44.0005 C30.4475,44.0005 30.0005,44.4485 30.0005,45.0005 L30.0005,54.0005 L26.0005,54.0005 L26.0005,45.0005 C26.0005,44.4485 25.5525,44.0005 25.0005,44.0005 C24.4485,44.0005 24.0005,43.5525 24.0005,43.0005 L24.0005,38.0005 C24.0005,36.8985 24.8975,36.0005 26.0005,35.9995 L30.0005,35.9995 C31.1025,36.0005 32.0005,36.8985 32.0005,38.0005 L32.0005,43.0005 C32.0005,43.5525 31.5515,44.0005 31.0005,44.0005 L31.0005,44.0005 Z M42.2825,26.7565 C41.7815,24.0015 39.3845,22.0005 36.5835,22.0005 L33.9985,22.0005 L29.9795,22.0005 C29.0405,20.7535 27.5635,20.0005 26.0005,20.0005 C25.7345,20.0005 25.4805,20.1065 25.2935,20.2935 L22.0005,23.5855 L18.7075,20.2935 C18.5195,20.1065 18.2655,20.0005 18.0005,20.0005 L17.0005,20.0005 C14.2435,20.0005 12.0005,22.2445 12.0005,25.0005 L12.0005,37.0005 C12.0005,39.4155 13.7205,41.4355 16.0005,41.8985 L16.0005,55.0005 C16.0005,55.5525 16.4475,56.0005 17.0005,56.0005 L37.0005,56.0005 C37.5525,56.0005 38.0005,55.5525 38.0005,55.0005 L38.0005,47.9995 L41.0005,47.9995 C41.2945,48.0005 41.5735,47.8715 41.7625,47.6475 C41.9535,47.4225 42.0355,47.1265 41.9865,46.8355 L41.1285,41.6905 C41.9115,41.3985 42.6115,40.9005 43.1205,40.2275 C43.8445,39.2665 44.1355,38.0825 43.9415,36.8915 L42.2825,26.7565 Z M51.5845,18.1895 L44.0005,12.7275 L44.0005,3.0005 C44.0005,2.4485 43.5525,2.0005 43.0005,2.0005 L37.0005,2.0005 C36.4475,2.0005 36.0005,2.4485 36.0005,3.0005 L36.0005,6.9685 L26.5845,0.1895 C26.2365,-0.0635 25.7635,-0.0635 25.4165,0.1895 L0.4165,18.1895 C-0.0325,18.5105 -0.1335,19.1355 0.1885,19.5845 C0.5115,20.0325 1.1365,20.1335 1.5845,19.8115 L26.0005,2.2325 L36.4165,9.7315 C36.7195,9.9525 37.1235,9.9815 37.4565,9.8105 C37.7905,9.6395 38.0005,9.2945 38.0005,8.9195 L38.0005,3.9995 L42.0005,3.9995 L42.0005,13.2405 C42.0005,13.5615 42.1545,13.8655 42.4165,14.0525 L50.4165,19.8115 C50.5925,19.9395 50.7965,20.0005 50.9995,20.0005 C51.3095,20.0005 51.6165,19.8565 51.8115,19.5845 C52.1335,19.1355 52.0325,18.5105 51.5845,18.1895 L51.5845,18.1895 Z M33.9985,20.0005 C32.3445,20.0005 31.0005,18.6525 31.0005,16.9945 C31.0005,15.3435 32.3445,14.0005 33.9985,14.0005 C35.6535,14.0005 37.0005,15.3435 37.0005,16.9945 C37.0005,18.6525 35.6535,20.0005 33.9985,20.0005 L33.9985,20.0005 Z M39.0005,16.9945 C39.0005,14.2405 36.7555,12.0005 33.9985,12.0005 C31.2425,12.0005 29.0005,14.2405 29.0005,16.9945 C29.0005,19.7535 31.2425,22.0005 33.9985,22.0005 C36.7555,22.0005 39.0005,19.7535 39.0005,16.9945 L39.0005,16.9945 Z M27.9965,32.0005 C26.8955,32.0005 26.0005,31.1015 26.0005,29.9955 C26.0005,28.8945 26.8955,28.0005 27.9965,28.0005 C29.1005,28.0005 30.0005,28.8945 30.0005,29.9955 C30.0005,31.1015 29.1005,32.0005 27.9965,32.0005 L27.9965,32.0005 Z M32.0005,29.9955 C32.0005,27.7925 30.2045,26.0005 27.9965,26.0005 C25.7935,26.0005 24.0005,27.7925 24.0005,29.9955 C24.0005,32.2035 25.7935,34.0005 27.9965,34.0005 C30.2045,34.0005 32.0005,32.2035 32.0005,29.9955 L32.0005,29.9955 Z M21.9955,12.0005 C23.6525,12.0005 25.0005,13.3435 25.0005,14.9945 C25.0005,16.6525 23.6525,18.0005 21.9955,18.0005 C20.3435,18.0005 19.0005,16.6525 19.0005,14.9945 C19.0005,13.3435 20.3435,12.0005 21.9955,12.0005 L21.9955,12.0005 Z M21.9955,20.0005 C24.7545,20.0005 27.0005,17.7535 27.0005,14.9945 C27.0005,12.2405 24.7545,10.0005 21.9955,10.0005 C19.2415,10.0005 17.0005,12.2405 17.0005,14.9945 C17.0005,17.7535 19.2415,20.0005 21.9955,20.0005 L21.9955,20.0005 Z" id="Fill-1" fill="currentColor" mask="url(#mask-2)"></path>
            </g>
        </g>
    </g>
</svg>