<?xml version="1.0" encoding="UTF-8" standalone="no"?>
<svg width="39px" height="50px" viewBox="0 0 39 50" version="1.1" xmlns="http://www.w3.org/2000/svg" xmlns:xlink="http://www.w3.org/1999/xlink">
    <!-- Generator: Sketch 45.2 (43514) - http://www.bohemiancoding.com/sketch -->
    <title>Hover</title>
    <desc>Created with Sketch.</desc>
    <defs></defs>
    <g id="hover" stroke="none" stroke-width="1" fill="none" fill-rule="evenodd" stroke-linecap="round" stroke-linejoin="round">
        <g id="hover" transform="translate(-873.000000, -851.000000)" stroke="currentColor" stroke-width="2">
            <g id="hover" transform="translate(874.000000, 852.000000)">
                <path d="M36.0175,31.8779 C36.0175,30.4099 34.7905,29.2199 33.2795,29.2199 L32.9735,29.2199 C31.6035,29.2199 30.4695,30.1959 30.2675,31.4709 L30.2675,29.0429 C30.2675,27.5739 29.0405,26.3849 27.5295,26.3849 L27.2235,26.3849 C25.8535,26.3849 24.7195,27.3599 24.5175,28.6349 L24.5175,26.1179 C24.5175,24.6499 23.2915,23.4599 21.7795,23.4599 L21.4735,23.4599 C20.1045,23.4599 18.9695,24.4369 18.7675,25.7109 L18.7675,14.8649 C18.7675,13.3969 17.5415,12.2059 16.0295,12.2059 L15.7235,12.2059 C14.2105,12.2059 12.9855,13.3969 12.9855,14.8649 L12.9855,38.3899 L8.4905,34.0249 C7.4205,32.9869 5.6875,32.9869 4.6185,34.0249 L4.4015,34.2349 C3.3315,35.2739 3.3315,36.9569 4.4015,37.9949 L12.8315,47.2499 C13.2285,47.7079 13.8235,47.9999 14.4875,47.9999 L33.8265,47.9999 C35.0195,47.9999 35.9875,47.0609 35.9875,45.9009 C35.9875,45.8849 35.9865,45.8669 35.9865,45.8509 L36.0175,45.8489 L36.0175,31.8779 Z" id="Stroke-37"></path>
                <polygon id="Stroke-39" points="6.1718 13.2051 6.1718 13.2051 0.8178 13.2051"></polygon>
                <polygon id="Stroke-41" points="15.9325 0 15.9325 0 15.9325 5.198"></polygon>
                <path d="M9.9696,7.9258 L9.9696,7.9258 C9.3476,7.3218 6.7576,4.8078 6.1836,4.2498 L9.9696,7.9258 Z" id="Stroke-43"></path>
                <polygon id="Stroke-45" points="30.913 13.2051 30.913 13.2051 25.559 13.2051"></polygon>
                <path d="M25.5468,4.25 L25.5468,4.25 C24.9258,4.854 22.3348,7.368 21.7608,7.926 L25.5468,4.25 Z" id="Stroke-47"></path>
            </g>
        </g>
    </g>
</svg>