<?xml version="1.0" encoding="UTF-8" standalone="no"?>
<svg width="51px" height="51px" viewBox="0 0 51 51" version="1.1" xmlns="http://www.w3.org/2000/svg" xmlns:xlink="http://www.w3.org/1999/xlink">
    <!-- Generator: Sketch 45.2 (43514) - http://www.bohemiancoding.com/sketch -->
    <title>Information-bold</title>
    <desc>Created with Sketch.</desc>
    <defs></defs>
    <g id="information-bold" stroke="none" stroke-width="1" fill="none" fill-rule="evenodd">
        <g id="information-bold" transform="translate(-282.000000, -399.000000)">
            <g id="information-bold" transform="translate(283.000000, 400.000000)">
                <path d="M48.7121,24.6875 C48.7121,37.9425 37.9671,48.6875 24.7121,48.6875 C11.4571,48.6875 0.7121,37.9425 0.7121,24.6875 C0.7121,11.4325 11.4571,0.6875 24.7121,0.6875 C37.9671,0.6875 48.7121,11.4325 48.7121,24.6875 Z" id="Stroke-25" stroke="currentColor" stroke-width="2"></path>
                <path d="M21.1828,13.2168 C21.1828,11.2668 22.7628,9.6878 24.7118,9.6878 C26.6618,9.6878 28.2428,11.2668 28.2428,13.2168 C28.2428,15.1668 26.6618,16.7458 24.7118,16.7458 C22.7628,16.7458 21.1828,15.1668 21.1828,13.2168" id="Fill-27" fill="currentColor"></path>
                <path d="M21.1828,36.1582 L21.1828,22.9232 C21.1828,20.9722 22.7628,19.3932 24.7118,19.3932 C26.6618,19.3932 28.2428,20.9722 28.2428,22.9232 L28.2428,36.1582 C28.2428,38.1072 26.6618,39.6872 24.7118,39.6872 C22.7628,39.6872 21.1828,38.1072 21.1828,36.1582" id="Fill-29" fill="currentColor"></path>
            </g>
        </g>
    </g>
</svg>