<?xml version="1.0" encoding="UTF-8" standalone="no"?>
<svg width="49px" height="48px" viewBox="0 0 49 48" version="1.1" xmlns="http://www.w3.org/2000/svg" xmlns:xlink="http://www.w3.org/1999/xlink">
    <!-- Generator: Sketch 45.2 (43514) - http://www.bohemiancoding.com/sketch -->
    <title>Information-filled</title>
    <desc>Created with Sketch.</desc>
    <defs></defs>
    <g id="information-filled" stroke="none" stroke-width="1" fill="none" fill-rule="evenodd">
        <g id="information-filled" transform="translate(-283.000000, -544.000000)" fill="currentColor">
            <g id="information-filled" transform="translate(283.000000, 544.000000)">
                <path d="M24.7121,16.0615 C22.7631,16.0615 21.1831,14.4915 21.1831,12.5405 C21.1831,10.5905 22.7631,9.0105 24.7121,9.0105 C26.6621,9.0105 28.2421,10.5905 28.2421,12.5405 C28.2421,14.4915 26.6621,16.0615 24.7121,16.0615 L24.7121,16.0615 Z M28.2421,35.4815 C28.2421,37.4305 26.6621,39.0105 24.7121,39.0105 C22.7631,39.0105 21.1831,37.4305 21.1831,35.4815 L21.1831,22.2415 C21.1831,20.2905 22.7631,18.7105 24.7121,18.7105 C26.6621,18.7105 28.2421,20.2905 28.2421,22.2415 L28.2421,35.4815 Z M24.7121,0.0105 C11.4621,0.0105 0.7121,10.7505 0.7121,24.0105 C0.7121,37.2605 11.4621,48.0105 24.7121,48.0105 C37.9731,48.0105 48.7121,37.2605 48.7121,24.0105 C48.7121,10.7505 37.9731,0.0105 24.7121,0.0105 L24.7121,0.0105 Z" id="Fill-23"></path>
            </g>
        </g>
    </g>
</svg>