<?xml version="1.0" encoding="UTF-8" standalone="no"?>
<svg width="60px" height="41px" viewBox="0 0 60 41" version="1.1" xmlns="http://www.w3.org/2000/svg" xmlns:xlink="http://www.w3.org/1999/xlink">
    <!-- Generator: Sketch 45.2 (43514) - http://www.bohemiancoding.com/sketch -->
    <title>Laptop</title>
    <desc>Created with Sketch.</desc>
    <defs></defs>
    <g id="laptop" stroke="none" stroke-width="1" fill="none" fill-rule="evenodd">
        <g id="laptop" transform="translate(-473.000000, -403.000000)" fill="currentColor">
            <g id="laptop" transform="translate(472.000000, 403.000000)">
                <path d="M53.9947,38.1194 L7.9937,38.1194 C5.5747,38.1134 3.5597,36.3984 3.0957,34.1174 L26.1647,34.1174 C26.5757,35.2834 27.6857,36.1174 28.9927,36.1174 L32.9937,36.1174 C34.3007,36.1154 35.4107,35.2834 35.8217,34.1174 L58.8907,34.1174 C58.4267,36.3984 56.4117,38.1134 53.9947,38.1194 L53.9947,38.1194 Z M50.9937,6.1184 L50.9937,32.1194 L34.9927,32.1194 C34.7277,32.1194 34.4737,32.2254 34.2847,32.4104 C34.0987,32.5984 33.9927,32.8554 33.9927,33.1184 C33.9907,33.6704 33.5457,34.1174 32.9937,34.1204 L28.9927,34.1204 C28.4407,34.1174 27.9927,33.6704 27.9927,33.1184 C27.9927,32.8514 27.8897,32.6004 27.6997,32.4124 C27.5117,32.2224 27.2597,32.1194 26.9937,32.1194 L10.9927,32.1194 L10.9927,6.1184 L50.9937,6.1184 Z M6.9937,3.1194 C6.9937,2.5664 7.4407,2.1204 7.9927,2.1184 L53.9947,2.1184 C54.5457,2.1204 54.9917,2.5664 54.9937,3.1194 L54.9937,32.1194 L52.9937,32.1194 L52.9937,5.1194 C52.9937,4.8504 52.8907,4.5994 52.6997,4.4114 C52.5127,4.2224 52.2607,4.1194 51.9927,4.1194 L9.9937,4.1194 C9.7297,4.1194 9.4727,4.2254 9.2867,4.4114 C9.0987,4.5984 8.9937,4.8544 8.9937,5.1194 L8.9937,32.1194 L6.9937,32.1194 L6.9937,3.1194 Z M60.6997,32.4104 C60.5147,32.2254 60.2567,32.1194 59.9937,32.1194 L56.9927,32.1194 L56.9927,3.1194 C56.9927,1.4594 55.6497,0.1194 53.9947,0.1194 L7.9927,0.1194 C6.3347,0.1194 4.9937,1.4594 4.9937,3.1194 L4.9937,32.1194 L1.9937,32.1194 C1.7297,32.1194 1.4727,32.2254 1.2867,32.4104 C1.0997,32.5984 0.9927,32.8554 0.9927,33.1184 C0.9947,36.9854 4.1267,40.1174 7.9937,40.1194 L53.9947,40.1174 C57.8597,40.1174 60.9917,36.9854 60.9937,33.1184 C60.9937,32.8554 60.8867,32.5984 60.6997,32.4104 L60.6997,32.4104 Z" id="Fill-4"></path>
            </g>
        </g>
    </g>
</svg>