<?xml version="1.0" encoding="UTF-8" standalone="no"?>
<svg width="22px" height="22px" viewBox="0 0 22 22" version="1.1" xmlns="http://www.w3.org/2000/svg" xmlns:xlink="http://www.w3.org/1999/xlink">
    <!-- Generator: Sketch 45.2 (43514) - http://www.bohemiancoding.com/sketch -->
    <title>LinkedIn</title>
    <desc>Created with Sketch.</desc>
    <defs></defs>
    <g id="linkedIn" stroke="none" stroke-width="1" fill="none" fill-rule="evenodd">
        <g id="linkedIn" transform="translate(-687.000000, -876.000000)" stroke="currentColor">
            <g id="linkedIn" transform="translate(688.000000, 877.000000)">
                <path d="M2.49563265,-8.16326531e-05 C3.79440816,-8.16326531e-05 4.84991837,1.0562449 4.84991837,2.35216327 C4.84991837,3.6517551 3.79440816,4.70808163 2.49563265,4.70808163 C1.19277551,4.70808163 0.140530612,3.6517551 0.140530612,2.35216327 C0.140530612,1.0562449 1.19277551,-8.16326531e-05 2.49563265,-8.16326531e-05 L2.49563265,-8.16326531e-05 Z M0.462571429,19.5484898 L4.52787755,19.5484898 L4.52787755,6.49053061 L0.462571429,6.49053061 L0.462571429,19.5484898 Z" id="Stroke-11"></path>
                <path d="M7.07469388,6.49069388 L10.9677551,6.49069388 L10.9677551,8.27559184 L11.0212245,8.27559184 C11.5636735,7.24906122 12.8885714,6.16702041 14.8644898,6.16702041 C18.9738776,6.16702041 19.7326531,8.86906122 19.7326531,12.3857959 L19.7326531,19.5486531 L15.6759184,19.5486531 L15.6759184,13.200898 C15.6759184,11.6857959 15.6461224,9.73804082 13.5665306,9.73804082 C11.4530612,9.73804082 11.1310204,11.3857959 11.1310204,13.0882449 L11.1310204,19.5486531 L7.07469388,19.5486531 L7.07469388,6.49069388 Z" id="Stroke-13"></path>
            </g>
        </g>
    </g>
</svg>