<?xml version="1.0" encoding="UTF-8" standalone="no"?>
<svg width="48px" height="48px" viewBox="0 0 48 48" version="1.1" xmlns="http://www.w3.org/2000/svg" xmlns:xlink="http://www.w3.org/1999/xlink">
    <!-- Generator: Sketch 45.2 (43514) - http://www.bohemiancoding.com/sketch -->
    <title>LinkedIn Circle</title>
    <desc>Created with Sketch.</desc>
    <defs>
        <polygon id="path-1" points="47.9554677 48 0.000902213729 48 0.000902213729 0.049 47.9554677 0.049"></polygon>
    </defs>
    <g id="linkedin-circle" stroke="none" stroke-width="1" fill="none" fill-rule="evenodd">
        <g id="linkedin-circle" transform="translate(-673.000000, -702.000000)">
            <g id="linkedin-circle" transform="translate(673.000000, 700.000000)">
                <g id="Group-3" transform="translate(0.000000, 1.952000)">
                    <mask id="mask-2" fill="white">
                        <use xlink:href="#path-1"></use>
                    </mask>
                    <g id="Clip-2"></g>
                    <path d="M23.9782,2.209 C14.5262,2.209 6.1502,8.295 3.2302,17.281 C0.3082,26.271 3.5102,36.119 11.1542,41.673 C18.8002,47.231 29.1542,47.231 36.8002,41.673 C44.4462,36.119 47.6462,26.271 44.7262,17.281 C41.8062,8.295 33.4302,2.209 23.9782,2.209 M46.7802,16.615 C49.9902,26.495 46.4742,37.315 38.0702,43.421 C29.6682,49.527 18.2882,49.527 9.8842,43.421 C1.4822,37.315 -2.0338,26.495 1.1762,16.615 C4.3842,6.739 13.5922,0.049 23.9782,0.049 C34.3642,0.049 43.5702,6.739 46.7802,16.615" id="Fill-1" fill="currentColor" mask="url(#mask-2)"></path>
                </g>
                <path d="M16.7536,16.487 C18.0156,16.487 19.0396,17.513 19.0396,18.771 C19.0396,20.031 18.0156,21.057 16.7536,21.057 C15.4896,21.057 14.4676,20.031 14.4676,18.771 C14.4676,17.513 15.4896,16.487 16.7536,16.487 L16.7536,16.487 Z M14.7816,35.463 L18.7276,35.463 L18.7276,22.787 L14.7816,22.787 L14.7816,35.463 Z" id="Fill-4" fill="currentColor"></path>
                <path d="M21.199,22.7878 L24.979,22.7878 L24.979,24.5198 L25.031,24.5198 C25.557,23.5238 26.843,22.4738 28.761,22.4738 C32.749,22.4738 33.487,25.0958 33.487,28.5098 L33.487,35.4638 L29.549,35.4638 L29.549,29.3018 C29.549,27.8298 29.519,25.9398 27.501,25.9398 C25.449,25.9398 25.137,27.5398 25.137,29.1918 L25.137,35.4638 L21.199,35.4638 L21.199,22.7878 Z" id="Fill-6" fill="currentColor"></path>
            </g>
        </g>
    </g>
</svg>