<?xml version="1.0" encoding="UTF-8" standalone="no"?>
<svg width="45px" height="50px" viewBox="0 0 45 50" version="1.1" xmlns="http://www.w3.org/2000/svg" xmlns:xlink="http://www.w3.org/1999/xlink">
    <!-- Generator: Sketch 45.2 (43514) - http://www.bohemiancoding.com/sketch -->
    <title>Lock</title>
    <desc>Created with Sketch.</desc>
    <defs></defs>
    <g id="lock" stroke="none" stroke-width="1" fill="none" fill-rule="evenodd" stroke-linejoin="round">
        <g id="lock" transform="translate(-479.000000, -546.000000)" stroke="currentColor" stroke-width="2">
            <g id="lock" transform="translate(480.000000, 547.000000)">
                <path d="M24.8953,31.3524 C24.8953,33.2354 23.3703,34.7614 21.4863,34.7614 C19.6033,34.7614 18.0783,33.2354 18.0783,31.3524 C18.0783,29.4694 19.6033,27.9444 21.4863,27.9444 C23.3703,27.9444 24.8953,29.4694 24.8953,31.3524 Z" id="Stroke-7"></path>
                <path d="M21.4861,39.305 L21.4861,34.761" id="Stroke-9" stroke-linecap="round"></path>
                <path d="M42.4861,44.4905 C42.4861,46.4285 41.0021,48.0005 39.1711,48.0005 L3.8021,48.0005 C1.9711,48.0005 0.4861,46.4285 0.4861,44.4905 L0.4861,23.4355 C0.4861,21.4975 1.9711,19.9265 3.8021,19.9265 L39.1711,19.9265 C41.0021,19.9265 42.4861,21.4975 42.4861,23.4355 L42.4861,44.4905 Z" id="Stroke-11"></path>
                <path d="M8.4861,20.0521 L8.4861,14.4821 C8.4861,6.4841 14.3061,0.0001 21.4861,0.0001 C28.6661,0.0001 34.4861,6.4841 34.4861,14.4821 L34.4861,20.0521" id="Stroke-13"></path>
                <path d="M14.4861,20.0628 L14.4861,14.2298 C14.4861,9.7188 17.6211,6.0628 21.4861,6.0628 C25.3521,6.0628 28.4861,9.7188 28.4861,14.2298 L28.4861,20.0628" id="Stroke-15"></path>
            </g>
        </g>
    </g>
</svg>