<?xml version="1.0" encoding="UTF-8" standalone="no"?>
<svg width="50px" height="54px" viewBox="0 0 50 54" version="1.1" xmlns="http://www.w3.org/2000/svg" xmlns:xlink="http://www.w3.org/1999/xlink">
    <!-- Generator: Sketch 43.2 (39069) - http://www.bohemiancoding.com/sketch -->
    <title>Low Cost</title>
    <desc>Created with Sketch.</desc>
    <defs></defs>
    <g id="eHealth-line-icon-06302017" stroke="none" stroke-width="1" fill="none" fill-rule="evenodd">
        <g id="eHealth-Healthcare-Icons-2017" transform="translate(-476.000000, -847.000000)">
            <g id="Low-Cost" transform="translate(477.000000, 848.000000)">
                <path d="M38.875,28.2246 L46.936,28.2246 C47.882,28.2246 48.356,29.3106 47.687,29.9456 L24.751,51.7046 C24.336,52.0986 23.664,52.0986 23.249,51.7046 L0.313,29.9456 C-0.356,29.3106 0.118,28.2246 1.064,28.2246 L9.125,28.2246 L9.125,-0.0004 L38.875,-0.0004 L38.875,28.2246 Z" id="Stroke-7" stroke="currentColor" stroke-width="2" stroke-linecap="round" stroke-linejoin="round"></path>
                <path d="M25,31 L20,31 C19.45,31 19,31.45 19,32 C19,32.55 19.45,33 20,33 L23,33 L23,35 C23,35.55 23.45,36 24,36 C24.55,36 25,35.55 25,35 L25,33 C26.1,33 27.1,32.55 27.83,31.83 C28.55,31.1 29,30.1 29,29 C29,26.79 27.21,25 25,25 L23,25 C21.9,25 21,24.11 21,23 C21,21.9 21.9,21 23,21 L28,21 C28.55,21 29,20.56 29,20 C29,19.45 28.55,19 28,19 L25,19 L25,17 C25,16.45 24.55,16 24,16 C23.45,16 23,16.45 23,17 L23,19 C20.79,19 19,20.79 19,23 C19,25.21 20.79,27 23,27 L25,27 C26.1,27.01 27,27.9 27,29 C27,30.11 26.1,31 25,31 M23,27 L25,27 C26.1,27.01 27,27.9 27,29 C27,30.11 26.1,31 25,31 L20,31 C19.45,31 19,31.45 19,32 C19,32.55 19.45,33 20,33 L23,33 L23,35 C23,35.55 23.45,36 24,36 C24.55,36 25,35.55 25,35 L25,33 C26.1,33 27.1,32.55 27.83,31.83 C28.55,31.1 29,30.1 29,29 C29,26.79 27.21,25 25,25 L23,25 C21.9,25 21,24.11 21,23 C21,21.9 21.9,21 23,21 L28,21 C28.55,21 29,20.56 29,20 C29,19.45 28.55,19 28,19 L25,19 L25,17 C25,16.45 24.55,16 24,16 C23.45,16 23,16.45 23,17 L23,19 C20.79,19 19,20.79 19,23 C19,25.21 20.79,27 23,27 M23,27 L25,27 C26.1,27.01 27,27.9 27,29 C27,30.11 26.1,31 25,31 L20,31 C19.45,31 19,31.45 19,32 C19,32.55 19.45,33 20,33 L23,33 L23,35 C23,35.55 23.45,36 24,36 C24.55,36 25,35.55 25,35 L25,33 C26.1,33 27.1,32.55 27.83,31.83 C28.55,31.1 29,30.1 29,29 C29,26.79 27.21,25 25,25 L23,25 C21.9,25 21,24.11 21,23 C21,21.9 21.9,21 23,21 L28,21 C28.55,21 29,20.56 29,20 C29,19.45 28.55,19 28,19 L25,19 L25,17 C25,16.45 24.55,16 24,16 C23.45,16 23,16.45 23,17 L23,19 C20.79,19 19,20.79 19,23 C19,25.21 20.79,27 23,27" id="Fill-9" fill="currentColor"></path>
            </g>
        </g>
    </g>
</svg>