<?xml version="1.0" encoding="UTF-8" standalone="no"?>
<svg width="53px" height="53px" viewBox="0 0 53 53" version="1.1" xmlns="http://www.w3.org/2000/svg" xmlns:xlink="http://www.w3.org/1999/xlink">
    <!-- Generator: Sketch 43.2 (39069) - http://www.bohemiancoding.com/sketch -->
    <title>Lump Sum</title>
    <desc>Created with Sketch.</desc>
    <defs></defs>
    <g id="eHealth-line-icon-06302017" stroke="none" stroke-width="1" fill="none" fill-rule="evenodd">
        <g id="eHealth-Healthcare-Icons-2017" transform="translate(-86.000000, -847.000000)" fill="currentColor">
            <g id="Lump-Sum" transform="translate(86.000000, 847.000000)">
                <path d="M25.0652,27.4984 L30.0642,27.4984 C30.6162,27.4984 31.0632,27.0514 31.0632,26.5004 C31.0632,25.9484 30.6162,25.5004 30.0642,25.5004 L27.0622,25.5004 L27.0622,22.5014 C27.0622,21.9464 26.6152,21.5014 26.0652,21.5014 C25.5122,21.5014 25.0652,21.9464 25.0652,22.5014 L25.0652,25.5004 C22.8552,25.5004 21.0652,27.2904 21.0632,29.5004 C21.0652,31.7104 22.8552,33.4984 25.0652,33.4984 L27.0632,33.4984 C28.1692,33.5004 29.0622,34.3954 29.0642,35.5014 C29.0622,36.6034 28.1692,37.4984 27.0632,37.5004 L22.0642,37.5004 C21.5102,37.5004 21.0652,37.9484 21.0652,38.4994 C21.0652,39.0534 21.5102,39.5014 22.0642,39.5014 L22.0642,39.4994 L25.0652,39.4994 L25.0652,42.5004 C25.0652,43.0524 25.5102,43.5004 26.0642,43.5004 C26.6162,43.5004 27.0622,43.0524 27.0622,42.5004 L27.0622,39.4994 C29.2722,39.4984 31.0632,37.7084 31.0632,35.5014 C31.0632,33.2894 29.2732,31.5014 27.0632,31.4994 L25.0652,31.5014 C23.9602,31.4974 23.0662,30.6044 23.0642,29.5004 C23.0662,28.3954 23.9602,27.5004 25.0652,27.4984 L25.0652,27.4984 Z M49.8572,50.5014 L2.2722,50.4994 C2.1612,50.4994 2.0802,50.4094 2.0632,50.2474 C2.0672,50.1824 2.0782,50.1424 2.1362,50.0764 L5.6922,46.4114 C7.2112,44.8464 8.0622,42.7424 8.0622,40.5614 L8.0622,27.5004 C8.0772,20.3204 13.8852,14.5114 21.0632,14.4984 L31.0642,14.4984 C38.2442,14.5114 44.0512,20.3204 44.0642,27.5004 L44.0642,40.5614 C44.0642,42.7424 44.9172,44.8464 46.4352,46.4114 L49.9912,50.0744 C50.0472,50.1374 50.0602,50.1804 50.0642,50.2494 C50.0472,50.4114 49.9662,50.4994 49.8572,50.5014 L49.8572,50.5014 Z M32.0632,11.5014 C32.0632,12.0514 31.6152,12.5004 31.0652,12.5004 L21.0652,12.5004 C20.5132,12.5004 20.0642,12.0514 20.0642,11.5014 C20.0642,10.9494 20.5132,10.4984 21.0652,10.4984 L31.0652,10.4984 C31.6152,10.4984 32.0632,10.9494 32.0632,11.5014 L32.0632,11.5014 Z M17.4792,4.5004 C17.2142,4.2354 17.0632,3.8724 17.0632,3.5004 C17.0652,2.9494 17.5132,2.5004 18.0642,2.5004 C18.6892,2.5224 18.8162,2.6924 19.3532,3.2074 C19.8142,3.6924 20.6862,4.5244 22.0602,4.5004 C23.4332,4.5244 24.3062,3.6944 24.7672,3.2074 C25.3062,2.6944 25.4332,2.5224 26.0592,2.5004 C26.6862,2.5224 26.8152,2.6944 27.3522,3.2074 C27.8152,3.6944 28.6872,4.5244 30.0612,4.5004 C31.4342,4.5244 32.3072,3.6944 32.7702,3.2074 C33.3092,2.6944 33.4362,2.5224 34.0652,2.5004 C34.6162,2.5004 35.0622,2.9494 35.0642,3.5004 C35.0642,3.8724 34.9132,4.2354 34.6502,4.5004 L30.6492,8.5004 L21.4782,8.5004 L17.4792,4.5004 Z M51.4262,48.6844 L47.8712,45.0194 C46.7152,43.8284 46.0622,42.2204 46.0622,40.5614 L46.0622,27.5004 C46.0622,20.1444 40.7652,14.0384 33.7792,12.7594 C33.9582,12.3754 34.0642,11.9524 34.0642,11.5014 C34.0642,10.5214 33.5892,9.6614 32.8652,9.1134 L36.0642,5.9144 C36.7032,5.2734 37.0622,4.4054 37.0642,3.5004 C37.0622,1.8424 35.7212,0.5004 34.0652,0.5004 C32.6892,0.4764 31.8162,1.3074 31.3562,1.7934 C30.8172,2.3074 30.6892,2.4774 30.0612,2.5004 C29.4332,2.4774 29.3052,2.3074 28.7662,1.7934 C28.3052,1.3074 27.4362,0.4774 26.0622,0.5014 C24.6892,0.4774 23.8132,1.3074 23.3532,1.7934 C22.8132,2.3074 22.6862,2.4774 22.0602,2.5004 C21.4342,2.4774 21.3062,2.3074 20.7692,1.7934 C20.3092,1.3074 19.4342,0.4784 18.0622,0.5014 C16.4042,0.5034 15.0652,1.8424 15.0652,3.5004 C15.0652,4.4054 15.4242,5.2734 16.0632,5.9144 L19.2632,9.1134 C18.5392,9.6614 18.0642,10.5214 18.0632,11.5014 C18.0642,11.9514 18.1702,12.3754 18.3482,12.7594 C11.3632,14.0374 6.0652,20.1444 6.0632,27.5004 L6.0632,40.5614 C6.0652,42.2204 5.4122,43.8284 4.2582,45.0194 L0.7032,48.6824 C0.2702,49.1224 0.0602,49.7034 0.0622,50.2474 C0.0652,51.3614 0.9282,52.4914 2.2722,52.4994 L49.8572,52.4994 C51.1992,52.4894 52.0602,51.3614 52.0622,50.2494 C52.0672,49.7034 51.8572,49.1244 51.4262,48.6844 L51.4262,48.6844 Z" id="Fill-20"></path>
            </g>
        </g>
    </g>
</svg>