<?xml version="1.0" encoding="UTF-8" standalone="no"?>
<svg width="54px" height="62px" viewBox="0 0 54 62" version="1.1" xmlns="http://www.w3.org/2000/svg" xmlns:xlink="http://www.w3.org/1999/xlink">
    <!-- Generator: Sketch 43.2 (39069) - http://www.bohemiancoding.com/sketch -->
    <title>Mail Order Pharmacy</title>
    <desc>Created with Sketch.</desc>
    <defs></defs>
    <g id="eHealth-line-icon-06302017" stroke="none" stroke-width="1" fill="none" fill-rule="evenodd">
        <g id="eHealth-Healthcare-Icons-2017" transform="translate(-668.000000, -839.000000)" stroke="currentColor" stroke-width="2">
            <g id="Mail-Order-Pharmacy" transform="translate(669.000000, 840.000000)">
                <path d="M28.7194,59.8045 L1.1084,46.4575 C0.1334,45.9865 -0.2756,44.8135 0.1964,43.8375 L9.0144,25.5935 C9.4864,24.6175 10.6584,24.2085 11.6344,24.6805 L39.2454,38.0275 C40.2214,38.4975 40.6294,39.6715 40.1574,40.6475 L31.3394,58.8915 C30.8674,59.8665 29.6954,60.2755 28.7194,59.8045 Z" id="Stroke-1"></path>
                <path d="M40.1745,38.9724 L20.7275,45.7454 C19.2515,46.2594 17.6395,45.4804 17.1245,44.0044 L10.3335,24.5054" id="Stroke-3"></path>
                <path d="M24.3932,44.4705 L29.7962,59.9835" id="Stroke-5"></path>
                <path d="M0.2966,45.7264 L15.8396,40.3134" id="Stroke-7"></path>
                <path d="M48.3844,9.0388 L23.0754,9.0388 L23.0754,1.8078 C23.0754,0.8098 24.1064,-0.0002 25.3764,-0.0002 L46.0834,-0.0002 C47.3544,-0.0002 48.3844,0.8098 48.3844,1.8078 L48.3844,9.0388 Z" id="Stroke-9" stroke-linejoin="round"></path>
                <path d="M26.4216,9.0388 L26.4216,12.6538 C22.5766,12.6538 19.4596,15.8928 19.4596,19.8858 L19.4596,28.4618" id="Stroke-11" stroke-linejoin="round"></path>
                <path d="M45.0378,9.0388 L45.0378,12.6538 C48.8828,12.6538 51.9998,15.8928 51.9998,19.8858 L51.9998,43.3868 C51.9998,44.3858 51.2208,45.1938 50.2598,45.1938 L37.9598,45.1938" id="Stroke-13" stroke-linejoin="round"></path>
                <path d="M29.403,25.3094 L33.923,25.3094 C35.42,25.3094 36.633,24.0954 36.633,22.5974 C36.633,21.0994 35.42,19.8854 33.923,19.8854 L29.403,19.8854 L29.403,30.7324" id="Stroke-15" stroke-linecap="round" stroke-linejoin="round"></path>
                <path d="M42.0573,34.3474 L33.0183,25.3094" id="Stroke-17" stroke-linecap="round" stroke-linejoin="round"></path>
                <path d="M33.0182,34.3474 L42.0572,25.3094" id="Stroke-19" stroke-linecap="round" stroke-linejoin="round"></path>
            </g>
        </g>
    </g>
</svg>