<?xml version="1.0" encoding="UTF-8" standalone="no"?>
<svg width="60px" height="60px" viewBox="0 0 60 60" version="1.1" xmlns="http://www.w3.org/2000/svg" xmlns:xlink="http://www.w3.org/1999/xlink">
    <!-- Generator: Sketch 46.2 (44496) - http://www.bohemiancoding.com/sketch -->
    <title>Maternity</title>
    <desc>Created with Sketch.</desc>
    <defs></defs>
    <g id="eHealth-line-icon-07202017" stroke="none" stroke-width="1" fill="none" fill-rule="evenodd">
        <g id="eHealth-Healthcare-Icons-2017" transform="translate(-1055.000000, -840.000000)" fill="currentColor">
            <g id="Maternity" transform="translate(1055.000000, 840.000000)">
                <path d="M10.0999,55.391 C9.2499,55.391 8.5599,54.701 8.5599,53.851 C8.5599,53.001 9.2499,52.311 10.0999,52.311 C10.9499,52.311 11.6399,53.001 11.6399,53.851 C11.6399,54.701 10.9499,55.391 10.0999,55.391 M10.0999,50.751 C8.3899,50.751 6.9999,52.141 6.9999,53.851 C6.9999,55.561 8.3899,56.951 10.0999,56.951 C11.8099,56.951 13.1999,55.561 13.1999,53.851 C13.1999,52.141 11.8099,50.751 10.0999,50.751" id="Fill-4"></path>
                <path d="M39.4901,55.391 C38.6401,55.391 37.9501,54.701 37.9501,53.851 C37.9501,53.001 38.6401,52.311 39.4901,52.311 C40.3401,52.311 41.0301,53.001 41.0301,53.851 C41.0301,54.701 40.3401,55.391 39.4901,55.391 M39.4901,50.751 C37.7801,50.751 36.3901,52.141 36.3901,53.851 C36.3901,55.561 37.7801,56.951 39.4901,56.951 C41.2001,56.951 42.5901,55.561 42.5901,53.851 C42.5901,52.141 41.2001,50.751 39.4901,50.751" id="Fill-6"></path>
                <path d="M57.1102,14.7113 C56.3802,14.7113 55.7802,14.1113 55.7802,13.3813 C55.7802,12.6513 56.3802,12.0513 57.1102,12.0513 C57.8402,12.0513 58.4402,12.6513 58.4402,13.3813 C58.4402,14.1113 57.8402,14.7113 57.1102,14.7113 L57.1102,14.7113 Z M48.0302,32.8813 C48.0302,38.9313 44.6702,41.5213 36.8002,41.5213 L12.7802,41.5213 C2.8902,41.5213 1.5502,37.1513 1.5502,32.8813 L1.5502,25.5213 L48.0302,25.5213 L48.0302,32.8813 Z M38.3502,47.8113 C35.7502,48.2913 33.7302,50.4213 33.3902,53.0713 L16.2002,53.0713 C15.8602,50.4213 13.8402,48.2913 11.2402,47.8113 L13.3002,43.0713 L36.2902,43.0713 L38.3502,47.8113 Z M44.0802,53.8513 C44.0802,56.3813 42.0202,58.4413 39.4902,58.4413 C36.9502,58.4413 34.8902,56.3813 34.8902,53.8513 C34.8902,51.3113 36.9502,49.2513 39.4902,49.2513 C42.0202,49.2513 44.0802,51.3113 44.0802,53.8513 L44.0802,53.8513 Z M10.1002,58.4413 C7.5602,58.4413 5.5002,56.3813 5.5002,53.8513 C5.5002,51.3113 7.5602,49.2513 10.1002,49.2513 C12.6302,49.2513 14.6902,51.3113 14.6902,53.8513 C14.6902,56.3813 12.6302,58.4413 10.1002,58.4413 L10.1002,58.4413 Z M4.2202,14.5413 L21.6902,23.9613 L1.8302,23.9613 L4.2202,14.5413 Z M12.6302,5.2913 L22.7402,22.7513 L4.9902,13.1813 L12.6302,5.2913 Z M24.0102,1.7913 L24.0102,21.8313 L13.9702,4.4913 L24.0102,1.7913 Z M57.1102,10.4913 C55.7902,10.4913 54.6702,11.3913 54.3302,12.6013 L51.3402,12.6013 C49.5102,12.6013 48.0302,14.0813 48.0302,15.9113 L48.0302,23.9613 L25.5702,23.9613 L25.5702,0.7813 C25.5702,0.5413 25.4602,0.3113 25.2702,0.1613 C25.0702,0.0113 24.8202,-0.0387 24.5902,0.0313 L12.6402,3.2413 L12.5802,3.2513 C12.5702,3.2513 12.5502,3.2613 12.5402,3.2713 C12.5002,3.2813 12.4502,3.3013 12.4202,3.3213 C12.3502,3.3613 12.2902,3.4013 12.2302,3.4613 L3.1502,12.8413 C3.1402,12.8513 3.1302,12.8613 3.1202,12.8813 C3.0902,12.9113 3.0602,12.9413 3.0502,12.9813 C3.0302,13.0013 3.0102,13.0313 3.0102,13.0613 C2.9802,13.1013 2.9702,13.1513 2.9602,13.1913 L2.9402,13.2813 L0.1402,24.2913 L0.1302,24.3013 C0.0502,24.4313 0.0002,24.5813 0.0002,24.7413 L0.0002,32.8813 C0.0002,39.5213 3.7002,42.7713 11.6102,43.0513 L9.5702,47.7313 C6.4302,47.9913 3.9502,50.6413 3.9502,53.8513 C3.9502,57.2413 6.7102,60.0013 10.1002,60.0013 C13.2302,60.0013 15.8202,57.6513 16.2002,54.6313 L33.3902,54.6313 C33.7702,57.6513 36.3602,60.0013 39.4902,60.0013 C42.8802,60.0013 45.6402,57.2413 45.6402,53.8513 C45.6402,50.6313 43.1602,47.9913 40.0102,47.7213 L37.9802,43.0513 C45.9002,42.7613 49.5902,39.5213 49.5902,32.8813 L49.5902,15.9113 C49.5902,14.9413 50.3702,14.1613 51.3402,14.1613 L54.3302,14.1613 C54.6702,15.3713 55.7902,16.2713 57.1102,16.2713 C58.7002,16.2713 60.0002,14.9713 60.0002,13.3813 C60.0002,11.7913 58.7002,10.4913 57.1102,10.4913 L57.1102,10.4913 Z" id="Fill-1"></path>
            </g>
        </g>
    </g>
</svg>