<?xml version="1.0" encoding="UTF-8" standalone="no"?>
<svg width="56px" height="57px" viewBox="0 0 56 57" version="1.1" xmlns="http://www.w3.org/2000/svg" xmlns:xlink="http://www.w3.org/1999/xlink">
    <!-- Generator: Sketch 47.1 (45422) - http://www.bohemiancoding.com/sketch -->
    <title>Medical package Insurance</title>
    <desc>Created with Sketch.</desc>
    <defs></defs>
    <g id="medical-package-insurance" stroke="none" stroke-width="1" fill="none" fill-rule="evenodd">
        <g id="medical-package-insurance" transform="translate(-1058.000000, -854.000000)">
            <g id="medical-package-insurance" transform="translate(1058.000000, 854.000000)">
                <g id="Group-3" transform="translate(0.000000, 15.882300)" fill="currentColor">
                    <path d="M34.281,17.7896 L29.691,12.4306 L48.751,5.1596 L53.251,9.6596 L34.281,17.7896 Z M48.001,31.3106 L29.001,38.5496 L29.001,14.6996 L33.241,19.6496 C33.43,19.8796 33.711,19.9996 34.001,19.9996 C34.131,19.9996 34.271,19.9706 34.391,19.9196 L48.001,14.0896 L48.001,31.3106 Z M27.001,38.5496 L8.001,31.3106 L8.001,14.0896 L21.611,19.9196 C22.01,20.0896 22.47,19.9796 22.76,19.6496 L27.001,14.6996 L27.001,38.5496 Z M2.751,9.6596 L7.251,5.1596 L26.311,12.4306 L21.72,17.7896 L2.751,9.6596 Z M55.711,9.2896 L49.711,3.2896 L49.701,3.2996 C49.601,3.1996 49.491,3.1196 49.361,3.0696 L43.001,0.6496 L43.001,2.7796 L46.191,3.9996 L28.001,10.9306 L9.811,3.9996 L13.311,2.6696 L13.311,0.5296 L6.641,3.0696 C6.51,3.1196 6.401,3.1996 6.301,3.2996 L6.291,3.2896 L0.291,9.2896 C0.061,9.5296 -0.049,9.8596 0.021,10.1896 C0.081,10.5106 0.301,10.7896 0.611,10.9196 L6.001,13.2296 L6.001,31.9996 C6.001,32.4096 6.26,32.7896 6.641,32.9396 L27.641,40.9306 C27.76,40.9796 27.881,40.9996 28.001,40.9996 C28.121,40.9996 28.241,40.9796 28.361,40.9306 L49.351,32.9396 C49.741,32.7896 50.001,32.4096 50.001,31.9996 L50.001,13.2296 L55.391,10.9196 C55.701,10.7896 55.921,10.5106 55.981,10.1896 C56.041,9.8596 55.941,9.5296 55.711,9.2896 L55.711,9.2896 Z" id="Fill-1"></path>
                </g>
                <path d="M13.0007,22.545 L13.0007,5.778 C13.0007,5.268 13.4147,4.854 13.9267,4.854 L42.0747,4.854 C42.5867,4.854 43.0007,5.268 43.0007,5.778 L43.0007,22.429" id="Stroke-4" stroke="currentColor" stroke-width="1.839"></path>
                <path d="M15.6482,4.8506 L15.6482,1.6886 C15.6482,1.2436 16.0082,0.8816 16.4542,0.8816 L39.5472,0.8816 C39.9932,0.8816 40.3532,1.2436 40.3532,1.6886 L40.3532,4.8506" id="Stroke-6" stroke="currentColor" stroke-width="1.765"></path>
                <path d="M32.8005,14.6534 L29.2005,14.6534 L29.2005,11.0534 C29.2005,10.3894 28.6635,9.8534 28.0005,9.8534 C27.3375,9.8534 26.8005,10.3894 26.8005,11.0534 L26.8005,14.6534 L23.2005,14.6534 C22.5375,14.6534 22.0005,15.1904 22.0005,15.8534 C22.0005,16.5164 22.5375,17.0534 23.2005,17.0514 L26.8005,17.0514 L26.8005,20.6534 C26.8005,21.3164 27.3375,21.8534 28.0005,21.8534 C28.6635,21.8534 29.2005,21.3164 29.2005,20.6534 L29.2005,17.0514 L32.8005,17.0514 C33.4635,17.0534 34.0005,16.5164 34.0005,15.8534 C34.0005,15.1904 33.4635,14.6534 32.8005,14.6534" id="Fill-8" fill="currentColor"></path>
            </g>
        </g>
    </g>
</svg>