<?xml version="1.0" encoding="UTF-8" standalone="no"?>
<svg width="38px" height="50px" viewBox="0 0 38 50" version="1.1" xmlns="http://www.w3.org/2000/svg" xmlns:xlink="http://www.w3.org/1999/xlink">
    <!-- Generator: Sketch 45.2 (43514) - http://www.bohemiancoding.com/sketch -->
    <title>Microphone</title>
    <desc>Created with Sketch.</desc>
    <defs></defs>
    <g id="microphone" stroke="none" stroke-width="1" fill="none" fill-rule="evenodd" stroke-linecap="round" stroke-linejoin="round">
        <g id="microphone" transform="translate(-972.000000, -850.000000)" stroke="currentColor" stroke-width="2">
            <g id="microphone" transform="translate(973.000000, 851.000000)">
                <path d="M35.2,15 C35.2,15.098 35.199,23.214 35.198,23.311 C35.04,32.795 27.221,40.435 17.6,40.435 C7.953,40.435 0.119,32.755 0.002,23.236 C0.001,23.164 0,15.073 0,15" id="Stroke-49"></path>
                <path d="M17,42 L17,46.645" id="Stroke-51"></path>
                <path d="M9,48 L26.747,48" id="Stroke-53"></path>
                <path d="M26.881,23.169 C26.881,28.328 22.654,32.511 17.441,32.511 C12.227,32.511 8,28.328 8,23.169 L8,9.342 C8,4.183 12.227,0 17.441,0 C22.654,0 26.881,4.183 26.881,9.342 L26.881,23.169 Z" id="Stroke-55"></path>
            </g>
        </g>
    </g>
</svg>