<?xml version="1.0" encoding="UTF-8" standalone="no"?>
<svg width="29px" height="53px" viewBox="0 0 29 53" version="1.1" xmlns="http://www.w3.org/2000/svg" xmlns:xlink="http://www.w3.org/1999/xlink">
    <!-- Generator: Sketch 45.2 (43514) - http://www.bohemiancoding.com/sketch -->
    <title>Mobile Phone</title>
    <desc>Created with Sketch.</desc>
    <defs></defs>
    <g id="mobile-phone" stroke="none" stroke-width="1" fill="none" fill-rule="evenodd">
        <g id="mobile-phone" transform="translate(-879.000000, -397.000000)" fill="currentColor">
            <g id="mobile-phone" transform="translate(879.000000, 397.000000)">
                <path d="M26.3277,8.5598 L2.3277,8.5598 L2.3277,4.5598 C2.3277,3.4568 3.2247,2.5598 4.3277,2.5588 L24.3277,2.5588 C25.4307,2.5598 26.3277,3.4568 26.3277,4.5598 L26.3277,8.5598 Z M2.3277,42.5598 L26.3277,42.5598 L26.3277,10.5588 L2.3277,10.5588 L2.3277,42.5598 Z M26.3277,48.5598 C26.3277,49.6628 25.4307,50.5598 24.3277,50.5598 L4.3277,50.5598 C3.2247,50.5598 2.3277,49.6628 2.3277,48.5598 L2.3277,44.5588 L26.3277,44.5588 L26.3277,48.5598 Z M24.3277,0.5598 L4.3277,0.5598 C2.1217,0.5598 0.3277,2.3538 0.3277,4.5598 L0.3277,48.5598 C0.3277,50.7658 2.1217,52.5598 4.3277,52.5598 L24.3277,52.5598 C26.5337,52.5598 28.3277,50.7658 28.3277,48.5598 L28.3277,4.5598 C28.3277,2.3538 26.5337,0.5598 24.3277,0.5598 L24.3277,0.5598 Z M14.3277,4.5598 C13.7757,4.5598 13.3277,5.0078 13.3277,5.5598 C13.3277,6.1118 13.7757,6.5598 14.3277,6.5598 C14.8797,6.5598 15.3277,6.1118 15.3277,5.5598 C15.3277,5.0078 14.8797,4.5598 14.3277,4.5598 L14.3277,4.5598 Z M12.3277,48.5598 L16.3277,48.5598 C16.8807,48.5598 17.3277,48.1128 17.3277,47.5598 C17.3277,47.0068 16.8807,46.5598 16.3277,46.5598 L12.3277,46.5598 C11.7747,46.5598 11.3277,47.0068 11.3277,47.5598 C11.3277,48.1128 11.7747,48.5598 12.3277,48.5598 L12.3277,48.5598 Z" id="Fill-8"></path>
            </g>
        </g>
    </g>
</svg>