<?xml version="1.0" encoding="UTF-8" standalone="no"?>
<svg width="54px" height="54px" viewBox="0 0 54 54" version="1.1" xmlns="http://www.w3.org/2000/svg" xmlns:xlink="http://www.w3.org/1999/xlink">
    <!-- Generator: Sketch 45.2 (43514) - http://www.bohemiancoding.com/sketch -->
    <title>My Plan</title>
    <desc>Created with Sketch.</desc>
    <defs></defs>
    <g id="my-plan" stroke="none" stroke-width="1" fill="none" fill-rule="evenodd">
        <g id="my-plan" transform="translate(-280.000000, -395.000000)" stroke="currentColor" stroke-width="2">
            <g id="my-plan" transform="translate(281.000000, 396.000000)">
                <path d="M7.6798,17.2804 L28.7998,17.2804" id="Stroke-1" stroke-linecap="round" stroke-linejoin="round"></path>
                <path d="M23.0402,23.0402 L7.6802,23.0402" id="Stroke-2" stroke-linecap="round" stroke-linejoin="round"></path>
                <path d="M7.6798,28.8 L17.2808,28.8" id="Stroke-3" stroke-linecap="round" stroke-linejoin="round"></path>
                <g id="Group-12">
                    <path d="M0.0002,11.5197 L8.6402,11.5197 C10.2292,11.5197 11.5202,10.2307 11.5202,8.6397 L11.5202,-0.0003" id="Stroke-4" stroke-linejoin="round"></path>
                    <path d="M36.4796,19.5197 L36.4796,2.8797 C36.4796,1.2897 35.1896,-0.0003 33.5996,-0.0003 L11.5196,-0.0003 L0.0006,11.5197 L0.0006,45.1207 C0.0006,46.7107 1.2906,47.9997 2.8796,47.9997 L21.0006,47.9997" id="Stroke-6" stroke-linecap="round" stroke-linejoin="round"></path>
                    <path d="M44.5002,28.0343 C44.5002,32.1773 41.1432,35.5343 37.0002,35.5343 C32.8572,35.5343 29.5002,32.1773 29.5002,28.0343 C29.5002,23.8913 32.8572,20.5343 37.0002,20.5343 C41.1432,20.5343 44.5002,23.8913 44.5002,28.0343 Z" id="Stroke-8"></path>
                    <path d="M52.0002,52.0002 L22.0002,52.0002 L22.0002,47.6392 C22.0002,42.8212 25.9052,38.9162 30.7222,38.9162 L43.2772,38.9162 C48.0952,38.9162 52.0002,42.8212 52.0002,47.6392 L52.0002,52.0002 Z" id="Stroke-10"></path>
                </g>
            </g>
        </g>
    </g>
</svg>