<?xml version="1.0" encoding="UTF-8" standalone="no"?>
<svg width="56px" height="44px" viewBox="0 0 56 44" version="1.1" xmlns="http://www.w3.org/2000/svg" xmlns:xlink="http://www.w3.org/1999/xlink">
    <!-- Generator: Sketch 45.2 (43514) - http://www.bohemiancoding.com/sketch -->
    <title>News</title>
    <desc>Created with Sketch.</desc>
    <defs></defs>
    <g id="news" stroke="none" stroke-width="1" fill="none" fill-rule="evenodd">
        <g id="news" transform="translate(-1060.000000, -556.000000)" fill="currentColor">
            <g id="news" transform="translate(1060.000000, 556.000000)">
                <path d="M16,36.0001 L28,36.0001 L28,23.9991 L16,23.9991 L16,36.0001 Z M29,22.0001 L15,22.0001 C14.448,22.0001 14,22.4481 14,23.0001 L14,37.0001 C14,37.5531 14.448,38.0001 15,38.0001 L29,38.0001 C29.553,38.0001 30,37.5531 30,37.0001 L30,23.0001 C30,22.4481 29.553,22.0001 29,22.0001 L29,22.0001 Z M47,7.9991 L49,7.9991 C49.553,8.0001 50,7.5531 50,7.0001 C50,6.4481 49.553,6.0001 49,6.0001 L47,6.0001 C45.346,6.0001 44,7.3461 44,9.0001 C44,10.6551 45.346,12.0001 47,12.0001 C47.552,12.0001 48,12.4481 48,13.0001 C48,13.5521 47.552,14.0001 47,14.0001 L44,14.0001 C43.447,14.0001 43,14.4481 43,15.0001 C43,15.5531 43.447,16.0001 44,16.0001 L47,16.0001 C48.654,16.0001 50,14.6551 50,13.0001 C50,11.3461 48.654,10.0001 47,10.0001 C46.448,10.0001 46,9.5521 46,9.0001 C46,8.4481 46.448,8.0001 47,7.9991 L47,7.9991 Z M29,7.9991 C29.553,8.0001 30,7.5531 30,7.0001 C30,6.4481 29.553,6.0001 29,6.0001 L25,6.0001 C24.448,6.0001 24,6.4481 24,7.0001 L24,15.0001 C24,15.5531 24.448,16.0001 25,16.0001 L29,16.0001 C29.553,16.0001 30,15.5531 30,15.0001 C30,14.4481 29.553,14.0001 29,14.0001 L26,14.0001 L26,11.9991 L28,11.9991 C28.552,12.0001 29,11.5531 29,11.0001 C29,10.4481 28.552,10.0001 28,10.0001 L26,10.0001 L26,7.9991 L29,7.9991 Z M35.707,15.7071 L37,14.4141 L38.293,15.7071 C38.488,15.9031 38.744,16.0001 39,16.0001 C39.256,16.0001 39.512,15.9031 39.707,15.7071 L41.707,13.7071 C41.895,13.5201 42,13.2661 42,13.0001 L42,7.0001 C42,6.4481 41.553,6.0001 41,6.0001 C40.447,6.0001 40,6.4481 40,7.0001 L40,12.5861 L39,13.5861 L38,12.5861 L38,7.0001 C38,6.4481 37.553,6.0001 37,6.0001 C36.447,6.0001 36,6.4481 36,7.0001 L36,12.5861 L35,13.5861 L34,12.5861 L34,7.0001 C34,6.4481 33.553,6.0001 33,6.0001 C32.447,6.0001 32,6.4481 32,7.0001 L32,13.0001 C32,13.2661 32.106,13.5201 32.293,13.7071 L34.293,15.7071 C34.684,16.0981 35.316,16.0981 35.707,15.7071 L35.707,15.7071 Z M15,16.0001 C15.552,16.0001 16,15.5531 16,15.0001 L16,9.9991 L20.2,15.6001 C20.213,15.6161 20.232,15.6221 20.246,15.6381 C20.315,15.7201 20.398,15.7831 20.489,15.8401 C20.523,15.8611 20.55,15.8881 20.585,15.9051 C20.712,15.9631 20.851,16.0001 21,16.0001 L21.001,16.0001 C21.12,16.0001 21.238,15.9731 21.353,15.9291 C21.394,15.9131 21.428,15.8911 21.466,15.8701 C21.511,15.8461 21.558,15.8311 21.6,15.8001 C21.619,15.7851 21.628,15.7641 21.646,15.7491 C21.698,15.7031 21.74,15.6511 21.782,15.5951 C21.82,15.5451 21.857,15.4981 21.886,15.4431 C21.913,15.3881 21.928,15.3301 21.945,15.2701 C21.965,15.2021 21.981,15.1381 21.986,15.0691 C21.987,15.0441 22,15.0251 22,15.0001 L22,7.0001 C22,6.4481 21.552,6.0001 21,6.0001 C20.448,6.0001 20,6.4481 20,7.0001 L20,12.0011 L15.8,6.4011 C15.785,6.3821 15.764,6.3731 15.749,6.3561 C15.703,6.3021 15.65,6.2601 15.595,6.2171 C15.545,6.1801 15.498,6.1421 15.442,6.1141 C15.388,6.0871 15.329,6.0721 15.269,6.0551 C15.202,6.0351 15.138,6.0191 15.069,6.0141 C15.045,6.0131 15.024,6.0001 15,6.0001 C14.959,6.0001 14.924,6.0191 14.885,6.0241 C14.817,6.0311 14.755,6.0411 14.689,6.0631 C14.622,6.0851 14.563,6.1161 14.502,6.1521 C14.469,6.1711 14.432,6.1771 14.399,6.2001 C14.381,6.2151 14.372,6.2371 14.355,6.2511 C14.301,6.2971 14.259,6.3501 14.217,6.4061 C14.179,6.4551 14.142,6.5021 14.114,6.5571 C14.087,6.6131 14.071,6.6711 14.054,6.7311 C14.035,6.7981 14.019,6.8631 14.014,6.9321 C14.012,6.9561 14,6.9761 14,7.0001 L14,15.0001 C14,15.5531 14.448,16.0001 15,16.0001 L15,16.0001 Z M49,34.0001 L35,34.0001 C34.447,34.0001 34,34.4481 34,35.0001 C34,35.5531 34.447,36.0001 35,36.0001 L49,36.0001 C49.553,36.0001 50,35.5531 50,35.0001 C50,34.4481 49.553,34.0001 49,34.0001 L49,34.0001 Z M49,28.0001 L35,28.0001 C34.447,28.0001 34,28.4481 34,29.0001 C34,29.5531 34.447,30.0001 35,30.0001 L49,30.0001 C49.553,30.0001 50,29.5531 50,29.0001 C50,28.4481 49.553,28.0001 49,28.0001 L49,28.0001 Z M49,22.0001 L35,22.0001 C34.447,22.0001 34,22.4481 34,23.0001 C34,23.5531 34.447,24.0001 35,24.0001 L49,24.0001 C49.553,24.0001 50,23.5531 50,23.0001 C50,22.4481 49.553,22.0001 49,22.0001 L49,22.0001 Z M54,39.0001 C54,40.6551 52.654,42.0001 51,42.0001 L8.998,42.0001 C9.626,41.1641 10,40.1251 10,39.0001 L10,3.0001 C10,2.4481 10.448,2.0001 11,1.9991 L53,1.9991 C53.552,2.0001 54,2.4481 54,3.0001 L54,39.0001 Z M8,39.0001 C8,40.6551 6.654,42.0001 5,42.0001 C3.346,42.0001 2,40.6551 2,39.0001 L2,15.0001 C2,14.4481 2.448,14.0001 3,13.9991 L8,13.9991 L8,39.0001 Z M53,0.0001 L11,0.0001 C9.346,0.0001 8,1.3461 8,3.0001 L8,12.0001 L3,12.0001 C1.346,12.0001 0,13.3461 0,15.0001 L0,39.0001 C0,41.7571 2.243,44.0001 5,44.0001 L51,44.0001 C53.757,44.0001 56,41.7571 56,39.0001 L56,3.0001 C56,1.3461 54.654,0.0001 53,0.0001 L53,0.0001 Z" id="Fill-18"></path>
            </g>
        </g>
    </g>
</svg>