<?xml version="1.0" encoding="UTF-8" standalone="no"?>
<svg width="49px" height="53px" viewBox="0 0 49 53" version="1.1" xmlns="http://www.w3.org/2000/svg" xmlns:xlink="http://www.w3.org/1999/xlink">
    <!-- Generator: Sketch 43.2 (39069) - http://www.bohemiancoding.com/sketch -->
    <title>Nurse-Female</title>
    <desc>Created with Sketch.</desc>
    <defs></defs>
    <g id="eHealth-line-icon-06302017" stroke="none" stroke-width="1" fill="none" fill-rule="evenodd">
        <g id="eHealth-Healthcare-Icons-2017" transform="translate(-1065.000000, -547.000000)" fill="currentColor">
            <g id="Nurse-Female" transform="translate(1065.000000, 547.000000)">
                <path d="M41.9602,33.1663 C41.4072,33.1663 40.9602,33.6133 40.9602,34.1663 C40.9602,42.9883 33.7822,50.1663 24.9602,50.1663 C16.1382,50.1663 8.9602,42.9883 8.9602,34.1663 C8.9602,33.6133 8.5132,33.1663 7.9602,33.1663 C5.2032,33.1663 2.9602,30.9233 2.9602,28.1663 L2.9602,27.1663 C2.9602,26.6153 3.4082,26.1663 3.9602,26.1663 L5.9602,26.1663 C6.5122,26.1663 6.9602,26.6153 6.9602,27.1663 L6.9602,28.1663 C6.9602,28.7193 7.4072,29.1663 7.9602,29.1663 C8.5132,29.1663 8.9602,28.7193 8.9602,28.1663 C8.9602,26.3283 9.8152,25.5403 11.3672,24.1073 C11.7732,23.7323 12.2102,23.3303 12.6672,22.8733 C13.3342,22.2063 14.2442,21.2033 14.9392,20.0893 C18.3772,25.0943 30.3102,28.5353 41.9062,29.1643 C42.1822,29.1773 42.4492,29.0803 42.6472,28.8933 C42.8472,28.7033 42.9602,28.4403 42.9602,28.1663 L42.9602,27.1663 C42.9602,26.6153 43.4082,26.1663 43.9602,26.1663 L45.9602,26.1663 C46.5122,26.1663 46.9602,26.6153 46.9602,27.1663 L46.9602,28.1663 C46.9602,30.9233 44.7172,33.1663 41.9602,33.1663 L41.9602,33.1663 Z M46.3142,46.1663 L38.3522,46.1663 C41.0182,43.1943 42.7192,39.3423 42.9372,35.0983 C42.9802,35.0923 43.0202,35.0813 43.0632,35.0743 C43.4772,39.7223 45.2602,43.9913 46.3142,46.1663 L46.3142,46.1663 Z M3.6062,46.1663 C4.6602,43.9913 6.4432,39.7223 6.8572,35.0743 C6.9002,35.0813 6.9402,35.0923 6.9832,35.0983 C7.2012,39.3423 8.9022,43.1943 11.5682,46.1663 L3.6062,46.1663 Z M6.9602,21.1663 C6.9602,18.1843 7.7002,15.2933 9.0942,12.6943 L11.0312,17.5373 C11.1842,17.9173 11.5512,18.1663 11.9602,18.1663 L13.7022,18.1663 C13.3012,19.0983 12.4412,20.2703 11.2532,21.4593 C10.8162,21.8953 10.3992,22.2793 10.0112,22.6393 C9.2122,23.3753 8.4662,24.0623 7.9122,24.8903 C7.6352,24.6513 7.3122,24.4673 6.9602,24.3433 L6.9602,21.1663 Z M24.9602,2.1663 C33.2792,2.1663 39.0562,6.1373 40.7612,7.4713 L37.2832,16.1663 L12.6372,16.1663 L9.1592,7.4713 C10.8642,6.1373 16.6412,2.1663 24.9602,2.1663 L24.9602,2.1663 Z M42.9602,21.1663 L42.9602,24.3503 C41.8172,24.7573 40.9872,25.8283 40.9612,27.1033 C28.5292,26.2463 17.7072,22.2853 16.1572,18.1653 L37.9602,18.1653 C38.3692,18.1663 38.7362,17.9173 38.8892,17.5373 L40.8262,12.6943 C42.2202,15.2933 42.9602,18.1843 42.9602,21.1663 L42.9602,21.1663 Z M48.9602,28.1663 L48.9602,27.1663 C48.9602,25.5123 47.6142,24.1663 45.9602,24.1663 L44.9602,24.1663 L44.9602,21.1663 C44.9602,17.3053 43.8492,13.5813 41.7642,10.3513 L42.8892,7.5373 C43.0432,7.1523 42.9422,6.7123 42.6382,6.4313 C42.3602,6.1763 35.7212,0.1663 24.9602,0.1663 C14.1992,0.1663 7.5602,6.1763 7.2822,6.4313 C6.9782,6.7123 6.8772,7.1523 7.0312,7.5373 L8.1562,10.3513 C6.0712,13.5813 4.9602,17.3053 4.9602,21.1663 L4.9602,24.1663 L3.9602,24.1663 C2.3062,24.1663 0.9602,25.5123 0.9602,27.1663 L0.9602,28.1663 C0.9602,30.9273 2.5692,33.3123 4.8962,34.4513 C4.4682,40.7233 1.1292,46.6053 1.0942,46.6663 C0.9152,46.9773 0.9162,47.3573 1.0952,47.6663 C1.2732,47.9763 1.6032,48.1663 1.9602,48.1653 L13.6712,48.1653 C16.7622,50.6633 20.6872,52.1663 24.9602,52.1663 C29.2332,52.1663 33.1582,50.6633 36.2492,48.1653 L47.9602,48.1653 C48.3172,48.1663 48.6472,47.9763 48.8252,47.6663 C49.0042,47.3573 49.0052,46.9773 48.8262,46.6663 C48.7912,46.6053 45.4522,40.7233 45.0242,34.4513 C47.3512,33.3123 48.9602,30.9273 48.9602,28.1663 L48.9602,28.1663 Z M20.9602,10.1653 L23.9602,10.1653 L23.9602,13.1663 C23.9602,13.7193 24.4072,14.1663 24.9602,14.1663 C25.5132,14.1663 25.9602,13.7193 25.9602,13.1663 L25.9602,10.1653 L28.9602,10.1653 C29.5132,10.1663 29.9602,9.7193 29.9602,9.1663 C29.9602,8.6133 29.5132,8.1663 28.9602,8.1663 L25.9602,8.1663 L25.9602,5.1663 C25.9602,4.6133 25.5132,4.1663 24.9602,4.1663 C24.4072,4.1663 23.9602,4.6133 23.9602,5.1663 L23.9602,8.1663 L20.9602,8.1663 C20.4072,8.1663 19.9602,8.6133 19.9602,9.1663 C19.9602,9.7193 20.4072,10.1663 20.9602,10.1653 L20.9602,10.1653 Z" id="Fill-13"></path>
            </g>
        </g>
    </g>
</svg>