<?xml version="1.0" encoding="UTF-8" standalone="no"?>
<svg width="48px" height="52px" viewBox="0 0 48 52" version="1.1" xmlns="http://www.w3.org/2000/svg" xmlns:xlink="http://www.w3.org/1999/xlink">
    <!-- Generator: Sketch 43.2 (39069) - http://www.bohemiancoding.com/sketch -->
    <title>Nurse-Male</title>
    <desc>Created with Sketch.</desc>
    <defs></defs>
    <g id="eHealth-line-icon-06302017" stroke="none" stroke-width="1" fill="none" fill-rule="evenodd">
        <g id="eHealth-Healthcare-Icons-2017" transform="translate(-871.000000, -548.000000)" fill="currentColor">
            <g id="Nurse-Male" transform="translate(871.000000, 548.000000)">
                <path d="M25.0002,15.0003 L25.0002,11.9993 L28.0002,11.9993 C28.5522,12.0003 29.0002,11.5533 29.0002,11.0003 C29.0002,10.4473 28.5522,10.0003 28.0002,10.0003 L25.0002,10.0003 L25.0002,7.0003 C25.0002,6.4473 24.5522,6.0003 24.0002,6.0003 C23.4472,6.0003 23.0002,6.4473 23.0002,7.0003 L23.0002,10.0003 L20.0002,10.0003 C19.4472,10.0003 19.0002,10.4473 19.0002,11.0003 C19.0002,11.5533 19.4472,12.0003 20.0002,11.9993 L23.0002,11.9993 L23.0002,15.0003 C23.0002,15.5533 23.4472,16.0003 24.0002,16.0003 C24.5522,16.0003 25.0002,15.5533 25.0002,15.0003 L25.0002,15.0003 Z M46.0002,28.0003 C46.0002,30.7573 43.7572,33.0003 41.0002,33.0003 C40.4472,33.0003 40.0002,33.4473 40.0002,34.0003 C40.0002,42.8223 32.8222,50.0003 24.0002,50.0003 C15.1782,50.0003 8.0002,42.8223 8.0002,34.0003 C8.0002,33.4473 7.5522,33.0003 7.0002,33.0003 C4.2432,33.0003 2.0002,30.7573 2.0002,28.0003 L2.0002,26.0003 C2.0002,25.4493 2.4482,25.0003 3.0002,24.9993 L5.0002,24.9993 C5.1132,25.0003 5.2262,24.9803 5.3322,24.9433 C5.4162,24.9143 13.7962,22.0003 24.0002,22.0003 C34.1862,22.0003 42.5842,24.9143 42.6682,24.9433 C42.7742,24.9803 42.8872,25.0003 43.0002,24.9993 L45.0002,24.9993 C45.5512,25.0003 46.0002,25.4493 46.0002,26.0003 L46.0002,28.0003 Z M6.0002,7.0003 C6.0002,4.9123 12.8482,2.0003 24.0002,2.0003 C35.1522,2.0003 42.0002,4.9123 42.0002,7.0003 L42.0002,22.6333 C39.1932,21.7913 32.2502,20.0003 24.0002,20.0003 C15.7502,20.0003 8.8072,21.7913 6.0002,22.6333 L6.0002,7.0003 Z M45.0002,23.0003 L44.0002,23.0003 L44.0002,7.0003 C44.0002,2.4533 33.6952,0.0003 24.0002,0.0003 C14.3052,0.0003 4.0002,2.4533 4.0002,7.0003 L4.0002,23.0003 L3.0002,23.0003 C1.3462,23.0003 0.0002,24.3463 0.0002,26.0003 L0.0002,28.0003 C0.0002,31.5293 2.6242,34.4553 6.0232,34.9323 C6.5102,44.4263 14.3872,52.0003 24.0002,52.0003 C33.6122,52.0003 41.4892,44.4263 41.9762,34.9323 C45.3752,34.4553 48.0002,31.5293 48.0002,28.0003 L48.0002,26.0003 C48.0002,24.3463 46.6542,23.0003 45.0002,23.0003 L45.0002,23.0003 Z" id="Fill-15"></path>
            </g>
        </g>
    </g>
</svg>