<?xml version="1.0" encoding="UTF-8" standalone="no"?>
<svg width="44px" height="55px" viewBox="0 0 44 55" version="1.1" xmlns="http://www.w3.org/2000/svg" xmlns:xlink="http://www.w3.org/1999/xlink">
    <!-- Generator: Sketch 43.2 (39069) - http://www.bohemiancoding.com/sketch -->
    <title>Out of Pocket Maximum</title>
    <desc>Created with Sketch.</desc>
    <defs></defs>
    <g id="eHealth-line-icon-06302017" stroke="none" stroke-width="1" fill="none" fill-rule="evenodd">
        <g id="eHealth-Healthcare-Icons-2017" transform="translate(-870.000000, -696.000000)">
            <g id="Out-of-Pocket-Maximum" transform="translate(871.000000, 696.000000)">
                <path d="M33.0951,39.4288 C33.0951,39.8748 32.7331,40.2388 32.2851,40.2388 C31.8391,40.2388 31.4761,39.8748 31.4761,39.4288 C31.4761,38.9818 31.8391,38.6188 32.2851,38.6188 C32.7331,38.6188 33.0951,38.9818 33.0951,39.4288 Z" id="Stroke-1" stroke="currentColor" stroke-width="2" fill="#333333" stroke-linejoin="round"></path>
                <path d="M39.3998,44.2862 L39.3998,51.5712 C39.3998,52.9122 38.3248,54.0002 37.0008,54.0002 L3.1998,54.0002 C1.4328,54.0002 0.0008,52.5502 0.0008,50.7622 L0.0008,22.4292" id="Stroke-3" stroke="currentColor" stroke-width="2" stroke-linejoin="round"></path>
                <path d="M39.4018,34.5723 L39.4018,27.2873 C39.4018,25.9433 38.3218,24.8583 37.0028,24.8583 L33.6018,24.8583 L27.8348,24.8583 L25.2978,24.8583 L20.0028,24.8583 L14.7068,24.8583 L13.3308,24.8583" id="Stroke-5" stroke="currentColor" stroke-width="2" stroke-linejoin="round"></path>
                <path d="M13.3305,24.8585 L12.1705,24.8585 L2.4015,24.8585 C1.0745,24.8585 0.0025,23.7655 0.0025,22.4295 C0.0025,21.0865 1.0745,20.0015 2.4015,20.0015 L8.5965,20.0005" id="Stroke-7" stroke="currentColor" stroke-width="2" stroke-linejoin="round"></path>
                <path d="M35.6,24.8575 L35.6,22.4285 C35.6,21.0875 34.525,20.0005 33.2,20.0005 L31.6,20.0005" id="Stroke-9" stroke="currentColor" stroke-width="2" stroke-linejoin="round"></path>
                <path d="M42.0004,42.6671 C42.0004,43.5611 41.2834,44.2861 40.3994,44.2861 L32.3994,44.2861 C29.7494,44.2861 27.6004,42.1111 27.6004,39.4291 C27.6004,36.7461 29.7494,34.5711 32.3994,34.5711 L40.3994,34.5711 C41.2834,34.5711 42.0004,35.2961 42.0004,36.1901 L42.0004,42.6671 Z" id="Stroke-11" stroke="currentColor" stroke-width="2" stroke-linejoin="round"></path>
                <path d="M21.0004,13.0001 L19.0004,13.0001 C17.8994,12.9901 17.0004,12.1001 17.0004,11.0001 C17.0004,9.8901 17.8994,9.0001 19.0004,9.0001 L24.0004,9.0001 C24.5504,9.0001 25.0004,8.5501 25.0004,8.0001 C25.0004,7.4501 24.5504,7.0001 24.0004,7.0001 L21.0004,7.0001 L21.0004,5.0001 C21.0004,4.4501 20.5504,4.0001 20.0004,4.0001 C19.4494,4.0001 19.0004,4.4501 19.0004,5.0001 L19.0004,7.0001 C17.8994,7.0001 16.8994,7.4501 16.1704,8.1701 C15.4494,8.9001 15.0004,9.9001 15.0004,11.0001 C15.0004,13.2101 16.7894,15.0001 19.0004,15.0001 L21.0004,15.0001 C22.1004,15.0001 23.0004,15.8901 23.0004,17.0001 C23.0004,18.1001 22.1004,19.0001 21.0004,19.0001 L16.0004,19.0001 C15.4494,19.0001 15.0004,19.4391 15.0004,20.0001 C15.0004,20.5501 15.4494,21.0001 16.0004,21.0001 L19.0004,21.0001 L19.0004,23.0001 C19.0004,23.5501 19.4494,24.0001 20.0004,24.0001 C20.5504,24.0001 21.0004,23.5501 21.0004,23.0001 L21.0004,21.0001 C23.2104,21.0001 25.0004,19.2101 25.0004,17.0001 C25.0004,14.7901 23.2104,13.0001 21.0004,13.0001 M21.0004,13.0001 L19.0004,13.0001 C17.8994,12.9901 17.0004,12.1001 17.0004,11.0001 C17.0004,9.8901 17.8994,9.0001 19.0004,9.0001 L24.0004,9.0001 C24.5504,9.0001 25.0004,8.5501 25.0004,8.0001 C25.0004,7.4501 24.5504,7.0001 24.0004,7.0001 L21.0004,7.0001 L21.0004,5.0001 C21.0004,4.4501 20.5504,4.0001 20.0004,4.0001 C19.4494,4.0001 19.0004,4.4501 19.0004,5.0001 L19.0004,7.0001 C17.8994,7.0001 16.8994,7.4501 16.1704,8.1701 C15.4494,8.9001 15.0004,9.9001 15.0004,11.0001 C15.0004,13.2101 16.7894,15.0001 19.0004,15.0001 L21.0004,15.0001 C22.1004,15.0001 23.0004,15.8901 23.0004,17.0001 C23.0004,18.1001 22.1004,19.0001 21.0004,19.0001 L16.0004,19.0001 C15.4494,19.0001 15.0004,19.4391 15.0004,20.0001 C15.0004,20.5501 15.4494,21.0001 16.0004,21.0001 L19.0004,21.0001 L19.0004,23.0001 C19.0004,23.5501 19.4494,24.0001 20.0004,24.0001 C20.5504,24.0001 21.0004,23.5501 21.0004,23.0001 L21.0004,21.0001 C23.2104,21.0001 25.0004,19.2101 25.0004,17.0001 C25.0004,14.7901 23.2104,13.0001 21.0004,13.0001 M19.0004,9.0001 L24.0004,9.0001 C24.5504,9.0001 25.0004,8.5501 25.0004,8.0001 C25.0004,7.4501 24.5504,7.0001 24.0004,7.0001 L21.0004,7.0001 L21.0004,5.0001 C21.0004,4.4501 20.5504,4.0001 20.0004,4.0001 C19.4494,4.0001 19.0004,4.4501 19.0004,5.0001 L19.0004,7.0001 C17.8994,7.0001 16.8994,7.4501 16.1704,8.1701 C15.4494,8.9001 15.0004,9.9001 15.0004,11.0001 C15.0004,13.2101 16.7894,15.0001 19.0004,15.0001 L21.0004,15.0001 C22.1004,15.0001 23.0004,15.8901 23.0004,17.0001 C23.0004,18.1001 22.1004,19.0001 21.0004,19.0001 L16.0004,19.0001 C15.4494,19.0001 15.0004,19.4391 15.0004,20.0001 C15.0004,20.5501 15.4494,21.0001 16.0004,21.0001 L19.0004,21.0001 L19.0004,23.0001 C19.0004,23.5501 19.4494,24.0001 20.0004,24.0001 C20.5504,24.0001 21.0004,23.5501 21.0004,23.0001 L21.0004,21.0001 C23.2104,21.0001 25.0004,19.2101 25.0004,17.0001 C25.0004,14.7901 23.2104,13.0001 21.0004,13.0001 L19.0004,13.0001 C17.8994,12.9901 17.0004,12.1001 17.0004,11.0001 C17.0004,9.8901 17.8994,9.0001 19.0004,9.0001 M20.0004,0.0001 C12.2704,0.0001 6.0004,6.2701 6.0004,14.0001 C6.0004,15.3901 6.1994,16.7291 6.5794,18.0001 C7.2704,20.3001 8.5294,22.3601 10.2104,24.0001 L13.3804,24.0001 C10.1404,21.8501 8.0104,18.1801 8.0004,14.0001 C8.0104,7.3701 13.3694,2.0101 20.0004,2.0001 C26.6304,2.0101 31.9894,7.3701 32.0004,14.0001 C31.9894,18.1801 29.8594,21.8501 26.6194,24.0001 L29.7894,24.0001 C31.4704,22.3601 32.7294,20.3001 33.4204,18.0001 C33.8004,16.7291 34.0004,15.3901 34.0004,14.0001 C34.0004,6.2701 27.7294,0.0001 20.0004,0.0001 M21.0004,13.0001 L19.0004,13.0001 C17.8994,12.9901 17.0004,12.1001 17.0004,11.0001 C17.0004,9.8901 17.8994,9.0001 19.0004,9.0001 L24.0004,9.0001 C24.5504,9.0001 25.0004,8.5501 25.0004,8.0001 C25.0004,7.4501 24.5504,7.0001 24.0004,7.0001 L21.0004,7.0001 L21.0004,5.0001 C21.0004,4.4501 20.5504,4.0001 20.0004,4.0001 C19.4494,4.0001 19.0004,4.4501 19.0004,5.0001 L19.0004,7.0001 C17.8994,7.0001 16.8994,7.4501 16.1704,8.1701 C15.4494,8.9001 15.0004,9.9001 15.0004,11.0001 C15.0004,13.2101 16.7894,15.0001 19.0004,15.0001 L21.0004,15.0001 C22.1004,15.0001 23.0004,15.8901 23.0004,17.0001 C23.0004,18.1001 22.1004,19.0001 21.0004,19.0001 L16.0004,19.0001 C15.4494,19.0001 15.0004,19.4391 15.0004,20.0001 C15.0004,20.5501 15.4494,21.0001 16.0004,21.0001 L19.0004,21.0001 L19.0004,23.0001 C19.0004,23.5501 19.4494,24.0001 20.0004,24.0001 C20.5504,24.0001 21.0004,23.5501 21.0004,23.0001 L21.0004,21.0001 C23.2104,21.0001 25.0004,19.2101 25.0004,17.0001 C25.0004,14.7901 23.2104,13.0001 21.0004,13.0001 M21.0004,13.0001 L19.0004,13.0001 C17.8994,12.9901 17.0004,12.1001 17.0004,11.0001 C17.0004,9.8901 17.8994,9.0001 19.0004,9.0001 L24.0004,9.0001 C24.5504,9.0001 25.0004,8.5501 25.0004,8.0001 C25.0004,7.4501 24.5504,7.0001 24.0004,7.0001 L21.0004,7.0001 L21.0004,5.0001 C21.0004,4.4501 20.5504,4.0001 20.0004,4.0001 C19.4494,4.0001 19.0004,4.4501 19.0004,5.0001 L19.0004,7.0001 C17.8994,7.0001 16.8994,7.4501 16.1704,8.1701 C15.4494,8.9001 15.0004,9.9001 15.0004,11.0001 C15.0004,13.2101 16.7894,15.0001 19.0004,15.0001 L21.0004,15.0001 C22.1004,15.0001 23.0004,15.8901 23.0004,17.0001 C23.0004,18.1001 22.1004,19.0001 21.0004,19.0001 L16.0004,19.0001 C15.4494,19.0001 15.0004,19.4391 15.0004,20.0001 C15.0004,20.5501 15.4494,21.0001 16.0004,21.0001 L19.0004,21.0001 L19.0004,23.0001 C19.0004,23.5501 19.4494,24.0001 20.0004,24.0001 C20.5504,24.0001 21.0004,23.5501 21.0004,23.0001 L21.0004,21.0001 C23.2104,21.0001 25.0004,19.2101 25.0004,17.0001 C25.0004,14.7901 23.2104,13.0001 21.0004,13.0001" id="Fill-13" fill="currentColor"></path>
            </g>
        </g>
    </g>
</svg>