<?xml version="1.0" encoding="UTF-8" standalone="no"?>
<svg width="61px" height="49px" viewBox="0 0 61 49" version="1.1" xmlns="http://www.w3.org/2000/svg" xmlns:xlink="http://www.w3.org/1999/xlink">
    <!-- Generator: Sketch 45.2 (43514) - http://www.bohemiancoding.com/sketch -->
    <title>Partnership</title>
    <desc>Created with Sketch.</desc>
    <defs>
        <polygon id="path-1" points="60.664 48.6954 60.664 0.69415 0.66425 0.69415 0.66425 48.6954 60.664 48.6954"></polygon>
    </defs>
    <g id="partnership" stroke="none" stroke-width="1" fill="none" fill-rule="evenodd">
        <g id="partnership" transform="translate(-472.000000, -700.000000)">
            <g id="partnership" transform="translate(472.000000, 700.000000)">
                <mask id="mask-2" fill="white">
                    <use xlink:href="#path-1"></use>
                </mask>
                <g id="Clip-14"></g>
                <path d="M47.1635,27.7814 L41.5275,22.1444 C39.8285,20.4454 37.5685,19.5094 35.1645,19.5094 L35.1635,19.5094 C32.7595,19.5094 30.4995,20.4444 28.8015,22.1444 L25.4575,25.4874 C24.4695,26.4754 22.8595,26.4754 21.8715,25.4874 C20.8825,24.4994 20.8825,22.8904 21.8715,21.9014 L29.0785,14.6934 L42.2505,14.6934 L51.2505,23.6944 L47.1635,27.7814 Z M49.1285,35.1594 C48.4155,35.8724 47.2555,35.8724 46.5425,35.1594 L42.3715,30.9874 C41.9805,30.5964 41.3485,30.5964 40.9575,30.9874 C40.5665,31.3784 40.5665,32.0104 40.9575,32.4014 L45.1285,36.5734 L46.1285,37.5734 C46.4735,37.9194 46.6635,38.3784 46.6635,38.8664 C46.6635,39.3544 46.4735,39.8144 46.1285,40.1594 C45.4375,40.8494 44.2325,40.8494 43.5425,40.1594 L38.3715,34.9874 C37.9805,34.5964 37.3485,34.5964 36.9575,34.9874 C36.5665,35.3784 36.5665,36.0104 36.9575,36.4014 L42.1285,41.5734 C42.4735,41.9194 42.6635,42.3784 42.6635,42.8664 C42.6635,43.3544 42.4735,43.8144 42.1285,44.1594 C41.4375,44.8494 40.2325,44.8494 39.5425,44.1594 L34.3715,38.9874 C33.9805,38.5964 33.3485,38.5964 32.9575,38.9874 C32.5665,39.3784 32.5665,40.0104 32.9575,40.4014 L36.1275,43.5724 C36.1275,43.5724 36.1275,43.5734 36.1285,43.5734 C36.4735,43.9194 36.6635,44.3784 36.6635,44.8664 C36.6635,45.3544 36.4735,45.8144 36.1285,46.1594 C35.4375,46.8494 34.2325,46.8494 33.5425,46.1594 L31.5975,44.2134 C31.8135,43.0174 31.4655,41.7394 30.5435,40.8164 C29.7715,40.0464 28.6965,39.6994 27.6415,39.7504 C27.7035,38.6954 27.3475,37.6214 26.5435,36.8164 C25.7715,36.0464 24.6965,35.6994 23.6415,35.7504 C23.7035,34.6954 23.3475,33.6214 22.5435,32.8164 C21.7715,32.0464 20.6965,31.6994 19.6415,31.7504 C19.7035,30.6954 19.3475,29.6214 18.5435,28.8164 C17.4595,27.7324 15.7715,27.4624 14.3865,28.0024 L10.0785,23.6944 L19.0785,14.6934 L26.2505,14.6934 L20.4575,20.4874 C18.6885,22.2564 18.6885,25.1334 20.4575,26.9014 C22.2255,28.6694 25.1015,28.6704 26.8715,26.9014 L30.2155,23.5584 C31.5365,22.2364 33.2945,21.5094 35.1635,21.5094 L35.1645,21.5094 C37.0335,21.5094 38.7915,22.2364 40.1135,23.5584 L49.1285,32.5734 C49.8415,33.2864 49.8415,34.4464 49.1285,35.1594 L49.1285,35.1594 Z M29.1295,44.8164 L27.7865,46.1594 C27.0965,46.8494 25.8915,46.8494 25.2005,46.1594 C24.4875,45.4464 24.4875,44.2864 25.2005,43.5734 L26.5435,42.2304 C26.8885,41.8854 27.3485,41.6954 27.8365,41.6954 C28.3245,41.6954 28.7835,41.8854 29.1295,42.2304 C29.8425,42.9434 29.8425,44.1034 29.1295,44.8164 L29.1295,44.8164 Z M19.2005,44.1594 C18.4875,43.4464 18.4875,42.2864 19.2005,41.5734 L22.5435,38.2304 C22.8885,37.8854 23.3485,37.6954 23.8365,37.6954 C24.3245,37.6954 24.7835,37.8854 25.1295,38.2304 C25.8425,38.9434 25.8425,40.1034 25.1295,40.8164 L21.7865,44.1594 C21.0965,44.8494 19.8915,44.8494 19.2005,44.1594 L19.2005,44.1594 Z M15.2005,40.1594 C14.4875,39.4464 14.4875,38.2864 15.2005,37.5734 L18.5435,34.2304 C18.8885,33.8854 19.3485,33.6954 19.8365,33.6954 C20.3245,33.6954 20.7835,33.8854 21.1295,34.2304 C21.8425,34.9434 21.8425,36.1034 21.1295,36.8164 L17.7865,40.1594 C17.0965,40.8494 15.8915,40.8494 15.2005,40.1594 L15.2005,40.1594 Z M12.2005,32.5734 L14.5435,30.2304 C14.8885,29.8854 15.3485,29.6954 15.8365,29.6954 C16.3245,29.6954 16.7835,29.8854 17.1295,30.2304 C17.8425,30.9434 17.8425,32.1034 17.1295,32.8164 L14.7865,35.1594 C14.0965,35.8494 12.8915,35.8494 12.2005,35.1594 C11.4875,34.4464 11.4875,33.2864 12.2005,32.5734 L12.2005,32.5734 Z M60.3715,19.9874 C59.9805,19.5964 59.3485,19.5964 58.9575,19.9874 L54.6645,24.2804 L43.0785,12.6944 L53.3715,2.4014 C53.7625,2.0104 53.7625,1.3784 53.3715,0.9874 C52.9805,0.5964 52.3485,0.5964 51.9575,0.9874 L40.9575,11.9874 C40.7625,12.1824 40.6645,12.4384 40.6645,12.6944 L20.6645,12.6944 C20.6645,12.4384 20.5665,12.1824 20.3715,11.9874 L9.3715,0.9874 C8.9805,0.5964 8.3485,0.5964 7.9575,0.9874 C7.5665,1.3784 7.5665,2.0104 7.9575,2.4014 L18.2505,12.6944 L6.6645,24.2804 L2.3715,19.9874 C1.9805,19.5964 1.3485,19.5964 0.9575,19.9874 C0.5665,20.3784 0.5665,21.0104 0.9575,21.4014 L5.9575,26.4014 C6.1525,26.5964 6.4085,26.6944 6.6645,26.6944 C6.9205,26.6944 7.1765,26.5964 7.3715,26.4014 L8.6645,25.1084 L12.7505,29.1954 L10.7865,31.1594 C9.2935,32.6524 9.2935,35.0814 10.7865,36.5734 C11.3635,37.1504 12.0945,37.5104 12.8845,37.6354 C12.4315,38.9724 12.7225,40.5094 13.7865,41.5734 C14.5095,42.2974 15.4715,42.6954 16.4935,42.6954 C16.5585,42.6954 16.6205,42.6794 16.6845,42.6774 C16.6335,43.7194 16.9915,44.7784 17.7865,45.5734 C18.5095,46.2974 19.4715,46.6954 20.4935,46.6954 C21.3505,46.6954 22.1545,46.4014 22.8215,45.8854 C22.9915,46.5024 23.3025,47.0894 23.7865,47.5734 C24.5095,48.2974 25.4715,48.6954 26.4935,48.6954 C27.5165,48.6954 28.4765,48.2974 29.2005,47.5734 L30.5435,46.2304 C30.5845,46.1894 30.6125,46.1394 30.6525,46.0964 L32.1285,47.5734 C32.8505,48.2974 33.8125,48.6944 34.8355,48.6944 C35.8575,48.6944 36.8185,48.2974 37.5425,47.5734 C38.0175,47.0984 38.3355,46.5154 38.5095,45.8854 C39.1945,46.4134 40.0105,46.6934 40.8355,46.6934 C41.8155,46.6934 42.7965,46.3204 43.5425,45.5734 C44.3375,44.7784 44.6955,43.7194 44.6425,42.6754 C44.7075,42.6774 44.7705,42.6934 44.8355,42.6934 C45.8155,42.6934 46.7965,42.3204 47.5425,41.5734 C48.6065,40.5094 48.8965,38.9724 48.4435,37.6354 C49.2125,37.5114 49.9515,37.1654 50.5425,36.5734 C52.0345,35.0814 52.0345,32.6524 50.5425,31.1594 L48.5775,29.1954 L52.6645,25.1084 L53.9575,26.4014 C54.1525,26.5964 54.4085,26.6944 54.6645,26.6944 C54.9205,26.6944 55.1765,26.5964 55.3715,26.4014 L60.3715,21.4014 C60.7625,21.0104 60.7625,20.3784 60.3715,19.9874 L60.3715,19.9874 Z" id="Fill-13" fill="currentColor" mask="url(#mask-2)"></path>
            </g>
        </g>
    </g>
</svg>