<?xml version="1.0" encoding="UTF-8" standalone="no"?>
<svg width="52px" height="52px" viewBox="0 0 52 52" version="1.1" xmlns="http://www.w3.org/2000/svg" xmlns:xlink="http://www.w3.org/1999/xlink">
    <!-- Generator: Sketch 43.2 (39069) - http://www.bohemiancoding.com/sketch -->
    <title>Premium</title>
    <desc>Created with Sketch.</desc>
    <defs>
        <polygon id="path-1" points="0 0 0 51.9998 51.9999 51.9998 51.9999 7.10542736e-15"></polygon>
    </defs>
    <g id="eHealth-line-icon-06302017" stroke="none" stroke-width="1" fill="none" fill-rule="evenodd">
        <g id="eHealth-Healthcare-Icons-2017" transform="translate(-476.000000, -698.000000)">
            <g id="Premium" transform="translate(476.000000, 698.000000)">
                <g id="Group-3">
                    <mask id="mask-2" fill="white">
                        <use xlink:href="#path-1"></use>
                    </mask>
                    <g id="Clip-2"></g>
                    <path d="M25.9999,49.9998 C18.8319,49.9998 12.9999,44.1678 12.9999,36.9998 C12.9999,29.8318 18.8319,23.9998 25.9999,23.9998 C33.1679,23.9998 38.9999,29.8318 38.9999,36.9998 C38.9999,44.1678 33.1679,49.9998 25.9999,49.9998 L25.9999,49.9998 Z M25.9999,21.9998 C17.7289,21.9998 10.9999,28.7288 10.9999,36.9998 C10.9999,45.2708 17.7289,51.9998 25.9999,51.9998 C34.2709,51.9998 40.9999,45.2708 40.9999,36.9998 C40.9999,28.7288 34.2709,21.9998 25.9999,21.9998 L25.9999,21.9998 Z M49.9999,11.9998 L1.9999,11.9998 L1.9999,7.9998 C1.9999,6.8958 2.8969,5.9998 3.9999,5.9988 L13.9999,5.9988 L13.9999,6.9998 C13.9999,8.6538 15.3459,9.9998 16.9999,9.9998 C18.6539,9.9998 19.9999,8.6538 19.9999,6.9998 L19.9999,5.9988 L31.9999,5.9988 L31.9999,6.9998 C31.9999,8.6538 33.3459,9.9998 34.9999,9.9998 C36.6539,9.9998 37.9999,8.6538 37.9999,6.9998 L37.9999,5.9988 L47.9999,5.9988 C49.1029,5.9998 49.9999,6.8958 49.9999,7.9998 L49.9999,11.9998 Z M15.9999,2.9998 C15.9999,2.4488 16.4489,1.9998 16.9999,1.9998 C17.5519,1.9998 17.9999,2.4488 17.9999,2.9998 L17.9999,6.9998 C17.9999,7.5508 17.5519,7.9998 16.9999,7.9998 C16.4489,7.9998 15.9999,7.5508 15.9999,6.9998 L15.9999,2.9998 Z M33.9999,2.9998 C33.9999,2.4488 34.4479,1.9998 34.9999,1.9998 C35.5519,1.9998 35.9999,2.4488 35.9999,2.9998 L35.9999,6.9998 C35.9999,7.5508 35.5519,7.9998 34.9999,7.9998 C34.4479,7.9998 33.9999,7.5508 33.9999,6.9998 L33.9999,2.9998 Z M47.9999,3.9998 L37.9999,3.9998 L37.9999,2.9998 C37.9999,1.3458 36.6539,-0.0002 34.9999,-0.0002 C33.3459,-0.0002 31.9999,1.3458 31.9999,2.9998 L31.9999,3.9998 L19.9999,3.9998 L19.9999,2.9998 C19.9999,1.3458 18.6539,-0.0002 16.9999,-0.0002 C15.3459,-0.0002 13.9999,1.3458 13.9999,2.9998 L13.9999,3.9998 L3.9999,3.9998 C1.7949,3.9998 -0.0001,5.7948 -0.0001,7.9998 L-0.0001,43.9998 C-0.0001,46.2048 1.7949,47.9998 3.9999,47.9998 L10.9999,47.9998 C11.5529,47.9998 11.9999,47.5528 11.9999,46.9998 C11.9999,46.4468 11.5529,45.9998 10.9999,45.9998 L3.9999,45.9998 C2.8969,45.9998 1.9999,45.1038 1.9999,43.9998 L1.9999,13.9988 L49.9999,13.9988 L49.9999,43.9998 C49.9999,45.1038 49.1029,45.9998 47.9999,45.9998 L40.9999,45.9998 C40.4469,45.9998 39.9999,46.4468 39.9999,46.9998 C39.9999,47.5528 40.4469,47.9998 40.9999,47.9998 L47.9999,47.9998 C50.2059,47.9998 51.9999,46.2048 51.9999,43.9998 L51.9999,7.9998 C51.9999,5.7948 50.2059,3.9998 47.9999,3.9998 L47.9999,3.9998 Z" id="Fill-1" fill="currentColor" mask="url(#mask-2)"></path>
                </g>
                <path d="M24.9999,31.9998 L29.9999,31.9998 C30.5499,31.9998 30.9999,31.5508 30.9999,30.9998 C30.9999,30.4498 30.5499,29.9998 29.9999,29.9998 L26.9999,29.9998 L26.9999,27.9998 C26.9999,27.4498 26.5499,26.9998 25.9999,26.9998 C25.4499,26.9998 24.9999,27.4498 24.9999,27.9998 L24.9999,29.9998 C23.8999,29.9998 22.8999,30.4498 22.1699,31.1698 C21.4499,31.8998 20.9999,32.8998 20.9999,33.9998 C20.9999,36.2098 22.7899,37.9998 24.9999,37.9998 L26.9999,37.9998 C28.1009,37.9998 28.9999,38.8908 28.9999,39.9998 C28.9999,41.1008 28.1009,41.9998 26.9999,41.9998 L21.9999,41.9998 C21.4499,41.9998 20.9999,42.4398 20.9999,42.9998 C20.9999,43.5508 21.4499,43.9998 21.9999,43.9998 L24.9999,43.9998 L24.9999,45.9998 C24.9999,46.5508 25.4499,46.9998 25.9999,46.9998 C26.5499,46.9998 26.9999,46.5508 26.9999,45.9998 L26.9999,43.9998 C29.2099,43.9998 30.9999,42.2098 30.9999,39.9998 C30.9999,37.7898 29.2099,35.9998 26.9999,35.9998 L24.9999,35.9998 C23.8999,35.9898 22.9999,35.1008 22.9999,33.9998 C22.9999,32.8908 23.8999,31.9998 24.9999,31.9998 M26.9999,35.9998 L24.9999,35.9998 C23.8999,35.9898 22.9999,35.1008 22.9999,33.9998 C22.9999,32.8908 23.8999,31.9998 24.9999,31.9998 L29.9999,31.9998 C30.5499,31.9998 30.9999,31.5508 30.9999,30.9998 C30.9999,30.4498 30.5499,29.9998 29.9999,29.9998 L26.9999,29.9998 L26.9999,27.9998 C26.9999,27.4498 26.5499,26.9998 25.9999,26.9998 C25.4499,26.9998 24.9999,27.4498 24.9999,27.9998 L24.9999,29.9998 C23.8999,29.9998 22.8999,30.4498 22.1699,31.1698 C21.4499,31.8998 20.9999,32.8998 20.9999,33.9998 C20.9999,36.2098 22.7899,37.9998 24.9999,37.9998 L26.9999,37.9998 C28.1009,37.9998 28.9999,38.8908 28.9999,39.9998 C28.9999,41.1008 28.1009,41.9998 26.9999,41.9998 L21.9999,41.9998 C21.4499,41.9998 20.9999,42.4398 20.9999,42.9998 C20.9999,43.5508 21.4499,43.9998 21.9999,43.9998 L24.9999,43.9998 L24.9999,45.9998 C24.9999,46.5508 25.4499,46.9998 25.9999,46.9998 C26.5499,46.9998 26.9999,46.5508 26.9999,45.9998 L26.9999,43.9998 C29.2099,43.9998 30.9999,42.2098 30.9999,39.9998 C30.9999,37.7898 29.2099,35.9998 26.9999,35.9998 M26.9999,35.9998 L24.9999,35.9998 C23.8999,35.9898 22.9999,35.1008 22.9999,33.9998 C22.9999,32.8908 23.8999,31.9998 24.9999,31.9998 L29.9999,31.9998 C30.5499,31.9998 30.9999,31.5508 30.9999,30.9998 C30.9999,30.4498 30.5499,29.9998 29.9999,29.9998 L26.9999,29.9998 L26.9999,27.9998 C26.9999,27.4498 26.5499,26.9998 25.9999,26.9998 C25.4499,26.9998 24.9999,27.4498 24.9999,27.9998 L24.9999,29.9998 C23.8999,29.9998 22.8999,30.4498 22.1699,31.1698 C21.4499,31.8998 20.9999,32.8998 20.9999,33.9998 C20.9999,36.2098 22.7899,37.9998 24.9999,37.9998 L26.9999,37.9998 C28.1009,37.9998 28.9999,38.8908 28.9999,39.9998 C28.9999,41.1008 28.1009,41.9998 26.9999,41.9998 L21.9999,41.9998 C21.4499,41.9998 20.9999,42.4398 20.9999,42.9998 C20.9999,43.5508 21.4499,43.9998 21.9999,43.9998 L24.9999,43.9998 L24.9999,45.9998 C24.9999,46.5508 25.4499,46.9998 25.9999,46.9998 C26.5499,46.9998 26.9999,46.5508 26.9999,45.9998 L26.9999,43.9998 C29.2099,43.9998 30.9999,42.2098 30.9999,39.9998 C30.9999,37.7898 29.2099,35.9998 26.9999,35.9998" id="Fill-4" fill="currentColor"></path>
            </g>
        </g>
    </g>
</svg>