<?xml version="1.0" encoding="UTF-8" standalone="no"?>
<svg width="57px" height="48px" viewBox="0 0 57 48" version="1.1" xmlns="http://www.w3.org/2000/svg" xmlns:xlink="http://www.w3.org/1999/xlink">
    <!-- Generator: Sketch 45.2 (43514) - http://www.bohemiancoding.com/sketch -->
    <title>Print</title>
    <desc>Created with Sketch.</desc>
    <defs></defs>
    <g id="eHealth-line-icon-06302017" stroke="none" stroke-width="1" fill="none" fill-rule="evenodd">
        <g id="eHealth-General-Line-Icons-2017-1" transform="translate(-277.000000, -249.000000)" fill="currentColor">
            <g id="Print" transform="translate(277.000000, 249.000000)">
                <path d="M54.813,36.9998 C54.813,37.5518 54.365,37.9998 53.813,37.9998 L44.813,37.9998 L44.813,32.9998 C44.813,32.4468 44.366,31.9998 43.813,31.9998 L13.813,31.9998 C13.26,31.9998 12.813,32.4468 12.813,32.9998 L12.813,37.9998 L3.813,37.9998 C3.261,37.9998 2.813,37.5518 2.813,36.9998 L2.813,24.9998 C2.813,22.2428 5.056,19.9998 7.813,19.9988 L49.813,19.9988 C52.57,19.9998 54.813,22.2428 54.813,24.9998 L54.813,36.9998 Z M42.813,44.9998 C42.813,45.5518 42.365,45.9998 41.813,45.9998 L15.813,45.9998 C15.261,45.9998 14.813,45.5518 14.813,44.9998 L14.813,33.9988 L42.813,33.9988 L42.813,44.9998 Z M14.813,9.9988 L19.813,9.9988 C21.467,9.9998 22.813,8.6538 22.813,6.9998 L22.813,1.9988 L41.813,1.9988 C42.365,1.9998 42.813,2.4478 42.813,2.9998 L42.813,17.9998 L14.813,17.9998 L14.813,9.9988 Z M20.813,3.4138 L20.813,6.9998 C20.813,7.5518 20.365,7.9998 19.813,7.9998 L16.227,7.9998 L20.813,3.4138 Z M49.813,17.9998 L44.813,17.9998 L44.813,2.9998 C44.813,1.3458 43.467,-0.0002 41.813,-0.0002 L21.813,-0.0002 C21.679,-0.0002 21.549,0.0268 21.428,0.0768 C21.306,0.1288 21.197,0.2018 21.105,0.2938 L13.107,8.2918 C13.015,8.3838 12.942,8.4928 12.891,8.6148 C12.84,8.7358 12.813,8.8658 12.813,8.9998 L12.813,17.9998 L7.813,17.9998 C3.954,17.9998 0.813,21.1408 0.813,24.9998 L0.813,36.9998 C0.813,38.6538 2.159,39.9998 3.813,39.9988 L12.813,39.9988 L12.813,44.9998 C12.813,46.6538 14.159,47.9998 15.813,47.9998 L41.813,47.9998 C43.467,47.9998 44.813,46.6538 44.813,44.9998 L44.813,39.9988 L53.813,39.9988 C55.467,39.9998 56.813,38.6538 56.813,36.9998 L56.813,24.9998 C56.813,21.1408 53.672,17.9998 49.813,17.9998 L49.813,17.9998 Z" id="Fill-9"></path>
            </g>
        </g>
    </g>
</svg>