<?xml version="1.0" encoding="UTF-8"?>
<svg width="50px" height="50px" viewBox="0 0 50 50" version="1.1" xmlns="http://www.w3.org/2000/svg" xmlns:xlink="http://www.w3.org/1999/xlink">
    <!-- Generator: Sketch 50 (54983) - http://www.bohemiancoding.com/sketch -->
    <title>Profile</title>
    <desc>Created with Sketch.</desc>
    <defs>
        <polygon id="path-1" points="50 49.9998 50 0 0.0004 0 0.0004 49.9998 50 49.9998"></polygon>
    </defs>
    <g id="profile" stroke="none" stroke-width="1" fill="none" fill-rule="evenodd">
        <g id="profile" transform="translate(-672.000000, -397.000000)">
            <g id="profile" transform="translate(672.000000, 397.000000)">
                <mask id="mask-2" fill="white">
                    <use xlink:href="#path-1"></use>
                </mask>
                <g id="Clip-2"></g>
                <path d="M47.9164,47.9168 L2.0834,47.9168 L2.0834,42.1768 C2.0834,41.0728 2.4584,40.0418 3.0944,39.2088 C3.7284,38.3648 4.6454,37.7288 5.7084,37.4168 C8.0724,36.7188 11.0004,35.7288 13.5944,34.6138 C16.1974,33.4688 18.4274,32.3128 19.5834,30.8338 C19.7184,30.6558 19.7914,30.4378 19.7914,30.2088 L19.7914,28.1248 C19.7914,27.8438 19.6774,27.5728 19.4694,27.3748 C18.4374,26.3638 17.5524,25.4278 16.8434,24.3128 C16.1254,23.2088 15.5944,21.9478 15.2504,20.3018 C15.1874,20.0308 15.0304,19.7918 14.7914,19.6358 C14.2814,19.4798 13.5314,17.2708 13.5314,15.8538 C13.5314,15.7808 13.5414,15.7188 13.5414,15.6458 C13.5524,15.2088 13.7084,14.8028 14.4374,14.2388 C14.6874,14.0518 14.8444,13.7608 14.8534,13.4378 C15.0004,9.8028 16.1774,6.9788 17.9894,5.0528 C19.8124,3.1248 22.2704,2.1038 25.0004,2.0838 C27.7294,2.1038 30.1874,3.1248 32.0104,5.0528 C33.8224,6.9788 35.0004,9.8028 35.1454,13.4378 C35.1564,13.7608 35.3124,14.0518 35.5624,14.2388 C36.2914,14.8028 36.4474,15.2088 36.4584,15.6458 L36.4584,15.8338 C36.4584,17.2498 35.7194,19.4798 35.2084,19.6358 C34.9694,19.7918 34.8024,20.0308 34.7494,20.3018 C34.4064,21.9478 33.8754,23.2088 33.1564,24.3128 C32.4474,25.4278 31.5624,26.3638 30.5314,27.3748 C30.3224,27.5728 30.2084,27.8438 30.2084,28.1248 L30.2084,30.2088 C30.2084,30.4378 30.2814,30.6558 30.4164,30.8338 C31.0004,31.5728 31.8444,32.2288 32.8644,32.8438 C33.8954,33.4688 35.1034,34.0418 36.4064,34.6138 C39.0004,35.7288 41.9274,36.7188 44.2914,37.4168 C46.4274,38.0418 47.9164,39.9798 47.9164,42.1768 L47.9164,47.9168 Z M48.5624,37.9378 C47.6564,36.7608 46.3754,35.8538 44.8754,35.4168 C42.5834,34.7398 39.7084,33.7708 37.2284,32.6978 C35.0004,31.7608 33.0624,30.6358 32.2914,29.8338 L32.2914,28.5728 C33.2814,27.6048 34.1974,26.5728 34.9584,25.3648 C35.7194,24.1558 36.3334,22.7608 36.7194,21.0728 C37.4374,20.3858 37.8744,19.4478 38.1454,18.4798 C38.4164,17.5108 38.5004,16.4998 38.5414,15.6458 L38.5414,15.6138 C38.5414,14.6038 38.0414,13.6358 37.2084,12.8858 C36.7914,5.0628 31.5104,-0.0002 25.0624,-0.0002 L24.9374,-0.0002 C18.4894,-0.0002 13.2084,5.0628 12.7914,12.8858 C11.9584,13.6358 11.4584,14.6038 11.4584,15.6138 L11.4584,15.6458 C11.5004,16.4998 11.5834,17.5108 11.8534,18.4798 C12.1254,19.4478 12.5624,20.3858 13.2814,21.0728 C14.0524,24.4478 15.7284,26.6358 17.7084,28.5728 L17.7084,29.8338 C17.3224,30.2398 16.6454,30.7188 15.7914,31.2188 C14.9274,31.7188 13.8854,32.2288 12.7704,32.6978 C10.2914,33.7708 7.4164,34.7398 5.1244,35.4168 C2.1254,36.2918 0.0004,39.0208 0.0004,42.1768 L0.0004,48.9588 C0.0004,49.2398 0.1034,49.4998 0.3024,49.6978 C0.5004,49.8958 0.7604,49.9998 1.0414,49.9998 L48.9584,49.9998 C49.2394,49.9998 49.5004,49.8958 49.6974,49.6978 C49.8954,49.4998 50.0004,49.2398 50.0004,48.9588 L50.0004,42.1768 C50.0004,40.5938 49.4694,39.1248 48.5624,37.9378 L48.5624,37.9378 Z" id="Fill-1" fill="currentColor" mask="url(#mask-2)"></path>
            </g>
        </g>
    </g>
</svg>