<?xml version="1.0" encoding="UTF-8" standalone="no"?>
<svg width="60px" height="48px" viewBox="0 0 60 48" version="1.1" xmlns="http://www.w3.org/2000/svg" xmlns:xlink="http://www.w3.org/1999/xlink">
    <!-- Generator: Sketch 45.2 (43514) - http://www.bohemiancoding.com/sketch -->
    <title>Provider Network</title>
    <desc>Created with Sketch.</desc>
    <defs></defs>
    <g id="provider-network" stroke="none" stroke-width="1" fill="none" fill-rule="evenodd">
        <g id="provider-network" transform="translate(-277.000000, -548.000000)" fill="currentColor">
            <g id="provider-network" transform="translate(277.000000, 548.000000)">
                <path d="M48,26 C50.756,26 53,28.243 53,31 C53,33.757 50.756,36 48,36 C45.243,36 43,33.757 43,31 C43,28.243 45.243,26 48,26 L48,26 Z M48,38 C51.859,38 55,34.859 55,31 C55,27.141 51.859,24 48,24 C44.14,24 41,27.141 41,31 C41,34.859 44.14,38 48,38 L48,38 Z M58,46 L38,46 L38,43.23 C38,42.142 38.692,41.182 39.726,40.84 L41.926,40.104 L47.439,43.829 C47.777,44.058 48.222,44.058 48.56,43.829 L54.073,40.104 L56.277,40.841 C57.307,41.182 58,42.142 58,43.23 L58,46 Z M20,22 L20,19.23 C20,18.142 20.691,17.182 21.725,16.84 L23.925,16.104 L29.439,19.829 C29.777,20.058 30.222,20.058 30.56,19.829 L36.073,16.104 L38.277,16.841 C39.307,17.182 40,18.142 40,19.23 L40,22 L20,22 Z M22,46 L2,46 L2,43.23 C2,42.142 2.691,41.182 3.725,40.84 L5.925,40.104 L11.439,43.829 C11.777,44.058 12.222,44.058 12.56,43.829 L18.074,40.104 L20.277,40.841 C21.308,41.182 22,42.142 22,43.23 L22,46 Z M56.909,38.943 L54.24,38.052 C53.946,37.952 53.622,37.998 53.364,38.171 L48,41.793 L42.635,38.171 C42.378,37.998 42.056,37.952 41.759,38.052 L39.255,38.889 L31,31.551 L31,23.999 L41,23.999 C41.552,24 42,23.553 42,23 L42,19.23 C42,17.277 40.756,15.554 38.909,14.943 L36.24,14.052 C35.946,13.952 35.622,13.998 35.364,14.171 L30,17.793 L24.635,14.171 C24.378,13.998 24.056,13.952 23.759,14.052 L21.094,14.942 C19.243,15.554 18,17.277 18,19.23 L18,23 C18,23.553 18.447,24 19,23.999 L29,23.999 L29,31.551 L20.744,38.889 L18.24,38.052 C17.944,37.951 17.622,37.997 17.364,38.171 L12,41.793 L6.635,38.171 C6.378,37.998 6.056,37.952 5.759,38.052 L3.094,38.942 C1.243,39.554 0,41.277 0,43.23 L0,47 C0,47.553 0.447,48 1,48 L23,48 C23.552,48 24,47.553 24,47 L24,43.23 C24,41.95 23.459,40.776 22.569,39.941 L30,33.338 L37.43,39.941 C36.54,40.776 36,41.95 36,43.23 L36,47 C36,47.553 36.447,48 37,48 L59,48 C59.552,48 60,47.553 60,47 L60,43.23 C60,41.277 58.756,39.554 56.909,38.943 L56.909,38.943 Z M12,26 C14.756,26 17,28.243 17,31 C17,33.757 14.756,36 12,36 C9.243,36 7,33.757 7,31 C7,28.243 9.243,26 12,26 L12,26 Z M12,38 C15.859,38 19,34.859 19,31 C19,27.141 15.859,24 12,24 C8.14,24 5,27.141 5,31 C5,34.859 8.14,38 12,38 L12,38 Z M30,2 C32.756,2 35,4.243 35,7 C35,9.757 32.756,12 30,12 C27.243,12 25,9.757 25,7 C25,4.243 27.243,2 30,2 L30,2 Z M30,14 C33.859,14 37,10.859 37,7 C37,3.141 33.859,0 30,0 C26.14,0 23,3.141 23,7 C23,10.859 26.14,14 30,14 L30,14 Z" id="Fill-1"></path>
            </g>
        </g>
    </g>
</svg>