<?xml version="1.0" encoding="UTF-8" standalone="no"?>
<svg width="51px" height="50px" viewBox="0 0 51 50" version="1.1" xmlns="http://www.w3.org/2000/svg" xmlns:xlink="http://www.w3.org/1999/xlink">
    <!-- Generator: Sketch 45.2 (43514) - http://www.bohemiancoding.com/sketch -->
    <title>Question</title>
    <desc>Created with Sketch.</desc>
    <defs></defs>
    <g id="question" stroke="none" stroke-width="1" fill="none" fill-rule="evenodd" stroke-linecap="round" stroke-linejoin="round">
        <g id="question" transform="translate(-184.000000, -250.000000)" stroke="currentColor" stroke-width="2">
            <g id="question" transform="translate(185.000000, 251.000000)">
                <path d="M41.4416,7.0312 C50.8146,16.4022 50.8146,31.5972 41.4416,40.9692 C32.0686,50.3442 16.8736,50.3442 7.5016,40.9692 C-1.8714,31.5972 -1.8714,16.4022 7.5016,7.0312 C16.8736,-2.3438 32.0686,-2.3438 41.4416,7.0312 Z" id="Stroke-3"></path>
                <path d="M22.9231,33.29 L22.9231,36.387" id="Stroke-5"></path>
                <path d="M18.2785,15.4844 C18.2785,13.1614 19.8265,11.6134 24.4715,11.6134 C28.3415,11.6134 30.6655,13.9354 30.6655,17.0324 C30.6655,20.1294 26.0195,22.4514 26.0195,22.4514 C26.0195,22.4514 22.9235,24.0004 22.9235,28.6454 L22.9235,29.4194" id="Stroke-7"></path>
            </g>
        </g>
    </g>
</svg>