<?xml version="1.0" encoding="UTF-8" standalone="no"?>
<svg width="49px" height="48px" viewBox="0 0 49 48" version="1.1" xmlns="http://www.w3.org/2000/svg" xmlns:xlink="http://www.w3.org/1999/xlink">
    <!-- Generator: Sketch 45.2 (43514) - http://www.bohemiancoding.com/sketch -->
    <title>Question-filled</title>
    <desc>Created with Sketch.</desc>
    <defs></defs>
    <g id="question-filled" stroke="none" stroke-width="1" fill="none" fill-rule="evenodd">
        <g id="question-filled" transform="translate(-185.000000, -544.000000)" fill="currentColor">
            <g id="question-filled" transform="translate(185.000000, 544.000000)">
                <path d="M32.8313,21.2812 C31.8313,22.4812 30.6613,23.5312 29.3213,24.4212 C28.0213,25.3212 27.2413,25.9512 27.0013,26.3312 C26.8313,26.6112 26.6213,27.0912 26.3813,27.7812 C26.1423,28.4612 25.8423,28.9612 25.4613,29.2712 C25.0813,29.5812 24.4913,29.7412 23.7013,29.7412 C22.9113,29.7412 22.2713,29.4612 21.8023,28.9112 C21.3523,28.3612 21.1213,27.7202 21.1213,27.0012 C21.1213,25.9412 21.5013,24.9412 22.2513,24.0102 C22.9813,23.0912 23.7913,22.3312 24.6823,21.7412 C25.5413,21.1912 26.3523,20.5102 27.1023,19.6812 C27.8213,18.8512 28.1823,18.0012 28.1823,17.1012 C28.1823,16.0012 27.8423,15.1412 27.1513,14.5312 C26.4723,13.9112 25.5213,13.6012 24.3213,13.6012 C23.1513,13.6012 22.2413,13.8912 21.5923,14.4702 C20.9323,15.0312 20.5013,15.6312 20.3023,16.2812 C20.1313,16.9312 19.7813,17.5512 19.2713,18.1312 C18.7913,18.6912 18.1213,18.9612 17.2623,18.9612 C16.5013,18.9612 15.8713,18.7412 15.3523,18.2912 C14.8713,17.8812 14.6313,17.2812 14.6313,16.4912 C14.6313,14.5312 15.5923,12.7912 17.5123,11.2812 C19.4013,9.7712 21.5923,9.0102 24.0613,9.0102 C26.9213,9.0102 29.3423,9.7012 31.3313,11.0712 C33.3213,12.4112 34.3213,14.4212 34.3213,17.1012 C34.3213,18.6912 33.8213,20.0812 32.8313,21.2812 M26.1823,38.0312 C25.5523,38.6812 24.7813,39.0102 23.8613,39.0102 C22.9613,39.0102 22.1913,38.6812 21.5313,38.0312 C20.8813,37.3812 20.5613,36.6112 20.5613,35.7112 C20.5613,34.7912 20.8813,34.0012 21.5313,33.3412 C22.1913,32.6812 22.9613,32.3612 23.8613,32.3612 C24.7813,32.3612 25.5713,32.6812 26.2313,33.3412 C26.8523,34.0012 27.1513,34.7912 27.1513,35.7112 C27.1513,36.6112 26.8313,37.3812 26.1823,38.0312 M24.4723,0.0102 C11.2223,0.0102 0.4723,10.7602 0.4723,24.0102 C0.4723,37.2602 11.2223,48.0102 24.4723,48.0102 C37.7313,48.0102 48.4723,37.2602 48.4723,24.0102 C48.4723,10.7602 37.7313,0.0102 24.4723,0.0102" id="Fill-31"></path>
            </g>
        </g>
    </g>
</svg>