<?xml version="1.0" encoding="UTF-8" standalone="no"?>
<svg width="51px" height="51px" viewBox="0 0 51 51" version="1.1" xmlns="http://www.w3.org/2000/svg" xmlns:xlink="http://www.w3.org/1999/xlink">
    <!-- Generator: Sketch 45.2 (43514) - http://www.bohemiancoding.com/sketch -->
    <title>Question-bold</title>
    <desc>Created with Sketch.</desc>
    <defs></defs>
    <g id="question-bold" stroke="none" stroke-width="1" fill="none" fill-rule="evenodd">
        <g id="question-bold" transform="translate(-184.000000, -399.000000)">
            <g id="question-bold" transform="translate(185.000000, 400.000000)">
                <path d="M48.4719,24.6875 C48.4719,37.9425 37.7269,48.6875 24.4719,48.6875 C11.2169,48.6875 0.4719,37.9425 0.4719,24.6875 C0.4719,11.4325 11.2169,0.6875 24.4719,0.6875 C37.7269,0.6875 48.4719,11.4325 48.4719,24.6875 Z" id="Stroke-33" stroke="currentColor" stroke-width="2"></path>
                <path d="M23.8557,33.0361 C22.9587,33.0361 22.1927,33.3621 21.5337,34.0211 C20.8817,34.6731 20.5567,35.4651 20.5567,36.3881 C20.5567,37.2851 20.8817,38.0591 21.5337,38.7111 C22.1927,39.3621 22.9587,39.6871 23.8557,39.6871 C24.7797,39.6871 25.5537,39.3621 26.1777,38.7111 C26.8297,38.0591 27.1547,37.2851 27.1547,36.3881 C27.1547,35.4651 26.8467,34.6731 26.2307,34.0211 C25.5717,33.3621 24.7797,33.0361 23.8557,33.0361 M31.3337,11.7461 C29.3367,10.3741 26.9177,9.6871 24.0577,9.6871 C21.5857,9.6871 19.4047,10.4431 17.5127,11.9571 C15.5947,13.4711 14.6267,15.2031 14.6267,17.1651 C14.6267,17.9571 14.8737,18.5561 15.3477,18.9691 C15.8677,19.4171 16.5017,19.6381 17.2567,19.6381 C18.1197,19.6381 18.7887,19.3651 19.2717,18.8101 C19.7827,18.2291 20.1257,17.6051 20.3007,16.9541 C20.5037,16.3031 20.9347,15.7051 21.5857,15.1501 C22.2367,14.5701 23.1517,14.2791 24.3217,14.2791 C25.5187,14.2791 26.4687,14.5881 27.1547,15.2031 C27.8407,15.8191 28.1837,16.6821 28.1837,17.7811 C28.1837,18.6791 27.8237,19.5321 27.1017,20.3581 C26.3457,21.1851 25.5367,21.8721 24.6827,22.4181 C23.7857,23.0071 22.9757,23.7641 22.2537,24.6871 C21.4987,25.6201 21.1197,26.6141 21.1197,27.6791 C21.1197,28.4001 21.3477,29.0331 21.7967,29.5881 C22.2717,30.1331 22.9147,30.4141 23.6977,30.4141 C24.4897,30.4141 25.0787,30.2561 25.4577,29.9481 C25.8347,29.6401 26.1427,29.1391 26.3807,28.4531 C26.6187,27.7661 26.8297,27.2821 26.9967,27.0101 C27.2427,26.6321 28.0167,25.9981 29.3187,25.1001 C30.6567,24.2031 31.8267,23.1561 32.8297,21.9601 C33.8237,20.7551 34.3167,19.3651 34.3167,17.7811 C34.3167,15.0981 33.3227,13.0921 31.3337,11.7461 M23.8557,33.0361 C22.9587,33.0361 22.1927,33.3621 21.5337,34.0211 C20.8817,34.6731 20.5567,35.4651 20.5567,36.3881 C20.5567,37.2851 20.8817,38.0591 21.5337,38.7111 C22.1927,39.3621 22.9587,39.6871 23.8557,39.6871 C24.7797,39.6871 25.5537,39.3621 26.1777,38.7111 C26.8297,38.0591 27.1547,37.2851 27.1547,36.3881 C27.1547,35.4651 26.8467,34.6731 26.2307,34.0211 C25.5717,33.3621 24.7797,33.0361 23.8557,33.0361 M31.3337,11.7461 C29.3367,10.3741 26.9177,9.6871 24.0577,9.6871 C21.5857,9.6871 19.4047,10.4431 17.5127,11.9571 C15.5947,13.4711 14.6267,15.2031 14.6267,17.1651 C14.6267,17.9571 14.8737,18.5561 15.3477,18.9691 C15.8677,19.4171 16.5017,19.6381 17.2567,19.6381 C18.1197,19.6381 18.7887,19.3651 19.2717,18.8101 C19.7827,18.2291 20.1257,17.6051 20.3007,16.9541 C20.5037,16.3031 20.9347,15.7051 21.5857,15.1501 C22.2367,14.5701 23.1517,14.2791 24.3217,14.2791 C25.5187,14.2791 26.4687,14.5881 27.1547,15.2031 C27.8407,15.8191 28.1837,16.6821 28.1837,17.7811 C28.1837,18.6791 27.8237,19.5321 27.1017,20.3581 C26.3457,21.1851 25.5367,21.8721 24.6827,22.4181 C23.7857,23.0071 22.9757,23.7641 22.2537,24.6871 C21.4987,25.6201 21.1197,26.6141 21.1197,27.6791 C21.1197,28.4001 21.3477,29.0331 21.7967,29.5881 C22.2717,30.1331 22.9147,30.4141 23.6977,30.4141 C24.4897,30.4141 25.0787,30.2561 25.4577,29.9481 C25.8347,29.6401 26.1427,29.1391 26.3807,28.4531 C26.6187,27.7661 26.8297,27.2821 26.9967,27.0101 C27.2427,26.6321 28.0167,25.9981 29.3187,25.1001 C30.6567,24.2031 31.8267,23.1561 32.8297,21.9601 C33.8237,20.7551 34.3167,19.3651 34.3167,17.7811 C34.3167,15.0981 33.3227,13.0921 31.3337,11.7461 M31.3337,11.7461 C29.3367,10.3741 26.9177,9.6871 24.0577,9.6871 C21.5857,9.6871 19.4047,10.4431 17.5127,11.9571 C15.5947,13.4711 14.6267,15.2031 14.6267,17.1651 C14.6267,17.9571 14.8737,18.5561 15.3477,18.9691 C15.8677,19.4171 16.5017,19.6381 17.2567,19.6381 C18.1197,19.6381 18.7887,19.3651 19.2717,18.8101 C19.7827,18.2291 20.1257,17.6051 20.3007,16.9541 C20.5037,16.3031 20.9347,15.7051 21.5857,15.1501 C22.2367,14.5701 23.1517,14.2791 24.3217,14.2791 C25.5187,14.2791 26.4687,14.5881 27.1547,15.2031 C27.8407,15.8191 28.1837,16.6821 28.1837,17.7811 C28.1837,18.6791 27.8237,19.5321 27.1017,20.3581 C26.3457,21.1851 25.5367,21.8721 24.6827,22.4181 C23.7857,23.0071 22.9757,23.7641 22.2537,24.6871 C21.4987,25.6201 21.1197,26.6141 21.1197,27.6791 C21.1197,28.4001 21.3477,29.0331 21.7967,29.5881 C22.2717,30.1331 22.9147,30.4141 23.6977,30.4141 C24.4897,30.4141 25.0787,30.2561 25.4577,29.9481 C25.8347,29.6401 26.1427,29.1391 26.3807,28.4531 C26.6187,27.7661 26.8297,27.2821 26.9967,27.0101 C27.2427,26.6321 28.0167,25.9981 29.3187,25.1001 C30.6567,24.2031 31.8267,23.1561 32.8297,21.9601 C33.8237,20.7551 34.3167,19.3651 34.3167,17.7811 C34.3167,15.0981 33.3227,13.0921 31.3337,11.7461 M26.2307,34.0211 C25.5717,33.3621 24.7797,33.0361 23.8557,33.0361 C22.9587,33.0361 22.1927,33.3621 21.5337,34.0211 C20.8817,34.6731 20.5567,35.4651 20.5567,36.3881 C20.5567,37.2851 20.8817,38.0591 21.5337,38.7111 C22.1927,39.3621 22.9587,39.6871 23.8557,39.6871 C24.7797,39.6871 25.5537,39.3621 26.1777,38.7111 C26.8297,38.0591 27.1547,37.2851 27.1547,36.3881 C27.1547,35.4651 26.8467,34.6731 26.2307,34.0211" id="Fill-35" fill="currentColor"></path>
            </g>
        </g>
    </g>
</svg>