<?xml version="1.0" encoding="UTF-8" standalone="no"?>
<svg width="53px" height="53px" viewBox="0 0 53 53" version="1.1" xmlns="http://www.w3.org/2000/svg" xmlns:xlink="http://www.w3.org/1999/xlink">
    <!-- Generator: Sketch 45.2 (43514) - http://www.bohemiancoding.com/sketch -->
    <title>Recommended-Check</title>
    <desc>Created with Sketch.</desc>
    <defs></defs>
    <g id="recommended-check" stroke="none" stroke-width="1" fill="none" fill-rule="evenodd">
        <g id="recommended-check" transform="translate(-864.000000, -245.000000)" fill="currentColor">
            <g id="recommended-check" transform="translate(864.000000, 245.000000)">
                <path d="M44.3155,36.3306 C44.0445,36.5056 43.8755,36.7996 43.8605,37.1216 L43.5305,43.7346 L36.9155,44.0686 C36.5935,44.0856 36.2995,44.2546 36.1265,44.5226 L32.5285,50.0836 L26.6365,47.0656 C26.3505,46.9196 26.0105,46.9196 25.7245,47.0656 L19.8315,50.0836 L16.2355,44.5226 C16.0595,44.2546 15.7655,44.0856 15.4465,44.0686 L8.8295,43.7346 L8.5015,37.1216 C8.4845,36.7996 8.3145,36.5056 8.0455,36.3306 L2.4845,32.7326 L5.5035,26.8426 C5.6505,26.5556 5.6505,26.2146 5.5035,25.9296 L2.4845,20.0366 L8.0455,16.4386 C8.3145,16.2646 8.4845,15.9696 8.5015,15.6496 L8.8295,9.0346 L15.4465,8.7006 C15.7655,8.6846 16.0595,8.5146 16.2355,8.2456 L19.8315,2.6856 L25.7245,5.7056 C26.0105,5.8506 26.3505,5.8506 26.6365,5.7056 L32.5285,2.6856 L36.1265,8.2456 C36.2995,8.5146 36.5955,8.6846 36.9155,8.7006 L42.1825,8.9676 L26.1785,24.9696 L20.8875,19.6786 C20.4975,19.2876 19.8645,19.2856 19.4735,19.6786 L15.4735,23.6786 C15.0815,24.0676 15.0845,24.7016 15.4735,25.0926 L25.4745,35.0926 C25.6625,35.2816 25.9135,35.3856 26.1815,35.3856 C26.4475,35.3856 26.6985,35.2816 26.8885,35.0926 L45.0595,16.9216 L49.8775,20.0366 L46.8575,25.9296 C46.7095,26.2146 46.7115,26.5556 46.8575,26.8426 L49.8775,32.7346 L44.3155,36.3306 Z M44.1805,9.8006 L44.1805,14.9716 L26.1785,32.9696 L17.5945,24.3856 L20.1805,21.7996 L25.4745,27.0936 C25.6625,27.2806 25.9135,27.3846 26.1815,27.3846 C26.4475,27.3846 26.6985,27.2806 26.8885,27.0936 L44.1805,9.8006 Z M52.0705,32.6266 L48.8715,26.3856 L52.0705,20.1446 C52.3025,19.6876 52.1555,19.1276 51.7235,18.8486 L46.1815,15.2646 L46.1815,7.3866 C46.1815,6.9806 45.9365,6.6156 45.5635,6.4616 C45.1895,6.3076 44.7585,6.3906 44.4735,6.6766 L44.0875,7.0616 L37.5265,6.7296 L33.7165,0.8416 C33.4385,0.4106 32.8775,0.2606 32.4225,0.4946 L26.1795,3.6906 L19.9385,0.4946 C19.4815,0.2606 18.9225,0.4106 18.6445,0.8416 L14.8335,6.7296 L7.8265,7.0846 C7.3145,7.1096 6.9045,7.5206 6.8785,8.0326 L6.5295,15.0366 L0.6375,18.8486 C0.2065,19.1276 0.0555,19.6876 0.2915,20.1446 L3.4885,26.3856 L0.2915,32.6266 C0.0555,33.0816 0.2065,33.6426 0.6375,33.9216 L6.5275,37.7316 L6.8785,44.7386 C6.9045,45.2506 7.3145,45.6616 7.8265,45.6866 L14.8335,46.0396 L18.6445,51.9286 C18.9225,52.3586 19.4815,52.5096 19.9385,52.2746 L26.1795,49.0786 L32.4225,52.2746 C32.5675,52.3496 32.7235,52.3856 32.8775,52.3856 C33.2065,52.3856 33.5275,52.2226 33.7165,51.9286 L37.5265,46.0396 L44.5335,45.6866 C45.0445,45.6616 45.4555,45.2506 45.4825,44.7386 L45.8315,37.7296 L51.7235,33.9216 C52.1535,33.6426 52.3055,33.0816 52.0705,32.6266 L52.0705,32.6266 Z M43.1815,25.3866 C42.6295,25.3866 42.1825,25.8346 42.1825,26.3866 C42.1655,35.2246 35.0195,42.3696 26.1815,42.3856 C17.3405,42.3696 10.1975,35.2246 10.1805,26.3866 C10.1975,17.5456 17.3405,10.4016 26.1815,10.3856 C26.7325,10.3856 27.1805,9.9366 27.1805,9.3856 C27.1805,8.8346 26.7325,8.3866 26.1815,8.3866 C16.2365,8.3866 8.1815,16.4406 8.1815,26.3866 C8.1815,36.3296 16.2365,44.3866 26.1815,44.3866 C36.1255,44.3866 44.1805,36.3296 44.1805,26.3866 C44.1805,25.8346 43.7305,25.3866 43.1815,25.3866 L43.1815,25.3866 Z" id="Fill-23"></path>
            </g>
        </g>
    </g>
</svg>