<?xml version="1.0" encoding="UTF-8" standalone="no"?>
<svg width="60px" height="49px" viewBox="0 0 60 49" version="1.1" xmlns="http://www.w3.org/2000/svg" xmlns:xlink="http://www.w3.org/1999/xlink">
    <!-- Generator: Sketch 45.2 (43514) - http://www.bohemiancoding.com/sketch -->
    <title>Responsive</title>
    <desc>Created with Sketch.</desc>
    <defs>
        <polygon id="path-1" points="0 0.5586 0 48.5586 59.9996 48.5586 59.9996 0.5586 5.42101086e-20 0.5586"></polygon>
    </defs>
    <g id="responsive" stroke="none" stroke-width="1" fill="none" fill-rule="evenodd">
        <g id="responsive" transform="translate(-82.000000, -399.000000)">
            <g id="responsive" transform="translate(82.000000, 399.000000)">
                <mask id="mask-2" fill="white">
                    <use xlink:href="#path-1"></use>
                </mask>
                <g id="Clip-2"></g>
                <path d="M7.9996,45.5586 L9.9996,45.5586 C10.5526,45.5586 10.9996,45.1116 10.9996,44.5586 C10.9996,44.0056 10.5526,43.5586 9.9996,43.5586 L7.9996,43.5586 C7.4476,43.5586 6.9996,44.0056 6.9996,44.5586 C6.9996,45.1116 7.4476,45.5586 7.9996,45.5586 L7.9996,45.5586 Z M29.9996,36.5586 L33.9996,36.5586 C34.5526,36.5586 34.9996,36.1116 34.9996,35.5586 C34.9996,35.0056 34.5526,34.5586 33.9996,34.5586 L29.9996,34.5586 C29.4476,34.5586 28.9996,35.0056 28.9996,35.5586 C28.9996,36.1116 29.4476,36.5586 29.9996,36.5586 L29.9996,36.5586 Z M57.9996,30.5586 L17.9996,30.5586 L17.9996,19.5586 C17.9996,17.9046 16.6536,16.5586 14.9996,16.5586 L5.9996,16.5586 L5.9996,4.5586 C5.9996,3.4546 6.8966,2.5586 7.9996,2.5576 L55.9996,2.5576 C57.1026,2.5586 57.9996,3.4546 57.9996,4.5586 L57.9996,30.5586 Z M57.9996,36.5586 C57.9996,37.6626 57.1026,38.5586 55.9996,38.5586 L17.9996,38.5586 L17.9996,32.5576 L57.9996,32.5576 L57.9996,36.5586 Z M39.6966,46.5586 L24.3026,46.5586 L27.5546,44.3906 C27.8326,44.2046 27.9996,43.8926 27.9996,43.5586 L27.9996,40.5576 L35.9996,40.5576 L35.9996,43.5586 C35.9996,43.8926 36.1666,44.2046 36.4446,44.3906 L39.6966,46.5586 Z M15.9996,40.5586 L1.9996,40.5586 L1.9996,19.5586 C1.9996,19.0076 2.4486,18.5586 2.9996,18.5576 L14.9996,18.5576 C15.5516,18.5586 15.9996,19.0076 15.9996,19.5586 L15.9996,40.5586 Z M15.9996,45.5586 C15.9996,46.1096 15.5516,46.5586 14.9996,46.5586 L2.9996,46.5586 C2.4486,46.5586 1.9996,46.1096 1.9996,45.5586 L1.9996,42.5576 L15.9996,42.5576 L15.9996,45.5586 Z M55.9996,0.5586 L7.9996,0.5586 C5.7946,0.5586 3.9996,2.3536 3.9996,4.5586 L3.9996,16.5586 L2.9996,16.5586 C1.3456,16.5586 -0.0004,17.9046 -0.0004,19.5586 L-0.0004,45.5586 C-0.0004,47.2126 1.3456,48.5586 2.9996,48.5576 L14.9996,48.5576 C16.6536,48.5586 17.9996,47.2126 17.9996,45.5586 L17.9996,40.5576 L25.9996,40.5576 L25.9996,43.0236 L20.4446,46.7266 C20.0786,46.9706 19.9146,47.4266 20.0426,47.8476 C20.1706,48.2696 20.5596,48.5586 20.9996,48.5586 L42.9996,48.5586 C43.4396,48.5586 43.8286,48.2696 43.9566,47.8476 C44.0846,47.4266 43.9206,46.9706 43.5546,46.7266 L37.9996,43.0236 L37.9996,40.5576 L55.9996,40.5576 C58.2056,40.5586 59.9996,38.7636 59.9996,36.5586 L59.9996,4.5586 C59.9996,2.3536 58.2056,0.5586 55.9996,0.5586 L55.9996,0.5586 Z" id="Fill-1" fill="currentColor" mask="url(#mask-2)"></path>
            </g>
        </g>
    </g>
</svg>