<?xml version="1.0" encoding="UTF-8" standalone="no"?>
<svg width="48px" height="53px" viewBox="0 0 48 53" version="1.1" xmlns="http://www.w3.org/2000/svg" xmlns:xlink="http://www.w3.org/1999/xlink">
    <!-- Generator: Sketch 43.2 (39069) - http://www.bohemiancoding.com/sketch -->
    <title>Respiratory System</title>
    <desc>Created with Sketch.</desc>
    <defs></defs>
    <g id="eHealth-line-icon-06302017" stroke="none" stroke-width="1" fill="none" fill-rule="evenodd" stroke-linecap="round" stroke-linejoin="round">
        <g id="eHealth-Healthcare-Icons-2017" transform="translate(-480.000000, -399.000000)" stroke="currentColor" stroke-width="2">
            <g id="Respiratory-System" transform="translate(480.000000, 400.000000)">
                <path d="M40.9777,50.3497 L40.9777,33.1807 C44.6637,29.7147 46.9777,24.8087 46.9777,19.3497 C46.9777,8.8557 38.4717,0.3497 27.9777,0.3497 C17.4837,0.3497 8.9777,8.8557 8.9777,19.3497 C8.9777,19.3567 8.9787,19.3627 8.9787,19.3697 L1.5837,26.8147 C0.2887,28.1187 1.2067,30.3497 3.0387,30.3497 L6.9777,30.3497 L6.9777,40.3497 C6.9777,42.5587 8.7687,44.3497 10.9777,44.3497 L18.9777,44.3497 L18.9777,50.3497" id="Stroke-19"></path>
                <path d="M6.9777,40.3497 L20.9777,40.3497 C23.1867,40.3497 24.9777,42.1407 24.9777,44.3497 L24.9777,50.3497" id="Stroke-21"></path>
                <path d="M6.9777,30.3497 L22.9777,30.3497 C24.0817,30.3497 24.9777,31.2457 24.9777,32.3497 C24.9777,33.4537 24.0817,34.3497 22.9777,34.3497 L6.9777,34.3497" id="Stroke-23"></path>
                <path d="M32.9777,50.3497 L32.9777,32.3497 C32.9777,26.8277 28.5007,22.3497 22.9777,22.3497 L6.0187,22.3497" id="Stroke-25"></path>
            </g>
        </g>
    </g>
</svg>