<?xml version="1.0" encoding="UTF-8" standalone="no"?>
<svg width="52px" height="53px" viewBox="0 0 52 53" version="1.1" xmlns="http://www.w3.org/2000/svg" xmlns:xlink="http://www.w3.org/1999/xlink">
    <!-- Generator: Sketch 45.2 (43514) - http://www.bohemiancoding.com/sketch -->
    <title>Rocket-Fast</title>
    <desc>Created with Sketch.</desc>
    <defs></defs>
    <g id="rocket-fast" stroke="none" stroke-width="1" fill="none" fill-rule="evenodd">
        <g id="rocket-fast" transform="translate(-866.000000, -699.000000)" fill="currentColor">
            <g id="rocket-fast" transform="translate(865.000000, 699.000000)">
                <path d="M19.9707,42.8895 C19.4187,42.8895 18.9707,43.3375 18.9707,43.8895 C18.9707,46.6465 16.7277,48.8895 13.9707,48.8895 L4.9707,48.8895 L4.9707,39.8895 C4.9707,37.1335 7.2137,34.8895 9.9707,34.8895 C10.5237,34.8895 10.9707,34.4425 10.9707,33.8895 C10.9707,33.3375 10.5237,32.8895 9.9707,32.8895 C6.1117,32.8895 2.9707,36.0305 2.9707,39.8895 L2.9707,49.8895 C2.9707,50.4425 3.4187,50.8895 3.9707,50.8895 L13.9707,50.8895 C17.8307,50.8895 20.9707,47.7495 20.9707,43.8895 C20.9707,43.3375 20.5237,42.8895 19.9707,42.8895 L19.9707,42.8895 Z M30.7307,38.5375 L25.7657,33.5715 C26.2657,33.1395 26.7527,32.7005 27.2047,32.2475 C31.8327,27.6215 33.2397,24.3335 31.3847,22.4755 C30.8747,21.9675 30.1977,21.7005 29.4237,21.7005 C27.5027,21.7005 24.9487,23.3215 21.6137,26.6565 C21.1607,27.1085 20.7217,27.5965 20.2887,28.0965 L15.3237,23.1295 C17.4957,19.5215 20.5047,15.2715 24.4197,11.3555 C29.3047,6.4715 35.1267,4.3255 40.1097,3.4505 C40.7857,5.9095 42.0817,8.1465 43.8987,9.9635 C45.7137,11.7795 47.9497,13.0755 50.4097,13.7505 C49.5347,18.7345 47.3887,24.5585 42.5047,29.4425 C38.5907,33.3565 34.3397,36.3645 30.7307,38.5375 L30.7307,38.5375 Z M36.2397,45.4585 C33.7077,47.9885 30.5787,49.7545 27.1257,50.6175 C27.3487,47.8935 26.8557,45.3315 26.2927,43.2235 C30.0087,41.4185 36.1487,37.9835 41.9357,32.7355 C41.6457,37.5165 39.6377,42.0585 36.2397,45.4585 L36.2397,45.4585 Z M25.3137,41.4765 L20.9517,37.1175 C22.0267,36.4255 23.1357,35.6625 24.2067,34.8415 L28.9437,39.5785 C27.5777,40.3445 26.3447,40.9775 25.3137,41.4765 L25.3137,41.4765 Z M16.3167,37.5435 C17.7977,34.8675 20.2677,30.8295 23.0277,28.0715 C26.9727,24.1255 28.8147,23.7005 29.4237,23.7005 C29.7387,23.7005 29.8817,23.8015 29.9707,23.8895 C30.4837,24.4045 30.1807,26.4465 25.7907,30.8335 C23.0327,33.5935 18.9937,36.0635 16.3167,37.5435 L16.3167,37.5435 Z M12.3847,28.5475 C12.8827,27.5175 13.5157,26.2825 14.2837,24.9175 L19.0197,29.6555 C18.1987,30.7255 17.4357,31.8345 16.7447,32.9095 L12.3847,28.5475 Z M10.6367,27.5675 C8.5277,27.0045 5.9627,26.5105 3.2427,26.7345 C4.1047,23.2825 5.8717,20.1555 8.4027,17.6245 C11.8027,14.2235 16.3477,12.2175 21.1237,11.9275 C15.8767,17.7135 12.4417,23.8545 10.6367,27.5675 L10.6367,27.5675 Z M50.6917,3.1685 C50.8707,4.5215 51.1707,7.7465 50.7007,11.7525 C48.6687,11.1505 46.8217,10.0585 45.3137,8.5505 C43.8017,7.0375 42.7097,5.1905 42.1087,3.1595 C46.1137,2.6895 49.3387,2.9895 50.6917,3.1685 L50.6917,3.1685 Z M52.5307,2.1005 C52.4517,1.7005 52.1597,1.4095 51.7597,1.3305 C51.0737,1.1965 34.8247,-1.8095 23.0487,9.9205 C17.0467,9.7215 11.2187,11.9795 6.9887,16.2095 C3.8417,19.3565 1.7667,23.3415 0.9867,27.7305 C0.9297,28.0515 1.0337,28.3815 1.2637,28.6135 C1.4947,28.8435 1.8247,28.9505 2.1467,28.8895 C5.2607,28.3355 8.3027,28.9855 10.6577,29.6485 L15.6627,34.6545 C14.1157,37.2505 13.1367,39.3045 13.0587,39.4715 C12.8787,39.8525 12.9567,40.3055 13.2557,40.6045 C13.4487,40.7955 13.7037,40.8975 13.9637,40.8975 C14.1087,40.8975 14.2537,40.8675 14.3907,40.8015 C14.5557,40.7235 16.6107,39.7455 19.2057,38.1985 L24.2117,43.2035 C24.8747,45.5585 25.5247,48.6005 24.9707,51.7145 C24.9127,52.0355 25.0177,52.3675 25.2477,52.5965 C25.4377,52.7855 25.6927,52.8895 25.9547,52.8895 C26.0137,52.8895 26.0727,52.8845 26.1307,52.8745 C30.5217,52.0925 34.5057,50.0175 37.6527,46.8725 C41.8807,42.6425 44.1407,36.8125 43.9417,30.8125 C55.6687,19.0355 52.6637,2.7875 52.5307,2.1005 L52.5307,2.1005 Z M39.7187,19.6925 C38.2377,21.1725 35.6527,21.1725 34.1697,19.6905 C33.4287,18.9505 33.0207,17.9665 33.0207,16.9165 C33.0207,15.8685 33.4287,14.8835 34.1697,14.1415 C34.9107,13.4005 35.8967,12.9925 36.9447,12.9925 C37.9927,12.9925 38.9787,13.4005 39.7187,14.1415 C40.4607,14.8815 40.8687,15.8685 40.8687,16.9165 C40.8687,17.9645 40.4607,18.9505 39.7187,19.6925 L39.7187,19.6925 Z M36.9447,10.9925 C35.3627,10.9925 33.8747,11.6085 32.7557,12.7265 C31.6367,13.8465 31.0207,15.3345 31.0207,16.9165 C31.0207,18.5005 31.6367,19.9885 32.7557,21.1065 C33.8747,22.2235 35.3637,22.8415 36.9457,22.8415 C38.5277,22.8415 40.0147,22.2235 41.1327,21.1065 C42.2517,19.9885 42.8687,18.4995 42.8687,16.9165 C42.8687,15.3335 42.2527,13.8465 41.1327,12.7265 C40.0147,11.6085 38.5277,10.9925 36.9447,10.9925 L36.9447,10.9925 Z" id="Fill-1"></path>
            </g>
        </g>
    </g>
</svg>