<?xml version="1.0" encoding="UTF-8" standalone="no"?>
<svg width="39px" height="52px" viewBox="0 0 39 52" version="1.1" xmlns="http://www.w3.org/2000/svg" xmlns:xlink="http://www.w3.org/1999/xlink">
    <!-- Generator: Sketch 43.2 (39069) - http://www.bohemiancoding.com/sketch -->
    <title>RX Drug</title>
    <desc>Created with Sketch.</desc>
    <defs></defs>
    <g id="eHealth-line-icon-06302017" stroke="none" stroke-width="1" fill="none" fill-rule="evenodd" stroke-linejoin="round">
        <g id="eHealth-Healthcare-Icons-2017" transform="translate(-94.000000, -249.000000)" stroke="currentColor" stroke-width="2">
            <g id="RX-Drug" transform="translate(95.000000, 250.000000)">
                <path d="M32.8782,10.0019 L4.8782,10.0019 L4.8782,2.0019 C4.8782,0.8979 6.0182,0.0019 7.4232,0.0019 L30.3322,0.0019 C31.7382,0.0019 32.8782,0.8979 32.8782,2.0019 L32.8782,10.0019 Z" id="Stroke-1"></path>
                <path d="M8.5803,10.0019 L8.5803,14.0019 C4.3263,14.0019 0.8783,17.5839 0.8783,22.0019 L0.8783,48.0019 C0.8783,49.1069 1.7403,50.0019 2.8043,50.0019 L27.8363,50.0019" id="Stroke-3"></path>
                <path d="M29.176,10.0019 L29.176,14.0019 C33.429,14.0019 36.878,17.5839 36.878,22.0019 L36.878,48.0019 C36.878,49.1069 36.016,50.0019 34.952,50.0019 L9.92,50.0019" id="Stroke-5"></path>
                <path d="M11.8782,28.0019 L16.8782,28.0019 C18.5352,28.0019 19.8782,26.6589 19.8782,25.0019 C19.8782,23.3449 18.5352,22.0019 16.8782,22.0019 L11.8782,22.0019 L11.8782,34.0019" id="Stroke-7" stroke-linecap="round"></path>
                <path d="M25.8782,38.0019 L15.8782,28.0019" id="Stroke-9" stroke-linecap="round"></path>
                <path d="M15.8782,38.0019 L25.8782,28.0019" id="Stroke-11" stroke-linecap="round"></path>
            </g>
        </g>
    </g>
</svg>