<?xml version="1.0" encoding="UTF-8" standalone="no"?>
<svg width="52px" height="53px" viewBox="0 0 52 53" version="1.1" xmlns="http://www.w3.org/2000/svg" xmlns:xlink="http://www.w3.org/1999/xlink">
    <!-- Generator: Sketch 43.2 (39069) - http://www.bohemiancoding.com/sketch -->
    <title>Saving</title>
    <desc>Created with Sketch.</desc>
    <defs></defs>
    <g id="eHealth-line-icon-06302017" stroke="none" stroke-width="1" fill="none" fill-rule="evenodd">
        <g id="eHealth-Healthcare-Icons-2017" transform="translate(-282.000000, -847.000000)" fill="currentColor">
            <g id="Saving" transform="translate(282.000000, 847.000000)">
                <path d="M47.9998,35.5007 L45.7448,35.5007 C45.3448,35.5007 44.9858,35.7347 44.8258,36.1007 C42.6618,41.0437 37.7398,44.5007 31.9998,44.5007 L30.9988,44.5007 C30.7358,44.5007 30.4788,44.6057 30.2918,44.7927 C30.1048,44.9797 29.9998,45.2357 29.9998,45.4987 L29.9998,48.5047 C29.9928,49.6057 29.1018,50.4967 27.9998,50.4987 C26.8958,50.4967 26.0018,49.6047 25.9998,48.5007 L25.9998,45.4997 C25.9998,45.2317 25.8948,44.9807 25.7078,44.7927 C25.5188,44.6047 25.2658,44.5007 24.9988,44.5007 L15.9988,44.5007 C15.0388,44.5007 14.1028,44.4027 13.1978,44.2187 C13.1318,44.2057 13.0648,44.1987 12.9988,44.1987 C12.7698,44.1987 12.5458,44.2777 12.3648,44.4237 C12.1328,44.6147 12.0008,44.8987 12.0008,45.1987 L12.0008,45.1997 L11.9998,45.1997 L11.9998,48.4997 C11.9998,48.5017 12.0008,48.5027 12.0008,48.5047 C11.9928,49.6057 11.1028,50.4967 9.9998,50.4987 C8.8958,50.4967 8.0018,49.6047 7.9998,48.5007 L7.9998,42.4797 C7.9998,42.1647 7.8508,41.8677 7.6008,41.6797 C4.2008,39.1197 1.9998,35.0757 1.9968,30.4997 C2.0138,22.7687 8.2678,16.5147 15.9988,16.4997 L25.0688,16.4997 C25.3798,18.6657 26.6818,20.5157 28.4998,21.5637 C28.9788,21.8417 29.5898,21.6777 29.8668,21.1987 C30.1438,20.7207 29.9788,20.1087 29.5028,19.8327 C28.0038,18.9647 26.9988,17.3527 26.9988,15.5007 C27.0038,13.0807 28.7188,11.0677 30.9998,10.6017 L30.9998,15.5007 C30.9998,15.7647 31.1038,16.0217 31.2908,16.2077 C31.4788,16.3927 31.7348,16.4997 31.9998,16.4997 C39.0958,16.4977 44.9438,21.7877 45.8598,28.6317 C45.9248,29.1297 46.3498,29.4997 46.8518,29.4997 L49.9998,29.4997 L49.9998,33.5007 C49.9958,34.6037 49.1028,35.4967 47.9998,35.5007 L47.9998,35.5007 Z M35.9998,48.5007 C35.9978,49.6047 35.1038,50.4987 33.9988,50.5007 C32.8958,50.4987 32.0018,49.6047 31.9998,48.4997 L31.9988,46.5007 L31.9998,46.5007 C33.3828,46.5007 34.7208,46.3147 35.9998,45.9847 L35.9998,48.5007 Z M17.9998,48.5007 C17.9948,49.6047 17.1038,50.4977 15.9988,50.5007 C14.8948,50.4977 14.0018,49.6047 13.9998,48.4997 L13.9998,46.8507 L13.9988,46.3757 C14.6538,46.4577 15.3218,46.4997 15.9988,46.4987 L17.9998,46.4987 L17.9998,48.5007 Z M9.9978,8.4997 C10.0048,5.1867 12.6858,2.5067 15.9988,2.5007 C19.3138,2.5067 21.9918,5.1867 21.9998,8.4997 C21.9918,11.8147 19.3138,14.4937 15.9988,14.4997 C12.6858,14.4937 10.0048,11.8147 9.9978,8.4997 L9.9978,8.4997 Z M39.9998,10.6027 L39.9998,16.6607 C38.7738,15.9487 37.4458,15.3947 36.0418,15.0277 C36.2548,12.8247 37.8708,11.0367 39.9998,10.6027 L39.9998,10.6027 Z M51.9998,28.4987 C51.9998,28.2337 51.8948,27.9827 51.7058,27.7927 C51.5178,27.6047 51.2668,27.5007 50.9988,27.5007 L47.7018,27.5007 C46.9788,23.6917 44.9008,20.3697 41.9988,18.0337 L41.9988,9.5007 C41.9988,9.2337 41.8958,8.9827 41.7068,8.7927 C41.5188,8.6047 41.2658,8.4987 40.9988,8.4987 C37.4228,8.5007 34.4798,11.1807 34.0568,14.6417 C33.7068,14.5967 33.3558,14.5527 32.9988,14.5307 L32.9988,9.5007 C32.9988,9.2327 32.8958,8.9817 32.7068,8.7937 C32.5188,8.6047 32.2658,8.4997 31.9998,8.4997 C28.4728,8.4997 25.5558,11.1067 25.0688,14.5007 L21.2778,14.5007 C22.9418,13.0347 23.9968,10.8937 23.9968,8.4997 C23.9968,4.0807 20.4178,0.5007 15.9988,0.5007 C11.5798,0.5007 7.9988,4.0807 7.9988,8.4997 C7.9988,11.2687 9.4038,13.7067 11.5398,15.1427 C4.8758,17.0747 -0.0002,23.2127 -0.0002,30.4997 C-0.0002,35.5467 2.3538,40.0397 5.9998,42.9667 L5.9998,48.5007 C6.0018,50.7107 7.7908,52.4997 9.9998,52.4997 C11.2008,52.4997 12.2668,51.9587 12.9988,51.1207 C13.7318,51.9587 14.7978,52.4987 15.9988,52.4987 C18.2078,52.4987 19.9978,50.7107 19.9998,48.4997 L19.9988,46.4987 L23.9998,46.4987 L23.9998,48.5007 C23.9998,50.7107 25.7898,52.4997 27.9998,52.4997 C29.2008,52.4997 30.2658,51.9587 30.9988,51.1197 C31.7318,51.9587 32.7978,52.5007 33.9988,52.5007 C36.2068,52.5007 37.9978,50.7097 37.9978,48.4997 L37.9978,45.3257 C41.6638,43.8377 44.6568,41.0367 46.3818,37.4987 L47.9998,37.4987 C50.2068,37.4987 51.9978,35.7107 51.9998,33.5007 L51.9998,28.4987 Z M14.4468,7.3947 L14.9998,7.1177 L14.9998,11.4997 C14.9998,12.0527 15.4458,12.5007 15.9988,12.5007 C16.5518,12.5007 16.9998,12.0527 16.9998,11.4997 L16.9978,11.4997 L16.9978,5.4997 C16.9978,5.1527 16.8198,4.8327 16.5248,4.6487 C16.2288,4.4677 15.8628,4.4507 15.5538,4.6047 L13.5538,5.6067 C13.0578,5.8527 12.8568,6.4527 13.1048,6.9477 C13.3508,7.4407 13.9508,7.6417 14.4468,7.3947 L14.4468,7.3947 Z M21.9998,19.5017 L15.9988,19.5007 C14.3448,19.5007 12.7648,19.8357 11.3288,20.4427 C10.8188,20.6577 10.5818,21.2447 10.7968,21.7547 C10.9578,22.1357 11.3278,22.3647 11.7178,22.3647 C11.8488,22.3647 11.9798,22.3397 12.1078,22.2857 L12.1058,22.2857 C13.3038,21.7797 14.6148,21.4997 15.9988,21.4997 L21.9998,21.4997 C22.5508,21.4997 22.9988,21.0527 22.9988,20.5007 C22.9988,19.9477 22.5508,19.5017 21.9998,19.5017 L21.9998,19.5017 Z M37.9998,26.5007 L37.9978,26.5007 L37.9998,26.4987 L37.9998,26.5007 Z M37.9998,24.5007 C36.8948,24.5007 35.9998,25.3957 35.9998,26.5007 C35.9998,27.6047 36.8948,28.5007 37.9998,28.5007 C39.1038,28.5007 39.9988,27.6047 39.9988,26.5007 C39.9988,25.3957 39.1038,24.5007 37.9998,24.5007 L37.9998,24.5007 Z" id="Fill-1"></path>
            </g>
        </g>
    </g>
</svg>