<?xml version="1.0" encoding="UTF-8" standalone="no"?>
<svg width="53px" height="52px" viewBox="0 0 53 52" version="1.1" xmlns="http://www.w3.org/2000/svg" xmlns:xlink="http://www.w3.org/1999/xlink">
    <!-- Generator: Sketch 45.2 (43514) - http://www.bohemiancoding.com/sketch -->
    <title>Schedule Appointment</title>
    <desc>Created with Sketch.</desc>
    <defs>
        <polygon id="path-1" points="0.3807 52 52.3807 52 52.3807 0.0001 0.3807 0.0001"></polygon>
    </defs>
    <g id="schedule-appointment" stroke="none" stroke-width="1" fill="none" fill-rule="evenodd">
        <g id="schedule-appointment" transform="translate(-476.000000, -247.000000)">
            <g id="schedule-appointment" transform="translate(476.000000, 247.000000)">
                <mask id="mask-2" fill="white">
                    <use xlink:href="#path-1"></use>
                </mask>
                <g id="Clip-17"></g>
                <path d="M27.3807,36.5861 L27.3807,27.0001 C27.3807,26.4471 26.9327,26.0001 26.3807,26.0001 C25.8277,26.0001 25.3807,26.4471 25.3807,27.0001 L25.3807,37.0001 C25.3807,37.2661 25.4857,37.5201 25.6737,37.7071 L30.6737,42.7071 C30.8687,42.9021 31.1247,43.0001 31.3807,43.0001 C31.6367,43.0001 31.8927,42.9021 32.0877,42.7071 C32.4787,42.3161 32.4787,41.6841 32.0877,41.2931 L27.3807,36.5861 Z M26.3807,50.0001 C19.2117,50.0001 13.3807,44.1681 13.3807,37.0001 C13.3807,29.8321 19.2117,24.0001 26.3807,24.0001 C33.5487,24.0001 39.3807,29.8321 39.3807,37.0001 C39.3807,44.1681 33.5487,50.0001 26.3807,50.0001 L26.3807,50.0001 Z M26.3807,22.0001 C18.1097,22.0001 11.3807,28.7291 11.3807,37.0001 C11.3807,45.2721 18.1097,52.0001 26.3807,52.0001 C34.6517,52.0001 41.3807,45.2721 41.3807,37.0001 C41.3807,28.7291 34.6517,22.0001 26.3807,22.0001 L26.3807,22.0001 Z M50.3807,12.0001 L2.3807,12.0001 L2.3807,8.0001 C2.3807,6.8971 3.2767,6.0001 4.3807,5.9991 L14.3807,5.9991 L14.3807,7.0001 C14.3807,8.6541 15.7267,10.0001 17.3807,10.0001 C19.0347,10.0001 20.3807,8.6541 20.3807,7.0001 L20.3807,5.9991 L32.3807,5.9991 L32.3807,7.0001 C32.3807,8.6541 33.7267,10.0001 35.3807,10.0001 C37.0347,10.0001 38.3807,8.6541 38.3807,7.0001 L38.3807,5.9991 L48.3807,5.9991 C49.4837,6.0001 50.3807,6.8971 50.3807,8.0001 L50.3807,12.0001 Z M16.3807,3.0001 C16.3807,2.4491 16.8287,2.0001 17.3807,2.0001 C17.9317,2.0001 18.3807,2.4491 18.3807,3.0001 L18.3807,7.0001 C18.3807,7.5511 17.9317,8.0001 17.3807,8.0001 C16.8287,8.0001 16.3807,7.5511 16.3807,7.0001 L16.3807,3.0001 Z M34.3807,3.0001 C34.3807,2.4491 34.8287,2.0001 35.3807,2.0001 C35.9327,2.0001 36.3807,2.4491 36.3807,3.0001 L36.3807,7.0001 C36.3807,7.5511 35.9327,8.0001 35.3807,8.0001 C34.8287,8.0001 34.3807,7.5511 34.3807,7.0001 L34.3807,3.0001 Z M48.3807,4.0001 L38.3807,4.0001 L38.3807,3.0001 C38.3807,1.3461 37.0347,0.0001 35.3807,0.0001 C33.7267,0.0001 32.3807,1.3461 32.3807,3.0001 L32.3807,4.0001 L20.3807,4.0001 L20.3807,3.0001 C20.3807,1.3461 19.0347,0.0001 17.3807,0.0001 C15.7267,0.0001 14.3807,1.3461 14.3807,3.0001 L14.3807,4.0001 L4.3807,4.0001 C2.1747,4.0001 0.3807,5.7951 0.3807,8.0001 L0.3807,44.0001 C0.3807,46.2051 2.1747,48.0001 4.3807,48.0001 L11.3807,48.0001 C11.9327,48.0001 12.3807,47.5531 12.3807,47.0001 C12.3807,46.4471 11.9327,46.0001 11.3807,46.0001 L4.3807,46.0001 C3.2767,46.0001 2.3807,45.1041 2.3807,44.0001 L2.3807,13.9991 L50.3807,13.9991 L50.3807,44.0001 C50.3807,45.1041 49.4837,46.0001 48.3807,46.0001 L41.3807,46.0001 C40.8277,46.0001 40.3807,46.4471 40.3807,47.0001 C40.3807,47.5531 40.8277,48.0001 41.3807,48.0001 L48.3807,48.0001 C50.5867,48.0001 52.3807,46.2051 52.3807,44.0001 L52.3807,8.0001 C52.3807,5.7951 50.5867,4.0001 48.3807,4.0001 L48.3807,4.0001 Z" id="Fill-16" fill="currentColor" mask="url(#mask-2)"></path>
            </g>
        </g>
    </g>
</svg>