<?xml version="1.0" encoding="UTF-8" standalone="no"?>
<svg width="48px" height="56px" viewBox="0 0 48 56" version="1.1" xmlns="http://www.w3.org/2000/svg" xmlns:xlink="http://www.w3.org/1999/xlink">
    <!-- Generator: Sketch 45.2 (43514) - http://www.bohemiancoding.com/sketch -->
    <title>Secure</title>
    <desc>Created with Sketch.</desc>
    <defs>
        <polygon id="path-1" points="0.0002 56 48 56 48 0.0004 0.0002 0.0004 0.0002 56"></polygon>
    </defs>
    <g id="secure" stroke="none" stroke-width="1" fill="none" fill-rule="evenodd">
        <g id="secure" transform="translate(-674.000000, -543.000000)">
            <g id="secure" transform="translate(674.000000, 543.000000)">
                <mask id="mask-2" fill="white">
                    <use xlink:href="#path-1"></use>
                </mask>
                <g id="Clip-2"></g>
                <path d="M30.0002,18.0004 L30.0002,22.0004 L18.0002,22.0004 L18.0002,18.0004 C18.0002,14.6914 20.6912,12.0004 24.0002,12.0004 C27.3092,12.0004 30.0002,14.6914 30.0002,18.0004 L30.0002,18.0004 Z M34.0002,26.0004 L34.0002,36.0004 C34.0002,37.1034 33.1032,38.0004 32.0002,38.0004 L16.0002,38.0004 C14.8972,38.0004 14.0002,37.1034 14.0002,36.0004 L14.0002,26.0004 C14.0002,24.8974 14.8972,24.0004 16.0002,23.9994 L32.0002,23.9994 C33.1032,24.0004 34.0002,24.8974 34.0002,26.0004 L34.0002,26.0004 Z M16.0002,18.0004 L16.0002,22.0004 C13.7942,22.0004 12.0002,23.7944 12.0002,26.0004 L12.0002,36.0004 C12.0002,38.2064 13.7942,40.0004 16.0002,40.0004 L32.0002,40.0004 C34.2062,40.0004 36.0002,38.2064 36.0002,36.0004 L36.0002,26.0004 C36.0002,23.7944 34.2062,22.0004 32.0002,22.0004 L32.0002,18.0004 C32.0002,13.5894 28.4112,10.0004 24.0002,10.0004 C19.5892,10.0004 16.0002,13.5894 16.0002,18.0004 L16.0002,18.0004 Z M23.0002,31.7224 L23.0002,33.0004 C23.0002,33.5534 23.4472,34.0004 24.0002,34.0004 C24.5532,34.0004 25.0002,33.5534 25.0002,33.0004 L25.0002,31.7224 C25.5952,31.3754 26.0002,30.7364 26.0002,30.0004 C26.0002,28.8974 25.1032,28.0004 24.0002,28.0004 C22.8972,28.0004 22.0002,28.8974 22.0002,30.0004 C22.0002,30.7364 22.4052,31.3754 23.0002,31.7224 L23.0002,31.7224 Z M46.0002,30.0004 C46.0002,44.5904 26.8252,52.7984 24.0002,53.9274 C21.1732,52.7994 2.0002,44.6044 2.0002,30.0004 L2.0002,8.5474 C4.0662,7.2614 13.1872,2.0004 24.0002,2.0004 C34.7922,2.0004 43.9302,7.2624 46.0002,8.5474 L46.0002,30.0004 Z M47.5622,7.1734 C47.1322,6.8804 36.8652,0.0004 24.0002,0.0004 C11.1352,0.0004 0.8682,6.8804 0.4372,7.1734 C0.1642,7.3594 0.0002,7.6694 0.0002,8.0004 L0.0002,30.0004 C0.0002,47.0694 22.6892,55.5854 23.6562,55.9384 C23.7672,55.9794 23.8842,56.0004 24.0002,56.0004 C24.1162,56.0004 24.2332,55.9794 24.3442,55.9384 C25.3112,55.5854 48.0002,47.0694 48.0002,30.0004 L48.0002,8.0004 C48.0002,7.6694 47.8362,7.3594 47.5622,7.1734 L47.5622,7.1734 Z" id="Fill-1" fill="currentColor" mask="url(#mask-2)"></path>
            </g>
        </g>
    </g>
</svg>