<?xml version="1.0" encoding="UTF-8" standalone="no"?>
<svg width="56px" height="48px" viewBox="0 0 56 48" version="1.1" xmlns="http://www.w3.org/2000/svg" xmlns:xlink="http://www.w3.org/1999/xlink">
    <!-- Generator: Sketch 45.2 (43514) - http://www.bohemiancoding.com/sketch -->
    <title>Secure Transaction</title>
    <desc>Created with Sketch.</desc>
    <defs></defs>
    <g id="secure-transaction" stroke="none" stroke-width="1" fill="none" fill-rule="evenodd">
        <g id="secure-transaction" transform="translate(-864.000000, -547.000000)" fill="currentColor">
            <g id="secure-transaction" transform="translate(864.000000, 547.000000)">
                <path d="M31.707,17.293 C31.316,16.902 30.684,16.902 30.294,17.293 C29.902,17.683 29.902,18.316 30.294,18.707 L36.293,24.707 C36.479,24.895 36.733,25 36.999,25 C37.265,25 37.519,24.895 37.707,24.707 L49.707,12.707 C50.099,12.316 50.099,11.684 49.707,11.293 C49.316,10.902 48.684,10.902 48.294,11.293 L36.999,22.586 L31.707,17.293 Z M54,21 C54,30.998 42.277,36.862 39.999,37.906 C37.72,36.864 26,31.015 26,21 L26,5.617 C27.808,4.741 33.952,2 40,2 C46.036,2 52.19,4.742 54,5.617 L54,21 Z M40,44 C40,45.103 39.103,46 38,46 L4,46 C2.897,46 2,45.103 2,44 L2,22 C2,20.897 2.897,20 4,20 L24,20 L24,21 C24,27.874 28.632,32.87 32.853,36 L31,36 C30.448,36 30,36.447 30,37 C30,37.552 30.448,38 31,38 L35,38 C35.21,38 35.394,37.921 35.554,37.811 C37.737,39.134 39.416,39.841 39.62,39.925 C39.741,39.975 39.871,40 40,40 L40,44 Z M55.471,4.117 C55.156,3.949 47.657,0 40,0 C32.345,0 24.846,3.949 24.53,4.117 C24.204,4.291 24,4.63 24,5 L24,18 L4,18 C1.795,18 0,19.794 0,22 L0,44 C0,46.205 1.795,48 4,48 L38,48 C40.207,48 42,46.205 42,44 L42,39.169 C46.012,37.147 56,31.097 56,21 L56,5 C56,4.63 55.796,4.291 55.471,4.117 L55.471,4.117 Z M27,36 L23,36 C22.448,36 22,36.447 22,37 C22,37.552 22.448,38 23,38 L27,38 C27.553,38 28,37.552 28,37 C28,36.447 27.553,36 27,36 L27,36 Z M19,36 L15,36 C14.448,36 14,36.447 14,37 C14,37.552 14.448,38 15,38 L19,38 C19.553,38 20,37.552 20,37 C20,36.447 19.553,36 19,36 L19,36 Z M19,40 L7,40 C6.448,40 6,40.447 6,41 C6,41.552 6.448,42 7,42 L19,42 C19.553,42 20,41.552 20,41 C20,40.447 19.553,40 19,40 L19,40 Z M7,38 L11,38 C11.553,38 12,37.552 12,37 C12,36.447 11.553,36 11,36 L7,36 C6.448,36 6,36.447 6,37 C6,37.552 6.448,38 7,38 L7,38 Z M8,30 L12,30 L12,26 L8,26 L8,30 Z M7,32 L13,32 C13.553,32 14,31.552 14,31 L14,25 C14,24.447 13.553,24 13,24 L7,24 C6.448,24 6,24.447 6,25 L6,31 C6,31.552 6.448,32 7,32 L7,32 Z" id="Fill-1"></path>
            </g>
        </g>
    </g>
</svg>