<?xml version="1.0" encoding="UTF-8" standalone="no"?>
<svg width="51px" height="51px" viewBox="0 0 51 51" version="1.1" xmlns="http://www.w3.org/2000/svg" xmlns:xlink="http://www.w3.org/1999/xlink">
    <!-- Generator: Sketch 45.2 (43514) - http://www.bohemiancoding.com/sketch -->
    <title>Setting</title>
    <desc>Created with Sketch.</desc>
    <defs></defs>
    <g id="setting" stroke="none" stroke-width="1" fill="none" fill-rule="evenodd" stroke-linejoin="round">
        <g id="setting" transform="translate(-476.000000, -847.000000)" stroke="currentColor" stroke-width="2">
            <g id="setting" transform="translate(477.000000, 848.000000)">
                <path d="M32.0145,24.8973 C32.0145,29.0393 28.6545,32.3973 24.5145,32.3973 C20.3745,32.3973 17.0145,29.0393 17.0145,24.8973 C17.0145,20.7543 20.3745,17.3973 24.5145,17.3973 C28.6545,17.3973 32.0145,20.7543 32.0145,24.8973 Z" id="Stroke-17"></path>
                <path d="M48.3318,27.8973 C48.4478,26.9303 48.5148,25.8813 48.5148,24.8973 C48.5148,23.9133 48.4478,22.9583 48.3318,21.9913 L41.8278,21.0613 C41.3718,19.0203 40.5618,17.0863 39.4648,15.3763 L43.4098,10.1143 C42.2118,8.5803 40.8308,7.2083 39.3018,6.0023 L34.0378,9.9483 C32.3198,8.8503 30.4018,8.0383 28.3518,7.5843 L27.4198,1.0793 C26.4668,0.9613 25.4988,0.8973 24.5148,0.8973 C23.5298,0.8973 22.5618,0.9613 21.6088,1.0793 L20.6788,7.5843 C18.6268,8.0383 16.7088,8.8503 14.9918,9.9483 L9.7278,6.0023 C8.1988,7.2083 6.8178,8.5803 5.6188,10.1143 L9.5638,15.3763 C8.4668,17.0863 7.6568,19.0203 7.2008,21.0613 L0.6968,21.9913 C0.5808,22.9583 0.5148,23.9133 0.5148,24.8973 C0.5148,25.8813 0.5808,26.9303 0.6968,27.8973 L7.2008,28.7333 C7.6568,30.7743 8.4668,32.7073 9.5638,34.4173 L5.6188,39.6793 C6.8178,41.2143 8.1988,42.5853 9.7278,43.7923 L14.9918,39.8463 C16.7088,40.9423 18.6268,41.7563 20.6788,42.2103 L21.6088,48.7153 C22.5618,48.8343 23.5298,48.8973 24.5148,48.8973 C25.4988,48.8973 26.4668,48.8343 27.4198,48.7153 L28.3518,42.2103 C30.4018,41.7563 32.3198,40.9423 34.0378,39.8463 L39.3018,43.7923 C40.8308,42.5853 42.2118,41.2143 43.4098,39.6793 L39.4648,34.4183 C40.5618,32.7073 41.3718,30.7743 41.8278,28.7333 L48.3318,27.8973 Z" id="Stroke-19"></path>
            </g>
        </g>
    </g>
</svg>