<?xml version="1.0" encoding="UTF-8" standalone="no"?>
<svg width="49px" height="49px" viewBox="0 0 49 49" version="1.1" xmlns="http://www.w3.org/2000/svg" xmlns:xlink="http://www.w3.org/1999/xlink">
    <!-- Generator: Sketch 43.2 (39069) - http://www.bohemiancoding.com/sketch -->
    <title>Shot</title>
    <desc>Created with Sketch.</desc>
    <defs></defs>
    <g id="eHealth-line-icon-06302017" stroke="none" stroke-width="1" fill="none" fill-rule="evenodd">
        <g id="eHealth-Healthcare-Icons-2017" transform="translate(-673.000000, -550.000000)" fill="currentColor">
            <g id="Shot" transform="translate(673.000000, 550.000000)">
                <path d="M24.7316,2.5858 C25.2846,2.5858 25.7316,2.1388 25.7316,1.5858 C25.7316,1.0328 25.2846,0.5858 24.7316,0.5858 C11.4986,0.5858 0.7316,11.3528 0.7316,24.5858 C0.7316,25.1388 1.1786,25.5858 1.7316,25.5858 C2.2846,25.5858 2.7316,25.1388 2.7316,24.5858 C2.7316,12.4548 12.6006,2.5858 24.7316,2.5858 L24.7316,2.5858 Z M47.7316,23.5858 C47.1786,23.5858 46.7316,24.0328 46.7316,24.5858 C46.7316,36.7168 36.8626,46.5858 24.7316,46.5858 C24.1786,46.5858 23.7316,47.0328 23.7316,47.5858 C23.7316,48.1388 24.1786,48.5858 24.7316,48.5858 C37.9646,48.5858 48.7316,37.8188 48.7316,24.5858 C48.7316,24.0328 48.2846,23.5858 47.7316,23.5858 L47.7316,23.5858 Z M18.4386,37.4648 C18.0476,37.8558 17.4156,37.8558 17.0246,37.4648 L11.8526,32.2928 C11.4626,31.9028 11.4626,31.2688 11.8526,30.8788 L29.7316,12.9998 L36.3176,19.5858 L18.4386,37.4648 Z M12.7316,38.1718 L11.1456,36.5858 L12.2316,35.4998 L13.8176,37.0858 L12.7316,38.1718 Z M39.7316,6.9998 L42.3176,9.5858 L35.7316,16.1718 L33.1456,13.5858 L39.7316,6.9998 Z M39.0246,22.2928 C39.2196,22.4878 39.4756,22.5858 39.7316,22.5858 C39.9876,22.5858 40.2436,22.4878 40.4386,22.2928 C40.8296,21.9018 40.8296,21.2698 40.4386,20.8788 L37.1456,17.5858 L43.7316,10.9998 L45.0246,12.2928 C45.2196,12.4878 45.4756,12.5858 45.7316,12.5858 C45.9876,12.5858 46.2436,12.4878 46.4386,12.2928 C46.8296,11.9018 46.8296,11.2698 46.4386,10.8788 L38.4386,2.8788 C38.0476,2.4878 37.4156,2.4878 37.0246,2.8788 C36.6336,3.2698 36.6336,3.9018 37.0246,4.2928 L38.3176,5.5858 L31.7316,12.1718 L28.4386,8.8788 C28.0476,8.4878 27.4156,8.4878 27.0246,8.8788 C26.6336,9.2698 26.6336,9.9018 27.0246,10.2928 L28.3176,11.5858 L10.4386,29.4648 C9.2686,30.6348 9.2686,32.5368 10.4386,33.7068 L10.8176,34.0858 L9.0246,35.8788 C8.6336,36.2698 8.6336,36.9018 9.0246,37.2928 L9.8176,38.0858 L3.0246,44.8788 C2.6336,45.2698 2.6336,45.9018 3.0246,46.2928 C3.2196,46.4878 3.4756,46.5858 3.7316,46.5858 C3.9876,46.5858 4.2436,46.4878 4.4386,46.2928 L11.2316,39.4998 L12.0246,40.2928 C12.2196,40.4878 12.4756,40.5858 12.7316,40.5858 C12.9876,40.5858 13.2436,40.4878 13.4386,40.2928 L15.2316,38.4998 L15.6106,38.8788 C16.1956,39.4638 16.9626,39.7558 17.7316,39.7558 C18.5006,39.7558 19.2676,39.4638 19.8526,38.8788 L37.7316,20.9998 L39.0246,22.2928 Z" id="Fill-34"></path>
            </g>
        </g>
    </g>
</svg>