<?xml version="1.0" encoding="UTF-8" standalone="no"?>
<svg width="45px" height="57px" viewBox="0 0 45 57" version="1.1" xmlns="http://www.w3.org/2000/svg" xmlns:xlink="http://www.w3.org/1999/xlink">
    <!-- Generator: Sketch 45.2 (43514) - http://www.bohemiancoding.com/sketch -->
    <title>Special</title>
    <desc>Created with Sketch.</desc>
    <defs></defs>
    <g id=special" stroke="none" stroke-width="1" fill="none" fill-rule="evenodd" stroke-linejoin="round">
        <g id="special" transform="translate(-1063.000000, -243.000000)" stroke="currentColor" stroke-width="2">
            <g id="special" transform="translate(1064.000000, 244.000000)">
                <path d="M35.9249,21.1069 C35.9249,28.8399 29.6579,35.1069 21.9249,35.1069 C14.1919,35.1069 7.9249,28.8399 7.9249,21.1069 C7.9249,13.3739 14.1919,7.1069 21.9249,7.1069 C29.6579,7.1069 35.9249,13.3739 35.9249,21.1069 Z" id="Stroke-1"></path>
                <polygon id="Stroke-3" points="21.9249 2.9888 27.5529 0.1068 30.9849 5.4158 37.2989 5.7328 37.6149 12.0478 42.9259 15.4808 40.0429 21.1068 42.9259 26.7328 37.6149 30.1668 37.2989 36.4808 30.9849 36.7988 27.5529 42.1068 21.9249 39.2248 16.2979 42.1068 12.8659 36.7988 6.5519 36.4808 6.2359 30.1668 0.9249 26.7328 3.8079 21.1068 0.9249 15.4808 6.2359 12.0478 6.5519 5.7328 12.8659 5.4158 16.2979 0.1068"></polygon>
                <polygon id="Stroke-5" points="24.9815 22.9946 29.9245 19.1066 23.8135 19.1066 21.9245 13.1066 20.0375 19.1066 13.9245 19.1066 18.8695 22.9946 16.9815 29.1066 21.9245 25.3296 26.8695 29.1066"></polygon>
                <polyline id="Stroke-7" points="8.0167 36.5542 1.9247 47.1072 9.4877 48.0092 14.0487 54.1072 21.9247 40.4652 29.8017 54.1072 34.3627 48.0092 41.9257 47.1072 35.8327 36.5542"></polyline>
            </g>
        </g>
    </g>
</svg>