<?xml version="1.0" encoding="UTF-8" standalone="no"?>
<svg width="57px" height="45px" viewBox="0 0 57 45" version="1.1" xmlns="http://www.w3.org/2000/svg" xmlns:xlink="http://www.w3.org/1999/xlink">
    <!-- Generator: Sketch 43.2 (39069) - http://www.bohemiancoding.com/sketch -->
    <title>Specialist</title>
    <desc>Created with Sketch.</desc>
    <defs></defs>
    <g id="eHealth-line-icon-06302017" stroke="none" stroke-width="1" fill="none" fill-rule="evenodd" stroke-linejoin="round">
        <g id="eHealth-Healthcare-Icons-2017" transform="translate(-278.000000, -403.000000)" stroke="currentColor" stroke-width="2">
            <g id="Specialist" transform="translate(279.000000, 404.000000)">
                <path d="M18.1769,24.9551 C21.7659,24.9551 24.9779,23.3701 27.1769,20.8721 C29.3759,23.3701 32.5879,24.9551 36.1769,24.9551" id="Stroke-3" stroke-linecap="round"></path>
                <path d="M30.1769,6.9551 L30.1769,14.9551 C30.1769,18.2681 32.8639,20.9551 36.1769,20.9551" id="Stroke-5" stroke-linecap="round"></path>
                <path d="M24.1769,6.9551 L24.1769,14.9551 C24.1769,18.2681 21.4899,20.9551 18.1769,20.9551" id="Stroke-7" stroke-linecap="round"></path>
                <path d="M24.1769,14.9551 L24.1769,14.9191 C24.1769,12.6671 22.7319,10.9821 20.8159,10.9561 C12.9669,10.8511 7.1299,22.4341 6.1849,36.0001 C6.0499,37.9311 7.6379,39.3611 9.2309,38.8511 L19.4079,35.5921 C22.2179,34.6921 24.1769,31.6801 24.1769,28.2591 L24.1769,23.3321" id="Stroke-9"></path>
                <path d="M30.1769,23.3321 L30.1769,28.2591 C30.1769,31.6801 32.1359,34.6921 34.9459,35.5921 L45.1229,38.8521 C46.7159,39.3611 48.3039,37.9311 48.1689,36.0001 C47.2239,22.4341 41.3869,10.8511 33.5379,10.9561 C31.6219,10.9821 30.1769,12.6671 30.1769,14.9191 L30.1769,14.9551" id="Stroke-11"></path>
                <path d="M54.1769,39.9551 C54.1769,41.6121 52.8329,42.9551 51.1769,42.9551 L3.1769,42.9551 C1.5209,42.9551 0.1769,41.6121 0.1769,39.9551 L0.1769,3.9551 C0.1769,2.2981 1.5209,0.9551 3.1769,0.9551 L51.1769,0.9551 C52.8329,0.9551 54.1769,2.2981 54.1769,3.9551 L54.1769,39.9551 Z" id="Stroke-13"></path>
                <path d="M6.1769,4.9551 L14.1769,4.9551" id="Stroke-15" stroke-linecap="round"></path>
                <path d="M6.1769,8.9551 L10.1769,8.9551" id="Stroke-17" stroke-linecap="round"></path>
            </g>
        </g>
    </g>
</svg>