<?xml version="1.0" encoding="UTF-8" standalone="no"?>
<svg width="53px" height="49px" viewBox="0 0 53 49" version="1.1" xmlns="http://www.w3.org/2000/svg" xmlns:xlink="http://www.w3.org/1999/xlink">
    <!-- Generator: Sketch 43.2 (39069) - http://www.bohemiancoding.com/sketch -->
    <title>Stethoscope</title>
    <desc>Created with Sketch.</desc>
    <defs></defs>
    <g id="eHealth-line-icon-06302017" stroke="none" stroke-width="1" fill="none" fill-rule="evenodd" stroke-linejoin="round">
        <g id="eHealth-Healthcare-Icons-2017" transform="translate(-475.000000, -251.000000)" stroke="currentColor" stroke-width="2">
            <g id="Stethoscope" transform="translate(476.000000, 252.000000)">
                <path d="M30.2415,1.1435 L28.2415,1.1435 C27.1375,1.1435 26.2415,2.0395 26.2415,3.1435 L26.2415,17.1435 C26.2415,23.2185 31.1665,28.1435 37.2415,28.1435 L39.2415,28.1435 C45.3165,28.1435 50.2415,23.2185 50.2415,17.1435 L50.2415,3.1435 C50.2415,2.0395 49.3455,1.1435 48.2415,1.1435 L46.2415,1.1435" id="Stroke-15" stroke-linecap="round"></path>
                <path d="M38.2415,28.1435 L38.2415,37.1435 C38.2415,42.1145 34.2125,46.1435 29.2415,46.1435 C24.2705,46.1435 20.2415,42.1145 20.2415,37.1435 L20.2415,15.1435 C20.2415,11.2775 17.1075,8.1435 13.2415,8.1435 C9.3755,8.1435 6.2415,11.2775 6.2415,15.1435 L6.2415,21.1435" id="Stroke-17"></path>
                <path d="M12.2415,27.1435 C12.2415,30.4575 9.5535,33.1435 6.2415,33.1435 C2.9285,33.1435 0.2415,30.4575 0.2415,27.1435 C0.2415,23.8295 2.9285,21.1435 6.2415,21.1435 C9.5535,21.1435 12.2415,23.8295 12.2415,27.1435 Z" id="Stroke-19"></path>
                <path d="M32.2415,1.1435 C32.2415,1.6965 31.7945,2.1435 31.2415,2.1435 C30.6885,2.1435 30.2415,1.6965 30.2415,1.1435 C30.2415,0.5905 30.6885,0.1435 31.2415,0.1435 C31.7945,0.1435 32.2415,0.5905 32.2415,1.1435 Z" id="Stroke-21"></path>
                <path d="M46.2415,1.1435 C46.2415,1.6965 45.7945,2.1435 45.2415,2.1435 C44.6885,2.1435 44.2415,1.6965 44.2415,1.1435 C44.2415,0.5905 44.6885,0.1435 45.2415,0.1435 C45.7945,0.1435 46.2415,0.5905 46.2415,1.1435 Z" id="Stroke-23"></path>
            </g>
        </g>
    </g>
</svg>