<?xml version="1.0" encoding="UTF-8" standalone="no"?>
<svg width="57px" height="41px" viewBox="0 0 57 41" version="1.1" xmlns="http://www.w3.org/2000/svg" xmlns:xlink="http://www.w3.org/1999/xlink">
    <!-- Generator: Sketch 45.2 (43514) - http://www.bohemiancoding.com/sketch -->
    <title>Tablet</title>
    <desc>Created with Sketch.</desc>
    <defs></defs>
    <g id="tablet" stroke="none" stroke-width="1" fill="none" fill-rule="evenodd">
        <g id="tablet" transform="translate(-669.000000, -403.000000)" fill="currentColor">
            <g id="tablet" transform="translate(669.000000, 403.000000)">
                <path d="M54.9722,36.1184 C54.9682,37.2224 54.0752,38.1164 52.9712,38.1194 L4.9722,38.1194 C3.8672,38.1164 2.9732,37.2224 2.9712,36.1184 L2.9712,4.1194 C2.9732,3.0144 3.8672,2.1214 4.9722,2.1184 L52.9712,2.1184 C54.0752,2.1214 54.9682,3.0144 54.9722,4.1194 L54.9722,36.1184 Z M52.9712,0.1194 L4.9722,0.1194 C2.7612,0.1184 0.9722,1.9094 0.9722,4.1194 L0.9722,36.1184 C0.9722,38.3254 2.7612,40.1174 4.9722,40.1194 L4.9722,40.1174 L52.9712,40.1174 C55.1812,40.1174 56.9722,38.3254 56.9722,36.1184 L56.9722,4.1194 C56.9692,1.9094 55.1812,0.1184 52.9712,0.1194 L52.9712,0.1194 Z M52.9722,19.1194 C52.4192,19.1194 51.9712,19.5664 51.9712,20.1184 C51.9712,20.6694 52.4192,21.1174 52.9722,21.1174 C53.5242,21.1174 53.9712,20.6694 53.9712,20.1184 C53.9712,19.5664 53.5242,19.1194 52.9722,19.1194 L52.9722,19.1194 Z M4.9722,17.1194 C4.4182,17.1194 3.9712,17.5654 3.9722,18.1204 L3.9722,22.1194 C3.9712,22.6714 4.4182,23.1204 4.9722,23.1204 C5.5242,23.1204 5.9722,22.6714 5.9722,22.1194 L5.9722,18.1204 C5.9722,17.5654 5.5242,17.1194 4.9722,17.1194 L4.9722,17.1194 Z M8.9692,34.1194 L48.9722,34.1194 L48.9722,6.1164 L8.9692,6.1164 L8.9692,34.1194 Z M49.9712,4.1194 L7.9732,4.1194 C7.7072,4.1194 7.4512,4.2244 7.2642,4.4114 C7.0772,4.5974 6.9722,4.8544 6.9722,5.1194 L6.9722,35.1184 C6.9722,35.3864 7.0762,35.6384 7.2642,35.8264 C7.4522,36.0154 7.7032,36.1164 7.9732,36.1164 L49.9712,36.1164 C50.2382,36.1164 50.4892,36.0154 50.6792,35.8264 C50.8682,35.6364 50.9712,35.3864 50.9712,35.1184 L50.9712,5.1194 C50.9712,4.8494 50.8682,4.5994 50.6792,4.4114 C50.4912,4.2224 50.2382,4.1194 49.9712,4.1194 L49.9712,4.1194 Z" id="Fill-12"></path>
            </g>
        </g>
    </g>
</svg>