<?xml version="1.0" encoding="UTF-8" standalone="no"?>
<svg width="53px" height="53px" viewBox="0 0 53 53" version="1.1" xmlns="http://www.w3.org/2000/svg" xmlns:xlink="http://www.w3.org/1999/xlink">
    <!-- Generator: Sketch 45.2 (43514) - http://www.bohemiancoding.com/sketch -->
    <title>Recommended-Tag</title>
    <desc>Created with Sketch.</desc>
    <defs></defs>
    <g id="recommended-tag" stroke="none" stroke-width="1" fill="none" fill-rule="evenodd" stroke-linejoin="round">
        <g id="recommended-tag" transform="translate(-671.000000, -245.000000)" stroke="currentColor" stroke-width="2">
            <g id="recommended-tag" transform="translate(672.000000, 246.000000)">
                <polygon id="Stroke-11" points="21.1729 50.4878 0.1729 29.4878 23.1729 6.4878 44.1729 6.4878 44.1729 27.4878"></polygon>
                <polygon id="Stroke-13" points="25.2452 30.2114 32.1732 31.0394 27.3782 26.2444 30.6032 20.0564 24.4152 23.2834 19.6202 18.4874 20.4482 25.4164 14.1732 28.7314 21.0152 29.6464 21.9312 36.4874"></polygon>
                <path d="M38.1729,12.4878 L50.1729,0.4878" id="Stroke-15" stroke-linecap="round"></path>
                <path d="M40.1729,13.4878 C40.1729,15.1448 38.8289,16.4878 37.1729,16.4878 C35.5169,16.4878 34.1729,15.1448 34.1729,13.4878 C34.1729,11.8308 35.5169,10.4878 37.1729,10.4878 C38.8289,10.4878 40.1729,11.8308 40.1729,13.4878 Z" id="Stroke-17"></path>
            </g>
        </g>
    </g>
</svg>