<?xml version="1.0" encoding="UTF-8" standalone="no"?>
<svg width="53px" height="52px" viewBox="0 0 53 52" version="1.1" xmlns="http://www.w3.org/2000/svg" xmlns:xlink="http://www.w3.org/1999/xlink">
    <!-- Generator: Sketch 45.2 (43514) - http://www.bohemiancoding.com/sketch -->
    <title>Thumb up</title>
    <desc>Created with Sketch.</desc>
    <defs></defs>
    <g id="thumb-up" stroke="none" stroke-width="1" fill="none" fill-rule="evenodd">
        <g id="thumb-up" transform="translate(-476.000000, -245.000000)" fill="currentColor">
            <g id="thumb-up" transform="translate(476.000000, 245.000000)">
                <path d="M47.8272,34.0005 L44.8272,34.0005 C44.2752,34.0005 43.8272,34.4475 43.8272,35.0005 C43.8272,35.5525 44.2752,36.0005 44.8272,36.0005 L45.8272,36.0005 C47.4812,36.0005 48.8272,37.3465 48.8272,39.0005 C48.8272,40.6545 47.4812,42.0005 45.8272,42.0005 L41.8272,42.0005 C41.2752,42.0005 40.8272,42.4475 40.8272,43.0005 C40.8272,43.5525 41.2752,44.0005 41.8272,44.0005 C43.4812,44.0005 44.8272,45.3465 44.8272,47.0005 C44.8272,48.6545 43.4812,50.0005 41.8272,50.0005 L19.8272,50.0005 C18.1732,50.0005 16.8272,48.6545 16.8272,47.0005 L16.8272,23.2835 L24.6802,10.5245 C24.7752,10.3665 24.8272,10.1855 24.8272,10.0005 L24.8272,2.0005 L25.8272,2.0005 C28.5842,2.0005 30.8272,4.2435 30.8272,7.0005 L30.8272,19.0005 C30.8272,19.5525 31.2752,20.0005 31.8272,19.9985 L47.8272,19.9985 C49.4812,20.0005 50.8272,21.3465 50.8272,23.0005 C50.8272,24.6545 49.4812,26.0005 47.8272,26.0005 L45.8272,26.0005 C45.2752,26.0005 44.8272,26.4475 44.8272,27.0005 C44.8272,27.5525 45.2752,28.0005 45.8272,28.0005 L47.8272,28.0005 C49.4812,28.0005 50.8272,29.3465 50.8272,31.0005 C50.8272,32.6545 49.4812,34.0005 47.8272,34.0005 M50.7972,27.0005 C52.0212,26.0885 52.8272,24.6425 52.8272,23.0005 C52.8272,20.2435 50.5842,18.0005 47.8272,18.0005 L32.8272,18.0005 L32.8272,7.0005 C32.8272,3.1415 29.6862,0.0005 25.8272,0.0005 L23.8272,0.0005 C23.2752,0.0005 22.8272,0.4475 22.8272,1.0005 L22.8272,9.7175 L15.2682,22.0005 L1.8272,22.0005 C1.2752,22.0005 0.8272,22.4475 0.8272,23.0005 C0.8272,23.5525 1.2752,24.0005 1.8272,23.9985 L14.8272,23.9985 L14.8272,50.0005 L1.8272,50.0005 C1.2752,50.0005 0.8272,50.4475 0.8272,51.0005 C0.8272,51.5525 1.2752,52.0005 1.8272,52.0005 L15.8272,52.0005 C16.3802,52.0005 16.8272,51.5525 16.8272,51.0005 L16.8272,50.9755 C17.6652,51.6095 18.6972,52.0005 19.8272,52.0005 L41.8272,52.0005 C44.5842,52.0005 46.8272,49.7565 46.8272,47.0005 C46.8272,45.8705 46.4362,44.8385 45.8022,44.0005 L45.8272,44.0005 C48.5842,44.0005 50.8272,41.7565 50.8272,39.0005 C50.8272,37.7215 50.3302,36.5645 49.5382,35.6805 C51.4502,34.9775 52.8272,33.1535 52.8272,31.0005 C52.8272,29.3585 52.0212,27.9125 50.7972,27.0005" id="Fill-9"></path>
            </g>
        </g>
    </g>
</svg>