<?xml version="1.0" encoding="UTF-8" standalone="no"?>
<svg width="50px" height="50px" viewBox="0 0 50 50" version="1.1" xmlns="http://www.w3.org/2000/svg" xmlns:xlink="http://www.w3.org/1999/xlink">
    <!-- Generator: Sketch 45.2 (43514) - http://www.bohemiancoding.com/sketch -->
    <title>24 Hour</title>
    <desc>Created with Sketch.</desc>
    <defs></defs>
    <g id="twenty-four-hour" stroke="none" stroke-width="1" fill="none" fill-rule="evenodd" stroke-linecap="round" stroke-linejoin="round">
        <g id="twenty-four-hour" transform="translate(-1063.000000, -250.000000)" stroke="currentColor" stroke-width="2">
            <g id="twenty-four-hour" transform="translate(1064.000000, 251.000000)">
                <polyline id="Stroke-21" points="37.5653 10.4348 43.8263 10.4348 43.8263 4.1738"></polyline>
                <polyline id="Stroke-22" points="10.4344 37.5652 4.1734 37.5652 4.1734 43.8262"></polyline>
                <path d="M22.9569,33.3914 L14.6079,33.3914 L14.6079,32.3484 C14.6079,30.4054 15.6149,28.5874 17.2639,27.5584 C18.0219,27.0834 19.5429,26.1344 20.3019,25.6594 C21.9499,24.6294 22.9569,22.8114 22.9569,20.8694 L22.9569,18.7824 C22.9569,16.4774 21.0879,14.6084 18.7829,14.6084 C16.4779,14.6084 14.6079,16.4774 14.6079,18.7824" id="Stroke-23"></path>
                <polyline id="Stroke-24" points="37.5653 27.1306 25.0443 27.1306 33.3913 14.6086 33.3913 33.3916"></polyline>
                <path d="M46.0916,14.6087 C47.3196,17.4937 47.9996,20.6667 47.9996,24.0007 C47.9996,37.2537 37.2536,48.0007 23.9996,48.0007 C15.7796,48.0007 8.5286,43.8647 4.2046,37.5657" id="Stroke-25"></path>
                <path d="M1.909,33.3914 C0.68,30.5064 0,27.3334 0,24.0004 C0,10.7464 10.747,0.0004 24,0.0004 C32.22,0.0004 39.471,4.1354 43.796,10.4344" id="Stroke-26"></path>
            </g>
        </g>
    </g>
</svg>