<?xml version="1.0" encoding="UTF-8" standalone="no"?>
<svg width="25px" height="22px" viewBox="0 0 25 22" version="1.1" xmlns="http://www.w3.org/2000/svg" xmlns:xlink="http://www.w3.org/1999/xlink">
    <!-- Generator: Sketch 45.2 (43514) - http://www.bohemiancoding.com/sketch -->
    <title>Twitter</title>
    <desc>Created with Sketch.</desc>
    <defs></defs>
    <g id="twitter" stroke="none" stroke-width="1" fill="none" fill-rule="evenodd">
        <g id="twitter" transform="translate(-296.000000, -878.000000)" stroke="currentColor">
            <g id="twitter" transform="translate(296.000000, 879.000000)">
                <path d="M7.5049,15.32875 C4.9424,15.23925 3.3409,13.39925 2.9169,11.90525 C3.6299,12.04225 4.3319,12.01525 5.0309,11.84325 C5.0494,11.83925 5.0669,11.82675 5.1019,11.81025 C3.7139,11.48675 2.6424,10.74525 1.8984,9.54725 C1.4054,8.75175 1.1689,7.88125 1.1764,6.92625 C1.8694,7.29475 2.5939,7.50225 3.3704,7.52275 C2.3279,6.77075 1.6269,5.78825 1.3409,4.53075 C1.0569,3.27675 1.2404,2.08525 1.8704,0.96025 C4.5404,4.10375 7.9189,5.82975 12.0404,6.11375 C12.0129,5.91675 11.9819,5.74675 11.9619,5.57275 C11.8244,4.41225 12.0554,3.33075 12.6829,2.34875 C13.4664,1.11775 14.5874,0.35325 16.0264,0.11925 C17.6849,-0.15225 19.1329,0.31975 20.3439,1.49525 C20.4249,1.57375 20.4924,1.59875 20.6059,1.57375 C21.6194,1.35175 22.5759,0.98725 23.4749,0.46925 C23.4954,0.45675 23.5174,0.44625 23.5399,0.43625 C23.5444,0.43375 23.5529,0.43375 23.5724,0.43375 C23.1824,1.57975 22.4724,2.46475 21.4609,3.11725 C22.4159,3.01175 23.3279,2.75875 24.2074,2.37775 C24.2149,2.38575 24.2209,2.39425 24.2269,2.40075 C24.0384,2.64725 23.8564,2.89975 23.6609,3.14025 C23.1374,3.78475 22.5359,4.35225 21.8679,4.84325 C21.8109,4.88525 21.7844,4.92425 21.7859,4.99875 C21.8129,5.73025 21.7854,6.46175 21.6949,7.18725 C21.5044,8.72075 21.0779,10.18125 20.4239,11.57825 C19.7479,13.02025 18.8679,14.32125 17.7579,15.46525 C15.8794,17.40675 13.6169,18.66075 10.9809,19.24325 C10.0774,19.44225 9.1609,19.54175 8.2339,19.56825 C5.3909,19.65125 2.7614,18.94425 0.3434,17.45025 C0.3119,17.43175 0.2814,17.41125 0.2269,17.37625 C1.9484,17.56075 3.5849,17.34075 5.1604,16.69625 C5.9959,16.35225 6.7709,15.90225 7.5049,15.32875 Z" id="Stroke-5"></path>
            </g>
        </g>
    </g>
</svg>