<?xml version="1.0" encoding="UTF-8" standalone="no"?>
<svg width="48px" height="48px" viewBox="0 0 48 48" version="1.1" xmlns="http://www.w3.org/2000/svg" xmlns:xlink="http://www.w3.org/1999/xlink">
    <!-- Generator: Sketch 45.2 (43514) - http://www.bohemiancoding.com/sketch -->
    <title>Twitter Circle</title>
    <desc>Created with Sketch.</desc>
    <defs></defs>
    <g id="twitter-circle" stroke="none" stroke-width="1" fill="none" fill-rule="evenodd">
        <g id="twitter-circle" transform="translate(-283.000000, -702.000000)" fill="currentColor">
            <g id="twitter-circle" transform="translate(283.000000, 702.000000)">
                <path d="M19.5262,29.177 C17.1122,29.093 15.6022,27.359 15.2022,25.951 C15.8742,26.081 16.5362,26.055 17.1942,25.891 C17.2122,25.889 17.2302,25.877 17.2622,25.861 C15.9542,25.557 14.9442,24.859 14.2422,23.727 C13.7782,22.977 13.5562,22.159 13.5622,21.259 C14.2162,21.607 14.8982,21.801 15.6302,21.819 C14.6482,21.111 13.9862,20.185 13.7182,19.001 C13.4502,17.817 13.6222,16.695 14.2162,15.635 C16.7342,18.599 19.9162,20.225 23.8022,20.493 C23.7762,20.307 23.7462,20.147 23.7282,19.983 C23.5982,18.889 23.8162,17.869 24.4062,16.943 C25.1462,15.785 26.2022,15.063 27.5602,14.843 C29.1222,14.585 30.4862,15.033 31.6282,16.139 C31.7042,16.215 31.7682,16.235 31.8762,16.215 C32.8302,16.003 33.7322,15.659 34.5782,15.173 C34.5982,15.159 34.6202,15.151 34.6422,15.141 C34.6462,15.139 34.6522,15.139 34.6702,15.139 C34.3042,16.219 33.6342,17.053 32.6802,17.667 C33.5802,17.567 34.4402,17.331 35.2702,16.971 C35.2762,16.977 35.2822,16.985 35.2882,16.993 C35.1102,17.225 34.9382,17.465 34.7542,17.691 C34.2602,18.299 33.6942,18.833 33.0662,19.295 C33.0102,19.335 32.9842,19.373 32.9862,19.443 C33.0122,20.133 32.9862,20.819 32.9002,21.503 C32.7222,22.951 32.3182,24.325 31.7042,25.641 C31.0682,27.001 30.2362,28.227 29.1902,29.307 C27.4202,31.135 25.2882,32.317 22.8042,32.869 C21.9522,33.055 21.0862,33.149 20.2142,33.175 C17.5342,33.251 15.0562,32.585 12.7762,31.177 C12.7462,31.159 12.7182,31.141 12.6662,31.109 C14.2902,31.283 15.8322,31.075 17.3182,30.469 C18.1042,30.141 18.8342,29.719 19.5262,29.177" id="Fill-4"></path>
                <path d="M23.9774,2.1594 C14.5254,2.1594 6.1494,8.2454 3.2294,17.2334 C0.3094,26.2214 3.5094,36.0694 11.1554,41.6234 C18.8014,47.1814 29.1554,47.1814 36.8014,41.6234 C44.4474,36.0694 47.6474,26.2214 44.7254,17.2334 C41.8054,8.2454 33.4294,2.1594 23.9774,2.1594 M46.7794,16.5654 C49.9914,26.4454 46.4734,37.2674 38.0714,43.3714 C29.6674,49.4774 18.2874,49.4774 9.8854,43.3714 C1.4814,37.2674 -2.0346,26.4454 1.1754,16.5654 C4.3854,6.6874 13.5914,-0.0006 23.9774,-0.0006 C34.3634,-0.0006 43.5714,6.6874 46.7794,16.5654" id="Fill-1"></path>
            </g>
        </g>
    </g>
</svg>