<?xml version="1.0" encoding="UTF-8" standalone="no"?>
<svg width="61px" height="51px" viewBox="0 0 61 51" version="1.1" xmlns="http://www.w3.org/2000/svg" xmlns:xlink="http://www.w3.org/1999/xlink">
    <!-- Generator: Sketch 45.2 (43514) - http://www.bohemiancoding.com/sketch -->
    <title>Unbiased</title>
    <desc>Created with Sketch.</desc>
    <defs>
        <polygon id="path-1" points="60.6567 0.695 0.6567 0.695 0.6567 50.6945 60.6567 50.6945 60.6567 0.695"></polygon>
    </defs>
    <g id="unbiased" stroke="none" stroke-width="1" fill="none" fill-rule="evenodd">
        <g id="unbiased" transform="translate(-667.000000, -699.000000)">
            <g id="unbiased" transform="translate(667.000000, 699.000000)">
                <mask id="mask-2" fill="white">
                    <use xlink:href="#path-1"></use>
                </mask>
                <g id="Clip-11"></g>
                <path d="M47.6567,42.6945 C42.0067,42.6945 37.3367,39.1845 36.7257,34.6945 L58.5867,34.6945 C57.9757,39.1845 53.3057,42.6945 47.6567,42.6945 L47.6567,42.6945 Z M47.6567,10.0855 L58.0957,32.6945 L37.2167,32.6945 L47.6567,10.0855 Z M36.3457,48.6945 L24.9467,48.6945 L30.6467,44.8945 L36.3457,48.6945 Z M24.0957,32.6945 L3.2167,32.6945 L13.6567,10.0855 L24.0957,32.6945 Z M13.6567,42.6945 C8.0067,42.6945 3.3367,39.1845 2.7257,34.6945 L24.5867,34.6945 C23.9757,39.1845 19.3057,42.6945 13.6567,42.6945 L13.6567,42.6945 Z M60.6167,33.4745 C60.5957,33.4155 60.5957,33.3445 60.5667,33.2955 L60.5667,33.2745 L48.5667,7.2745 C48.5157,7.1745 48.4567,7.0855 48.3767,7.0145 C48.3567,6.9845 48.3367,6.9745 48.3167,6.9555 C48.2467,6.8945 48.1767,6.8445 48.0957,6.8045 C48.0667,6.7955 48.0367,6.7745 48.0067,6.7645 C47.8967,6.7245 47.7767,6.6945 47.6567,6.6945 L31.6467,6.6945 L31.6467,4.6945 L31.6567,4.6945 L31.6567,1.6945 C31.6567,1.1445 31.2067,0.6945 30.6567,0.6945 C30.1067,0.6945 29.6567,1.1445 29.6567,1.6945 L29.6567,3.5945 C29.6467,3.6255 29.6467,3.6655 29.6467,3.6945 L29.6467,6.6945 L13.6567,6.6945 C13.5367,6.6945 13.4167,6.7245 13.3057,6.7645 C13.2767,6.7745 13.2467,6.7955 13.2167,6.8045 C13.1357,6.8445 13.0667,6.8945 12.9967,6.9555 C12.9757,6.9745 12.9567,6.9845 12.9367,7.0145 C12.8567,7.0855 12.7967,7.1745 12.7467,7.2745 L0.7467,33.2745 L0.7467,33.2955 C0.7167,33.3445 0.7167,33.4155 0.6967,33.4745 C0.6867,33.5455 0.6567,33.6155 0.6567,33.6845 L0.6567,33.6945 C0.6567,39.7645 6.4867,44.6945 13.6567,44.6945 C20.8267,44.6945 26.6567,39.7645 26.6567,33.6945 L26.6567,33.6845 C26.6567,33.6155 26.6267,33.5455 26.6167,33.4745 C26.5957,33.4155 26.5957,33.3445 26.5667,33.2955 L26.5667,33.2745 L15.2167,8.6945 L29.6467,8.6945 L29.6467,43.1545 L21.0957,48.8655 C20.7257,49.1045 20.5667,49.5645 20.6867,49.9845 C20.8167,50.4045 21.2067,50.6945 21.6467,50.6945 L39.6467,50.6945 L39.6667,50.6945 C40.2167,50.6945 40.6667,50.2455 40.6667,49.6945 C40.6667,49.2955 40.4267,48.9445 40.0867,48.7855 L31.6467,43.1545 L31.6467,8.6945 L46.0957,8.6945 L34.7467,33.2745 L34.7467,33.2955 C34.7167,33.3445 34.7167,33.4155 34.6967,33.4745 C34.6867,33.5455 34.6567,33.6155 34.6567,33.6845 L34.6567,33.6945 C34.6567,39.7645 40.4867,44.6945 47.6567,44.6945 C54.8267,44.6945 60.6567,39.7645 60.6567,33.6945 L60.6567,33.6845 C60.6567,33.6155 60.6267,33.5455 60.6167,33.4745 L60.6167,33.4745 Z" id="Fill-10" fill="currentColor" mask="url(#mask-2)"></path>
            </g>
        </g>
    </g>
</svg>