<?xml version="1.0" encoding="UTF-8" standalone="no"?>
<svg width="50px" height="42px" viewBox="0 0 50 42" version="1.1" xmlns="http://www.w3.org/2000/svg" xmlns:xlink="http://www.w3.org/1999/xlink">
    <!-- Generator: Sketch 45.2 (43514) - http://www.bohemiancoding.com/sketch -->
    <title>Warning</title>
    <desc>Created with Sketch.</desc>
    <defs></defs>
    <g id="warning" stroke="none" stroke-width="1" fill="none" fill-rule="evenodd" stroke-linecap="round" stroke-linejoin="round">
        <g id="warning" transform="translate(-87.000000, -254.000000)" stroke="currentColor" stroke-width="2">
            <g id="warning" transform="translate(88.000000, 255.000000)">
                <path d="M24.0002,10.5684 L24.0002,27.5994" id="Stroke-19"></path>
                <path d="M24.0002,31.4707 L24.0002,34.5677" id="Stroke-21"></path>
                <path d="M48.0002,37.7168 C48.0002,38.9588 47.0032,39.9658 45.7712,39.9778 L45.7712,39.9998 L2.2712,39.9998 L2.2712,39.9778 C2.2642,39.9778 2.2572,39.9798 2.2502,39.9798 C1.0072,39.9798 0.0002,38.9658 0.0002,37.7168 C0.0002,37.2598 0.1372,36.8368 0.3682,36.4818 L0.3552,36.4738 L22.1052,1.0208 L22.1182,1.0278 C22.5202,0.4098 23.2112,-0.0002 24.0002,-0.0002 C24.8192,-0.0002 25.5292,0.4458 25.9232,1.1038 L25.9362,1.0958 L47.6862,36.5488 L47.6732,36.5568 C47.8762,36.8968 48.0002,37.2908 48.0002,37.7168 Z" id="Stroke-70"></path>
            </g>
        </g>
    </g>
</svg>