<?xml version="1.0" encoding="UTF-8" standalone="no"?>
<svg width="50px" height="43px" viewBox="0 0 50 43" version="1.1" xmlns="http://www.w3.org/2000/svg" xmlns:xlink="http://www.w3.org/1999/xlink">
    <!-- Generator: Sketch 45.2 (43514) - http://www.bohemiancoding.com/sketch -->
    <title>Warning-bold</title>
    <desc>Created with Sketch.</desc>
    <defs></defs>
    <g id="warning-bold" stroke="none" stroke-width="1" fill="none" fill-rule="evenodd">
        <g id="warning-bold" transform="translate(-87.000000, -403.000000)">
            <g id="warning-bold" transform="translate(88.000000, 404.000000)">
                <path d="M48.0002,38.4033 C48.0002,39.6463 47.0032,40.6533 45.7712,40.6653 L45.7712,40.6873 L2.2712,40.6873 L2.2712,40.6653 C2.2642,40.6653 2.2572,40.6673 2.2502,40.6673 C1.0072,40.6673 0.0002,39.6533 0.0002,38.4033 C0.0002,37.9473 0.1372,37.5233 0.3682,37.1683 L0.3552,37.1603 L22.1052,1.7073 L22.1182,1.7153 C22.5202,1.0963 23.2112,0.6873 24.0002,0.6873 C24.8192,0.6873 25.5292,1.1323 25.9232,1.7913 L25.9362,1.7823 L47.6862,37.2363 L47.6732,37.2443 C47.8762,37.5843 48.0002,37.9773 48.0002,38.4033 Z" id="Stroke-39" stroke="currentColor" stroke-width="2" stroke-linecap="round" stroke-linejoin="round"></path>
                <path d="M26.8234,32.2637 C26.8234,33.8247 25.5594,35.0867 24.0004,35.0867 C22.4394,35.0867 21.1764,33.8247 21.1764,32.2637 C21.1764,30.7037 22.4394,29.4407 24.0004,29.4407 C25.5594,29.4407 26.8234,30.7037 26.8234,32.2637" id="Fill-41" fill="currentColor"></path>
                <path d="M26.8234,13.9111 L26.8234,24.4991 C26.8234,26.0581 25.5594,27.3221 24.0004,27.3221 C22.4394,27.3221 21.1764,26.0581 21.1764,24.4991 L21.1764,13.9111 C21.1764,12.3501 22.4394,11.0871 24.0004,11.0871 C25.5594,11.0871 26.8234,12.3501 26.8234,13.9111" id="Fill-43" fill="currentColor"></path>
            </g>
        </g>
    </g>
</svg>