<?xml version="1.0" encoding="UTF-8" standalone="no"?>
<svg width="48px" height="41px" viewBox="0 0 48 41" version="1.1" xmlns="http://www.w3.org/2000/svg" xmlns:xlink="http://www.w3.org/1999/xlink">
    <!-- Generator: Sketch 45.2 (43514) - http://www.bohemiancoding.com/sketch -->
    <title>Warning-filled</title>
    <desc>Created with Sketch.</desc>
    <defs></defs>
    <g id="warning-filled" stroke="none" stroke-width="1" fill="none" fill-rule="evenodd">
        <g id="warning-filled" transform="translate(-88.000000, -548.000000)" fill="currentColor">
            <g id="warning-filled" transform="translate(88.000000, 548.000000)">
                <path d="M26.8303,23.8311 C26.8303,25.3911 25.5593,26.6511 24.0003,26.6511 C22.4393,26.6511 21.1803,25.3911 21.1803,23.8311 L21.1803,13.2411 C21.1803,11.6811 22.4393,10.4111 24.0003,10.4111 C25.5593,10.4111 26.8303,11.6811 26.8303,13.2411 L26.8303,23.8311 Z M24.0003,34.4111 C22.4393,34.4111 21.1803,33.1511 21.1803,31.5911 C21.1803,30.0311 22.4393,28.7711 24.0003,28.7711 C25.5593,28.7711 26.8303,30.0311 26.8303,31.5911 C26.8303,33.1511 25.5593,34.4111 24.0003,34.4111 L24.0003,34.4111 Z M47.6703,36.5711 L47.6893,36.5611 L25.9393,1.1111 L25.9203,1.1211 C25.5303,0.4611 24.8193,0.0111 24.0003,0.0111 C23.2103,0.0111 22.5193,0.4211 22.1203,1.0411 L22.1093,1.0311 L0.3593,36.4911 L0.3703,36.4911 C0.1403,36.8511 0.0003,37.2711 0.0003,37.7311 C0.0003,38.9811 1.0103,39.9911 2.2503,39.9911 L2.2693,39.9911 L2.2693,40.0111 L45.7693,40.0111 L45.7693,39.9911 C47.0103,39.9811 48.0003,38.9711 48.0003,37.7311 C48.0003,37.3011 47.8803,36.9111 47.6703,36.5711 L47.6703,36.5711 Z" id="Fill-37"></path>
            </g>
        </g>
    </g>
</svg>