<?xml version="1.0" encoding="UTF-8" standalone="no"?>
<svg width="42px" height="52px" viewBox="0 0 42 52" version="1.1" xmlns="http://www.w3.org/2000/svg" xmlns:xlink="http://www.w3.org/1999/xlink">
    <!-- Generator: Sketch 45.2 (43514) - http://www.bohemiancoding.com/sketch -->
    <title>Watch</title>
    <desc>Created with Sketch.</desc>
    <defs></defs>
    <g id="watch" stroke="none" stroke-width="1" fill="none" fill-rule="evenodd">
        <g id="watch" transform="translate(-1069.000000, -398.000000)" fill="currentColor">
            <g id="watch" transform="translate(1069.000000, 398.000000)">
                <path d="M38,38 C38,39.101 37.11,40 36,40 L10,40 C8.9,40 8,39.101 8,38 L8,14 C8,12.9 8.9,12 10,12 L36,12 C37.11,12 38,12.9 38,14 L38,38 Z M33,43 L33,45 C33,47.761 30.76,50 28,50 L12.89,50 C14.19,48.73 15,46.96 15,45 L15,43 C15,42.65 14.93,42.311 14.82,42 L33.19,42 C33.08,42.311 33,42.65 33,43 L33,43 Z M8,50 L7,50 C4.25,50 2,47.761 2,45 L2,35.971 C2.84,36.61 3.87,37 5,37 L6,37 L6,38 C6,40.21 7.8,42 10,42 L12,42 C12.55,42 13,42.45 13,43 L13,45 C13,47.761 10.76,50 8,50 L8,50 Z M2,7 C2,4.24 4.25,2 7,2 L8,2 C10.76,2 13,4.24 13,7 L13,9 C13,9.55 12.55,10 12,10 L10,10 C7.8,10 6,11.79 6,14 L6,35 L5,35 C3.35,35 2,33.65 2,32 L2,7 Z M28,2 C30.76,2 33,4.24 33,7 L33,9 C33,9.351 33.08,9.681 33.19,10 L14.82,10 C14.93,9.681 15,9.351 15,9 L15,7 C15,5.04 14.19,3.271 12.89,2 L28,2 Z M40,22 L40,14 C40,11.79 38.21,10 36,10 C35.45,10 35,9.55 35,9 L35,7 C35,3.141 31.86,0 28,0 L7,0 C3.14,0 0,3.141 0,7 L0,45 C0,48.86 3.14,52 7,52 L28,52 C31.86,52 35,48.86 35,45 L35,43 C35,42.45 35.45,42 36,42 C38.21,42 40,40.21 40,38 L40,30 C41.11,30 42,29.101 42,28 L42,24 C42,22.9 41.11,22 40,22 L40,22 Z" id="Fill-1"></path>
            </g>
        </g>
    </g>
</svg>