<?xml version="1.0" encoding="UTF-8" standalone="no"?>
<svg width="61px" height="45px" viewBox="0 0 61 45" version="1.1" xmlns="http://www.w3.org/2000/svg" xmlns:xlink="http://www.w3.org/1999/xlink">
    <!-- Generator: Sketch 45.2 (43514) - http://www.bohemiancoding.com/sketch -->
    <title>Wifi</title>
    <desc>Created with Sketch.</desc>
    <defs></defs>
    <g id="wifi" stroke="none" stroke-width="1" fill="none" fill-rule="evenodd">
        <g id="wifi" transform="translate(-764.000000, -855.000000)" fill="currentColor">
            <g id="wifi" transform="translate(764.000000, 855.000000)">
                <path d="M52.334,19.4012 C46.265,13.9422 38.474,10.9472 30.282,10.9472 C22.091,10.9472 14.3,13.9422 8.23,19.4012 L2.704,13.6132 C10.264,6.7272 20.017,2.9472 30.282,2.9472 C40.548,2.9472 50.301,6.7272 57.86,13.6132 L52.334,19.4012 Z M59.974,12.8492 C51.943,5.1742 41.398,0.9472 30.282,0.9472 C19.166,0.9472 8.621,5.1742 0.591,12.8492 C0.192,13.2312 0.178,13.8632 0.559,14.2622 L7.464,21.4952 C7.647,21.6872 7.899,21.7982 8.164,21.8042 C8.416,21.8112 8.686,21.7112 8.878,21.5272 C14.673,15.9942 22.274,12.9472 30.282,12.9472 C38.29,12.9472 45.892,15.9942 51.687,21.5272 C51.873,21.7052 52.12,21.8042 52.377,21.8042 L52.4,21.8042 C52.665,21.7982 52.917,21.6872 53.101,21.4952 L60.006,14.2622 C60.387,13.8632 60.372,13.2312 59.974,12.8492 L59.974,12.8492 Z M41.271,30.9902 C38.195,28.3762 34.331,26.9472 30.282,26.9472 C26.233,26.9472 22.369,28.3762 19.294,30.9902 L13.758,25.1912 C18.33,21.1572 24.158,18.9472 30.282,18.9472 C36.406,18.9472 42.234,21.1572 46.807,25.1912 L41.271,30.9902 Z M30.282,16.9472 C23.308,16.9472 16.688,19.6012 11.641,24.4212 C11.241,24.8022 11.227,25.4352 11.607,25.8352 L18.518,33.0732 C18.701,33.2662 18.953,33.3772 19.218,33.3832 C19.481,33.3892 19.739,33.2892 19.932,33.1072 C22.741,30.4242 26.417,28.9472 30.282,28.9472 C34.147,28.9472 37.823,30.4242 40.633,33.1072 C40.819,33.2842 41.066,33.3832 41.323,33.3832 L41.347,33.3832 C41.611,33.3772 41.863,33.2662 42.047,33.0732 L48.957,25.8352 C49.338,25.4352 49.323,24.8022 48.924,24.4212 C43.877,19.6012 37.257,16.9472 30.282,16.9472 L30.282,16.9472 Z M30.282,42.4982 L24.14,36.0662 C25.894,34.6932 28.04,33.9462 30.282,33.9462 C32.524,33.9462 34.671,34.6932 36.425,36.0662 L30.282,42.4982 Z M30.282,31.9462 C27.189,31.9462 24.249,33.1282 22.002,35.2752 C21.603,35.6552 21.588,36.2882 21.969,36.6882 L29.559,44.6372 C29.748,44.8352 30.009,44.9462 30.282,44.9462 C30.556,44.9462 30.816,44.8352 31.006,44.6372 L38.596,36.6882 C38.977,36.2882 38.962,35.6552 38.563,35.2752 C36.315,33.1282 33.375,31.9462 30.282,31.9462 L30.282,31.9462 Z" id="Fill-1"></path>
            </g>
        </g>
    </g>
</svg>