<?xml version="1.0" encoding="UTF-8" standalone="no"?>
<svg width="48px" height="48px" viewBox="0 0 48 48" version="1.1" xmlns="http://www.w3.org/2000/svg" xmlns:xlink="http://www.w3.org/1999/xlink">
    <!-- Generator: Sketch 45.2 (43514) - http://www.bohemiancoding.com/sketch -->
    <title>Youtube Circle</title>
    <desc>Created with Sketch.</desc>
    <defs>
        <path d="M1.175,16.567 C4.385,6.688 13.591,0.001 23.977,0.001 C34.363,0.001 43.571,6.688 46.78,16.567 C49.991,26.448 46.473,37.268 38.071,43.373 C29.667,49.479 18.287,49.479 9.885,43.373 C1.482,37.268 -2.035,26.448 1.175,16.567 Z M11.155,41.625 C14.977,44.404 19.477,45.793 23.977,45.793 C28.477,45.793 32.977,44.404 36.8,41.625 C44.448,36.071 47.647,26.223 44.726,17.235 C41.805,8.247 33.429,2.161 23.977,2.161 C14.526,2.161 6.149,8.247 3.23,17.235 C0.31,26.223 3.509,36.071 11.155,41.625 Z" id="path-1"></path>
    </defs>
    <g id="youtube-circle" stroke="none" stroke-width="1" fill="none" fill-rule="evenodd">
        <g id="youtube-circle" transform="translate(-869.000000, -702.000000)">
            <g id="youtube-circle" transform="translate(869.000000, 702.000000)">
                <path d="M21.2941,27.3485 L21.2921,20.0435 L28.3171,23.7085 L21.2941,27.3485 Z M36.7181,18.7785 C36.7181,18.7785 36.4641,16.9865 35.6851,16.1975 C34.6951,15.1615 33.5871,15.1575 33.0791,15.0965 C29.4401,14.8325 23.9831,14.8325 23.9831,14.8325 L23.9721,14.8325 C23.9721,14.8325 18.5151,14.8325 14.8761,15.0965 C14.3681,15.1575 13.2601,15.1615 12.2711,16.1975 C11.4911,16.9865 11.2371,18.7785 11.2371,18.7785 C11.2371,18.7785 10.9781,20.8815 10.9781,22.9865 L10.9781,24.9585 C10.9781,27.0625 11.2371,29.1665 11.2371,29.1665 C11.2371,29.1665 11.4911,30.9575 12.2711,31.7465 C13.2601,32.7835 14.5601,32.7495 15.1381,32.8585 C17.2181,33.0585 23.9781,33.1195 23.9781,33.1195 C23.9781,33.1195 29.4401,33.1125 33.0791,32.8485 C33.5871,32.7875 34.6951,32.7835 35.6851,31.7465 C36.4641,30.9575 36.7181,29.1665 36.7181,29.1665 C36.7181,29.1665 36.9781,27.0625 36.9781,24.9585 L36.9781,22.9865 C36.9781,20.8815 36.7181,18.7785 36.7181,18.7785 L36.7181,18.7785 Z" id="Fill-1" fill="currentColor"></path>
                <g id="Group-5">
                    <mask id="mask-2" fill="white">
                        <use xlink:href="#path-1"></use>
                    </mask>
                    <g id="Clip-4"></g>
                    <polygon id="Fill-3" fill="currentColor" mask="url(#mask-2)" points="-5 52.952 52.955 52.952 52.955 -4.999 -5 -4.999"></polygon>
                </g>
            </g>
        </g>
    </g>
</svg>